<?xml version="1.0" encoding="UTF-8" standalone="no"?>
<svg
   height="600px"
   version="1.1"
   viewBox="-45.5364978077184 -45.536497807718405 91.0729956154368 91.07299561543682"
   width="600px"
   id="svg13"
   sodipodi:docname="cir_seasonal-US-Myb_rere_21_15_100_12_0_0.8_bezier_simple.svg"
   inkscape:version="1.1.1 (c3084ef, 2021-09-22)"
   xmlns:inkscape="http://www.inkscape.org/namespaces/inkscape"
   xmlns:sodipodi="http://sodipodi.sourceforge.net/DTD/sodipodi-0.dtd"
   xmlns="http://www.w3.org/2000/svg"
   xmlns:svg="http://www.w3.org/2000/svg">
  <sodipodi:namedview
     id="namedview15"
     pagecolor="#ffffff"
     bordercolor="#666666"
     borderopacity="1.0"
     inkscape:pageshadow="2"
     inkscape:pageopacity="0.0"
     inkscape:pagecheckerboard="0"
     showgrid="false"
     inkscape:zoom="1.1983333"
     inkscape:cx="300"
     inkscape:cy="310.01391"
     inkscape:window-width="1312"
     inkscape:window-height="969"
     inkscape:window-x="63"
     inkscape:window-y="38"
     inkscape:window-maximized="0"
     inkscape:current-layer="svg13" />
  <defs
     id="defs9" />
  <path
     d="m 2.6041333,0 c 3.7886683,-0.04511165 7.4496587,0.90062457 11.0431147,1.9208781 1.098801,0.2649891 2.268401,0.5039839 3.099906,1.211289 0.157837,0.3410216 1.539973,0.7177592 2.143817,0.981505 1.068798,0.440507 2.483127,0.7952931 3.065873,1.71483 -0.634087,0.089442 0.167727,0.4267428 -0.315892,0.605603 -0.910385,0.04611 0.705883,0.6842034 -0.228793,0.663128 -0.393072,0.2663662 0.672391,1.0113117 -0.353245,0.69125 -0.378857,0.00207 -0.245029,0.4794069 -1.057855,0.287574 C 14.381398,7.2935972 9.1845654,4.5699044 4.0531438,2.2075107 3.3675217,1.8958013 0.62888224,0.36631839 2.5728971,1.4960341 c 3.7845222,2.180464 6.7113634,5.3971161 9.7376539,8.469546 0.331293,0.3226629 0.581039,1.0261569 0.543058,1.1879349 1.013254,1.623726 2.920647,3.028577 3.263383,4.838579 -0.592919,-0.215198 -0.08251,0.490811 -0.5698,0.37327 -0.795892,-0.386191 0.141411,0.802935 -0.42271,0.52667 -0.67856,-0.274885 -0.0049,1.265432 -0.781197,0.382352 -0.329156,-0.18766 -0.451921,0.29265 -1.059928,-0.279935 C 8.8078194,13.506995 5.6690832,8.5497908 2.4063394,3.9381937 1.9684287,3.3254341 0.36143984,0.63154282 1.4801473,2.581913 c 2.1872645,3.7805974 3.1136408,8.029722 4.1982749,12.203667 0.1256091,0.445086 -0.00987,1.179219 -0.1236169,1.300364 0.065608,1.912824 1.0151239,4.083112 0.406835,5.822047 -0.4059052,-0.482868 -0.3168492,0.383922 -0.680047,0.03835 -0.496137,-0.73239 -0.2790114,0.765982 -0.629441,0.24468 -0.4501985,-0.577287 -0.6369497,1.0934 -0.867715,-0.05955 -0.1912258,-0.327072 -0.537673,0.02753 -0.777959,-0.772326 C 0.87427439,16.101153 0.63464861,10.238719 0.11483009,4.6135865 0.03471915,3.6831705 -0.00102915,0.66024026 -0.01464842,3.1665916 -0.03711502,7.4680731 -1.3483,11.546185 -2.4751448,15.643743 c -0.1137645,0.448259 -0.5981475,1.016285 -0.757222,1.064301 -0.8996008,1.689356 -1.162421,4.043616 -2.558682,5.24545 -0.1100904,-0.621048 -0.4663306,0.174022 -0.608126,-0.306692 -0.063471,-0.88241 -0.6246629,0.52396 -0.667479,-0.102773 -0.1012074,-0.725087 -1.0983479,0.628682 -0.721717,-0.485265 -0.00207,-0.378857 -0.479407,-0.245029 -0.287574,-1.057855 C -7.293485,14.381247 -4.5697922,9.1844147 -2.2073984,4.0529931 -1.8956891,3.367371 -0.36620614,0.62873156 -1.4959219,2.5727464 -3.6763858,6.3572686 -6.893038,9.2841098 -9.9654679,12.3104 c -0.3226631,0.331293 -1.0261561,0.581039 -1.1879351,0.543058 -1.623726,1.013254 -3.028576,2.920647 -4.838579,3.263383 0.215198,-0.592918 -0.490811,-0.08251 -0.37327,-0.5698 0.386192,-0.795892 -0.802935,0.141412 -0.52667,-0.42271 0.274885,-0.67856 -1.265432,-0.0049 -0.382352,-0.781197 0.18766,-0.329156 -0.292649,-0.451921 0.279935,-1.059928 3.487456,-4.4755372 8.4446605,-7.6142735 13.0562575,-10.8770173 0.6127596,-0.4379106 3.30665092,-2.04489955 1.3562807,-0.9261921 -3.7805973,2.1872645 -8.0297212,3.1136409 -12.2036672,4.1982749 -0.445086,0.1256091 -1.179218,-0.00987 -1.300364,-0.1236169 -1.912824,0.065608 -4.083111,1.0151239 -5.822047,0.406835 0.482868,-0.4059051 -0.383922,-0.3168491 -0.03835,-0.680047 0.732391,-0.496137 -0.765982,-0.2790114 -0.24468,-0.629441 0.577287,-0.4501985 -1.093399,-0.6369497 0.05955,-0.867715 0.327072,-0.1912258 -0.02753,-0.537673 0.772326,-0.777959 5.257992,-2.13220389 11.120426,-2.37182967 16.7455587,-2.89164819 0.930632,-0.08012259 3.9534693,-0.11586935 1.446732,-0.12944007 -4.3014815,-0.0224666 -8.3795937,-1.33365154 -12.4771507,-2.46049644 -0.44826,-0.1137644 -1.016286,-0.5981474 -1.064301,-0.757222 -1.689357,-0.8996008 -4.043617,-1.162421 -5.24545,-2.558682 0.621047,-0.1100903 -0.174023,-0.4663306 0.306692,-0.608126 0.882409,-0.063471 -0.523961,-0.6246629 0.102773,-0.667479 0.725087,-0.1012073 -0.628682,-1.0983479 0.485265,-0.721717 0.378857,-0.00207 0.245029,-0.4794069 1.057855,-0.287574 5.619661,0.7824599 10.8164936,3.5061527 15.9479152,5.8685464 0.6856221,0.3117094 3.42426156,1.84119231 1.4802467,0.7114766 -3.7845222,-2.180464 -6.7113634,-5.3971161 -9.7376539,-8.469546 -0.331293,-0.3226629 -0.581039,-1.0261569 -0.543058,-1.1879349 -1.013254,-1.623726 -2.920647,-3.028577 -3.263383,-4.838579 0.592919,0.215198 0.08251,-0.490811 0.5698,-0.37327 0.795892,0.386191 -0.141411,-0.802935 0.42271,-0.52667 0.67856,0.274885 0.0049,-1.265432 0.781197,-0.382352 0.329156,0.18766 0.451921,-0.29265 1.059928,0.279935 4.4755376,3.487456 7.6142738,8.4446602 10.8770176,13.0562573 0.4379107,0.6127596 2.04489956,3.30665088 0.9261921,1.3562807 -2.1872645,-3.7805974 -3.1136408,-8.029722 -4.1982749,-12.203667 -0.1256091,-0.445086 0.00987,-1.179219 0.1236169,-1.300364 -0.065608,-1.912824 -1.0151239,-4.083112 -0.406835,-5.822047 0.4059052,0.482868 0.3168492,-0.383922 0.680047,-0.03835 0.496137,0.73239 0.2790114,-0.765982 0.629441,-0.24468 0.4501985,0.577287 0.6369497,-1.0934 0.867715,0.05955 0.1912258,0.327072 0.537673,-0.02753 0.777959,0.772326 2.13220391,5.257992 2.37182969,11.120426 2.89164821,16.7455585 0.08011094,0.930416 0.11585924,3.95334624 0.12947851,1.4469949 C 0.03711502,-7.4680731 1.3483,-11.546185 2.4751448,-15.643743 c 0.1137645,-0.448259 0.5981475,-1.016285 0.757222,-1.064301 0.8996008,-1.689356 1.162421,-4.043616 2.558682,-5.24545 0.1100904,0.621048 0.4663306,-0.174022 0.608126,0.306692 0.063471,0.88241 0.6246629,-0.52396 0.667479,0.102773 0.1012074,0.725087 1.0983479,-0.628682 0.721717,0.485265 0.00207,0.378857 0.479407,0.245029 0.287574,1.057855 C 7.293485,-14.381247 4.5697922,-9.1844147 2.2073984,-4.0529931 1.8956891,-3.367371 0.36620614,-0.62873156 1.4959219,-2.5727464 3.6763858,-6.3572686 6.893038,-9.2841098 9.9654679,-12.3104 c 0.3226631,-0.331293 1.0261561,-0.581039 1.1879351,-0.543058 1.623726,-1.013254 3.028576,-2.920647 4.838579,-3.263383 -0.215198,0.592918 0.490811,0.08251 0.37327,0.5698 -0.386192,0.795892 0.802935,-0.141412 0.52667,0.42271 -0.274885,0.67856 1.265432,0.0049 0.382352,0.781197 -0.18766,0.329156 0.292649,0.451921 -0.279935,1.059928 -3.487456,4.4755372 -8.4446605,7.6142735 -13.0562575,10.8770173 -0.6127596,0.4379106 -3.30665092,2.04489955 -1.3562807,0.9261921 3.7805973,-2.1872645 8.0297212,-3.1136409 12.2036672,-4.1982749 0.445086,-0.1256091 1.179218,0.00987 1.300364,0.1236169 1.912824,-0.065608 4.083111,-1.0151239 5.822047,-0.406835 -0.482868,0.4059051 0.383922,0.3168491 0.03835,0.680047 -0.732391,0.496137 0.765982,0.2790114 0.24468,0.629441 -0.577287,0.4501985 1.093399,0.6369497 -0.05955,0.867715 -0.327072,0.1912258 0.02753,0.537673 -0.772326,0.777959 C 16.101041,-0.87412371 10.238607,-0.63449793 4.6134743,-0.11467941 4.2115973,-0.06272019 0.89388479,0.01314731 2.6041333,0 Z m 1.9071356,0 c 2.1028395,0.22480823 4.5612409,0.16512805 6.4051451,0.90096331 -0.545014,0.0860477 1.548195,0.24623019 1.638885,0.50944259 2.176125,0.5683883 4.558983,0.9801788 6.578269,1.739011 -0.139764,0.2510407 1.200613,0.6738619 -0.21944,0.540329 1.365268,0.6968414 3.32123,1.0676632 4.816296,1.8264014 0.601974,0.3267649 1.224187,0.6078896 0.695063,0.9270361 -2.182606,-0.4304626 -1.023815,0.08104 -1.878001,0.2223325 C 20.752373,6.2557409 21.58741,6.7974646 22.044098,7.1549745 20.304878,6.5983909 21.165019,7.6566079 22.283819,7.9671587 22.812923,8.5228039 19.809654,7.3674359 22.14764,8.5056152 22.698849,8.9542934 21.821737,9.0294826 20.874935,8.732299 21.407234,9.5119508 18.480617,8.0666023 17.649414,8.0030373 12.958716,6.3762712 8.4360201,4.2288942 3.9068729,2.2556311 5.6155731,3.5017413 7.7744689,4.6792523 9.0033996,6.2384556 8.4883922,6.0404716 10.221037,7.225791 10.168003,7.4990787 c 1.59997,1.5808772 3.451638,3.1294703 4.827393,4.7951523 -0.246549,0.147545 0.702863,1.183827 -0.460183,0.358178 0.833956,1.286119 2.342433,2.585232 3.257847,3.989856 0.357919,0.583894 0.756165,1.13858 0.138393,1.150394 -1.674886,-1.464073 -0.927287,-0.441755 -1.737483,-0.746442 -1.349728,-1.252533 -0.897418,-0.365679 -0.680631,0.172197 -1.227937,-1.351629 -1.012075,-0.0051 -0.198454,0.823259 0.180372,0.745772 -1.842841,-1.756491 -0.387177,0.398198 0.252948,0.664147 -0.54405,0.290768 -1.21546,-0.440016 0.142937,1.037708 -1.587941,-1.660236 -2.198562,-1.975528 C 8.174299,12.191246 5.2592509,7.9771072 2.2557919,3.9068467 3.1125214,5.840355 4.3934075,7.939566 4.6781106,9.9043297 4.3310804,9.4753572 5.2389755,11.368214 5.0563526,11.578349 c 0.5958227,2.168785 1.4306329,4.438258 1.7831071,6.566469 -0.2872938,0.0045 0.016733,1.376687 -0.5776542,0.08012 0.079157,1.53079 0.7360002,3.410111 0.826443,5.084253 0.017996,0.684615 0.085615,1.364128 -0.455323,1.065434 C 5.9144274,22.269248 6.0508049,23.528431 5.5013981,22.859438 4.9587152,21.099933 4.9070987,22.093991 4.8258242,22.668231 4.4382316,20.883754 3.9518418,22.157716 4.2423052,23.281913 4.0256536,24.017939 3.5245985,20.839362 3.7079014,23.433204 3.5949156,24.134866 3.0913012,23.412962 2.8752514,22.444381 2.4661902,23.295109 2.2545939,20.037984 1.8940464,19.286328 0.95752271,14.410675 0.55584506,9.4202323 1.7815e-4,4.5112295 -0.22463008,6.614069 -0.1649499,9.0724704 -0.90078516,10.916374 -0.98683286,10.37136 -1.1470154,12.46457 -1.4102278,12.555259 c -0.5683883,2.176126 -0.9801787,4.558984 -1.739011,6.57827 -0.2510406,-0.139764 -0.6738618,1.200613 -0.540329,-0.219441 -0.6968414,1.365269 -1.0676632,3.32123 -1.8264014,4.816297 -0.3267649,0.601973 -0.6078895,1.224186 -0.9270361,0.695062 0.4304627,-2.182606 -0.08104,-1.023815 -0.2223325,-1.878001 0.4097751,-1.795113 -0.1319486,-0.960075 -0.4894586,-0.503387 0.5565836,-1.73922 -0.5016334,-0.879079 -0.8121842,0.239721 -0.5556451,0.529104 0.5997229,-2.474165 -0.5384565,-0.136179 -0.4486781,0.551208 -0.5238674,-0.325903 -0.2266838,-1.272705 -0.7796517,0.532298 0.6656968,-2.394318 0.7292617,-3.225521 1.6267662,-4.690698 3.7741432,-9.2133943 5.7474062,-13.7425415 -1.2461102,1.7087002 -2.4236211,3.867596 -3.9828245,5.0965267 0.197984,-0.5150074 -0.9873354,1.2176378 -1.2606231,1.1646038 -1.5808771,1.59997 -3.1294704,3.451638 -4.7951524,4.827393 -0.147545,-0.24655 -1.183827,0.702863 -0.358178,-0.460183 -1.286118,0.833956 -2.585231,2.342432 -3.989856,3.257847 -0.583894,0.357918 -1.138579,0.756165 -1.150394,0.138393 1.464073,-1.674886 0.441755,-0.927287 0.746442,-1.737483 1.252533,-1.349728 0.365679,-0.897418 -0.172197,-0.680631 1.351629,-1.227937 0.0051,-1.012076 -0.823259,-0.198454 -0.745772,0.180372 1.756491,-1.842842 -0.398198,-0.387177 -0.664147,0.252947 -0.290768,-0.54405 0.440016,-1.21546 -1.037708,0.142937 1.660237,-1.587941 1.975528,-2.198562 3.833081,-3.3393874 8.0472199,-6.2544355 12.1174804,-9.2578945 -1.9335083,0.8567295 -4.0327192,2.1376157 -5.997483,2.4223187 0.4289725,-0.3470302 -1.4638844,0.5608649 -1.6740194,0.378242 -2.168785,0.5958228 -4.438258,1.4306329 -6.566469,1.7831071 -0.0045,-0.2872938 -1.376687,0.016733 -0.08012,-0.5776542 -1.530789,0.079157 -3.410111,0.7360002 -5.084253,0.826443 -0.684615,0.017996 -1.364128,0.085615 -1.065434,-0.455323 2.105377,-0.7184981 0.846194,-0.5821206 1.515187,-1.1315274 1.759505,-0.5426829 0.765447,-0.5942994 0.191207,-0.6755739 1.784477,-0.3875925 0.510515,-0.8739824 -0.613682,-0.583519 -0.736026,-0.2166516 2.442551,-0.7177067 -0.151291,-0.5344038 -0.701662,-0.1129858 0.02024,-0.6166002 0.988823,-0.83265 -0.850728,-0.4090612 2.406397,-0.6206575 3.158053,-0.981205 C -14.410574,0.95731433 -9.420183,0.5561241 -4.5112689,0 c -2.1028395,-0.22480823 -4.5612409,-0.16512805 -6.4051451,-0.90096331 0.545014,-0.0860477 -1.548195,-0.24623019 -1.638885,-0.50944259 -2.176125,-0.5683883 -4.558983,-0.9801788 -6.578269,-1.739011 0.139764,-0.2510407 -1.200613,-0.6738619 0.21944,-0.540329 -1.365268,-0.6968414 -3.32123,-1.0676632 -4.816296,-1.8264014 -0.601974,-0.3267649 -1.224187,-0.6078896 -0.695063,-0.9270361 2.182606,0.4304626 1.023815,-0.08104 1.878001,-0.2223325 1.795113,0.409775 0.960076,-0.1319487 0.503388,-0.4894586 1.73922,0.5565836 0.879079,-0.5016334 -0.239721,-0.8121842 -0.529104,-0.5556452 2.474165,0.5997228 0.136179,-0.5384565 -0.551209,-0.4486782 0.325903,-0.5238674 1.272705,-0.2266838 -0.532299,-0.7796518 2.394318,0.6656967 3.225521,0.7292617 4.690698,1.6267661 9.2133939,3.7741431 13.7425411,5.7474062 -1.7087002,-1.2461102 -3.867596,-2.4236212 -5.0965267,-3.9828245 0.5150074,0.197984 -1.2176374,-0.9873354 -1.1646034,-1.2606231 -1.59997,-1.5808772 -3.451638,-3.1294703 -4.827393,-4.7951523 0.246549,-0.147545 -0.702863,-1.183827 0.460183,-0.358178 -0.833956,-1.286119 -2.342433,-2.585232 -3.257847,-3.989856 -0.357919,-0.583894 -0.756165,-1.13858 -0.138393,-1.150394 1.674886,1.464073 0.927287,0.441755 1.737483,0.746442 1.349728,1.252533 0.897418,0.365679 0.680631,-0.172197 1.227937,1.351629 1.012075,0.0051 0.198454,-0.823259 -0.180372,-0.745772 1.842841,1.756491 0.387177,-0.398198 -0.252948,-0.664147 0.54405,-0.290768 1.21546,0.440016 -0.142937,-1.037708 1.587941,1.660236 2.198562,1.975528 3.339387,3.833081 6.2544351,8.0472198 9.2578941,12.1174803 -0.8567295,-1.9335083 -2.1376156,-4.0327193 -2.4223187,-5.997483 0.3470302,0.4289725 -0.5608649,-1.4638843 -0.378242,-1.6740193 -0.5958227,-2.168785 -1.4306329,-4.438258 -1.7831071,-6.566469 0.2872938,-0.0045 -0.016733,-1.376687 0.5776542,-0.08012 -0.079157,-1.53079 -0.7360002,-3.410111 -0.826443,-5.084253 -0.017996,-0.684615 -0.085615,-1.364128 0.455323,-1.065434 0.7184981,2.105377 0.5821206,0.846194 1.1315274,1.515187 0.5426829,1.759505 0.5942994,0.765447 0.6755739,0.191207 0.3875926,1.784477 0.8739824,0.510515 0.583519,-0.613682 0.2166516,-0.736026 0.7177067,2.442551 0.5344038,-0.151291 0.1129858,-0.701662 0.6166002,0.02024 0.83265,0.988823 0.4090612,-0.850728 0.6206575,2.406397 0.981205,3.158053 0.93652369,4.875653 1.33820134,9.8660957 1.89386825,14.7750985 0.22480823,-2.1028395 0.16512805,-4.5612409 0.90096331,-6.4051445 0.0860477,0.545014 0.24623024,-1.548196 0.50944264,-1.638885 0.5683883,-2.176126 0.9801787,-4.558984 1.739011,-6.57827 0.2510406,0.139764 0.6738618,-1.200613 0.540329,0.219441 0.6968414,-1.365269 1.0676632,-3.32123 1.8264014,-4.816297 0.3267649,-0.601973 0.6078895,-1.224186 0.9270361,-0.695062 -0.4304627,2.182606 0.08104,1.023815 0.2223325,1.878001 -0.4097751,1.795113 0.1319486,0.960075 0.4894586,0.503387 -0.5565836,1.73922 0.5016334,0.879079 0.8121842,-0.239721 0.5556451,-0.529104 -0.5997229,2.474165 0.5384565,0.136179 0.4486781,-0.551208 0.5238674,0.325903 0.2266838,1.272705 0.7796517,-0.532298 -0.6656968,2.394318 -0.7292617,3.225521 -1.6267662,4.690698 -3.7741432,9.2133943 -5.7474062,13.7425415 1.2461102,-1.7087002 2.4236211,-3.867596 3.9828245,-5.0965267 -0.197984,0.5150074 0.9873354,-1.2176378 1.2606231,-1.1646038 1.5808771,-1.59997 3.1294704,-3.451638 4.7951524,-4.827393 0.147545,0.24655 1.183827,-0.702863 0.358178,0.460183 1.286118,-0.833956 2.585231,-2.342432 3.989856,-3.257847 0.583894,-0.357918 1.138579,-0.756165 1.150394,-0.138393 -1.464073,1.674886 -0.441755,0.927287 -0.746442,1.737483 -1.252533,1.349728 -0.365679,0.897418 0.172197,0.680631 -1.351629,1.227937 -0.0051,1.012076 0.823259,0.198454 0.745772,-0.180372 -1.756491,1.842842 0.398198,0.387177 0.664147,-0.252947 0.290768,0.54405 -0.440016,1.21546 1.037708,-0.142937 -1.660237,1.587941 -1.975528,2.198562 -3.833081,3.3393874 -8.0472199,6.2544355 -12.1174804,9.2578945 1.9335083,-0.8567295 4.0327192,-2.1376157 5.997483,-2.4223187 -0.4289725,0.3470302 1.4638844,-0.5608649 1.6740194,-0.378242 2.168785,-0.5958228 4.438258,-1.4306329 6.566469,-1.7831071 0.0045,0.2872938 1.376687,-0.016733 0.08012,0.5776542 1.530789,-0.079157 3.410111,-0.7360002 5.084253,-0.826443 0.684615,-0.017996 1.364128,-0.085615 1.065434,0.455323 -2.105377,0.7184981 -0.846194,0.5821206 -1.515187,1.1315274 -1.759505,0.5426829 -0.765447,0.5942994 -0.191207,0.6755739 -1.784477,0.3875925 -0.510515,0.8739824 0.613682,0.583519 0.736026,0.2166516 -2.442551,0.7177067 0.151291,0.5344038 0.701662,0.1129858 -0.02024,0.6166002 -0.988823,0.83265 0.850728,0.4090612 -2.406397,0.6206575 -3.158053,0.981205 C 14.407344,-0.95705839 9.4229629,-0.55633482 4.5112689,0 Z m 3.5788628,0 c 1.6052032,0.2174341 3.3566153,0.35885483 5.0365303,0.65317767 -0.06635,-0.005659 1.062667,0.35755323 0.914738,0.46178133 2.909529,0.9478273 6.63826,1.5612344 9.488706,2.94613 0.565633,0.2264667 0.249327,0.7528202 0.905356,0.903119 -0.66734,0.1068096 0.542057,0.769701 1.017401,0.994041 0.0861,0.3027035 0.836916,0.6892258 1.10631,1.091983 0.533493,0.4113182 0.610421,0.7726028 0.908152,1.1161573 C 27.22486,8.5817645 26.195848,8.1386386 26.252533,8.6564233 25.167184,8.7554056 23.817642,8.2892714 22.671119,8.4249313 17.401434,6.9994945 11.723266,5.5237311 6.9907087,3.5441981 7.6319043,3.9676703 6.6204679,3.4780067 7.2959474,3.9738815 c 0.6747068,0.5311089 -0.3349537,0.058962 0.017291,0.2940253 1.1514083,0.9102346 2.5353833,1.8493287 3.7281496,2.8611009 -0.0546,-0.03806 0.741484,0.8409688 0.561274,0.8572765 2.046052,2.2755968 4.968339,4.6711948 6.744549,7.2957788 0.376765,0.47895 -0.16047,0.776745 0.332536,1.234877 -0.631393,-0.241216 0.08468,0.93769 0.384133,1.36963 -0.07675,0.305214 0.3801,1.015353 0.412124,1.498882 0.256357,0.622949 0.142451,0.97427 0.228389,1.420663 -0.417765,0.238496 -1.087289,-0.659796 -1.297064,-0.183063 -0.989363,-0.456895 -1.925087,-1.53545 -2.985818,-1.991221 C 11.544185,14.680046 7.6126475,10.961762 4.3086505,6.5607194 4.4317397,6.9042189 4.1885697,6.6060358 4.301876,6.991797 c 0.00189,0.2181575 0.3419245,1.0163563 -0.2548314,0.042942 0.6332792,1.4822727 1.3624121,3.0696412 1.9507595,4.6599582 -0.028262,-0.06024 0.2216674,1.099007 0.057442,1.023026 0.6339031,2.993622 1.9670418,6.529531 2.1929283,9.690563 0.086703,0.603126 -0.5272735,0.592316 -0.329432,1.235621 C 7.4925547,23.119361 7.5232282,24.498257 7.5665985,25.022053 7.3474995,25.24798 7.3881729,26.091466 7.1740769,26.526144 7.084598,27.19381 6.81023,27.441086 6.6615109,27.870638 6.1805262,27.868336 6.049811,26.755612 5.6297312,27.063616 5.0013822,26.173242 4.7302587,24.771363 4.0395222,23.846319 2.6391749,18.56995 1.0780792,12.914584 0.4261312,7.8263193 0.37999078,8.5933393 0.29833148,7.4725877 0.20663168,8.3055046 0.08409252,9.1554299 -0.01197566,8.044827 -0.03946803,8.467444 c -0.21259202,1.452273 -0.33387172,3.120363 -0.61370964,4.659218 0.005659,-0.06635 -0.35755323,1.062667 -0.46178133,0.914738 -0.9478273,2.909529 -1.5612344,6.63826 -2.94613,9.488706 -0.2264667,0.565633 -0.7528202,0.249327 -0.903119,0.905356 -0.1068096,-0.66734 -0.769701,0.542057 -0.994041,1.017401 -0.3027035,0.0861 -0.6892258,0.836916 -1.091983,1.10631 -0.4113182,0.533493 -0.7726028,0.610421 -1.1161573,0.908152 -0.4153752,-0.242465 0.027751,-1.271477 -0.490034,-1.214792 -0.098982,-1.085349 0.3671519,-2.434891 0.231492,-3.581414 1.4254368,-5.269685 2.9012002,-10.947853 4.8807332,-15.6804103 -0.4234722,0.6411956 0.066191,-0.3702408 -0.4296834,0.3052387 -0.5311089,0.6747068 -0.058962,-0.3349537 -0.2940253,0.017291 -0.9102346,1.1514083 -1.8493287,2.5353833 -2.8611009,3.7281496 0.03806,-0.0546 -0.8409688,0.741484 -0.8572765,0.561274 -2.2755968,2.046052 -4.6711948,4.968339 -7.2957788,6.744549 -0.47895,0.376765 -0.776745,-0.16047 -1.234877,0.332536 0.241216,-0.631393 -0.93769,0.08468 -1.36963,0.384133 -0.305214,-0.07675 -1.015353,0.3801 -1.498882,0.412124 -0.622949,0.256357 -0.97427,0.142451 -1.420663,0.228389 -0.238496,-0.417765 0.659796,-1.087289 0.183063,-1.297064 0.456895,-0.989363 1.53545,-1.925087 1.991221,-2.985818 3.951785,-3.877326 7.670069,-7.8088635 12.0711116,-11.1128605 -0.3434995,0.1230892 -0.045316,-0.1200808 -0.4310776,-0.00677 -0.2181575,0.00189 -1.0163563,0.3419245 -0.042942,-0.2548314 -1.4822727,0.6332792 -3.0696412,1.3624121 -4.6599582,1.9507595 0.06024,-0.028262 -1.099007,0.2216674 -1.023026,0.057442 -2.993622,0.6339031 -6.529531,1.9670418 -9.690563,2.1929283 -0.603126,0.086703 -0.592316,-0.5272735 -1.235621,-0.329432 0.524546,-0.4261876 -0.85435,-0.3955141 -1.378146,-0.3521438 -0.225927,-0.219099 -1.069413,-0.1784256 -1.504091,-0.3925216 -0.667666,-0.089479 -0.914942,-0.3638469 -1.344494,-0.512566 0.0023,-0.4809847 1.115026,-0.6116999 0.807022,-1.0317797 0.890374,-0.628349 2.292253,-0.8994725 3.217297,-1.590209 5.276369,-1.4003473 10.931735,-2.961443 16.0199997,-3.613391 -0.76702,-0.0461404 0.3537316,-0.12779972 -0.4791853,-0.21949952 -0.8499253,-0.12253916 0.2606776,-0.21860734 -0.1619394,-0.24609971 -1.452273,-0.21259202 -3.120363,-0.33387172 -4.659218,-0.61370964 0.06635,0.005659 -1.062667,-0.35755323 -0.914738,-0.46178133 -2.909529,-0.9478273 -6.63826,-1.5612344 -9.488706,-2.94613 -0.565633,-0.2264667 -0.249327,-0.7528202 -0.905356,-0.903119 0.66734,-0.1068096 -0.542057,-0.769701 -1.017401,-0.994041 -0.0861,-0.3027035 -0.836916,-0.6892258 -1.10631,-1.091983 -0.533493,-0.4113182 -0.610421,-0.7726028 -0.908152,-1.1161573 0.242465,-0.4153752 1.271477,0.027751 1.214792,-0.490034 1.085349,-0.098982 2.434891,0.3671519 3.581414,0.231492 5.269685,1.4254368 10.947853,2.9012002 15.6804103,4.8807332 -0.6411956,-0.4234722 0.3702408,0.066191 -0.3052387,-0.4296834 -0.6747068,-0.5311089 0.3349537,-0.058962 -0.017291,-0.2940253 -1.1514083,-0.9102346 -2.5353833,-1.8493287 -3.7281496,-2.8611009 0.0546,0.03806 -0.741484,-0.8409688 -0.561274,-0.8572765 -2.046052,-2.2755968 -4.968339,-4.6711948 -6.744549,-7.2957788 -0.376765,-0.47895 0.16047,-0.776745 -0.332536,-1.234877 0.631393,0.241216 -0.08468,-0.93769 -0.384133,-1.36963 0.07675,-0.305214 -0.3801,-1.015353 -0.412124,-1.498882 -0.256357,-0.622949 -0.142451,-0.97427 -0.228389,-1.420663 0.417765,-0.238496 1.087289,0.659796 1.297064,0.183063 0.989363,0.456895 1.925087,1.53545 2.985818,1.991221 3.877326,3.951785 7.8088635,7.670069 11.1128605,12.0711116 -0.1230892,-0.3434995 0.1200808,-0.045316 0.00677,-0.4310776 -0.00189,-0.2181575 -0.3419245,-1.0163563 0.2548314,-0.042942 -0.6332792,-1.4822727 -1.3624121,-3.0696412 -1.9507595,-4.6599582 0.028262,0.06024 -0.2216674,-1.099007 -0.057442,-1.023026 -0.6339031,-2.993622 -1.9670418,-6.529531 -2.1929283,-9.690563 -0.086703,-0.603126 0.5272735,-0.592316 0.329432,-1.235621 0.4261876,0.524546 0.3955141,-0.85435 0.3521438,-1.378146 0.219099,-0.225927 0.1784256,-1.069413 0.3925216,-1.504091 0.089479,-0.667666 0.3638469,-0.914942 0.512566,-1.344494 0.4809847,0.0023 0.6116999,1.115026 1.0317797,0.807022 0.628349,0.890374 0.8994725,2.292253 1.590209,3.217297 1.4003473,5.276369 2.961443,10.931735 3.613391,16.0199997 0.0461404,-0.76702 0.12779972,0.3537316 0.21949952,-0.4791853 0.12259936,-0.8498698 0.21852433,0.2605993 0.2459784,-0.1619881 0.21259202,-1.452273 0.33387172,-3.1203633 0.61370964,-4.6592173 -0.005659,0.06635 0.35755324,-1.062667 0.46178134,-0.914738 0.9478273,-2.90953 1.5612344,-6.638261 2.94613,-9.488706 0.2264666,-0.565633 0.7528202,-0.249328 0.903119,-0.905356 0.1068096,0.667339 0.769701,-0.542057 0.994041,-1.017401 0.3027035,-0.0861 0.6892258,-0.836917 1.091983,-1.10631 0.4113182,-0.533494 0.7726028,-0.610422 1.1161573,-0.908152 0.4153752,0.242464 -0.027751,1.271476 0.490034,1.214792 0.098982,1.085348 -0.3671519,2.43489 -0.231492,3.581414 -1.4254368,5.269684 -2.9012002,10.947852 -4.8807332,15.6804096 0.4234722,-0.6411956 -0.066191,0.3702408 0.4296834,-0.3052387 0.5311089,-0.6747068 0.058962,0.3349537 0.2940253,-0.017291 0.9102346,-1.1514082 1.8493287,-2.5353833 2.8611009,-3.7281499 -0.03806,0.0546 0.8409688,-0.741484 0.8572765,-0.561274 2.2755961,-2.046052 4.6711951,-4.968339 7.2957791,-6.744549 0.47895,-0.376764 0.776745,0.16047 1.234877,-0.332536 -0.241217,0.631393 0.937689,-0.08468 1.36963,-0.384133 0.305214,0.07675 1.015352,-0.3801 1.498882,-0.412124 0.622949,-0.256357 0.974269,-0.142451 1.420663,-0.228389 0.238495,0.417766 -0.659796,1.08729 -0.183063,1.297064 -0.456895,0.989363 -1.53545,1.925087 -1.991221,2.985818 -3.951786,3.877326 -7.670069,7.8088638 -12.0711119,11.1128608 0.3434995,-0.1230892 0.045316,0.1200809 0.4310776,0.00677 0.2181575,-0.00189 1.0163563,-0.3419244 0.042942,0.2548314 1.4822727,-0.6332792 3.0696405,-1.3624121 4.6599585,-1.9507595 -0.06024,0.028262 1.099007,-0.2216674 1.023026,-0.057442 2.993621,-0.6339031 6.52953,-1.9670417 9.690563,-2.1929283 0.603126,-0.086703 0.592316,0.5272735 1.235621,0.329432 -0.524547,0.4261876 0.85435,0.3955141 1.378146,0.3521438 0.225927,0.219099 1.069413,0.1784256 1.504091,0.3925216 0.667666,0.089479 0.914942,0.3638469 1.344494,0.512566 -0.0023,0.4809847 -1.115026,0.6116999 -0.807022,1.0317797 -0.890374,0.6283491 -2.292253,0.8994725 -3.217297,1.590209 -5.276369,1.4003473 -10.931735,2.961443 -16.02,3.61339103 0.76702,0.0461404 -0.3537316,0.12779972 0.4791853,0.21949952 C 8.1501511,-0.16180824 9.4246582,1.0512612e-5 8.0901317,0 Z m 9.1696973,0 c 0.361983,0.13719177 0.584713,0.49825551 1.427235,0.55181147 1.495292,0.34410587 2.459274,0.74851963 4.102778,0.90191563 1.2287,0.4323446 2.924302,0.8342223 3.811833,1.283737 0.875327,0.4336988 2.397356,0.6799527 2.816742,1.170436 0.745217,0.3445379 0.346809,0.6754302 -0.253887,0.846117 0.613497,0.3367027 0.687589,0.7227015 1.532086,1.184771 C 30.67185,6.6479731 26.833099,5.8825553 25.263307,5.6660025 23.468808,5.4256506 21.541456,5.1166723 19.851645,5.1049509 19.38167,5.2486393 23.065806,6.1993421 21.032714,6.0758931 20.122708,6.1228504 19.162682,6.1629911 17.469741,5.61035 16.401124,5.7738455 14.715659,5.1830533 13.445101,4.8306635 12.387611,4.6954232 11.350482,4.3484514 10.268387,4.035334 9.8925685,3.9361107 10.259211,4.2841956 9.6060365,4.10635 c 0.7970925,0.5340536 0.8013495,0.5539983 1.2771895,0.9309272 0.846227,0.4656182 1.702494,0.9625948 2.142122,1.4902741 0.832937,0.5196764 -0.502358,-0.062605 -0.332619,0.309308 -0.395289,0.013093 -0.495132,0.3341851 0.64617,0.7259708 1.02926,0.890425 1.914615,1.088148 2.025397,1.824583 1.382219,1.0399729 1.954671,2.0749139 3.376775,3.0457269 1.080369,1.032988 2.051023,2.188506 3.024715,3.25698 -0.07188,0.457807 1.78053,1.709891 1.503964,2.093743 0.955975,0.952876 0.190187,1.000655 -0.19698,0.953618 -0.140227,0.255359 0.0892,0.943465 0.566008,1.646445 -0.02305,0.770752 -1.443184,-0.457847 -2.443644,-1.138363 -2.148781,-1.656523 -4.341941,-3.562547 -6.555575,-4.898702 -0.678852,-0.347235 2.42478,2.781228 0.496473,1.29131 -0.51889,-0.18295 -1.042815,-0.232127 -2.072091,-1.340825 C 12.355799,13.393953 11.674435,13.460432 10.897989,12.598481 9.5648246,11.16953 8.1658925,10.075184 6.875051,8.628823 6.5991961,8.3549826 6.7426753,8.8397627 6.2659357,8.3591564 c 0.4232735,0.8610474 0.4169963,0.8804466 0.64062,1.4447963 0.5000325,0.8263483 0.9931052,1.6848603 1.1100027,2.3616753 0.4615144,0.866521 -0.4037702,-0.305373 -0.4426725,0.101647 -0.2037354,-0.05184 -0.6656177,-0.18844 -0.015824,0.605682 0.5985983,1.401548 1.2291463,2.116932 1.1142322,2.93211 0.2117537,0.765457 0.6080865,1.969532 0.7190665,2.647789 0.8454731,1.970632 1.1921041,4.043803 1.6132551,6.018064 -0.233949,0.473116 0.643759,2.427673 0.296188,2.781752 0.213729,1.093243 -0.384771,0.715684 -0.745971,0.488183 -0.145022,0.281453 -0.346787,0.899473 -0.30899,1.781495 C 9.6650085,30.064817 8.5817969,26.75573 7.9976942,25.445737 7.2595997,23.515871 6.4440596,21.442205 5.5048635,19.744495 5.1454646,19.409345 6.1641524,23.075208 5.2545646,21.252815 4.7588993,20.488198 4.2441011,19.676867 3.8762423,17.934416 3.2003503,17.090715 2.8692503,15.335675 2.5391503,14.059139 2.1275151,13.075685 1.9094313,12.004008 1.6395543,10.910331 1.5375732,10.535273 1.4194391,11.026789 1.2468757,10.372229 c -0.063969,0.957303 -0.079079,0.970997 -0.1676063,1.57154 0.019865,0.965665 0.017624,1.955721 -0.21954,2.600306 -0.0335763,0.981193 -0.19697903,-0.466381 -0.4341593,-0.133364 -0.21530125,-0.252333 -0.43036042,-0.385537 -0.40832298,0.748444 0.04176977,1.42091 0.07451148,2.364184 -0.46476092,2.840403 -0.20705035,1.71816 -0.8238817,2.728275 -0.9492785,4.447204 -0.3544311,1.452128 -0.869798,2.870502 -1.308306,4.247992 -0.4392006,0.292805 -0.6563408,2.424277 -1.134404,2.557142 -0.3615779,1.053617 -0.691045,0.427408 -0.890112,0.04979 -0.2663047,0.171205 -0.7501209,0.605589 -1.1584,1.388332 -0.77425,0.179268 -0.057808,-3.227985 0.091344,-4.654562 0.3181865,-2.036221 0.6606684,-4.246404 0.691755,-6.183809 -0.1436884,-0.469975 -1.0943913,3.21416 -0.9709422,1.181069 -0.046957,-0.910007 -0.087098,-1.870032 0.4655431,-3.562973 -0.1634955,-1.068618 0.4272967,-2.754083 0.7796865,-4.02464 0.1352403,-1.057491 0.482212,-2.094619 0.7953295,-3.176714 0.099223,-0.3758189 -0.2488616,-0.0092 -0.071016,-0.6623509 -0.5340536,0.7970929 -0.5539983,0.8013489 -0.9309272,1.2771889 -0.4656182,0.846227 -0.9625948,1.702494 -1.4902741,2.142122 -0.5196764,0.832937 0.062605,-0.502358 -0.309308,-0.332619 -0.1312807,-0.24908 -0.00776,-0.571848 -0.6864484,0.20216 -0.5265555,1.446214 -1.0946443,2.192177 -1.8281704,2.518027 -0.5570521,0.566162 -1.4016117,1.511394 -1.9335247,1.946651 -1.288895,1.712807 -2.902526,3.05761 -4.405117,4.406219 -0.457807,-0.07188 -1.709892,1.78053 -2.093743,1.503964 -0.952877,0.955975 -1.000655,0.190188 -0.953618,-0.19698 -0.255359,-0.140227 -0.943465,0.0892 -1.646445,0.566008 -0.770753,-0.02305 0.457847,-1.443183 1.138362,-2.443643 1.656524,-2.148781 3.562547,-4.341942 4.898703,-6.555576 0.347235,-0.678852 -2.781228,2.42478 -1.29131,0.496473 0.18295,-0.518889 0.232127,-1.042815 1.340825,-2.072091 0.903392,-0.708141 0.836914,-1.389506 1.698865,-2.165952 1.428951,-1.3331639 2.523297,-2.732096 3.9696578,-4.0229374 0.2738404,-0.2758549 -0.2109397,-0.1323758 0.2696666,-0.6091153 -0.8610474,0.4232735 -0.8804467,0.4169963 -1.4447963,0.64062 -0.8263481,0.5000325 -1.6848601,0.9931052 -2.3616751,1.1100027 -0.866521,0.4615143 0.305373,-0.4037703 -0.101647,-0.4426725 0.160887,-0.3963873 0.02934,-0.4663441 -1.054444,0.022456 -0.997952,0.9528431 -1.860757,1.1767672 -2.490138,1.015863 -1.591478,0.6797676 -2.774749,0.6506368 -4.326066,1.401505 -1.434758,0.419066 -2.920805,0.681923 -4.332997,0.990906 -0.473116,-0.23395 -2.427673,0.643759 -2.781752,0.296188 -1.093243,0.213728 -0.715685,-0.384772 -0.488183,-0.745971 -0.281453,-0.145022 -0.899473,-0.346787 -1.781495,-0.30899 -0.542467,-0.5808349 2.76662,-1.6640465 4.076613,-2.2481492 1.929866,-0.7380947 4.003532,-1.5536346 5.701242,-2.4928307 0.33515,-0.359399 -3.330713,0.6592888 -1.50832,-0.2502989 0.764616,-0.4956654 1.575948,-1.0104635 3.318399,-1.3783223 0.843701,-0.675892 2.598741,-1.0069921 3.875277,-1.337092 0.983454,-0.4116353 2.055131,-0.6297191 3.148808,-0.899596 0.375058,-0.1019812 -0.116458,-0.2201152 0.538102,-0.3926786 -0.957303,-0.063969 -0.970997,-0.079079 -1.57154,-0.1676063 -0.965665,0.019866 -1.955721,0.017623 -2.600306,-0.21954003 -0.981193,-0.0335763 0.466381,-0.19697903 0.133364,-0.4341593 0.353963,-0.24185001 0.234274,-0.47070997 -0.981874,-0.40619141 -1.326565,0.03484427 -2.153541,0.0387467 -2.60701,-0.46692683 -1.71816,-0.20705035 -2.728275,-0.82388173 -4.447204,-0.94927853 -1.452128,-0.3544311 -2.870502,-0.869798 -4.247992,-1.308306 -0.292806,-0.4392005 -2.424277,-0.6563407 -2.557142,-1.134404 -1.053617,-0.3615779 -0.427408,-0.691045 -0.04979,-0.890112 -0.171205,-0.2663047 -0.60559,-0.7501209 -1.388332,-1.1584 -0.179268,-0.7742499 3.227985,-0.057808 4.654562,0.091344 2.03622,0.3181865 4.246404,0.6606684 6.183809,0.691755 0.469975,-0.1436884 -3.214161,-1.0943912 -1.181069,-0.9709422 0.910006,-0.046957 1.870032,-0.087098 3.562973,0.4655431 1.068617,-0.1634955 2.754082,0.4272967 4.02464,0.7796865 1.05749,0.1352403 2.094619,0.4822121 3.176714,0.7953295 0.3758185,0.099223 0.0092,-0.2488616 0.6623505,-0.071016 -0.7970925,-0.5340536 -0.8013495,-0.5539983 -1.2771895,-0.9309272 -0.846227,-0.4656182 -1.702494,-0.9625948 -2.142122,-1.4902741 -0.832937,-0.5196764 0.502358,0.062605 0.332619,-0.309308 0.395289,-0.013093 0.495132,-0.3341851 -0.64617,-0.7259708 -1.02926,-0.890425 -1.914615,-1.088148 -2.025397,-1.824583 -1.382219,-1.0399729 -1.954671,-2.0749139 -3.376775,-3.0457269 -1.080369,-1.032988 -2.051023,-2.188506 -3.024715,-3.25698 0.07188,-0.457807 -1.78053,-1.709891 -1.503964,-2.093743 -0.955975,-0.952876 -0.190187,-1.000655 0.19698,-0.953618 0.140227,-0.255359 -0.0892,-0.943465 -0.566008,-1.646445 0.02305,-0.770752 1.443184,0.457847 2.443644,1.138363 2.148781,1.656523 4.341941,3.562547 6.555575,4.898702 0.678852,0.347235 -2.42478,-2.781228 -0.496473,-1.29131 0.51889,0.18295 1.042815,0.232127 2.072091,1.340825 0.708142,0.903393 1.389506,0.836914 2.165952,1.698865 1.3331644,1.428951 2.7320965,2.523297 4.022938,3.969658 0.2758549,0.2738404 0.1323757,-0.2109397 0.6091153,0.2696666 -0.4232735,-0.8610474 -0.4169963,-0.8804466 -0.64062,-1.4447963 -0.5000325,-0.8263483 -0.9931052,-1.6848603 -1.1100027,-2.3616753 -0.4615144,-0.866521 0.4037702,0.305373 0.4426725,-0.101647 0.2037354,0.05184 0.6656177,0.18844 0.015824,-0.605682 -0.5985983,-1.401548 -1.2291463,-2.116932 -1.1142322,-2.93211 -0.2117537,-0.765457 -0.6080865,-1.969532 -0.7190665,-2.647789 -0.8454731,-1.970632 -1.1921041,-4.043803 -1.6132551,-6.018064 0.233949,-0.473116 -0.643759,-2.427673 -0.296188,-2.781752 -0.213729,-1.093243 0.384771,-0.715684 0.745971,-0.488183 0.145022,-0.281453 0.346787,-0.899473 0.30899,-1.781495 0.5808345,-0.542467 1.6640461,2.76662 2.2481488,4.076613 0.7380945,1.929866 1.5536346,4.003532 2.4928307,5.701242 0.3593989,0.33515 -0.6592889,-3.330713 0.2502989,-1.50832 0.4956653,0.764617 1.0104635,1.575948 1.3783223,3.318399 0.675892,0.843701 1.006992,2.598741 1.337092,3.875277 0.4116352,0.983454 0.629719,2.055131 0.899596,3.148808 0.1019811,0.375058 0.2201152,-0.116458 0.3926786,0.538102 0.063969,-0.957303 0.079079,-0.970997 0.1676063,-1.57154 -0.019865,-0.965665 -0.017624,-1.955721 0.21954,-2.600306 0.0335763,-0.981193 0.19697903,0.466381 0.4341593,0.133364 0.21530125,0.252333 0.43036042,0.385537 0.40832298,-0.748444 -0.04176977,-1.42091 -0.07451148,-2.364184 0.46476092,-2.840403 0.20705035,-1.71816 0.8238817,-2.728275 0.9492785,-4.447204 0.3544311,-1.452128 0.869798,-2.870502 1.308306,-4.247992 0.4392006,-0.292805 0.6563408,-2.424277 1.134404,-2.557142 0.3615779,-1.053617 0.691045,-0.427408 0.890112,-0.04979 0.2663047,-0.171205 0.7501209,-0.605589 1.1584,-1.388332 0.77425,-0.179268 0.057808,3.227985 -0.091344,4.654562 -0.3181865,2.036221 -0.6606684,4.246404 -0.691755,6.183809 0.1436884,0.469975 1.0943913,-3.21416 0.9709422,-1.181069 0.046957,0.910007 0.087098,1.870032 -0.4655431,3.562973 0.1634955,1.068618 -0.4272967,2.754083 -0.7796865,4.02464 -0.1352403,1.057491 -0.482212,2.094619 -0.7953295,3.176714 -0.099223,0.3758189 0.2488616,0.0092 0.071016,0.6623509 0.5340536,-0.7970929 0.5539983,-0.8013489 0.9309272,-1.2771889 0.4656182,-0.846227 0.9625948,-1.702494 1.4902741,-2.142122 0.5196764,-0.832937 -0.062605,0.502358 0.309308,0.332619 0.1312807,0.24908 0.00776,0.571848 0.6864484,-0.20216 0.5265555,-1.446214 1.0946443,-2.192177 1.8281704,-2.518027 0.5570521,-0.566162 1.4016117,-1.511394 1.9335247,-1.946651 1.288895,-1.712807 2.902526,-3.05761 4.405117,-4.406219 0.457807,0.07188 1.709892,-1.78053 2.093743,-1.503964 0.952877,-0.955975 1.000655,-0.190188 0.953618,0.19698 0.255359,0.140227 0.943465,-0.0892 1.646445,-0.566008 0.770753,0.02305 -0.457847,1.443183 -1.138362,2.443643 -1.656524,2.148781 -3.562547,4.341942 -4.898703,6.555576 -0.347235,0.678852 2.781228,-2.42478 1.29131,-0.496473 -0.18295,0.518889 -0.232127,1.042815 -1.340825,2.072091 -0.903392,0.708141 -0.836914,1.389506 -1.698865,2.165952 -1.428951,1.3331639 -2.523297,2.732096 -3.9696578,4.0229374 -0.2738404,0.2758549 0.2109397,0.1323758 -0.2696666,0.6091153 0.8610474,-0.4232735 0.8804467,-0.4169963 1.4447963,-0.64062 0.8263481,-0.5000325 1.6848601,-0.9931052 2.3616751,-1.1100027 0.866521,-0.4615143 -0.305373,0.4037703 0.101647,0.4426725 -0.160887,0.3963873 -0.02934,0.4663441 1.054444,-0.022456 0.997952,-0.9528431 1.860757,-1.1767672 2.490138,-1.015863 1.591478,-0.6797676 2.774749,-0.6506368 4.326066,-1.401505 1.434758,-0.419066 2.920805,-0.681923 4.332997,-0.990906 0.473116,0.23395 2.427673,-0.643759 2.781752,-0.296188 1.093243,-0.213728 0.715685,0.384772 0.488183,0.745971 0.281453,0.145022 0.899473,0.346787 1.781495,0.30899 0.542467,0.5808349 -2.76662,1.6640465 -4.076613,2.2481492 -1.929866,0.7380947 -4.003532,1.5536346 -5.701242,2.4928307 -0.33515,0.359399 3.330713,-0.6592888 1.50832,0.2502989 -0.764616,0.4956654 -1.575948,1.0104635 -3.318399,1.3783223 -0.843701,0.675892 -2.598741,1.0069921 -3.875277,1.337092 -0.983454,0.4116353 -2.055131,0.6297191 -3.148808,0.899596 -0.375058,0.1019812 0.116458,0.2201152 -0.538102,0.3926786 0.957303,0.063969 0.970997,0.079079 1.57154,0.1676063 0.965665,-0.019866 1.955721,-0.017623 2.600306,0.21954003 0.981193,0.0335763 -0.466381,0.19697903 -0.133364,0.4341593 -0.353963,0.24185001 -0.234274,0.47070997 0.981874,0.40619141 C 16.014975,-0.01290882 16.637343,-5.7527873e-7 17.259829,0 Z m -6.011458,0 c 2.319888,0.45375203 4.744587,0.70835503 6.856444,1.6643055 3.289335,1.0449847 6.940959,1.5310503 9.812881,3.55705 0.612558,0.8521124 1.945161,1.2248003 2.36614,2.216063 0.680261,0.5587952 -0.16227,1.1626779 -0.687828,1.311826 -6.69438,0.755489 -13.302089,-1.244337 -19.589036,-3.3791358 -0.2506749,-0.020797 -1.2504378,-0.3409446 -0.5354719,0.088752 1.9956129,1.5627589 4.0060109,3.2053574 5.5201389,5.1720755 2.280326,2.534063 5.202,4.744446 6.602844,7.931822 0.100391,1.0047 1.0518,1.981673 0.913361,3.020145 0.30969,0.824021 -0.721885,0.925887 -1.251621,0.79224 C 15.080967,19.68227 10.358442,14.646507 5.9811806,9.6542627 5.7744885,9.5109136 5.0687394,8.7337688 5.4730695,9.4633846 c 0.9468752,2.3511904 1.8666319,4.7789234 2.1945859,7.2392274 0.7077768,3.334722 2.1328393,6.7098 1.7523002,10.170571 -0.4154157,0.920262 -0.08,2.241985 -0.719132,3.072135 -0.1438046,0.868502 -1.0880146,0.44085 -1.479957,0.0603 C 3.2193887,24.585868 1.6474509,17.863501 0.3527556,11.351452 0.20138708,10.904493 -0.09626266,9.8815555 -0.01769334,11.328439 c -0.43723939,2.295782 -0.70439289,4.688718 -1.64670456,6.776474 -1.0449847,3.289335 -1.5310503,6.940959 -3.55705,9.812881 -0.8521124,0.612558 -1.2248003,1.945161 -2.216063,2.36614 -0.5587953,0.680261 -1.162678,-0.16227 -1.311826,-0.687828 -0.755489,-6.69438 1.244337,-13.302089 3.3791358,-19.589036 0.020797,-0.2506749 0.3409446,-1.2504378 -0.088752,-0.5354719 -1.562759,1.9956129 -3.2053575,4.0060109 -5.1720751,5.5201389 -2.534064,2.280326 -4.744447,5.202 -7.931822,6.602844 -1.0047,0.100391 -1.981674,1.0518 -3.020145,0.913361 -0.824022,0.30969 -0.925887,-0.721885 -0.79224,-1.251621 2.692872,-6.175256 7.728635,-10.897781 12.7208799,-15.2750424 0.1433491,-0.2066921 0.9204938,-0.9124412 0.1908781,-0.5081111 -2.351191,0.9468752 -4.778923,1.8666319 -7.239227,2.1945859 -3.334722,0.7077768 -6.709801,2.1328393 -10.170571,1.7523002 -0.920262,-0.4154157 -2.241986,-0.08 -3.072135,-0.719132 -0.868503,-0.1438046 -0.44085,-1.0880146 -0.0603,-1.479957 5.419746,-4.0014779 12.142112,-5.5734157 18.654162,-6.86811098 0.44686,-0.15134698 1.4698145,-0.44895991 0.0232,-0.37045454 -2.295782,-0.43723939 -4.688718,-0.70439289 -6.776474,-1.64670458 -3.289335,-1.0449847 -6.940959,-1.5310503 -9.812881,-3.55705 -0.612558,-0.8521124 -1.945161,-1.2248003 -2.36614,-2.216063 -0.680261,-0.5587952 0.16227,-1.1626779 0.687828,-1.311826 6.69438,-0.755489 13.302089,1.244337 19.589036,3.3791358 0.2506749,0.020797 1.2504378,0.3409446 0.5354719,-0.088752 -1.9956129,-1.5627589 -4.0060109,-3.2053574 -5.5201389,-5.1720755 -2.280326,-2.534063 -5.202,-4.744446 -6.602844,-7.931822 -0.100391,-1.0047 -1.0518,-1.981673 -0.913361,-3.020145 -0.30969,-0.824021 0.721885,-0.925887 1.251621,-0.79224 6.175256,2.692873 10.897781,7.728636 15.2750424,12.7208803 0.2066921,0.1433491 0.9124412,0.9204939 0.5081111,0.1908781 -0.9468752,-2.3511904 -1.8666319,-4.7789234 -2.1945859,-7.2392274 -0.7077768,-3.334722 -2.1328393,-6.7098 -1.7523002,-10.170571 0.4154157,-0.920262 0.08,-2.241985 0.719132,-3.072135 0.1438046,-0.868502 1.0880146,-0.44085 1.479957,-0.0603 4.0014779,5.419746 5.5734157,12.142113 6.868111,18.654162 0.15136852,0.446959 0.44901826,1.4698965 0.37044894,0.02301 0.43723939,-2.295782 0.70439289,-4.688718 1.64670456,-6.776474 1.0449847,-3.289335 1.5310503,-6.940959 3.55705,-9.812881 0.8521124,-0.612558 1.2248003,-1.945161 2.216063,-2.36614 0.5587953,-0.680261 1.162678,0.16227 1.311826,0.687828 0.755489,6.69438 -1.244337,13.302089 -3.3791358,19.589036 -0.020797,0.2506749 -0.3409446,1.2504378 0.088752,0.5354719 1.562759,-1.9956129 3.2053575,-4.0060109 5.1720751,-5.5201389 2.534064,-2.280326 4.744447,-5.202 7.931822,-6.602844 1.0047,-0.100391 1.981674,-1.0518 3.020145,-0.913361 0.824022,-0.30969 0.925887,0.721885 0.79224,1.251621 -2.692872,6.175256 -7.728635,10.897781 -12.7208799,15.2750424 -0.1433491,0.2066921 -0.9204938,0.9124412 -0.1908781,0.5081111 2.351191,-0.9468752 4.778923,-1.8666319 7.239227,-2.1945859 3.334722,-0.7077768 6.709801,-2.1328393 10.170571,-1.7523002 0.920262,0.4154157 2.241986,0.08 3.072135,0.719132 0.868503,0.1438046 0.44085,1.0880146 0.0603,1.479957 C 24.58596,-3.2194867 17.863594,-1.6475489 11.351544,-0.35285362 10.957203,-0.21167792 9.8916142,0.07921234 11.248371,0 Z m 21.219181,0 c 0.370886,0.54539713 0.461225,1.170635 -0.01662,1.7158459 0.142448,0.8509343 -0.427761,1.7274876 -1.456523,1.668426 -4.808406,0.9095758 -9.771508,0.2415702 -14.584577,0.215794 -1.644711,-0.1046934 -3.349434,-0.5185551 -4.960419,-0.4654371 0.970075,0.4267609 2.051625,1.1157866 2.747282,1.497607 -0.542514,0.140678 0.223632,0.5993097 0.34581,0.8491715 3.846732,1.9923485 7.686378,4.0783976 10.870192,7.0568187 0.978704,0.938254 2.094256,2.031907 2.256265,3.379187 0.679427,0.190829 0.503685,1.207157 0.0507,1.4957 -0.762232,0.36775 -0.98597,1.637357 -2.093908,1.1807 C 20.806699,17.020748 16.708278,13.835252 12.411202,11.322575 11.039184,10.409538 9.7698234,9.1987729 8.3480643,8.4392897 8.9748501,9.2939401 9.5667912,10.431341 9.9785159,11.109896 9.4383403,10.960483 9.8725753,11.740791 9.8534264,12.018259 c 2.3351756,3.648799 4.6174086,7.375181 5.8854556,11.54648 0.378422,1.301908 0.79772,2.806777 0.264464,4.054599 0.499863,0.525521 -0.210923,1.392483 -0.815772,1.326523 -0.782627,0.0016 -1.602986,0.883309 -2.29193,-0.03025 C 9.508771,25.143751 7.552201,20.33582 5.0871452,16.011235 4.3554451,14.53458 3.8615282,12.851162 3.0099934,11.482733 c 0.1154661,1.053519 0.059459,2.334636 0.076662,3.128078 -0.3930802,-0.399488 -0.4071905,0.49337 -0.56249,0.724067 0.1979451,4.32754 0.3111848,8.695793 -0.676277,12.942269 -0.3231763,1.316753 -0.7125615,2.829528 -1.79826797,3.64365 0.17014413,0.704968 -0.87891126,1.100577 -1.36972433,0.740968 -0.6786012,-0.389861 -1.8299027,-0.0364 -1.96976,-1.172094 -1.0472023,-4.959955 -0.3376666,-10.102058 -0.310177,-15.079756 0.1046934,-1.644711 0.5185551,-3.349434 0.4654371,-4.960419 -0.4267609,0.970075 -1.1157866,2.051625 -1.497607,2.747282 -0.140678,-0.542514 -0.5993097,0.223632 -0.8491715,0.34581 -1.9923485,3.846732 -4.0783976,7.686378 -7.0568187,10.870192 -0.938254,0.978704 -2.031907,2.094256 -3.379187,2.256265 -0.190829,0.679427 -1.207157,0.503685 -1.4957,0.0507 -0.36775,-0.762232 -1.637357,-0.98597 -1.1807,-2.093908 1.573065,-4.819053 4.758561,-8.917474 7.271238,-13.21455 0.913037,-1.372018 2.1238021,-2.6413787 2.8832853,-4.0631378 -0.8546504,0.6267858 -1.9920513,1.2187269 -2.6706063,1.6304516 0.149413,-0.5401756 -0.630895,-0.1059406 -0.908363,-0.1250895 -3.648799,2.3351757 -7.375181,4.6174087 -11.54648,5.8854547 -1.301908,0.378423 -2.806777,0.797721 -4.054599,0.264464 -0.525521,0.499864 -1.392483,-0.210922 -1.326523,-0.815772 -0.0016,-0.782626 -0.883309,-1.602985 0.03025,-2.29193 3.771861,-3.3868721 8.579792,-5.3434421 12.904377,-7.8084979 1.476655,-0.7317002 3.160073,-1.225617 4.528502,-2.0771518 -1.053519,0.1154661 -2.334636,0.059459 -3.128078,0.076662 0.399488,-0.3930803 -0.49337,-0.4071905 -0.724067,-0.56249 -4.32754,0.1979451 -8.695793,0.3111848 -12.942269,-0.676277 -1.316753,-0.3231763 -2.829528,-0.7125615 -3.64365,-1.79826798 -0.704919,0.16991741 -1.100515,-0.87900577 -0.74091,-1.36983222 0.389861,-0.6786012 0.0364,-1.8299027 1.172094,-1.96976 4.959955,-1.0472023 10.102058,-0.3376666 15.079756,-0.310177 1.644711,0.1046934 3.349434,0.5185551 4.960419,0.4654371 -0.970075,-0.4267609 -2.051625,-1.1157866 -2.747282,-1.497607 0.542514,-0.140678 -0.223632,-0.5993097 -0.34581,-0.8491715 -3.846732,-1.9923485 -7.686378,-4.0783976 -10.870192,-7.0568187 -0.978704,-0.938254 -2.094256,-2.031907 -2.256265,-3.379187 -0.679427,-0.190829 -0.503685,-1.207157 -0.0507,-1.4957 0.762232,-0.36775 0.98597,-1.637357 2.093908,-1.1807 4.819053,1.573065 8.917474,4.758561 13.21455,7.271238 1.372018,0.913037 2.6413786,2.1238021 4.0631377,2.8832853 -0.6267858,-0.8546504 -1.2187269,-1.9920513 -1.6304516,-2.6706063 0.5401756,0.149413 0.1059406,-0.630895 0.1250895,-0.908363 -2.3351756,-3.648799 -4.6174086,-7.375181 -5.8854556,-11.54648 -0.378422,-1.301908 -0.79772,-2.806777 -0.264464,-4.054599 -0.499863,-0.525521 0.210923,-1.392483 0.815772,-1.326523 0.782627,-0.0016 1.602986,-0.883309 2.29193,0.03025 3.386873,3.771861 5.343443,8.579792 7.8084988,12.904377 0.7317001,1.476655 1.225617,3.160073 2.0771518,4.528502 -0.1154661,-1.053519 -0.059459,-2.334636 -0.076662,-3.128078 0.3930802,0.399488 0.4071905,-0.49337 0.56249,-0.724067 -0.1979451,-4.32754 -0.3111848,-8.695793 0.676277,-12.942269 0.3231763,-1.316753 0.7125615,-2.829528 1.79826797,-3.64365 -0.17014413,-0.704968 0.87891126,-1.100577 1.36972433,-0.740968 0.6786012,0.389861 1.8299027,0.0364 1.96976,1.172094 1.0472023,4.959955 0.3376666,10.102058 0.310177,15.079756 -0.1046934,1.644711 -0.5185551,3.349434 -0.4654371,4.960419 0.4267609,-0.970075 1.1157866,-2.051625 1.497607,-2.747282 0.140678,0.542514 0.5993097,-0.223632 0.8491715,-0.34581 1.9923485,-3.846732 4.0783976,-7.686378 7.0568187,-10.870192 0.938254,-0.978704 2.031907,-2.094256 3.379187,-2.256265 0.190829,-0.679427 1.207157,-0.503685 1.4957,-0.0507 0.36775,0.762232 1.637357,0.98597 1.1807,2.093908 -1.573065,4.819053 -4.758561,8.917474 -7.271238,13.21455 -0.913037,1.372018 -2.1238021,2.6413787 -2.8832853,4.0631378 0.8546504,-0.6267858 1.9920513,-1.2187269 2.6706063,-1.6304516 -0.149413,0.5401756 0.630895,0.1059406 0.908363,0.1250895 3.648799,-2.3351757 7.375181,-4.6174087 11.54648,-5.8854547 1.301908,-0.378423 2.806777,-0.797721 4.054599,-0.264464 0.525521,-0.499864 1.392483,0.210922 1.326523,0.815772 0.0016,0.782626 0.883309,1.602985 -0.03025,2.29193 -3.771861,3.3868721 -8.579792,5.3434421 -12.904377,7.8084979 -1.476655,0.7317002 -3.160073,1.225617 -4.528502,2.0771518 1.053519,-0.1154661 2.334636,-0.059459 3.128078,-0.076662 -0.399488,0.3930803 0.49337,0.4071905 0.724067,0.56249 4.32754,-0.1979451 8.695793,-0.3111848 12.942269,0.676277 1.316753,0.3231763 2.829528,0.7125615 3.64365,1.79826798 z M 13.137619,0 c 0.49677,0.37328186 1.190236,0.26559406 1.605373,0.73360716 2.052571,0.64705094 4.163121,1.05144294 6.180465,1.81458104 2.462926,0.8347402 5.187702,1.1009151 7.454732,2.39507 0.288131,0.2988986 1.479925,0.8730761 0.678488,1.006808 0.379636,0.308946 1.207249,0.7877005 0.07625,0.917408 -0.79629,-0.071227 -0.487829,0.6513126 -1.303104,0.566355 -0.104783,0.3250015 1.238278,0.8672805 1.542017,1.348501 0.382674,0.8862374 1.918087,0.8547593 2.203038,1.8471088 0.292332,0.387193 0.929416,1.143787 -0.01637,1.04241 -0.790715,-0.120332 -0.04744,0.694418 -0.793496,0.750752 -0.888281,-0.08944 -1.24336,0.285134 -2.00524,0.18988 -5.573522,-1.04994 -10.724987,-3.5827264 -16.07424,-5.3931262 -0.675048,-0.3126463 -1.766067,-0.9637752 -0.869099,-0.049874 0.545098,0.3728065 0.553448,1.0645139 1.179505,1.4523719 1.21301,1.3176097 2.585481,2.4723257 3.693507,3.8884877 1.767822,2.006788 4.049006,3.650653 5.414877,5.959742 0.100115,0.402912 0.845112,1.496062 0.08414,1.211148 0.17429,0.457391 0.651665,1.285755 -0.392662,0.832604 -0.653997,-0.459865 -0.748091,0.32018 -1.41167,-0.161055 -0.253259,0.2291 0.638667,1.370215 0.661082,1.938846 -0.111695,0.958871 1.233874,1.699309 0.984294,2.701204 0.05958,0.481502 0.23298,1.45524 -0.535425,0.894604 -0.624578,-0.499624 -0.388188,0.577574 -1.062473,0.253445 C 19.707058,25.619255 19.21225,25.766182 18.600028,25.30281 14.29875,21.605485 11.103227,16.837772 7.3758876,12.595115 6.9475961,11.986845 6.3283144,10.877422 6.6482074,12.117367 c 0.2856466,0.595409 -0.052922,1.198677 0.295313,1.847572 0.3917097,1.747591 1.0029304,3.433852 1.254426,5.214302 0.5275864,2.621837 1.6812056,5.186052 1.7095539,7.868715 -0.1147776,0.399 -0.016149,1.718145 -0.532677,1.090959 -0.077732,0.483236 -0.078546,1.439358 -0.756371,0.524751 -0.336467,-0.725258 -0.8079694,-0.09672 -1.142026,-0.845273 -0.333815,0.0718 -0.1319438,1.506015 -0.3968176,2.009687 -0.5761415,0.774633 0.2188034,2.0885 -0.4981002,2.831508 -0.1891647,0.446785 -0.5257691,1.376829 -0.910931,0.507073 C 5.3794743,32.421629 5.0455573,33.472788 4.6237405,32.854795 4.2570746,32.040778 3.7551321,31.92063 3.4566235,31.213229 1.5791279,25.861452 1.1968543,20.133759 0.09008174,14.59597 0.02331587,13.855012 0.04169522,12.584634 -0.30125228,13.818409 c -0.0503291,0.65844 -0.64514588,1.011537 -0.6680262,1.747651 -0.53454902,1.709314 -0.84834912,3.475259 -1.52076402,5.14292 -0.8540175,2.53437 -1.1370553,5.331861 -2.453846,7.669285 -0.2988986,0.288131 -0.8730762,1.479925 -1.006808,0.678488 -0.308946,0.379636 -0.7877005,1.20725 -0.917408,0.07625 0.071227,-0.79629 -0.6513126,-0.487829 -0.566355,-1.303104 -0.3250016,-0.104783 -0.8672805,1.238278 -1.348501,1.542017 -0.8862374,0.382674 -0.8547593,1.918087 -1.8471095,2.203038 -0.387192,0.292332 -1.143787,0.929417 -1.04241,-0.01637 0.120333,-0.790715 -0.694417,-0.04744 -0.750752,-0.793496 0.08944,-0.888281 -0.285133,-1.24336 -0.18988,-2.00524 1.04994,-5.573522 3.5827271,-10.724986 5.3931269,-16.07424 0.3126463,-0.675048 0.9637752,-1.766067 0.049874,-0.869099 -0.3728065,0.545099 -1.0645139,0.553448 -1.4523719,1.179505 -1.3176097,1.21301 -2.4723254,2.585481 -3.8884884,3.693507 -2.006787,1.767822 -3.650652,4.049006 -5.959742,5.414877 -0.402911,0.100115 -1.496061,0.845112 -1.211148,0.08414 -0.457391,0.17429 -1.285755,0.651665 -0.832604,-0.392662 0.459866,-0.653996 -0.320179,-0.748091 0.161055,-1.41167 -0.229099,-0.253258 -1.370214,0.638667 -1.938846,0.661082 -0.95887,-0.111694 -1.699308,1.233874 -2.701204,0.984294 -0.481501,0.05958 -1.455239,0.23298 -0.894604,-0.535425 0.499625,-0.624578 -0.577573,-0.388188 -0.253445,-1.062473 0.521624,-0.724548 0.374697,-1.219356 0.838068,-1.831578 3.697326,-4.301278 8.465039,-7.496801 12.707695,-11.2241401 0.608271,-0.4282914 1.717694,-1.0475732 0.477748,-0.7276802 -0.595408,0.2856465 -1.198676,-0.052922 -1.847572,0.295313 -1.74759,0.3917096 -3.433851,1.0029304 -5.214302,1.254426 -2.621836,0.5275864 -5.186052,1.6812055 -7.868715,1.7095539 -0.399,-0.1147776 -1.718144,-0.016149 -1.090959,-0.532677 -0.483235,-0.077732 -1.439357,-0.078547 -0.524751,-0.756371 0.725259,-0.3364671 0.09672,-0.8079694 0.845273,-1.142026 -0.0718,-0.333815 -1.506014,-0.1319439 -2.009687,-0.3968176 -0.774632,-0.5761415 -2.088499,0.2188033 -2.831508,-0.4981002 -0.446785,-0.1891648 -1.376829,-0.5257692 -0.507073,-0.910931 0.745033,-0.2911032 -0.306127,-0.6250203 0.311866,-1.046837 0.814018,-0.3666659 0.934166,-0.8686084 1.641566,-1.167117 5.351778,-1.8774957 11.079471,-2.2597692 16.617259,-3.3665418 0.740959,-0.06678221 2.012407,-0.04748758 0.778268,-0.39077996 -0.65844,-0.0503291 -1.011536,-0.64514588 -1.747651,-0.6680262 -1.709314,-0.53454904 -3.475259,-0.84834914 -5.14292,-1.52076404 -2.53437,-0.8540174 -5.331861,-1.1370553 -7.669285,-2.453846 -0.288131,-0.2988986 -1.479925,-0.8730761 -0.678488,-1.006808 -0.379636,-0.308946 -1.207249,-0.7877005 -0.07625,-0.917408 0.79629,0.071227 0.487829,-0.6513126 1.303104,-0.566355 0.104783,-0.3250015 -1.238278,-0.8672805 -1.542017,-1.348501 -0.382674,-0.8862374 -1.918087,-0.8547593 -2.203038,-1.8471088 -0.292332,-0.387193 -0.929416,-1.143787 0.01637,-1.04241 0.790715,0.120332 0.04744,-0.694418 0.793496,-0.750752 0.888281,0.08944 1.24336,-0.285134 2.00524,-0.18988 5.573522,1.04994 10.724987,3.5827264 16.07424,5.3931262 0.675048,0.3126463 1.766067,0.9637752 0.869099,0.049874 -0.545098,-0.3728065 -0.553448,-1.0645139 -1.179505,-1.4523719 -1.21301,-1.3176097 -2.585481,-2.4723257 -3.693507,-3.8884877 -1.767822,-2.006788 -4.049006,-3.650653 -5.414877,-5.959742 -0.100115,-0.402912 -0.845112,-1.496062 -0.08414,-1.211148 -0.17429,-0.457391 -0.651665,-1.285755 0.392662,-0.832604 0.653997,0.459865 0.748091,-0.32018 1.41167,0.161055 0.253259,-0.2291 -0.638667,-1.370215 -0.661082,-1.938846 0.111695,-0.958871 -1.233874,-1.699309 -0.984294,-2.701204 -0.05958,-0.481502 -0.23298,-1.45524 0.535425,-0.894604 0.624578,0.499624 0.388188,-0.577574 1.062473,-0.253445 0.724548,0.521623 1.219356,0.374696 1.831578,0.838068 4.301278,3.697325 7.496801,8.465038 11.2241404,12.707695 0.4282915,0.60827 1.0475732,1.717693 0.7276802,0.477748 -0.2856466,-0.595409 0.052922,-1.198677 -0.295313,-1.847572 -0.3917097,-1.747591 -1.0029304,-3.433852 -1.254426,-5.214302 -0.5275864,-2.621837 -1.6812056,-5.186052 -1.7095539,-7.868715 0.1147776,-0.399 0.016149,-1.718145 0.532677,-1.090959 0.077732,-0.483236 0.078546,-1.439358 0.756371,-0.524751 0.336467,0.725258 0.8079694,0.09672 1.142026,0.845273 0.333815,-0.0718 0.1319438,-1.506015 0.3968176,-2.009687 0.5761415,-0.774633 -0.2188034,-2.0885 0.4981002,-2.831508 0.1891647,-0.446785 0.5257691,-1.376829 0.910931,-0.507073 0.2911032,0.745032 0.6250202,-0.306127 1.046837,0.311866 0.3666659,0.814017 0.8686084,0.934165 1.167117,1.641566 1.8774956,5.351777 2.2597692,11.07947 3.36654176,16.617259 0.06676587,0.740958 0.04838652,2.011336 0.39133402,0.777561 0.0503291,-0.65844 0.64514588,-1.011537 0.6680262,-1.747651 0.53454902,-1.709314 0.84834912,-3.475259 1.52076402,-5.14292 0.8540175,-2.53437 1.1370553,-5.331861 2.453846,-7.669285 0.2988986,-0.288131 0.8730762,-1.479925 1.006808,-0.678488 0.308946,-0.379636 0.7877005,-1.20725 0.917408,-0.07625 -0.071227,0.79629 0.6513126,0.487829 0.566355,1.303104 0.3250016,0.104783 0.8672805,-1.238278 1.348501,-1.542017 0.8862374,-0.382674 0.8547593,-1.918087 1.8471095,-2.203038 0.387192,-0.292332 1.143787,-0.929417 1.04241,0.01637 -0.120333,0.790715 0.694417,0.04744 0.750752,0.793496 -0.08944,0.888281 0.285133,1.24336 0.18988,2.00524 -1.04994,5.573522 -3.5827271,10.724986 -5.3931269,16.07424 -0.3126463,0.675048 -0.9637752,1.766067 -0.049874,0.869099 0.3728065,-0.545099 1.0645139,-0.553448 1.4523719,-1.179505 1.3176097,-1.21301 2.4723254,-2.585481 3.8884884,-3.693507 2.006787,-1.767822 3.650652,-4.049006 5.959742,-5.414877 0.402911,-0.100115 1.496061,-0.845112 1.211148,-0.08414 0.457391,-0.17429 1.285755,-0.651665 0.832604,0.392662 -0.459866,0.653996 0.320179,0.748091 -0.161055,1.41167 0.229099,0.253258 1.370214,-0.638667 1.938846,-0.661082 0.95887,0.111694 1.699308,-1.233874 2.701204,-0.984294 0.481501,-0.05958 1.455239,-0.23298 0.894604,0.535425 -0.499625,0.624578 0.577573,0.388188 0.253445,1.062473 -0.521624,0.724548 -0.374697,1.219356 -0.838068,1.831578 -3.697326,4.301278 -8.465039,7.496801 -12.707695,11.2241401 -0.608271,0.4282914 -1.717694,1.0475732 -0.477748,0.7276802 0.595408,-0.2856465 1.198676,0.052922 1.847572,-0.295313 1.74759,-0.3917096 3.433851,-1.0029304 5.214302,-1.254426 2.621836,-0.5275864 5.186052,-1.6812055 7.868715,-1.7095539 0.399,0.1147776 1.718144,0.016149 1.090959,0.532677 0.483235,0.077732 1.439357,0.078547 0.524751,0.756371 -0.725259,0.3364671 -0.09672,0.8079694 -0.845273,1.142026 0.0718,0.333815 1.506014,0.1319439 2.009687,0.3968176 0.774632,0.5761415 2.088499,-0.2188033 2.831508,0.4981002 0.446785,0.1891648 1.376829,0.5257692 0.507073,0.910931 -0.745033,0.2911032 0.306127,0.6250203 -0.311866,1.046837 -0.814018,0.3666659 -0.934166,0.8686084 -1.641566,1.167117 C 25.862082,-1.5792041 20.134389,-1.1969306 14.596601,-0.090158 14.115797,0.00853404 13.625069,-0.01823117 13.137619,0 Z m 2.691145,0 c -0.392914,0.5117156 0.665145,0.82900942 0.968152,1.1762972 3.977563,1.8487727 8.54538,2.2629683 12.58422,4.0357669 1.768894,0.6582763 3.254461,1.8480406 4.798018,2.8449168 0.566555,0.5175401 1.763673,1.3005404 0.885955,2.0134871 -0.306232,0.463615 -1.067048,0.904735 -0.616122,1.58604 0.2031,1.039458 -1.364562,0.94591 -2.07729,0.9489 -5.327192,-0.40978 -10.48263,-1.95725 -15.504581,-3.722232 -1.104018,-0.2431294 -2.317825,-0.5495211 -3.285405,-0.9006899 -0.31262,0.4061237 0.339621,1.1011619 0.440648,1.604871 3.156946,4.1765869 7.776055,7.2080519 10.266913,11.8892939 0.594053,1.408304 1.719282,2.797842 1.662272,4.353778 -0.426126,0.596828 -1.279186,0.506263 -1.832912,0.93879 -0.02463,0.688417 -0.44452,1.306013 -1.195637,0.925478 -2.720501,-1.248831 -4.893882,-3.542747 -7.140797,-5.512244 -2.668459,-2.431151 -4.760451,-5.429067 -7.460571,-7.821026 -0.2182957,-0.973502 -0.8933884,-0.771646 -0.861675,-0.036 -0.3283711,2.719888 1.008822,5.419389 1.5088486,8.086077 0.8282976,3.113086 1.6515014,6.351745 1.2482284,9.572695 -0.0056,1.117408 -0.07866,2.428389 -0.6576784,3.361306 C 8.8919078,35.649347 8.1983423,35.144392 7.5025916,35.242181 7.1371342,35.826104 6.4646626,36.151 6.0044706,35.445856 4.2729028,33.003996 3.5376225,29.930811 2.5764996,27.101694 1.4811235,23.662023 1.1683465,20.01976 0.02598008,16.59819 c 0.3465839,-1.182875 -0.45167146,-0.974934 -0.78041839,-0.419914 -1.66576489,2.405392 -1.89353299,5.567228 -2.84744739,8.309823 -0.7873856,2.916857 -1.7106939,5.897444 -3.5420501,8.319574 -0.5635469,0.964931 -1.2822293,2.063731 -2.2501777,2.582206 -0.7298895,-0.0707 -1.0781225,-0.854749 -1.7294935,-1.117912 -0.608467,0.322991 -1.353287,0.268227 -1.39924,-0.572593 -0.278456,-2.980506 0.621253,-6.009594 1.20349,-8.940244 0.771226,-3.526528 2.321483,-6.837211 3.0429455,-10.371564 0.7338496,-0.675666 0.2216387,-1.15978 -0.3996222,-0.764157 -2.5196983,1.075416 -4.1889163,3.583323 -6.2483273,5.349662 -2.281887,2.273831 -4.674982,4.606163 -7.66608,5.867336 -0.970499,0.55385 -2.142332,1.146216 -3.239797,1.111187 -0.596827,-0.426126 -0.506263,-1.279186 -0.93879,-1.832912 -0.688417,-0.02463 -1.306012,-0.44452 -0.925478,-1.195637 1.248831,-2.720501 3.542747,-4.893881 5.512244,-7.140797 2.431151,-2.668459 5.429067,-4.760451 7.821026,-7.4605708 0.973503,-0.2182957 0.771647,-0.8933884 0.036,-0.861675 -2.719888,-0.3283711 -5.419389,1.0088219 -8.086077,1.5088486 -3.113085,0.8282976 -6.351745,1.6515012 -9.572695,1.2482282 -1.117408,-0.0056 -2.428388,-0.07866 -3.361306,-0.6576782 -0.303845,-0.6674429 0.201109,-1.3610084 0.10332,-2.0567591 -0.583922,-0.3654574 -0.908819,-1.037929 -0.203675,-1.498121 2.441861,-1.7315678 5.515046,-2.4668481 8.344162,-3.427971 3.439671,-1.095376 7.081934,-1.4081531 10.503504,-2.55051947 1.182764,0.34614767 0.974735,-0.45191626 0.419773,-0.78065998 -2.405392,-1.66576485 -5.567228,-1.89353305 -8.309823,-2.84744735 -2.916857,-0.7873856 -5.897444,-1.710694 -8.319574,-3.5420502 -0.964931,-0.5635468 -2.063731,-1.2822293 -2.582206,-2.2501777 0.0707,-0.72989 0.854749,-1.078122 1.117912,-1.729493 -0.322991,-0.608468 -0.268227,-1.353288 0.572593,-1.39924 2.980506,-0.278456 6.009594,0.621252 8.940244,1.20349 3.526528,0.771226 6.837211,2.3214826 10.371564,3.0429451 0.675666,0.7338496 1.15978,0.2216387 0.764157,-0.3996222 -1.075415,-2.5196979 -3.583323,-4.1889159 -5.349662,-6.2483269 -2.273831,-2.281887 -4.606162,-4.674983 -5.867336,-7.66608 -0.55385,-0.9705 -1.146216,-2.142332 -1.111187,-3.239797 0.426126,-0.596828 1.279186,-0.506263 1.832912,-0.93879 0.02463,-0.688417 0.44452,-1.306013 1.195637,-0.925478 2.720501,1.248831 4.893882,3.542747 7.140797,5.512244 2.668459,2.431151 4.760451,5.429067 7.460571,7.821026 0.2182957,0.973502 0.8933884,0.771646 0.861675,0.036 0.3283711,-2.719888 -1.008822,-5.419389 -1.5088486,-8.086077 -0.8282976,-3.113086 -1.6515014,-6.351745 -1.2482284,-9.572695 0.0056,-1.117408 0.07866,-2.428389 0.6576784,-3.361306 0.6674428,-0.303846 1.3610083,0.201109 2.056759,0.10332 0.3654574,-0.583923 1.037929,-0.908819 1.498121,-0.203675 1.7315678,2.44186 2.4668481,5.515045 3.427971,8.344162 1.0953761,3.439671 1.4081531,7.081934 2.55051952,10.503504 -0.3465839,1.182875 0.45167146,0.974934 0.78041839,0.419914 1.66576489,-2.405392 1.89353299,-5.567228 2.84744739,-8.309823 0.7873856,-2.916857 1.7106939,-5.897444 3.5420501,-8.319574 0.5635469,-0.964931 1.2822293,-2.063731 2.2501777,-2.582206 0.7298895,0.0707 1.0781225,0.854749 1.7294935,1.117912 0.608467,-0.322991 1.353287,-0.268227 1.39924,0.572593 0.278456,2.980506 -0.621253,6.009594 -1.20349,8.940244 -0.771226,3.526528 -2.321483,6.837211 -3.0429455,10.371564 -0.7338496,0.675666 -0.2216387,1.15978 0.3996222,0.764157 2.5196983,-1.075416 4.1889163,-3.583323 6.2483273,-5.349662 2.281887,-2.273831 4.674982,-4.606163 7.66608,-5.867336 0.970499,-0.55385 2.142332,-1.146216 3.239797,-1.111187 0.596827,0.426126 0.506263,1.279186 0.93879,1.832912 0.688417,0.02463 1.306012,0.44452 0.925478,1.195637 -1.248831,2.720501 -3.542747,4.893881 -5.512244,7.140797 -2.431151,2.668459 -5.429067,4.760451 -7.821026,7.4605708 -0.973503,0.2182957 -0.771647,0.8933884 -0.036,0.861675 2.719888,0.3283711 5.419389,-1.0088219 8.086077,-1.5088486 3.113085,-0.8282976 6.351745,-1.6515012 9.572695,-1.2482282 1.117408,0.0056 2.428388,0.07866 3.361306,0.6576782 0.303845,0.6674429 -0.201109,1.3610084 -0.10332,2.0567591 0.583922,0.3654574 0.908819,1.037929 0.203675,1.498121 -2.441861,1.7315678 -5.515046,2.4668481 -8.344162,3.427971 -3.439671,1.095376 -7.081934,1.4081531 -10.503504,2.55051947 z m 2.353375,0 c 1.357918,0.72348322 2.876159,1.2102089 4.176881,2.0203525 3.253958,1.1932018 6.731548,1.9812908 9.79311,3.631765 1.120398,0.9592219 2.182751,1.7659857 3.545298,2.4122664 0.713397,0.616493 1.693743,1.1163653 2.193959,1.8051595 -0.434725,0.3142366 -0.347936,0.6412076 -0.515113,1.0535386 -0.695668,0.09921 -1.419785,0.07302 -1.884784,0.59663 -1.442751,-0.065 -2.63587,0.527397 -4.084718,0.26271 C 26.98484,11.923927 22.70254,10.32153 18.414887,9.4082184 17.459686,9.0566823 16.507299,9.8386801 15.749656,9.1258302 c 0.850419,1.2784858 1.874737,2.4668428 2.603593,3.8034038 2.221404,2.66033 4.839039,5.081634 6.665206,8.041766 0.49064,1.390903 1.007252,2.620785 1.864141,3.861755 0.309572,0.890591 0.90864,1.813665 0.997415,2.660275 -0.533706,0.05475 -0.621867,0.38138 -0.972871,0.654826 -0.65206,-0.26189 -1.266091,-0.646758 -1.930566,-0.425708 -1.21689,-0.777791 -2.546475,-0.861129 -3.668825,-1.814864 -3.900211,-2.088497 -6.807612,-5.617333 -10.064156,-8.552134 -0.651476,-0.781989 -1.8672687,-0.581015 -2.1669951,-1.577196 0.097292,1.532443 0.3902109,3.073763 0.353064,4.595665 0.5936531,3.41461 1.6498681,6.820332 1.7513831,10.296965 -0.270551,1.449908 -0.437823,2.773315 -0.316432,4.276459 -0.177174,0.926047 -0.119909,2.025046 -0.46633,2.802565 -0.4895283,-0.219375 -0.7292656,0.01928 -1.1699161,0.08074 C 8.7946439,37.277544 8.4552254,36.637294 7.7692934,36.496406 7.1043033,35.214396 5.9945495,34.477413 5.4994314,33.090284 3.1660074,29.331478 2.4125468,24.821726 1.0596784,20.651851 0.88649655,19.648837 -0.26691215,19.21511 -0.02840008,18.202476 c -0.68196266,1.375792 -1.19894652,2.857083 -1.99207112,4.156521 -1.1932019,3.253958 -1.9812908,6.731548 -3.631765,9.79311 -0.9592219,1.120398 -1.7659857,2.182751 -2.4122664,3.545298 -0.616493,0.713397 -1.1163653,1.693743 -1.8051595,2.193959 -0.3142359,-0.434725 -0.6412079,-0.347935 -1.0535389,-0.515113 -0.09921,-0.695668 -0.07302,-1.419785 -0.59663,-1.884784 0.065,-1.442751 -0.527397,-2.635869 -0.26271,-4.084718 -0.141505,-4.421932 1.460892,-8.704232 2.3742039,-12.991885 0.3515361,-0.955201 -0.4304617,-1.907588 0.2823882,-2.665231 -1.2784861,0.850419 -2.4668431,1.874737 -3.8034041,2.603593 -2.660329,2.221404 -5.081633,4.83904 -8.041766,6.665206 -1.390902,0.49064 -2.620785,1.007252 -3.861755,1.864141 -0.89059,0.309572 -1.813665,0.908641 -2.660275,0.997415 -0.05475,-0.533706 -0.381379,-0.621867 -0.654826,-0.972871 0.26189,-0.65206 0.646759,-1.266091 0.425708,-1.930566 0.777791,-1.21689 0.861129,-2.546475 1.814864,-3.668825 2.088497,-3.900211 5.617334,-6.807612 8.552134,-10.064156 0.781989,-0.651476 0.581016,-1.8672685 1.577196,-2.1669949 -1.532442,0.097292 -3.073762,0.3902109 -4.595665,0.353064 -3.41461,0.5936529 -6.820332,1.6498679 -10.296965,1.7513829 -1.449908,-0.270551 -2.773315,-0.437822 -4.276459,-0.316432 -0.926047,-0.177174 -2.025046,-0.119909 -2.802565,-0.46633 0.219376,-0.4895281 -0.01928,-0.7292654 -0.08074,-1.1699159 0.552805,-0.433723 1.193054,-0.7731415 1.333942,-1.4590735 1.28201,-0.6649901 2.018993,-1.7747439 3.406122,-2.269862 3.758806,-2.333424 8.268558,-3.0868845 12.438433,-4.439753 1.003043,-0.17317907 1.436772,-1.32671458 2.449471,-1.08793695 -1.375792,-0.68196266 -2.857083,-1.19894655 -4.156521,-1.99207115 -3.253958,-1.1932018 -6.731548,-1.9812908 -9.79311,-3.631765 -1.120398,-0.9592219 -2.182751,-1.7659857 -3.545298,-2.4122664 -0.713397,-0.616493 -1.693743,-1.1163653 -2.193959,-1.8051595 0.434725,-0.3142366 0.347936,-0.6412076 0.515113,-1.0535386 0.695668,-0.09921 1.419785,-0.07302 1.884784,-0.59663 1.442751,0.065 2.63587,-0.527397 4.084718,-0.26271 4.421932,-0.141505 8.704232,1.460892 12.991885,2.3742036 0.955201,0.3515361 1.907588,-0.4304617 2.665231,0.2823882 -0.850419,-1.2784858 -1.874737,-2.4668428 -2.603593,-3.8034038 -2.221404,-2.66033 -4.839039,-5.081634 -6.665206,-8.041766 -0.49064,-1.390903 -1.007252,-2.620785 -1.864141,-3.861755 -0.309572,-0.890591 -0.90864,-1.813665 -0.997415,-2.660275 0.533706,-0.05475 0.621867,-0.38138 0.972871,-0.654826 0.65206,0.26189 1.266091,0.646758 1.930566,0.425708 1.21689,0.777791 2.546475,0.861129 3.668825,1.814864 3.900211,2.088497 6.807612,5.617333 10.064156,8.552134 0.651476,0.781989 1.8672687,0.581015 2.1669951,1.577196 -0.097292,-1.532443 -0.3902109,-3.073763 -0.353064,-4.595665 -0.5936531,-3.41461 -1.6498681,-6.820332 -1.7513831,-10.296965 0.270551,-1.449908 0.437823,-2.773315 0.316432,-4.276459 0.177174,-0.926047 0.119909,-2.025046 0.46633,-2.802565 0.4895283,0.219375 0.7292656,-0.01928 1.1699161,-0.08074 0.433723,0.552804 0.7731415,1.193054 1.4590735,1.333942 0.6649901,1.28201 1.7747439,2.018993 2.269862,3.406122 2.333424,3.758806 3.0868846,8.268558 4.439753,12.438433 0.17318185,1.003014 1.32659055,1.436741 1.08807848,2.449375 0.68196266,-1.375792 1.19894652,-2.857083 1.99207112,-4.156521 1.1932019,-3.253958 1.9812908,-6.731548 3.631765,-9.79311 0.9592219,-1.120398 1.7659857,-2.182751 2.4122664,-3.545298 0.616493,-0.713397 1.1163653,-1.693743 1.8051595,-2.193959 0.3142359,0.434725 0.6412079,0.347935 1.0535389,0.515113 0.09921,0.695668 0.07302,1.419785 0.59663,1.884784 -0.065,1.442751 0.527397,2.635869 0.26271,4.084718 0.141505,4.421932 -1.460892,8.704232 -2.3742039,12.991885 -0.3515361,0.955201 0.4304617,1.907588 -0.2823882,2.665231 1.2784861,-0.850419 2.4668431,-1.874737 3.8034041,-2.603593 2.660329,-2.221404 5.081633,-4.83904 8.041766,-6.665206 1.390902,-0.49064 2.620785,-1.007252 3.861755,-1.864141 0.89059,-0.309572 1.813665,-0.908641 2.660275,-0.997415 0.05475,0.533706 0.381379,0.621867 0.654826,0.972871 -0.26189,0.65206 -0.646759,1.266091 -0.425708,1.930566 -0.777791,1.21689 -0.861129,2.546475 -1.814864,3.668825 -2.088497,3.900211 -5.617334,6.807612 -8.552134,10.064156 -0.781989,0.651476 -0.581016,1.8672685 -1.577196,2.1669949 1.532442,-0.097292 3.073762,-0.3902109 4.595665,-0.353064 3.41461,-0.5936529 6.820332,-1.6498679 10.296965,-1.7513829 1.449908,0.270551 2.773315,0.437822 4.276459,0.316432 0.926047,0.177174 2.025046,0.119909 2.802565,0.46633 -0.219376,0.4895281 0.01928,0.7292654 0.08074,1.1699159 -0.552805,0.433723 -1.193054,0.7731415 -1.333942,1.4590735 -1.28201,0.6649901 -2.018993,1.7747439 -3.406122,2.269862 -3.758806,2.333424 -8.268558,3.0868845 -12.438433,4.439753 C 19.618564,-0.89306565 19.284596,0.26795441 18.182139,0 Z"
     fill="none"
     stroke="#000000"
     stroke-width="0.075831"
     id="path11" />
</svg>
