<?xml version="1.0" encoding="UTF-8" standalone="no"?>
<svg
   height="600px"
   version="1.1"
   viewBox="-43.86745402157977 -43.86745402157977 87.73490804315958 87.73490804315954"
   width="600px"
   id="svg13"
   sodipodi:docname="cir_seasonal-US-Ha_rere_21_10_100_10_0_0.8_bezier_simple.svg"
   inkscape:version="1.1.1 (c3084ef, 2021-09-22)"
   xmlns:inkscape="http://www.inkscape.org/namespaces/inkscape"
   xmlns:sodipodi="http://sodipodi.sourceforge.net/DTD/sodipodi-0.dtd"
   xmlns="http://www.w3.org/2000/svg"
   xmlns:svg="http://www.w3.org/2000/svg">
  <sodipodi:namedview
     id="namedview15"
     pagecolor="#ffffff"
     bordercolor="#666666"
     borderopacity="1.0"
     inkscape:pageshadow="2"
     inkscape:pageopacity="0.0"
     inkscape:pagecheckerboard="0"
     showgrid="false"
     inkscape:zoom="1.1983333"
     inkscape:cx="300"
     inkscape:cy="310.01391"
     inkscape:window-width="1312"
     inkscape:window-height="969"
     inkscape:window-x="63"
     inkscape:window-y="38"
     inkscape:window-maximized="0"
     inkscape:current-layer="svg13" />
  <defs
     id="defs9" />
  <path
     d="m 3.9673639,0 c 4.9469696,0.03232127 9.5680391,0.84712192 14.4259571,1.7412715 0.704491,0.2691462 2.294953,0.4030378 3.33351,0.802028 1.015581,0.2863249 -0.672575,0.3929704 -1.123406,0.332185 C 16.407379,2.8661735 11.577598,1.9015389 7.7268818,1.7581874 7.0436649,1.6532655 7.3548629,1.9660294 6.5864761,1.7840319 6.1416097,1.7864563 5.0242955,1.4642014 4.9801299,1.5950407 4.9264399,1.6765777 4.7449508,1.5804689 4.8067864,1.6702539 3.728228,1.4264817 2.08862,0.79776316 1.4270946,0.5871692 2.6040779,1.05379 4.8464838,2.0301656 6.4553748,2.7980746 9.8718822,4.4909377 13.056702,6.533875 16.326894,8.6475139 c 0.523226,0.4987404 1.88659,1.2030935 2.670519,1.9304851 1.09391,0.753202 -0.492321,0.21338 -0.727088,0.131816 C 14.27917,9.018529 10.109024,6.3038117 6.4848994,4.5720845 5.8895108,4.2467489 6.0418125,4.6159836 5.4024226,4.1687765 4.9904933,4.0007724 4.0815576,3.2755227 3.99066,3.3794435 3.9098079,3.4342166 3.7789521,3.2760014 3.8017056,3.3826075 2.8985377,2.7446453 1.6243362,1.536323 1.0937482,1.0886148 c 0.7179588,0.6888651 2.34831,2.4036119 3.429394,3.5627769 2.6958627,2.9842539 4.9233691,6.2293363 7.2516858,9.5859173 0.292543,0.661016 1.282514,1.833512 1.728489,2.805538 0.722352,1.114501 -0.536522,0.0087 -0.722205,-0.156518 C 9.7116506,13.724568 7.0556058,9.9082116 4.2472544,6.6801336 4.0881341,6.5550146 3.7963832,6.2766577 3.7035397,6.3179156 3.2610981,5.7963158 2.7258778,4.9469769 2.3706867,4.5785121 2.4713603,4.9522961 2.109032,4.2254044 2.2631556,4.6458359 1.6441836,3.696942 0.92690593,2.06337 0.59392265,1.4242936 1.0155524,2.4029379 1.8558119,4.5258186 2.3988542,6.0282429 3.7474904,9.8170324 4.5635873,13.667475 5.4301799,17.659565 5.4511232,18.413481 5.936063,19.934099 5.9648825,21.046283 6.0889878,22.094051 5.344421,20.575247 5.2280573,20.135459 3.6308832,16.25525 2.6738366,11.423975 1.3326698,7.8114969 1.1681179,7.1401405 0.9982857,7.547344 0.87237702,6.7678045 0.69988555,6.3577306 0.57002047,5.2021685 0.43224662,5.2114018 0.33637219,5.1929939 0.35569457,4.9885588 0.29641316,5.0800277 0.1088846,3.9902756 0.06229642,2.2349071 0.00369777,1.5431127 0.01246075,2.6140621 0.00269649,4.9082058 -0.09061811,6.4873249 -0.29454169,10.50378 -1.0140781,14.373558 -1.7411699,18.393387 c -0.2691462,0.704491 -0.4030378,2.294953 -0.802028,3.33351 -0.2863249,1.01558 -0.3929704,-0.672575 -0.332185,-1.123406 0.00931,-4.196046 0.9739456,-9.025827 1.1172971,-12.8765435 0.1049219,-0.6832169 -0.207842,-0.372019 -0.025845,-1.1404057 -0.00242,-0.4448664 0.3198305,-1.5621806 0.1889912,-1.6063462 -0.081537,-0.05369 0.014572,-0.2351791 -0.075213,-0.1733435 0.2437722,-1.0785584 0.87249074,-2.7181664 1.0830847,-3.3796918 -0.40662873,0.9848287 -1.262329,3.1012793 -1.9792064,4.5317634 -1.7254182,3.6326928 -3.87108,6.9324433 -6.0811383,10.3680363 -0.4987404,0.523226 -1.2030935,1.886589 -1.9304857,2.670519 -0.753202,1.093909 -0.213379,-0.492321 -0.131816,-0.727088 1.6912866,-3.991155 4.4060039,-8.161302 6.1377311,-11.7854259 0.3253356,-0.5953887 -0.043899,-0.443087 0.403308,-1.0824768 0.1680041,-0.4119293 0.8932538,-1.320865 0.789333,-1.4117626 -0.054773,-0.080852 0.1034421,-0.211708 -0.00316,-0.1889544 0.6379622,-0.9031679 1.8462845,-2.1773695 2.2939927,-2.7079574 -0.7009023,0.7060119 -2.3495739,2.4023958 -3.5627769,3.429394 -2.9842539,2.6958627 -6.2293359,4.9233691 -9.5859169,7.2516861 -0.661016,0.292543 -1.833513,1.282514 -2.805538,1.728489 -1.114501,0.722352 -0.0087,-0.536523 0.156518,-0.722205 3.16176,-3.0694618 6.9781171,-5.7255064 10.206195,-8.5338579 0.125119,-0.1591203 0.4034759,-0.4508712 0.362218,-0.5437147 0.5215998,-0.4424416 1.3709387,-0.9776619 1.7394035,-1.332853 -0.373784,0.1006736 0.3531077,-0.2616547 -0.067324,-0.1075311 0.9488939,-0.618972 2.5824659,-1.33624969 3.2215423,-1.66923297 -1.1598174,0.50829987 -3.4334296,1.40923377 -5.1188755,1.99218557 -3.6129035,1.21879 -7.3094375,2.0262586 -11.1163955,2.8440717 -0.753916,0.020943 -2.274534,0.5058831 -3.386718,0.5347026 -1.047768,0.1241053 0.471035,-0.6204615 0.910824,-0.7368252 3.880209,-1.5971741 8.711484,-2.5542208 12.3239617,-3.8953875 0.6713564,-0.1645519 0.2641529,-0.33438412 1.0436924,-0.4602928 0.4100739,-0.17249147 1.565636,-0.30235655 1.5564027,-0.4401304 0.018408,-0.0958744 0.222843,-0.076552 0.1313741,-0.13583346 1.0897521,-0.18752856 2.8451206,-0.23411674 3.536915,-0.29271539 -1.2826995,0.02189351 -3.7205122,-0.01878281 -5.4916371,-0.11853645 -3.8042698,-0.25657706 -7.5285548,-0.9251885 -11.3586728,-1.6264985 -0.704491,-0.2691462 -2.294953,-0.4030378 -3.33351,-0.802028 -1.015581,-0.2863249 0.672575,-0.3929704 1.123406,-0.332185 4.196046,0.00931 9.025827,0.9739456 12.8765432,1.1172971 0.6832169,0.1049219 0.3720189,-0.207842 1.1404057,-0.025845 0.4448664,-0.00242 1.5621806,0.3198305 1.6063462,0.1889912 0.05369,-0.081537 0.2351791,0.014572 0.1733435,-0.075213 1.0785584,0.2437722 2.7181664,0.87249074 3.3796918,1.0830847 -1.1769833,-0.4666208 -3.4193892,-1.4429964 -5.0282802,-2.2109054 -3.4165074,-1.6928631 -6.6013272,-3.7358004 -9.8715192,-5.8494393 -0.523226,-0.4987404 -1.88659,-1.2030935 -2.670519,-1.9304851 -1.09391,-0.753202 0.492321,-0.21338 0.727088,-0.131816 3.991155,1.691286 8.161301,4.4060033 11.7854256,6.1377305 0.5953886,0.3253356 0.4430869,-0.043899 1.0824768,0.403308 0.4119293,0.1680041 1.320865,0.8932538 1.4117626,0.789333 0.080852,-0.054773 0.2117079,0.1034421 0.1889544,-0.00316 0.9031679,0.6379622 2.1773694,1.8462845 2.7079574,2.2939927 -0.7179588,-0.6888651 -2.34831,-2.4036119 -3.429394,-3.5627769 -2.6958627,-2.9842539 -4.9233691,-6.2293363 -7.2516858,-9.5859173 -0.292543,-0.661016 -1.282514,-1.833512 -1.728489,-2.805538 -0.722352,-1.114501 0.536522,-0.0087 0.722205,0.156518 3.0694614,3.161761 5.7255062,6.9781174 8.5338576,10.2061954 0.1591203,0.125119 0.4508712,0.4034759 0.5437147,0.362218 0.4424416,0.5215998 0.9776619,1.3709387 1.332853,1.7394035 -0.1006736,-0.373784 0.2616547,0.3531077 0.1075311,-0.067324 0.618972,0.9488939 1.33624967,2.5824659 1.66923295,3.2215423 -0.42162975,-0.9786443 -1.26188925,-3.101525 -1.80493155,-4.6039493 -1.3486362,-3.7887895 -2.1647331,-7.6392321 -3.0313257,-11.6313221 -0.020943,-0.753916 -0.5058831,-2.274534 -0.5347026,-3.386718 -0.1241053,-1.047768 0.6204615,0.471036 0.7368252,0.910824 1.5971741,3.880209 2.5542207,8.711484 3.8953875,12.3239621 0.1645519,0.6713564 0.3343841,0.2641529 0.46029278,1.0436924 0.17249147,0.4100739 0.30235655,1.565636 0.4401304,1.5564027 0.0958744,0.018408 0.0765521,0.222843 0.13583346,0.1313741 0.18752856,1.0897521 0.23411674,2.8451206 0.29271539,3.536915 -0.00876298,-1.0709494 0.00100128,-3.3650931 0.09431588,-4.9442122 0.20392358,-4.0164551 0.92345999,-7.8862331 1.65055179,-11.9060621 0.2691462,-0.704491 0.4030378,-2.294953 0.802028,-3.33351 0.2863249,-1.01558 0.3929704,0.672575 0.332185,1.123406 -0.00931,4.196046 -0.9739456,9.025827 -1.1172971,12.8765435 -0.1049219,0.6832169 0.207842,0.372019 0.025845,1.1404057 0.00242,0.4448664 -0.3198305,1.5621806 -0.1889912,1.6063462 0.081537,0.05369 -0.014572,0.2351791 0.075213,0.1733435 -0.2437722,1.0785584 -0.87249074,2.7181664 -1.0830847,3.3796918 0.40662873,-0.9848287 1.262329,-3.1012793 1.9792064,-4.5317634 1.7254182,-3.6326928 3.87108,-6.9324433 6.0811383,-10.3680363 0.4987404,-0.523226 1.2030935,-1.886589 1.9304857,-2.670519 0.753202,-1.093909 0.213379,0.492321 0.131816,0.727088 -1.6912866,3.991155 -4.4060039,8.161302 -6.1377311,11.7854259 -0.3253356,0.5953887 0.043899,0.443087 -0.403308,1.0824768 -0.1680041,0.4119293 -0.8932538,1.320865 -0.789333,1.4117626 0.054773,0.080852 -0.1034421,0.211708 0.00316,0.1889544 -0.6379622,0.9031679 -1.8462845,2.1773695 -2.2939927,2.7079574 0.7009023,-0.7060119 2.3495739,-2.4023958 3.5627769,-3.429394 2.9842539,-2.6958627 6.2293359,-4.9233691 9.5859169,-7.2516861 0.661016,-0.292543 1.833513,-1.282514 2.805538,-1.728489 1.114501,-0.722352 0.0087,0.536523 -0.156518,0.722205 -3.16176,3.0694618 -6.9781171,5.7255064 -10.206195,8.5338579 -0.125119,0.1591203 -0.4034759,0.4508712 -0.362218,0.5437147 -0.5215998,0.4424416 -1.3709387,0.9776619 -1.7394035,1.332853 0.373784,-0.1006736 -0.3531077,0.2616547 0.067324,0.1075311 -0.9488939,0.618972 -2.5824659,1.33624969 -3.2215423,1.66923297 1.1598174,-0.50829987 3.4334296,-1.40923377 5.1188755,-1.99218557 3.6129035,-1.21879 7.3094375,-2.0262586 11.1163955,-2.8440717 0.753916,-0.020943 2.274534,-0.5058831 3.386718,-0.5347026 1.047768,-0.1241053 -0.471035,0.6204615 -0.910824,0.7368252 -3.880209,1.5971741 -8.711484,2.5542208 -12.3239617,3.8953875 -0.6713564,0.1645519 -0.2641529,0.33438412 -1.0436924,0.4602928 -0.4100739,0.17249147 -1.565636,0.30235655 -1.5564027,0.4401304 -0.018408,0.0958744 -0.222843,0.076552 -0.1313741,0.13583346 C 3.990174,-0.10895028 2.2348055,-0.0623621 1.5430111,-0.00376345 1.6822501,-4.1397375e-4 3.3176607,-5.068388e-4 3.9673639,0 Z M 1.7762161,0 c 4.0354675,0.1125906 8.2622859,0.51885468 12.0831459,1.3772613 1.034094,0.2217932 2.291881,0.5250695 3.175275,0.93949 0.637257,0.2250442 1.5563,0.3703196 1.585899,0.636917 0.609954,0.2108282 1.075055,0.3884202 1.26988,0.654562 0.195386,0.2079021 1.491721,0.3494408 1.007336,0.662655 -0.471016,0.1559803 -0.660815,0.1127741 -1.38541,0.169055 C 17.237734,4.352114 15.1182,4.2493211 12.876204,3.698018 8.7902247,2.81771 4.1898661,1.5970126 0.5340707,0.21909327 1.8891258,0.77355201 3.7735949,1.6163099 5.3040456,2.4325287 c 2.9370042,1.5014095 5.8145094,3.21336 8.2989404,5.1004461 0.868994,0.6838357 1.377726,1.3158378 2.336814,2.0115953 0.006,0.1731404 0.514656,0.6636739 0.842673,1.0162629 0.208226,0.375948 0.517781,0.749476 1.076764,1.237514 0.07841,0.321572 -0.708921,-0.08979 -0.622471,0.145197 C 14.847252,10.893951 12.596536,9.9102436 10.480788,8.3441022 7.0427136,5.9671689 3.2596764,3.0789139 0.40946897,0.40686938 1.2899763,1.2824157 2.579207,2.6293565 3.5621856,3.7939657 5.8412917,6.4510048 8.0159741,9.2962303 9.6846904,12.16523 c 0.5411896,0.96433 0.7693766,1.742881 1.3891886,2.752689 -0.06068,0.16216 0.221542,0.810074 0.389646,1.261301 0.04852,0.426954 0.191551,0.89054 0.521254,1.555351 -0.05062,0.327284 -0.620505,-0.354121 -0.63058,-0.10395 C 9.5482508,15.746415 7.8453202,13.976533 6.4899563,11.719842 4.2232023,8.2081461 1.8334174,4.0920398 0.22271404,0.53266529 0.74509462,1.7775293 1.4404471,3.5911876 1.9264178,5.1352741 c 1.0515851,3.2444009 1.9328806,6.6087909 2.365737,9.8102269 0.1309103,1.098004 0.043762,1.904647 0.2299632,3.074791 -0.1181522,0.126724 -0.1053334,0.833226 -0.1227248,1.314477 -0.1185114,0.413028 -0.163812,0.896056 -0.1136188,1.636412 -0.1719423,0.28284 -0.4377535,-0.56476 -0.542815,-0.337494 C 2.7955204,18.201833 1.8995752,15.914813 1.5109644,13.311305 0.76062417,9.1994727 0.12791835,4.4821554 0.00194063,0.57733272 0.03038286,3.014243 -0.17843547,6.0486039 -0.51874631,8.7185356 -0.80523985,11.38658 -1.2886785,13.757853 -1.9775303,16.237692 c -0.3211996,0.372784 -0.5367025,1.847773 -0.764205,2.007375 -0.2254116,0.601655 -0.4365479,0.826893 -0.683639,1.555698 -0.2777219,-0.13791 -0.4109253,0.904038 -0.700552,1.262037 -0.1930411,-0.291528 -0.2901194,-0.555566 -0.28947,-0.89945 -0.020537,-2.896306 0.2383051,-5.629652 0.9889743,-8.489632 0.8145683,-3.6802341 1.9746871,-7.8677254 3.20732873,-11.1396493 -0.48347165,1.213467 -1.27093093,2.9416256 -1.98943843,4.3413929 -1.5666164,3.0771782 -3.3408172,6.1249664 -5.3244431,8.7275224 -0.6838357,0.868994 -1.3158378,1.377726 -2.0115953,2.336814 -0.1731404,0.006 -0.6636739,0.514656 -1.0162629,0.842673 -0.375948,0.208226 -0.749476,0.517781 -1.237514,1.076764 -0.321572,0.07841 0.08979,-0.708921 -0.145197,-0.622471 1.049593,-2.389514 2.0333004,-4.64023 3.5994418,-6.755978 C -5.9671689,7.0427136 -3.0789139,3.2596764 -0.40686938,0.40946897 -1.2281633,1.2551196 -2.5430988,2.4919083 -3.6535724,3.4383796 c -2.6947753,2.3274242 -5.5922677,4.547088 -8.5116576,6.2463108 -0.96433,0.5411896 -1.742881,0.7693766 -2.752689,1.3891886 -0.16216,-0.06068 -0.810074,0.221542 -1.261301,0.389646 -0.426954,0.04852 -0.89054,0.191551 -1.555351,0.521254 -0.327284,-0.05062 0.354121,-0.620505 0.10395,-0.63058 1.884206,-1.8059482 3.654088,-3.5088788 5.910779,-4.8642427 C -8.2081461,4.2232023 -4.0920398,1.8334174 -0.53266529,0.22271404 -1.8797468,0.7965777 -3.8130197,1.5213716 -5.4706851,2.0304608 c -3.1384308,1.0151106 -6.3836789,1.8392901 -9.4748159,2.261694 -1.098004,0.1309103 -1.904647,0.043762 -3.074791,0.2299632 -0.126724,-0.1181522 -0.833226,-0.1053334 -1.314477,-0.1227248 -0.413028,-0.1185114 -0.896056,-0.163812 -1.636412,-0.1136188 -0.28284,-0.1719423 0.56476,-0.4377535 0.337494,-0.542815 2.431854,-0.947439 4.718874,-1.8433842 7.322382,-2.231995 C -9.1994727,0.76062417 -4.4821554,0.12791835 -0.57733272,0.00194063 -3.014243,0.03038286 -6.0486039,-0.17843547 -8.7185356,-0.51874631 -11.38658,-0.80523985 -13.757853,-1.2886785 -16.237692,-1.9775303 c -0.372784,-0.3211996 -1.847773,-0.5367025 -2.007375,-0.764205 -0.601655,-0.2254116 -0.826893,-0.4365479 -1.555698,-0.683639 0.13791,-0.2777219 -0.904038,-0.4109253 -1.262037,-0.700552 0.291528,-0.1930411 0.555566,-0.2901194 0.89945,-0.28947 2.896306,-0.020537 5.629652,0.2383051 8.489632,0.9889743 3.6802341,0.8145683 7.8677254,1.9746871 11.1396493,3.20732873 -1.3550551,-0.55445874 -3.2395242,-1.39721663 -4.7699749,-2.21343543 -2.9370042,-1.5014095 -5.8145094,-3.21336 -8.2989404,-5.1004461 -0.868994,-0.6838357 -1.377726,-1.3158378 -2.336814,-2.0115953 -0.006,-0.1731404 -0.514656,-0.6636739 -0.842673,-1.0162629 -0.208226,-0.375948 -0.517781,-0.749476 -1.076764,-1.237514 -0.07841,-0.321572 0.708921,0.08979 0.622471,-0.145197 2.389514,1.049593 4.64023,2.0333004 6.755978,3.5994418 3.4380744,2.3769333 7.2211116,5.2651883 10.07131903,7.93723282 C -1.2899763,-1.2824157 -2.579207,-2.6293565 -3.5621856,-3.7939657 -5.8412917,-6.4510048 -8.0159741,-9.2962303 -9.6846904,-12.16523 c -0.5411896,-0.96433 -0.7693766,-1.742881 -1.3891886,-2.752689 0.06068,-0.16216 -0.221542,-0.810074 -0.389646,-1.261301 -0.04852,-0.426954 -0.191551,-0.89054 -0.521254,-1.555351 0.05062,-0.327284 0.620505,0.354121 0.63058,0.10395 1.8059482,1.884206 3.5088788,3.654088 4.8642427,5.910779 2.266754,3.5116959 4.6565389,7.6278022 6.26724226,11.18717671 C -0.74509462,-1.7775293 -1.4404471,-3.5911876 -1.9264178,-5.1352741 c -1.0515851,-3.2444009 -1.9328806,-6.6087909 -2.365737,-9.8102269 -0.1309103,-1.098004 -0.043762,-1.904647 -0.2299632,-3.074791 0.1181522,-0.126724 0.1053334,-0.833226 0.1227248,-1.314477 0.1185114,-0.413028 0.163812,-0.896056 0.1136188,-1.636412 0.1719423,-0.28284 0.4377535,0.56476 0.542815,0.337494 0.947439,2.431854 1.8433842,4.718874 2.231995,7.322382 0.75034023,4.1118323 1.38304605,8.8291496 1.50902377,12.73397228 C -0.03022173,-3.0142467 0.17847418,-6.0486101 0.51882392,-8.7185454 0.80531746,-11.38659 1.2887561,-13.757863 1.9776079,-16.237702 c 0.3211996,-0.372783 0.5367025,-1.847772 0.764205,-2.007375 0.2254116,-0.601655 0.4365479,-0.826893 0.683639,-1.555698 0.2777219,0.137911 0.4109253,-0.904038 0.700552,-1.262037 0.1930411,0.291528 0.2901194,0.555567 0.28947,0.89945 0.020537,2.896306 -0.2383051,5.629652 -0.9889743,8.489632 C 2.6119314,-7.9934957 1.4518125,-3.8060044 0.21917088,-0.53408048 0.70264253,-1.7475474 1.4901018,-3.4757061 2.2086093,-4.8754734 c 1.5666164,-3.0771782 3.3408172,-6.1249656 5.3244431,-8.7275226 0.6838357,-0.868994 1.3158378,-1.377726 2.0115953,-2.336814 0.1731404,-0.006 0.6636733,-0.514656 1.0162633,-0.842673 0.375947,-0.208226 0.749475,-0.517781 1.237514,-1.076764 0.321572,-0.07841 -0.08979,0.708921 0.145197,0.622471 -1.049593,2.389514 -2.0333008,4.640231 -3.5994422,6.755978 C 5.9672465,-7.0427234 3.0789915,-3.2596862 0.40694699,-0.40947875 1.2282409,-1.2551294 2.5431764,-2.4919181 3.65365,-3.4383894 c 2.6947753,-2.3274241 5.5922677,-4.547088 8.511657,-6.2463108 0.964331,-0.5411898 1.742881,-0.7693768 2.752689,-1.3891878 0.162161,0.06068 0.810075,-0.221543 1.261301,-0.389646 0.426954,-0.04852 0.890541,-0.191552 1.555351,-0.521254 0.327284,0.05062 -0.354121,0.620504 -0.10395,0.63058 -1.884206,1.8059474 -3.654087,3.508878 -5.910779,4.8642419 -3.5116952,2.266754 -7.6278016,4.656539 -11.1871761,6.26724228 1.3470815,-0.57386366 3.2803544,-1.29865758 4.9380198,-1.80774678 3.1384308,-1.0151106 6.3836793,-1.8392901 9.4748163,-2.261694 1.098004,-0.1309102 1.904647,-0.043762 3.074791,-0.2299632 0.126723,0.1181523 0.833226,0.1053334 1.314477,0.1227248 0.413028,0.1185115 0.896056,0.163812 1.636412,0.1136188 0.28284,0.1719423 -0.56476,0.4377535 -0.337494,0.542815 -2.431854,0.947439 -4.718874,1.8433842 -7.322382,2.231995 C 9.1995503,-0.76063395 4.482233,-0.12792813 0.57741033,-0.00195041 0.06316286,0.00641949 1.9896298,-0.00585243 1.7762161,0 Z M 2.1160318,0 C 2.1857271,0.03257938 1.7494938,0.03488474 2.2320764,0.05202932 8.9624065,0.5506078 15.807673,1.5387725 21.987216,4.3602123 22.543702,4.6104425 22.46042,5.3360899 21.782056,5.3584463 18.551842,5.8053683 15.322517,4.7277513 12.168066,4.1331454 8.6936603,3.2844495 5.0353624,2.1659827 1.9478276,0.82282442 1.5423165,0.69904507 2.5178747,1.1064497 2.7733983,1.2523978 8.5341377,4.2652508 14.264111,7.6694715 18.683723,12.499817 19.071861,12.979431 18.629016,13.512873 18.02472,13.282809 14.695894,12.340255 11.972939,9.9904302 9.1385803,8.0932061 6.8084635,6.3144359 4.4296988,4.465036 2.4109294,2.4071102 2.2542544,1.7077969 1.4567279,1.5399061 1.3768449,1.4292213 5.8531605,6.5891894 10.057091,12.189509 12.464182,18.630567 c 0.244542,0.696955 -0.488357,0.985614 -0.98951,0.482266 C 8.6883875,16.776009 6.9690451,13.435021 5.0154561,10.419226 3.4316051,7.6879231 1.8805995,4.7538769 0.7909333,1.9349934 0.65167831,1.7056083 0.84031984,2.160688 0.9681997,2.5269769 2.9721046,8.828544 4.6628673,15.396836 4.3727684,22.050385 4.3081461,22.66382 3.6175971,22.727954 3.3531384,22.137857 1.6658811,19.117447 1.4019131,15.530536 0.7393083,12.184762 0.23601414,8.8616771 -0.05485878,5.087987 -0.02851622,2.0391664 -0.06254051,1.9912167 -0.06709103,3.049778 -0.13047992,3.391441 -0.70548062,9.7513458 -1.678635,16.221167 -4.3983743,22.044986 -4.6928467,22.587062 -5.3554231,22.382164 -5.3739163,21.735716 -5.7768941,18.299543 -4.6480985,14.884654 -3.9799004,11.54 -3.1540991,8.2700575 -2.0937934,4.8963402 -0.80884382,1.9272511 -0.7451109,1.6665902 -0.93351669,2.1217677 -1.1020928,2.4711957 -4.1409722,8.3440687 -7.5899566,14.184046 -12.499817,18.683723 c -0.479614,0.388138 -1.013056,-0.05471 -0.782992,-0.659003 0.942554,-3.328826 3.2923788,-6.051781 5.1896029,-8.8861397 1.7561273,-2.352666 3.6596071,-4.6777437 5.6860958,-6.7276509 0.1549442,-0.6995114 0.9782735,-0.8434213 0.977889,-1.0340845 -5.1599681,4.4763156 -10.7602877,8.6802461 -17.2013457,11.0873371 -0.696955,0.244542 -0.985614,-0.488357 -0.482266,-0.98951 2.336824,-2.7862845 5.677812,-4.5056269 8.693607,-6.4592159 2.7195501,-1.5903466 5.723712,-3.1391244 8.4597936,-4.2198578 0.3742825,-0.19922387 -0.6036354,0.20253057 -0.8875144,0.2800086 -6.2038737,1.9430172 -12.6627292,3.5876509 -19.2034382,3.2971615 -0.613435,-0.064622 -0.677569,-0.7551713 -0.08747,-1.01963 3.02041,-1.6872573 6.607321,-1.9512253 9.953095,-2.6138301 3.3027593,-0.48831061 6.9938868,-0.80374906 10.0299146,-0.75939692 0.5285933,-0.0356315 -0.7926675,-0.04331914 -1.0271996,-0.0874833 -6.4281147,-0.58214778 -12.974736,-1.53873338 -18.862939,-4.29080238 -0.542076,-0.2944724 -0.337178,-0.9570488 0.30927,-0.975542 3.436173,-0.4029778 6.851062,0.7258178 10.195716,1.3940159 3.2398932,0.815872 6.7990921,1.9382871 9.5568814,3.13671758 0.5019951,0.16936528 -0.7157507,-0.34336198 -0.9155287,-0.47391498 -5.7160435,-2.9977501 -11.3982257,-6.3868441 -15.7850757,-11.1827192 -0.388138,-0.479614 0.05471,-1.013056 0.659003,-0.782992 3.328826,0.942554 6.051781,3.2923788 8.8861397,5.1896029 2.3301168,1.7787702 4.7088815,3.6281701 6.7276509,5.6860959 0.156675,0.6993133 0.9542015,0.8672041 1.0340845,0.9778889 -4.4763156,-5.1599681 -8.6802461,-10.7602877 -11.0873371,-17.2013457 -0.244542,-0.696955 0.488357,-0.985614 0.98951,-0.482266 2.7862845,2.336824 4.5056269,5.677812 6.4592159,8.693607 1.583851,2.7313029 3.1348566,5.6653491 4.2245228,8.4842326 0.13925499,0.2293851 -0.0493865,-0.2256946 -0.1772664,-0.5919835 -2.0039049,-6.3015671 -3.6946676,-12.8698591 -3.4045687,-19.5234081 0.064622,-0.613435 0.7551713,-0.677569 1.01963,-0.08747 1.6872573,3.02041 1.9512253,6.607321 2.6138301,9.953095 0.50328268,3.3230399 0.79419496,7.0966869 0.76774282,10.1454617 0.03402429,0.04795 0.03857481,-1.0106117 0.1019637,-1.3522746 0.5750007,-6.3599049 1.54815508,-12.8297261 4.26789438,-18.6535451 0.2944724,-0.542076 0.9570488,-0.337178 0.975542,0.30927 0.4029778,3.436173 -0.7258178,6.851062 -1.3940159,10.195716 -0.8258013,3.2699426 -1.886107,6.6436598 -3.17105658,9.612749 -0.0637329,0.2606609 0.12467287,-0.1945166 0.29324898,-0.5439446 3.0388794,-5.872873 6.4878638,-11.7128504 11.3977239,-16.2125274 0.479614,-0.388138 1.013056,0.05471 0.782992,0.659003 -0.942554,3.328826 -3.2923785,6.051781 -5.1896026,8.8861398 -1.7561273,2.352666 -3.6596071,4.6777437 -5.6860958,6.7276508 -0.1549442,0.6995114 -0.9782735,0.8434214 -0.977889,1.0340846 5.1599681,-4.4763156 10.7602874,-8.6802462 17.2013464,-11.0873372 0.696954,-0.244542 0.985613,0.488357 0.482266,0.98951 -2.336825,2.7862846 -5.677813,4.505627 -8.693607,6.459216 -2.7195508,1.5903466 -5.7237127,3.1391243 -8.4597943,4.21985778 -0.3742825,0.19922387 0.6036354,-0.20253057 0.8875144,-0.28000858 6.2038737,-1.9430172 12.6627289,-3.587651 19.2034379,-3.2971615 0.613436,0.064622 0.677569,0.7551713 0.08747,1.01963 -3.02041,1.6872572 -6.607321,1.9512253 -9.953095,2.61383008 C 8.851491,-0.26867992 5.486168,0.0762639 2.1160318,0 Z m 2.2811185,0 c 4.1432768,0.34505757 8.0748047,1.1189816 12.2660507,1.6755 1.539118,0.3797221 3.347578,0.3730922 4.734951,1.031773 -0.354965,0.083726 1.474592,0.4637712 0.677017,0.583704 0.287593,0.245339 -0.243341,0.2862006 0.586083,0.6020366 0.07806,0.4243614 1.165943,0.531187 1.848092,0.878363 0.815418,0.462716 -0.682737,0.2341245 0.0104,0.567998 -0.563849,0.1478549 -1.302399,0.1236109 -2.13368,0.057108 C 22.09356,5.6018911 21.03342,5.5023361 20.471516,5.4171916 16.872759,4.9818572 13.319097,3.9583089 9.7696324,3.4331357 7.8719949,2.9465154 5.8065723,2.3211546 4.0959987,1.7021957 c 3.6820449,1.8974655 7.0132603,4.110033 10.6576543,6.2224989 1.276661,0.9398183 2.949965,1.6257475 3.979702,2.7652304 -0.360002,-0.05846 1.184755,0.99273 0.402015,0.798309 0.171847,0.336686 -0.334373,0.17124 0.311125,0.780479 -0.09022,0.421919 0.873885,0.936943 1.371248,1.518729 0.5762,0.739528 -0.720408,-0.0449 -0.207753,0.528809 -0.577556,-0.07919 -1.250603,-0.384256 -1.993159,-0.763807 -0.348829,0.07785 -1.290216,-0.419743 -1.77674,-0.713461 C 13.681874,11.059601 10.790404,8.7540378 7.7121054,6.9105418 6.1523238,5.7367297 4.4467739,4.3481917 3.1327562,3.1401581 c 2.6733974,3.1621285 4.9108492,6.480961 7.4651348,9.8273449 0.819815,1.356827 2.103277,2.630898 2.618533,4.077688 -0.310191,-0.191799 0.714673,1.370585 0.06591,0.891444 0.02992,0.376918 -0.374569,0.03033 -0.0113,0.840211 -0.244828,0.355275 0.448821,1.200066 0.6857,1.927913 0.249398,0.90378 -0.648305,-0.317251 -0.394263,0.408956 -0.503225,-0.294161 -1.008298,-0.833562 -1.549096,-1.46839 C 11.661177,19.583689 10.982059,18.76373 10.64491,18.306167 8.4080446,15.453698 6.619003,12.217053 4.4804905,9.3359595 3.4827527,7.6500325 2.4644666,5.7473598 1.6925883,4.1001334 c 1.2644545,3.945884 2.048124,7.8643086 3.1361258,11.9360696 0.2381813,1.567282 0.9363646,3.235534 0.8587588,4.769381 -0.2131827,-0.29592 0.1357919,1.539771 -0.280211,0.848803 -0.1165752,0.359633 -0.3575596,-0.11538 -0.331911,0.771912 -0.3621802,0.234505 -0.044581,1.280467 -0.104282,2.043547 -0.1154688,0.930429 -0.4775767,-0.541228 -0.5208,0.226925 C 4.0978756,24.232408 3.8376527,23.540725 3.5809769,22.747291 3.279215,22.55548 2.965554,21.538092 2.8291809,20.986351 1.8541976,17.494944 1.4399083,13.820028 0.5667773,10.339879 0.29020339,8.4004138 0.07740486,6.2528598 -0.00516868,4.4355723 -0.34698604,8.5649669 -1.1224867,12.485021 -1.6755,16.663201 c -0.3797221,1.539118 -0.3730922,3.347578 -1.031773,4.734951 -0.083726,-0.354965 -0.4637712,1.474592 -0.583704,0.677017 -0.245339,0.287593 -0.2862006,-0.243341 -0.6020366,0.586083 -0.4243614,0.07806 -0.531187,1.165943 -0.878363,1.848092 -0.462716,0.815418 -0.2341245,-0.682737 -0.567998,0.0104 -0.1478549,-0.563849 -0.1236109,-1.302399 -0.057108,-2.13368 -0.2054085,-0.292502 -0.1058535,-1.352642 -0.020709,-1.914546 0.4353344,-3.598757 1.4588827,-7.152419 1.9840559,-10.7018836 0.4866203,-1.8976375 1.1119811,-3.9630601 1.73094,-5.6736337 -1.8974655,3.6820449 -4.110033,7.0132603 -6.2224989,10.6576543 -0.9398183,1.276661 -1.6257475,2.949965 -2.7652304,3.979702 0.05846,-0.360002 -0.99273,1.184755 -0.798309,0.402015 -0.336686,0.171847 -0.17124,-0.334373 -0.780479,0.311125 -0.421919,-0.09022 -0.936943,0.873885 -1.518729,1.371248 -0.739528,0.5762 0.0449,-0.720408 -0.528809,-0.207753 0.07919,-0.577556 0.384256,-1.250603 0.763807,-1.993159 -0.07785,-0.348829 0.419743,-1.290216 0.713461,-1.77674 1.779382,-3.158217 4.0849452,-6.049687 5.9284412,-9.1279856 1.1712768,-1.5622888 2.5662333,-3.2615603 3.7703837,-4.5793492 -3.1621285,2.6733974 -6.480961,4.9108492 -9.8273449,7.4651348 -1.356827,0.819815 -2.630898,2.103277 -4.077688,2.618533 0.191799,-0.310191 -1.370585,0.714673 -0.891444,0.06591 -0.376918,0.02992 -0.03033,-0.374569 -0.840211,-0.0113 -0.355275,-0.244828 -1.200066,0.448821 -1.927913,0.6857 -0.90378,0.249398 0.317251,-0.648305 -0.408956,-0.394263 0.294161,-0.503225 0.833562,-1.008298 1.46839,-1.549096 0.06164,-0.352199 0.881595,-1.031317 1.339158,-1.368466 2.852469,-2.2368654 6.089114,-4.025907 8.9702075,-6.1644195 1.6859271,-0.9977378 3.5885997,-2.0160239 5.2358261,-2.7879022 -3.945884,1.2644545 -7.8643086,2.048124 -11.9360696,3.1361258 -1.567282,0.2381813 -3.235534,0.9363646 -4.769381,0.8587588 0.29592,-0.2131827 -1.539771,0.1357919 -0.848803,-0.280211 -0.359633,-0.1165752 0.11538,-0.3575596 -0.771912,-0.331911 -0.234505,-0.3621802 -1.280467,-0.044581 -2.043547,-0.104282 -0.930429,-0.1154688 0.541228,-0.4775767 -0.226925,-0.5208 0.464363,-0.3523933 1.156046,-0.6126162 1.94948,-0.869292 0.191811,-0.3017619 1.209199,-0.6154229 1.76094,-0.751796 3.491407,-0.9749833 7.166323,-1.3892726 10.646472,-2.2624036 1.9394652,-0.27657391 4.0870192,-0.48937244 5.9043067,-0.57194598 C -8.5649669,-0.34698604 -12.485021,-1.1224867 -16.663201,-1.6755 c -1.539118,-0.3797221 -3.347578,-0.3730922 -4.734951,-1.031773 0.354965,-0.083726 -1.474592,-0.4637712 -0.677017,-0.583704 -0.287593,-0.245339 0.243341,-0.2862006 -0.586083,-0.6020366 -0.07806,-0.4243614 -1.165943,-0.531187 -1.848092,-0.878363 -0.815418,-0.462716 0.682737,-0.2341245 -0.0104,-0.567998 0.563849,-0.1478549 1.302399,-0.1236109 2.13368,-0.057108 0.292502,-0.2054085 1.352642,-0.1058535 1.914546,-0.020709 3.598757,0.4353344 7.152419,1.4588827 10.7018836,1.9840559 1.8976375,0.4866203 3.9630601,1.1119811 5.6736337,1.73094 -3.6820449,-1.8974655 -7.0132603,-4.110033 -10.6576543,-6.2224989 -1.276661,-0.9398183 -2.949965,-1.6257475 -3.979702,-2.7652304 0.360002,0.05846 -1.184755,-0.99273 -0.402015,-0.798309 -0.171847,-0.336686 0.334373,-0.17124 -0.311125,-0.780479 0.09022,-0.421919 -0.873885,-0.936943 -1.371248,-1.518729 -0.5762,-0.739528 0.720408,0.0449 0.207753,-0.528809 0.577556,0.07919 1.250603,0.384256 1.993159,0.763807 0.348829,-0.07785 1.290216,0.419743 1.77674,0.713461 3.158217,1.779382 6.049687,4.0849452 9.1279856,5.9284412 1.5597816,1.1738121 3.2653315,2.5623501 4.5793492,3.7703837 -2.6733974,-3.1621285 -4.9108492,-6.480961 -7.4651348,-9.8273449 -0.819815,-1.356827 -2.103277,-2.630898 -2.618533,-4.077688 0.310191,0.191799 -0.714673,-1.370585 -0.06591,-0.891444 -0.02992,-0.376918 0.374569,-0.03033 0.0113,-0.840211 0.244828,-0.355275 -0.448821,-1.200066 -0.6857,-1.927913 -0.249398,-0.90378 0.648305,0.317251 0.394263,-0.408956 0.503225,0.294161 1.008298,0.833562 1.549096,1.46839 0.352199,0.06164 1.031317,0.881595 1.368466,1.339158 2.2368654,2.852469 4.025907,6.089114 6.1644195,8.9702075 0.9977378,1.685927 2.0160239,3.5885997 2.7879022,5.2358261 -1.2644545,-3.945884 -2.048124,-7.8643086 -3.1361258,-11.9360696 -0.2381813,-1.567282 -0.9363646,-3.235534 -0.8587588,-4.769381 0.2131827,0.29592 -0.1357919,-1.539771 0.280211,-0.848803 0.1165752,-0.359633 0.3575596,0.11538 0.331911,-0.771912 0.3621802,-0.234505 0.044581,-1.280467 0.104282,-2.043547 0.1154688,-0.930429 0.4775767,0.541228 0.5208,-0.226925 0.3523933,0.464363 0.6126162,1.156046 0.869292,1.94948 0.3017619,0.191811 0.6154229,1.209199 0.751796,1.76094 0.9749833,3.491407 1.3892726,7.166323 2.2624036,10.646472 0.27661329,1.9394114 0.48926199,4.0869315 0.57202353,5.9041607 0.34181736,-4.1293946 1.11731807,-8.0494487 1.67033137,-12.2276287 0.379722,-1.539118 0.3730921,-3.347578 1.031773,-4.734951 0.083726,0.354965 0.4637711,-1.474592 0.583704,-0.677017 0.2453389,-0.287593 0.2862006,0.243341 0.6020366,-0.586083 0.4243614,-0.07807 0.5311869,-1.165943 0.878363,-1.848092 0.462716,-0.815418 0.2341245,0.682737 0.567998,-0.0104 0.1478549,0.563849 0.1236109,1.302399 0.057108,2.13368 0.2054084,0.292502 0.1058534,1.352642 0.020709,1.914546 -0.4353345,3.598757 -1.4588828,7.152419 -1.9840559,10.7018836 -0.4866204,1.8976375 -1.1119811,3.9630601 -1.73094,5.6736337 1.8974654,-3.6820449 4.110033,-7.0132603 6.2224989,-10.6576543 0.9398183,-1.276661 1.6257474,-2.949965 2.7652298,-3.979702 -0.05846,0.360002 0.99273,-1.184755 0.798309,-0.402015 0.336686,-0.171847 0.17124,0.334373 0.780479,-0.311125 0.421919,0.09022 0.936943,-0.873885 1.518729,-1.371248 0.739528,-0.5762 -0.0449,0.720408 0.528809,0.207753 -0.07919,0.577556 -0.384256,1.250603 -0.763807,1.993159 0.07785,0.348829 -0.419743,1.290216 -0.713461,1.77674 -1.779382,3.158217 -4.0849446,6.049687 -5.9284406,9.1279856 -1.1712769,1.5622888 -2.5662333,3.2615603 -3.7703837,4.5793492 3.1621285,-2.6733974 6.4809609,-4.9108492 9.8273443,-7.4651348 1.356827,-0.819815 2.630899,-2.103277 4.077688,-2.618533 -0.191798,0.310191 1.370586,-0.714673 0.891444,-0.06591 0.376918,-0.02992 0.03033,0.374569 0.840211,0.0113 0.355276,0.244828 1.200067,-0.448821 1.927913,-0.6857 0.903781,-0.249398 -0.317251,0.648305 0.408956,0.394263 -0.29416,0.503225 -0.833562,1.008298 -1.46839,1.549096 -0.06163,0.352199 -0.881595,1.031317 -1.339158,1.368466 -2.852469,2.2368654 -6.089113,4.025907 -8.9702069,6.1644195 -1.6859271,0.9977378 -3.5885998,2.0160239 -5.2358261,2.7879022 3.945884,-1.2644545 7.864308,-2.048124 11.93607,-3.1361258 1.567281,-0.2381813 3.235533,-0.9363646 4.769381,-0.8587588 -0.295921,0.2131827 1.539771,-0.1357919 0.848803,0.280211 0.359633,0.1165752 -0.115381,0.3575596 0.771912,0.331911 0.234504,0.3621802 1.280467,0.044581 2.043547,0.104282 0.930428,0.1154688 -0.541228,0.4775767 0.226925,0.5208 -0.464363,0.3523933 -1.156046,0.6126162 -1.94948,0.869292 -0.191812,0.3017619 -1.2092,0.6154229 -1.76094,0.751796 -3.491407,0.9749833 -7.166323,1.3892726 -10.646472,2.2624036 C 8.3670043,-0.29370989 6.3762817,-0.07648557 4.3971503,0 Z M 24.172943,0 c -1.018152,0.13433902 -0.866276,0.36789918 -0.225272,0.53029536 0.04024,0.34030361 2.405959,0.43355931 2.810476,0.65534514 0.832338,0.368156 0.543688,0.5888935 -0.921764,0.532959 1.079697,0.2419839 -1.597023,0.3358311 -0.579162,0.524068 -0.456911,0.1520936 -0.378939,0.1353868 -0.407948,0.343719 -1.865394,0.051953 -3.478697,0.2117688 -5.403315,0.058275 C 16.639967,2.5468287 13.838467,2.2219788 11.035097,1.9089496 10.404447,1.8790712 9.6063568,1.8012359 8.8784962,1.7391416 9.0189917,1.9925561 7.6323487,1.6270252 7.0858106,1.6036086 6.6392405,1.5908024 6.0862001,1.4833396 6.3203326,1.5782216 c 1.698634,0.5303969 3.8081184,1.2170902 4.9539764,1.7594352 0.126439,0.2605346 1.691201,0.6382693 2.083129,0.9405237 1.449716,0.6163517 2.892712,1.183835 4.300994,1.8809207 -0.283768,-0.00578 0.690798,0.5202595 1.03331,0.828279 -0.494216,0.1429724 -0.315432,0.2973348 0.511522,0.6539927 1.003186,0.7109697 2.25842,1.1955067 2.916465,1.5812966 -0.769077,-0.1999793 -0.714137,0.061562 -0.102388,0.5349541 -0.13233,0.2213673 2.04329,1.2913654 2.25029,1.5776004 0.59176,0.604543 0.315348,0.752173 -0.788184,0.237779 -0.0058,0.136591 -0.564976,0.101723 -1.319998,-0.03391 0.320423,0.348191 0.09431,0.353581 -0.618925,0.193255 C 19.965222,11.168706 18.529862,10.677289 16.953673,9.8849628 14.399144,8.7196878 11.933973,7.3507388 9.4645971,5.98656 8.8933882,5.7176202 8.1858346,5.3402899 7.5371425,5.0043826 7.5699607,5.2922721 6.4287541,4.4239211 5.9327799,4.1931446 5.525084,4.01042 5.0552762,3.6995061 5.2352741,3.8767566 6.601637,5.016814 8.2877369,6.4585059 9.1388817,7.3980837 9.1165384,7.643874 10.459635,8.6456451 10.630636,8.9812013 c 1.118812,1.1613167 2.272513,2.2519577 3.326652,3.4666537 -0.259936,-0.113947 0.43918,0.745042 0.637679,1.160693 -0.511253,-0.05709 -0.405186,0.153984 0.222332,0.799933 0.422434,0.831972 2.389135,2.710875 1.867432,2.393218 -0.330862,-0.105626 -0.499628,-0.05877 -0.02186,0.738113 -0.147335,0.195552 1.342565,1.907766 1.570597,2.430977 -0.160374,0.44648 -0.05169,0.642055 -1.179641,-0.486468 0.592337,0.934583 -1.366731,-0.891799 -0.780108,-0.03898 0.01417,0.39346 -1.024479,-1.162329 -0.291528,0.203543 -1.380588,-1.401438 -2.741615,-2.393809 -4.011972,-3.94819 C 10.00642,13.638161 8.243582,11.384101 6.4530592,9.1527656 6.0282472,8.685705 5.5189526,8.0663291 5.0481845,7.5077463 4.9683016,7.7862745 4.2463025,6.5472996 3.8763835,6.144289 3.5696478,5.8194609 3.2545863,5.3524179 3.3530495,5.585068 c 0.8260726,1.5761626 1.832113,3.5533488 2.2589081,4.747119 -0.094822,0.273649 0.7445418,1.647176 0.8079408,2.138045 0.5892938,1.460937 1.2083305,2.882531 1.711231,4.371252 -0.1965584,-0.204751 0.1205943,0.856313 0.1449771,1.316374 -0.499864,-0.278753 -0.393691,0.06144 -0.057543,0.985848 0.00742,0.752049 1.1897253,3.391119 0.7662562,2.764057 C 8.719526,21.68355 8.5457673,21.662387 8.6821828,22.581318 8.4920175,22.862389 9.2180212,24.833226 9.2366091,25.708464 8.5838765,25.20537 9.0769396,26.295821 8.2526924,24.483602 8.4608499,25.546049 7.3430234,23.208325 7.5193692,24.054826 7.4793672,24.664567 7.0726642,22.681147 7.2463137,24.269463 6.505495,22.44511 5.6296421,21.013178 5.0506242,19.086557 4.0247596,16.429762 3.2592586,13.672379 2.4592247,10.925777 2.2454925,10.331662 2.0119853,9.5645547 1.7908097,8.8683292 1.6104562,9.0951027 1.4175238,7.6741368 1.2300017,7.1602366 1.0709296,6.7427597 0.95857493,6.1906925 0.96051234,6.4433135 1.1205283,8.2156315 1.2933695,10.4273 1.2308215,11.693499 c -0.1923125,0.216538 0.057505,1.806717 -0.071751,2.28448 -0.01463,1.575246 0.013253,3.125519 -0.09183,4.69337 C 0.96399468,18.40696 0.85093712,19.50867 0.69743314,19.943012 0.34230045,19.49426 0.31022722,19.84903 0.26701574,20.83175 c -0.30719121,0.676128 -0.17409196,3.604878 -0.34981134,2.846791 -0.15930544,-0.308649 -0.31170878,-0.394755 -0.53736744,0.506503 -0.28325913,0.186923 -0.36672315,2.285539 -0.68448476,3.101281 -0.4120305,-0.829477 -0.3697495,0.669749 -0.440264,-1.508148 -0.2142681,1.061233 -0.3523868,-1.526327 -0.513411,-0.676778 -0.2702754,0.547971 0.1130011,-1.440102 -0.334393,0.09376 0.013719,-1.968974 -0.247464,-3.627054 -0.045125,-5.628611 0.068941,-2.847175 0.4169387,-5.687628 0.728872,-8.531318 0.029878,-0.63065 0.1077137,-1.4287407 0.169808,-2.1566012 -0.2534146,0.1404955 0.1121163,-1.2461475 0.135533,-1.7926856 0.012806,-0.4465701 0.1202689,-0.9996105 0.025387,-0.765478 -0.530397,1.698634 -1.2170903,3.8081178 -1.7594352,4.9539758 -0.2605347,0.12644 -0.6382693,1.691201 -0.9405237,2.083129 -0.6163518,1.449717 -1.1838351,2.892713 -1.8809207,4.300994 0.00578,-0.283767 -0.5202596,0.690799 -0.828279,1.03331 -0.1429725,-0.494216 -0.2973349,-0.315431 -0.6539927,0.511522 -0.7373311,0.971028 -1.1837808,2.283756 -1.5812966,2.916465 0.1999793,-0.769076 -0.061562,-0.714137 -0.5349541,-0.102388 -0.2213673,-0.132329 -1.2913651,2.043291 -1.5776001,2.25029 -0.604543,0.59176 -0.752173,0.315348 -0.237779,-0.788184 -0.136591,-0.0058 -0.101724,-0.564976 0.03391,-1.319998 -0.348191,0.320424 -0.353581,0.09431 -0.193255,-0.618925 0.563646,-1.575302 1.055064,-3.010662 1.8473899,-4.586851 1.1652749,-2.554529 2.5342239,-5.019699 3.8984028,-7.4890753 0.2689397,-0.571209 0.64627,-1.2787625 0.9821774,-1.9274546 -0.2878896,0.032818 0.5804614,-1.1083884 0.811238,-1.6043626 0.1827245,-0.4076959 0.4936384,-0.8775038 0.316388,-0.6975058 -1.1400575,1.3663628 -2.5817494,3.0524628 -3.5213271,3.9036076 -0.2457904,-0.022343 -1.2475615,1.3207537 -1.5831176,1.4917547 -1.1613164,1.118812 -2.2519574,2.272513 -3.4666534,3.326652 0.113946,-0.259937 -0.745043,0.439179 -1.160693,0.637679 0.05709,-0.511253 -0.153985,-0.405186 -0.799933,0.222332 -0.87155,0.384009 -2.67546,2.421751 -2.393218,1.867432 0.105626,-0.330862 0.05877,-0.499628 -0.738113,-0.02186 -0.195552,-0.147335 -1.907766,1.342564 -2.430977,1.570597 -0.44648,-0.160375 -0.642055,-0.05169 0.486468,-1.179641 -0.934583,0.592336 0.891799,-1.366732 0.03898,-0.780108 -0.393461,0.01417 1.162329,-1.024479 -0.203543,-0.291528 1.401438,-1.380589 2.393809,-2.741615 3.94819,-4.011972 2.062534,-1.963798 4.316593,-3.7266354 6.5479291,-5.5171582 0.4670605,-0.424812 1.0864364,-0.9341067 1.6450193,-1.4048747 -0.2785282,-0.079883 0.9604466,-0.801882 1.3634573,-1.171801 0.3248281,-0.3067357 0.791871,-0.6217972 0.559221,-0.523334 -1.5761627,0.8260726 -3.5533489,1.832113 -4.7471187,2.2589081 -0.273649,-0.094822 -1.647177,0.7445417 -2.138045,0.8079408 -1.460938,0.5892937 -2.882532,1.2083305 -4.371252,1.711231 0.20475,-0.1965584 -0.856313,0.1205943 -1.316374,0.1449771 0.278752,-0.499864 -0.06144,-0.393691 -0.985848,-0.057543 -0.813589,-0.015011 -3.300891,1.1943267 -2.764057,0.7662562 0.224213,-0.2652934 0.245376,-0.4390521 -0.673555,-0.3026366 -0.281072,-0.1901654 -2.251908,0.5358384 -3.127146,0.5544263 0.503094,-0.6527326 -0.587357,-0.1596695 1.224862,-0.9839167 -1.062447,0.2081574 1.275276,-0.9096691 0.428776,-0.7333232 -0.609741,-0.040002 1.373679,-0.4467051 -0.214637,-0.2730555 1.824352,-0.7408188 3.256284,-1.6166717 5.182906,-2.1956895 2.656795,-1.0258646 5.414177,-1.7913656 8.16078,-2.5913995 0.594115,-0.2137322 1.361222,-0.4472395 2.0574475,-0.668415 -0.2267736,-0.1803535 1.1941923,-0.3732859 1.7080926,-0.560808 0.4174769,-0.1590722 0.9695441,-0.27142681 0.7169231,-0.2694894 -1.7723181,0.160016 -3.9839862,0.3328572 -5.2501852,0.2703092 -0.216538,-0.1923126 -1.806718,0.057505 -2.28448,-0.071751 -1.575246,-0.01463 -3.125519,0.013253 -4.69337,-0.09183 0.264388,-0.10324576 -0.837321,-0.21630332 -1.271663,-0.3698073 0.448752,-0.35513269 0.09398,-0.38720592 -0.888738,-0.4304174 -0.744754,-0.30084201 -3.491683,-0.181274 -2.846638,-0.34992552 0.308648,-0.15930544 0.394755,-0.31170878 -0.506503,-0.53736744 -0.186924,-0.28325913 -2.285539,-0.36672315 -3.101281,-0.68448484 0.829477,-0.4120304 -0.669749,-0.3697494 1.508148,-0.440264 -1.061233,-0.2142681 1.526327,-0.3523867 0.676778,-0.513411 -0.547972,-0.2702753 1.440101,0.1130012 -0.09376,-0.334393 1.968973,0.013719 3.627054,-0.2474639 5.628611,-0.045125 2.847175,0.068941 5.687627,0.4169388 8.531318,0.728872 0.63065,0.029878 1.4287402,0.1077137 2.1566008,0.169808 -0.1404955,-0.2534145 1.2461475,0.1121164 1.7926856,0.135533 0.4465701,0.012806 0.9996105,0.120269 0.765478,0.025387 -1.698634,-0.5303969 -3.8081184,-1.2170902 -4.9539764,-1.7594352 -0.126439,-0.2605346 -1.691201,-0.6382693 -2.083129,-0.9405237 -1.449716,-0.6163517 -2.892712,-1.183835 -4.300994,-1.8809207 0.283768,0.00578 -0.690798,-0.5202595 -1.03331,-0.828279 0.494216,-0.1429724 0.315432,-0.2973348 -0.511522,-0.6539927 -1.003186,-0.7109697 -2.25842,-1.1955067 -2.916465,-1.5812966 0.769077,0.1999793 0.714137,-0.061562 0.102388,-0.5349541 0.13233,-0.2213673 -2.04329,-1.2913654 -2.25029,-1.5776004 -0.59176,-0.604543 -0.315348,-0.752173 0.788184,-0.237779 0.0058,-0.136591 0.564976,-0.101723 1.319998,0.03391 -0.320423,-0.348191 -0.09431,-0.353581 0.618925,-0.193255 1.575302,0.563647 3.010662,1.055064 4.586851,1.8473902 2.554529,1.165275 5.0197,2.534224 7.4890759,3.8984028 0.5712089,0.2689398 1.2787625,0.6462701 1.9274546,0.9821774 -0.032818,-0.2878895 1.1083884,0.5804615 1.6043626,0.811238 0.4076959,0.1827246 0.8775037,0.4936385 0.6975058,0.316388 -1.3663629,-1.1400574 -3.0524628,-2.5817493 -3.9036076,-3.5213271 0.022343,-0.2457903 -1.3207533,-1.2475614 -1.4917543,-1.5831176 -1.118812,-1.1613167 -2.272513,-2.2519577 -3.326652,-3.4666537 0.259936,0.113947 -0.43918,-0.745042 -0.637679,-1.160693 0.511253,0.05709 0.405186,-0.153984 -0.222332,-0.799933 -0.422434,-0.831972 -2.389135,-2.710875 -1.867432,-2.393218 0.330862,0.105626 0.499628,0.05877 0.02186,-0.738113 0.147335,-0.195552 -1.342565,-1.907766 -1.570597,-2.430977 0.160374,-0.44648 0.05169,-0.642055 1.179641,0.486468 -0.592337,-0.934583 1.366731,0.891799 0.780108,0.03898 -0.01417,-0.39346 1.024479,1.162329 0.291528,-0.203543 1.380588,1.401438 2.741615,2.393809 4.011972,3.94819 1.963797,2.062534 3.726635,4.316594 5.5171578,6.5479294 0.424812,0.4670606 0.9341066,1.0864365 1.4048747,1.6450193 0.079883,-0.2785282 0.801882,0.9604467 1.171801,1.3634573 0.3067357,0.3248281 0.6217972,0.7918711 0.523334,0.559221 -0.8260726,-1.5761626 -1.832113,-3.5533488 -2.2589081,-4.747119 0.094822,-0.273649 -0.7445418,-1.647176 -0.8079408,-2.138045 -0.5892938,-1.460937 -1.2083305,-2.882531 -1.711231,-4.371252 0.1965584,0.204751 -0.1205943,-0.856313 -0.1449771,-1.316374 0.499864,0.278753 0.393691,-0.06144 0.057543,-0.985848 -0.00742,-0.752049 -1.1897253,-3.391119 -0.7662562,-2.764057 0.2652934,0.224213 0.4390521,0.245376 0.3026366,-0.673555 0.1901653,-0.281071 -0.5358384,-2.251908 -0.5544263,-3.127146 0.6527326,0.503094 0.1596695,-0.587357 0.9839167,1.224862 -0.2081575,-1.062447 0.909669,1.275277 0.7333232,0.428776 0.040002,-0.609741 0.446705,1.373679 0.2730555,-0.214637 0.7408187,1.824353 1.6166716,3.256285 2.1956895,5.182906 1.0258646,2.656795 1.7913656,5.414178 2.5913995,8.16078 0.2137322,0.594115 0.4472394,1.3612223 0.668415,2.0574478 0.1803535,-0.2267735 0.3732859,1.1941924 0.560808,1.7080926 0.1590721,0.4174769 0.27142677,0.9695441 0.26948936,0.7169231 -0.16001596,-1.772318 -0.33285716,-3.9839865 -0.27030916,-5.2501855 0.1923125,-0.216538 -0.057505,-1.806717 0.071751,-2.28448 0.01463,-1.575246 -0.013253,-3.125519 0.09183,-4.69337 0.10324572,0.264389 0.21630328,-0.837321 0.36980726,-1.271663 0.35513269,0.448752 0.38720592,0.09398 0.4304174,-0.888738 0.30719121,-0.676128 0.17409196,-3.604878 0.34981134,-2.846791 0.15930544,0.308649 0.31170878,0.394755 0.53736744,-0.506503 0.28325913,-0.186923 0.36672315,-2.285539 0.68448476,-3.101281 0.4120305,0.829477 0.3697495,-0.669749 0.440264,1.508148 0.2142681,-1.061233 0.3523868,1.526327 0.513411,0.676778 0.2702754,-0.547971 -0.1130011,1.440102 0.334393,-0.09376 -0.013719,1.968974 0.247464,3.627054 0.045125,5.628611 -0.068941,2.847175 -0.4169387,5.687628 -0.728872,8.531318 -0.029878,0.63065 -0.1077137,1.4287407 -0.169808,2.1566012 0.2534146,-0.1404955 -0.1121163,1.2461475 -0.135533,1.7926856 -0.012806,0.4465701 -0.1202689,0.9996105 -0.025387,0.765478 0.530397,-1.698634 1.2170903,-3.8081178 1.7594352,-4.9539758 0.2605347,-0.12644 0.6382693,-1.691201 0.9405237,-2.083129 0.6163518,-1.449717 1.1838351,-2.892713 1.8809207,-4.300994 -0.00578,0.283767 0.5202596,-0.690799 0.828279,-1.03331 0.1429725,0.494216 0.2973349,0.315431 0.6539927,-0.511522 0.7373311,-0.971028 1.1837808,-2.283756 1.5812966,-2.916465 -0.1999793,0.769076 0.061562,0.714137 0.5349541,0.102388 0.2213673,0.132329 1.2913651,-2.043291 1.5776001,-2.25029 0.604543,-0.59176 0.752173,-0.315348 0.237779,0.788184 0.136591,0.0058 0.101724,0.564976 -0.03391,1.319998 0.348191,-0.320424 0.353581,-0.09431 0.193255,0.618925 -0.563646,1.575302 -1.055064,3.010662 -1.8473899,4.586851 -1.1652749,2.554529 -2.5342239,5.019699 -3.8984028,7.4890753 -0.2689397,0.571209 -0.64627,1.2787625 -0.9821774,1.9274546 0.2878896,-0.032818 -0.5804614,1.1083884 -0.811238,1.6043626 -0.1827245,0.4076959 -0.4936384,0.8775038 -0.316388,0.6975058 1.1400575,-1.3663628 2.5817494,-3.0524628 3.5213271,-3.9036076 0.2457904,0.022343 1.2475615,-1.3207537 1.5831176,-1.4917547 1.1613164,-1.118812 2.2519574,-2.272513 3.4666534,-3.326652 -0.113946,0.259937 0.745043,-0.439179 1.160693,-0.637679 -0.05709,0.511253 0.153985,0.405186 0.799933,-0.222332 0.87155,-0.384009 2.67546,-2.421751 2.393218,-1.867432 -0.105626,0.330862 -0.05877,0.499628 0.738113,0.02186 0.195552,0.147335 1.907766,-1.342564 2.430977,-1.570597 0.44648,0.160375 0.642055,0.05169 -0.486468,1.179641 0.934583,-0.592336 -0.891799,1.366732 -0.03898,0.780108 0.393461,-0.01417 -1.162329,1.024479 0.203543,0.291528 -1.401438,1.380589 -2.393809,2.741615 -3.94819,4.011972 -2.062534,1.963798 -4.316593,3.7266354 -6.5479291,5.5171582 -0.4670605,0.424812 -1.0864364,0.9341067 -1.6450193,1.4048747 0.2785282,0.079883 -0.9604466,0.801882 -1.3634573,1.171801 -0.3248281,0.3067357 -0.791871,0.6217972 -0.559221,0.523334 1.5761627,-0.8260726 3.5533489,-1.832113 4.7471187,-2.2589081 0.273649,0.094822 1.647177,-0.7445417 2.138045,-0.8079408 1.460938,-0.5892937 2.882532,-1.2083305 4.371252,-1.711231 -0.20475,0.1965584 0.856313,-0.1205943 1.316374,-0.1449771 -0.278752,0.499864 0.06144,0.393691 0.985848,0.057543 0.813589,0.015011 3.300891,-1.1943267 2.764057,-0.7662562 -0.224213,0.2652934 -0.245376,0.4390521 0.673555,0.3026366 0.281072,0.1901654 2.251908,-0.5358384 3.127146,-0.5544263 -0.503094,0.6527326 0.587357,0.1596695 -1.224862,0.9839167 1.062447,-0.2081574 -1.275276,0.9096691 -0.428776,0.7333232 0.609741,0.040002 -1.373679,0.4467051 0.214637,0.2730555 -1.824352,0.7408188 -3.256284,1.6166717 -5.182906,2.1956895 -2.656795,1.0258646 -5.414177,1.7913656 -8.16078,2.5913995 -0.594115,0.2137322 -1.361222,0.4472395 -2.0574475,0.668415 0.2267736,0.1803535 -1.1941923,0.3732859 -1.7080926,0.560808 -0.4174769,0.1590722 -0.9695441,0.27142681 -0.7169231,0.2694894 1.7723181,-0.160016 3.9839862,-0.3328572 5.2501852,-0.2703092 0.216538,0.1923126 1.806718,-0.057505 2.28448,0.071751 1.575246,0.01463 3.125519,-0.013253 4.69337,0.09183 -0.264388,0.10324576 0.837321,0.21630332 1.271663,0.3698073 -0.448752,0.35513269 -0.09398,0.38720592 0.888738,0.4304174 C 22.0987,-0.06974864 22.404612,0.0264479 24.172943,0 Z m 0.792434,0 c 0.01311,0.56003192 1.116912,0.76421681 0.850438,1.3549568 -0.412076,0.4791987 -1.314006,0.5753159 -1.59992,1.079958 0.01813,0.316818 0.708509,0.567148 0.04071,0.691435 -6.188494,0.020728 -12.466549,-1.2998481 -18.5122394,-1.994193 2.6740355,0.9830749 5.7995224,2.1935189 8.6712004,3.1903125 3.515428,1.4399077 7.319015,2.4481439 10.484746,4.5910393 0.613119,0.4238116 -0.0074,0.7238457 -0.467641,0.709964 -0.418732,0.3512651 -1.270445,-0.2444236 -1.416188,0.099245 0.09448,0.4533707 0.829155,1.2164937 0.173702,1.4734897 -0.552673,0.189886 -1.334212,-0.01621 -1.74912,0.320225 -0.104535,0.29968 0.437538,0.795113 -0.227046,0.65429 C 15.479671,9.779285 10.265556,6.2753702 4.8745673,3.2279561 6.3209997,4.5943604 8.166908,6.3208015 9.7965687,7.817335 c 3.3275323,3.160406 7.0102353,6.074887 9.7248883,9.797799 0.514974,0.67037 -0.122579,0.881153 -0.67501,0.625651 -0.511257,0.135063 -1.031153,-0.6961 -1.302545,-0.450405 -0.08607,0.455053 0.300262,1.441148 -0.40351,1.427662 -0.583312,-0.03605 -1.226513,-0.525608 -1.73861,-0.373526 -0.211238,0.236899 0.10005,0.901978 -0.46011,0.5176 C 10.559176,14.957503 7.0831845,9.7256307 3.2682378,4.8472393 4.0816535,6.6631644 5.126382,8.9645784 6.059289,10.970845 c 1.864831,4.193225 4.151806,8.295171 5.235202,12.773543 0.219128,0.816491 -0.450514,0.766979 -0.863143,0.319647 C 9.9073531,23.993081 9.7450419,23.026394 9.4003142,23.149388 9.1467669,23.536955 9.126162,24.59574 8.4811492,24.313954 7.956003,24.057519 7.5490033,23.359131 7.0177602,23.303692 6.73203,23.441744 6.7649188,24.175357 6.3945312,23.605852 4.007133,17.896375 2.8246946,11.590815 1.1525932,5.7396361 1.2676553,8.5863073 1.3454641,11.937115 1.523472,14.971654 c 0.014985,3.798859 0.539094,7.698749 -0.2292159,11.443551 -0.1569054,0.728674 -0.67159746,0.27009 -0.8348975,-0.160386 -0.48479148,-0.252434 -0.26033848,-1.267274 -0.63365994,-1.27047 -0.38253606,0.2612 -0.80673306,1.23132 -1.29486906,0.72434 -0.3870106,-0.4379 -0.4958501,-1.238805 -0.965356,-1.4934 -0.3168181,0.01813 -0.567148,0.708509 -0.691435,0.04071 -0.020728,-6.188494 1.2998481,-12.466549 1.994193,-18.5122394 -0.983075,2.6740354 -2.1935189,5.7995224 -3.1903125,8.6712004 -1.4399077,3.515428 -2.4481439,7.319015 -4.5910393,10.484746 -0.4238116,0.613119 -0.7238457,-0.0074 -0.709964,-0.467641 -0.3512651,-0.418732 0.2444236,-1.270445 -0.099245,-1.416188 -0.4533711,0.09448 -1.2164931,0.829155 -1.4734901,0.173702 -0.189886,-0.552673 0.01621,-1.334212 -0.320225,-1.74912 -0.29968,-0.104535 -0.795112,0.437538 -0.65429,-0.227046 2.3914373,-5.734348 5.8953522,-10.948463 8.9427663,-16.3394517 -1.3664044,1.4464323 -3.0928454,3.2923406 -4.5893789,4.9220014 -3.1604064,3.3275323 -6.0748874,7.0102353 -9.7977984,9.7248883 -0.670371,0.514974 -0.881154,-0.122579 -0.625651,-0.67501 -0.135063,-0.511257 0.696099,-1.031154 0.450405,-1.302545 -0.455054,-0.08607 -1.441149,0.300262 -1.427662,-0.40351 0.03605,-0.583312 0.525607,-1.226513 0.373526,-1.73861 -0.236899,-0.211238 -0.901979,0.10005 -0.5176,-0.46011 4.404613,-4.382496 9.6364846,-7.8584876 14.5148761,-11.6734342 -1.8159252,0.8134157 -4.1173392,1.8581442 -6.1236051,2.7910512 -4.193226,1.864831 -8.295172,4.151806 -12.773543,5.235202 -0.816492,0.219128 -0.766979,-0.450514 -0.319647,-0.863143 0.07095,-0.523995 1.03764,-0.686306 0.914647,-1.0310338 -0.387568,-0.2535473 -1.446352,-0.2741522 -1.164566,-0.919165 0.256434,-0.5251462 0.954823,-0.932146 1.010262,-1.463389 -0.138053,-0.2857302 -0.871665,-0.2528414 -0.30216,-0.623229 5.709476,-2.3873982 12.015036,-3.5698366 17.8662153,-5.241938 -2.8466712,0.1150621 -6.1974793,0.1928709 -9.2320183,0.3708788 -3.798858,0.014985 -7.698749,0.539094 -11.443551,-0.2292159 -0.728674,-0.1569054 -0.27009,-0.67159747 0.160386,-0.83489751 0.25229,-0.48448026 1.266262,-0.26046528 1.269476,-0.63344228 -0.2612,-0.38253606 -1.23132,-0.80673306 -0.72434,-1.29486911 0.4379,-0.3870106 1.238805,-0.49585 1.4934,-0.965356 -0.01813,-0.316818 -0.708509,-0.567148 -0.04071,-0.691435 6.188494,-0.020728 12.466549,1.2998481 18.5122394,1.994193 -2.6740355,-0.9830749 -5.7995224,-2.1935189 -8.6712004,-3.1903125 -3.515428,-1.4399077 -7.319015,-2.4481439 -10.484746,-4.5910393 -0.613119,-0.4238116 0.0074,-0.7238457 0.467641,-0.709964 0.418732,-0.3512651 1.270445,0.2444236 1.416188,-0.099245 -0.09448,-0.4533707 -0.829155,-1.2164937 -0.173702,-1.4734897 0.552673,-0.189886 1.334212,0.01621 1.74912,-0.320225 0.104535,-0.29968 -0.437538,-0.795113 0.227046,-0.65429 5.734348,2.391437 10.948463,5.8953518 16.3394517,8.9427659 -1.4464324,-1.3664043 -3.2923407,-3.0928454 -4.9220014,-4.5893789 -3.3275323,-3.160406 -7.0102353,-6.074887 -9.7248883,-9.797799 -0.514974,-0.67037 0.122579,-0.881153 0.67501,-0.625651 0.511257,-0.135063 1.031153,0.6961 1.302545,0.450405 0.08607,-0.455053 -0.300262,-1.441148 0.40351,-1.427662 0.583312,0.03605 1.226513,0.525608 1.73861,0.373526 0.211238,-0.236899 -0.10005,-0.901978 0.46011,-0.5176 4.382496,4.404613 7.8584875,9.6364853 11.6734342,14.5148767 -0.8134157,-1.8159251 -1.8581442,-4.1173391 -2.7910512,-6.1236057 -1.864831,-4.193225 -4.151806,-8.295171 -5.235202,-12.773543 -0.219128,-0.816491 0.450514,-0.766979 0.863143,-0.319647 0.5239949,0.07095 0.6863061,1.037641 1.0310338,0.914647 0.2535473,-0.387567 0.2741522,-1.446352 0.919165,-1.164566 0.5251462,0.256435 0.9321459,0.954823 1.463389,1.010262 0.2857302,-0.138052 0.2528414,-0.871665 0.623229,-0.30216 2.3873982,5.709477 3.5698366,12.015037 5.241938,17.8662159 -0.1150621,-2.8466712 -0.1928709,-6.1974789 -0.3708788,-9.2320179 -0.014985,-3.798859 -0.539094,-7.698749 0.2292159,-11.443551 0.1569054,-0.728674 0.67159746,-0.27009 0.8348975,0.160386 0.48479148,0.252434 0.26033848,1.267274 0.63365994,1.27047 0.38253606,-0.2612 0.80673306,-1.23132 1.29486906,-0.72434 0.3870106,0.4379 0.4958501,1.238805 0.965356,1.4934 0.3168181,-0.01813 0.567148,-0.708509 0.691435,-0.04071 0.020728,6.188494 -1.2998481,12.466549 -1.994193,18.5122394 0.983075,-2.6740354 2.1935189,-5.7995224 3.1903125,-8.6712004 1.4399077,-3.515428 2.4481439,-7.319015 4.5910393,-10.484746 0.4238116,-0.613119 0.7238457,0.0074 0.709964,0.467641 0.3512651,0.418732 -0.2444236,1.270445 0.099245,1.416188 0.4533711,-0.09448 1.2164931,-0.829155 1.4734901,-0.173702 0.189886,0.552673 -0.01621,1.334212 0.320225,1.74912 0.29968,0.104535 0.795112,-0.437538 0.65429,0.227046 -2.3914373,5.734348 -5.8953522,10.948463 -8.9427663,16.3394517 1.3664044,-1.4464323 3.0928454,-3.2923406 4.5893789,-4.9220014 3.1604064,-3.3275323 6.0748874,-7.0102353 9.7977984,-9.7248883 0.670371,-0.514974 0.881154,0.122579 0.625651,0.67501 0.135063,0.511257 -0.696099,1.031154 -0.450405,1.302545 0.455054,0.08607 1.441149,-0.300262 1.427662,0.40351 -0.03605,0.583312 -0.525607,1.226513 -0.373526,1.73861 0.236899,0.211238 0.901979,-0.10005 0.5176,0.46011 -4.404613,4.382496 -9.6364846,7.8584876 -14.5148761,11.6734342 1.8159252,-0.8134157 4.1173392,-1.8581442 6.1236051,-2.7910512 4.193226,-1.864831 8.295172,-4.151806 12.773543,-5.235202 0.816492,-0.219128 0.766979,0.450514 0.319647,0.863143 -0.07095,0.523995 -1.03764,0.686306 -0.914647,1.0310338 0.387568,0.2535473 1.446352,0.2741522 1.164566,0.919165 -0.256434,0.5251462 -0.954823,0.932146 -1.010262,1.463389 0.138053,0.2857302 0.871665,0.2528414 0.30216,0.623229 -5.709476,2.3873982 -12.015036,3.5698366 -17.8662153,5.241938 2.8466712,-0.1150621 6.1974793,-0.1928709 9.2320183,-0.3708788 3.798858,-0.014985 7.698749,-0.539094 11.443551,0.2292159 0.728674,0.1569054 0.27009,0.67159747 -0.160386,0.83489751 C 25.895517,-0.17666216 25.461192,0.105803 24.965377,0 Z M 11.169359,0 c 0.264892,0.36753869 1.763184,0.13435408 1.736492,0.61706607 -0.409804,0.11281193 -0.433114,0.31474211 0.114307,0.3557556 4.501501,1.26638783 9.276245,1.53893103 13.708155,3.04369493 1.012856,0.6878951 2.040615,1.326254 3.268162,1.641886 0.334647,0.3313444 1.521839,0.5932706 1.359553,0.97853 -1.584736,0.4552159 -3.21515,0.6913314 -4.87398,0.403825 C 23.386554,6.7784738 20.298967,6.3915826 17.245954,5.8131727 16.187455,5.5896738 15.19736,6.0045109 14.164221,5.4460134 12.864324,5.114822 11.437891,4.7828236 10.284202,4.3161847 c 0.315606,0.4222039 1.569326,0.7731725 1.402936,1.192803 -0.421931,-0.052634 -0.520527,0.1250743 -0.03057,0.37242 3.674224,2.8926355 7.981225,4.9716453 11.499914,8.0578973 0.672536,1.02314 1.377771,2.006194 2.391073,2.767562 0.182374,0.434223 1.178967,1.130388 0.88158,1.424355 -1.638291,-0.185919 -3.234964,-0.591437 -4.65749,-1.491953 C 19.012158,15.212377 16.307676,13.673343 13.70842,11.970624 12.816024,11.359112 11.742675,11.363266 11.00187,10.452014 9.9267984,9.6447713 8.7224312,8.7919783 7.8496172,7.9233893 7.9797868,8.434258 9.0035257,9.2382306 8.6894143,9.5623164 8.3197501,9.352211 8.1607096,9.4787136 8.5186973,9.8946994 10.806275,13.973206 13.989797,17.542184 16.059618,21.740037 c 0.229705,1.202613 0.505018,2.380711 1.149843,3.471912 0.0023,0.470948 0.656594,1.495556 0.26944,1.653291 C 16.036444,26.06655 14.716609,25.080645 13.746949,23.704374 11.743583,21.330053 9.8338855,18.873243 8.0840886,16.305431 7.493663,15.398908 6.5002393,14.992121 6.164605,13.866669 5.4827422,12.710739 4.6984483,11.471637 4.2199601,10.324213 c -0.075238,0.521823 0.5629151,1.65629 0.1486638,1.835584 -0.2611218,-0.335547 -0.4564865,-0.279298 -0.2849364,0.241914 0.5526869,4.643466 2.128068,9.159048 2.4338894,13.829444 -0.2479205,1.198995 -0.444399,2.392804 -0.2662334,3.647691 -0.178052,0.435984 0.034268,1.632998 -0.383761,1.630543 C 4.8405612,30.219506 3.9984852,28.803564 3.6293135,27.160986 2.6870398,24.200751 1.8629212,21.200133 1.2289635,18.15817 1.0303835,17.094746 0.26825564,16.33856 0.3888625,15.170425 0.18760699,13.873309 -0.02368346,12.292243 -0.07835019,11.188151 c -0.22308311,0.459372 -0.10293269,1.718118 -0.5388425,1.717982 -0.11281193,-0.409803 -0.31474211,-0.433114 -0.3557556,0.114307 -1.26638781,4.501502 -1.53893101,9.276245 -3.04369491,13.708155 -0.6878951,1.012856 -1.3262541,2.040615 -1.641886,3.268162 -0.3313444,0.334648 -0.5932707,1.521839 -0.97853,1.359553 -0.455216,-1.584735 -0.6913314,-3.215149 -0.403825,-4.87398 0.2622838,-3.095494 0.649175,-6.183081 1.2275849,-9.236094 0.2234989,-1.058499 -0.1913382,-2.048594 0.3671593,-3.081733 0.3284585,-1.302005 0.6726005,-2.722576 1.1298287,-3.880019 -0.4222039,0.315606 -0.7731725,1.569326 -1.192803,1.402936 0.052634,-0.421931 -0.1250744,-0.520527 -0.37242,-0.03057 -2.8926355,3.674225 -4.9716457,7.981225 -8.0578977,11.499914 -1.02314,0.672537 -2.006194,1.377771 -2.767562,2.391073 -0.434223,0.182374 -1.130387,1.178967 -1.424355,0.88158 0.18592,-1.63829 0.591437,-3.234964 1.491953,-4.65749 1.426893,-2.759491 2.965926,-5.463973 4.668645,-8.063229 0.611512,-0.892396 0.607359,-1.965744 1.51861,-2.70655 0.8010765,-1.0811528 1.6754484,-2.2644187 2.5286251,-3.1522524 -0.5108687,0.1301696 -1.3148413,1.1539084 -1.6389271,0.8397971 0.2101054,-0.3696643 0.083603,-0.5287047 -0.332383,-0.170717 -4.078507,2.2875773 -7.647485,5.4710993 -11.845338,7.5409203 -1.202612,0.229705 -2.380711,0.505019 -3.471912,1.149843 -0.470947,0.0023 -1.495555,0.656595 -1.653291,0.26944 0.79869,-1.442456 1.784596,-2.762292 3.160866,-3.731952 2.374321,-2.003366 4.831131,-3.9130631 7.398943,-5.66286 0.906523,-0.5904257 1.31331,-1.5838493 2.438762,-1.9194836 1.151467,-0.6899684 2.403007,-1.4471752 3.542456,-1.9446449 -0.521823,-0.075238 -1.656289,0.5629151 -1.835584,0.1486638 0.335548,-0.2611218 0.279298,-0.4564866 -0.241914,-0.2849364 -4.643466,0.5526868 -9.159048,2.1280679 -13.829444,2.4338894 -1.198995,-0.2479205 -2.392804,-0.4443991 -3.647691,-0.2662334 -0.435983,-0.1780521 -1.632998,0.034268 -1.630543,-0.383761 1.289884,-1.0270213 2.705825,-1.8690973 4.348403,-2.238269 2.960236,-0.9422737 5.960853,-1.7663924 9.002816,-2.40035 1.063424,-0.1985801 1.819611,-0.96070789 2.987745,-0.84010103 1.297117,-0.20125551 2.878182,-0.41254595 3.982274,-0.46721269 -0.459372,-0.22308311 -1.718117,-0.10293269 -1.717982,-0.5388425 0.409804,-0.11281193 0.433114,-0.31474211 -0.114307,-0.3557556 -4.501501,-1.26638778 -9.276245,-1.53893108 -13.708155,-3.04369488 -1.012856,-0.6878951 -2.040615,-1.3262541 -3.268162,-1.641886 -0.334647,-0.3313445 -1.521839,-0.5932707 -1.359553,-0.97853 1.584736,-0.455216 3.21515,-0.6913315 4.87398,-0.403825 3.095494,0.2622838 6.183081,0.649175 9.236094,1.2275849 1.058499,0.2234988 2.048594,-0.1913383 3.081733,0.3671593 1.299897,0.3311914 2.72633,0.6631898 3.880019,1.1298287 -0.315606,-0.422204 -1.569326,-0.7731726 -1.402936,-1.192803 0.421931,0.052634 0.520528,-0.1250744 0.03057,-0.37242 -3.674224,-2.8926355 -7.981225,-4.9716451 -11.499914,-8.0578981 -0.672536,-1.023139 -1.377771,-2.006193 -2.391073,-2.767562 -0.182374,-0.434222 -1.178967,-1.130387 -0.88158,-1.424355 1.638291,0.18592 3.234964,0.591437 4.65749,1.491953 2.759491,1.426893 5.463973,2.965927 8.063229,4.668645 0.892396,0.611513 1.965745,0.607359 2.70655,1.51861 1.0750716,0.8072435 2.2794388,1.6600364 3.1522528,2.5286255 -0.1301696,-0.5108687 -1.1539084,-1.3148414 -0.8397971,-1.6389271 0.3696643,0.2101054 0.5287047,0.083603 0.170717,-0.332383 -2.2875777,-4.0785064 -5.4710997,-7.6474854 -7.5409197,-11.8453384 -0.229706,-1.202612 -0.505019,-2.38071 -1.149843,-3.471912 -0.0023,-0.470947 -0.656595,-1.495555 -0.26944,-1.653291 1.442456,0.798691 2.762291,1.784596 3.731952,3.160866 2.003365,2.374322 3.9130625,4.831132 5.6628594,7.398943 0.5904257,0.906524 1.5838493,1.313311 1.9194836,2.438762 0.6818628,1.155931 1.4661567,2.395032 1.9446449,3.542456 0.075238,-0.521823 -0.5629151,-1.656289 -0.1486638,-1.835584 0.2611218,0.335548 0.4564865,0.279299 0.2849364,-0.241914 -0.5526868,-4.643465 -2.128068,-9.159048 -2.4338894,-13.829444 0.2479205,-1.198994 0.4443991,-2.392804 0.2662334,-3.647691 0.178052,-0.435983 -0.034268,-1.632998 0.383761,-1.630543 1.0270213,1.289884 1.8690973,2.705825 2.238269,4.348403 0.9422737,2.960236 1.7663923,5.960853 2.40035,9.002816 0.1985801,1.063425 0.96070787,1.819611 0.84010101,2.987745 0.20125551,1.297117 0.41254596,2.878183 0.46721269,3.982274 0.22308311,-0.459371 0.10293269,-1.718117 0.5388425,-1.717982 0.11281193,0.409804 0.31474211,0.433115 0.3557556,-0.114307 1.2663878,-4.501501 1.538931,-9.276245 3.0436949,-13.708155 0.6878951,-1.012856 1.3262541,-2.040615 1.641886,-3.268162 0.3313444,-0.334647 0.5932707,-1.521838 0.97853,-1.359553 0.455216,1.584736 0.6913314,3.21515 0.403825,4.87398 -0.2622838,3.095495 -0.649175,6.183082 -1.2275849,9.236094 -0.2234988,1.058499 0.1913383,2.048594 -0.3671593,3.081733 -0.3284585,1.302005 -0.6726004,2.722577 -1.1298287,3.880019 0.4222039,-0.315605 0.7731725,-1.569325 1.192803,-1.402936 -0.052634,0.421931 0.1250744,0.520528 0.37242,0.03057 2.8926355,-3.674224 4.9716457,-7.981224 8.0578977,-11.499914 1.02314,-0.672536 2.006194,-1.37777 2.767562,-2.391073 0.434223,-0.182373 1.130387,-1.178966 1.424355,-0.88158 -0.18592,1.638291 -0.591437,3.234964 -1.491953,4.65749 -1.426893,2.759492 -2.965926,5.463974 -4.668645,8.063229 -0.611512,0.892397 -0.607359,1.965745 -1.51861,2.70655 -0.8010765,1.0811535 -1.6754484,2.2644195 -2.5286251,3.1522532 0.5108687,-0.1301696 1.3148413,-1.1539085 1.6389271,-0.8397971 -0.2101054,0.3696642 -0.083603,0.5287047 0.332383,0.170717 4.078507,-2.2875771 7.647485,-5.4710991 11.845338,-7.5409201 1.202612,-0.229705 2.380711,-0.505019 3.471912,-1.149843 0.470947,-0.0023 1.495555,-0.656595 1.653291,-0.26944 -0.79869,1.442456 -1.784596,2.762291 -3.160866,3.731952 -2.374321,2.003366 -4.831131,3.9130629 -7.398943,5.6628598 -0.906523,0.5904256 -1.31331,1.5838492 -2.438762,1.9194836 -1.151467,0.6899683 -2.403007,1.4471751 -3.542456,1.9446449 0.521823,0.075238 1.656289,-0.5629151 1.835584,-0.1486638 -0.335548,0.2611218 -0.279298,0.4564865 0.241914,0.2849364 4.643466,-0.5526869 9.159048,-2.128068 13.829444,-2.4338894 1.198995,0.2479205 2.392804,0.444399 3.647691,0.2662334 0.435983,0.178052 1.632998,-0.034268 1.630543,0.383761 -1.289883,1.0270213 -2.705825,1.8690973 -4.348403,2.238269 -2.960236,0.9422737 -5.960853,1.7663923 -9.002816,2.40035 -1.063424,0.19858 -1.819611,0.96070784 -2.987745,0.84010098 C 13.836161,-0.23794467 12.523869,0.10065203 11.169359,0 Z m 3.669693,0 C 15.029222,0.27409613 15.3957,0.58350465 14.98582,0.82157945 15.259484,1.301691 16.403863,1.4207866 16.997415,1.7491521 22.859169,3.746987 29.251192,4.1421067 34.887547,6.7918139 35.505602,7.5900792 34.001756,7.5619062 33.457176,7.6540159 28.195623,8.7768794 22.845453,6.9586487 17.697681,5.9195903 16.492827,5.637999 14.692055,5.1469481 13.692531,5.7654397 c 0.210332,0.2913846 0.211697,0.6735269 -0.144433,0.7175123 -0.06935,0.4465182 0.885138,0.956761 1.22444,1.385678 4.241352,3.853478 9.450966,6.506964 13.6193,10.463032 0.371513,0.445982 1.664383,1.231845 1.152477,1.785036 -1.156403,0.05538 -2.417344,-0.535533 -3.618023,-0.72975 -5.2385,-1.84191 -9.368855,-5.763645 -14.073362,-8.565008 -0.450598,-0.133028 -1.156507,-0.462076 -1.430773,-0.203318 0.136764,0.325415 -0.07058,0.659844 -0.37958,0.536738 -0.2569657,0.418014 0.472842,1.270337 0.619151,1.82852 2.504566,5.232237 6.325982,9.744929 8.678737,15.068136 0.188343,0.490027 1.013915,1.905152 0.05543,1.835742 C 16.952733,28.32446 14.637506,26.333039 13.013663,23.827166 10.670658,20.859089 9.0669457,17.359594 6.6976825,14.427029 6.3654209,14.168521 5.8713504,13.659906 5.5653455,13.798982 c 0.00171,0.352941 -0.317843,0.582542 -0.5562069,0.35053 -0.3972927,0.28794 -0.049307,1.354593 -0.1277278,1.926295 0.3116033,5.792403 2.115223,11.423966 2.2517576,17.242318 -0.013505,0.524727 0.2076526,2.148241 -0.651241,1.717223 -1.6589332,-2.37931 -3.0358376,-5.105073 -3.577118,-8.04163 -1.0288256,-3.638769 -1.1712426,-7.485601 -2.2379322,-11.101604 -0.20806767,-0.366 -0.47011949,-1.025141 -0.80557925,-1.013952 -0.13351481,0.326908 -0.51661547,0.416387 -0.6480177,0.110838 -0.47719695,0.113809 -0.56391575,1.232598 -0.85513235,1.730715 -1.9287658,5.470729 -2.4175499,11.363828 -4.5179888,16.791536 -0.2133048,0.479673 -0.6302311,2.064106 -1.2588171,1.337326 -0.622175,-2.832987 -0.8510914,-5.878257 -0.2274213,-8.798406 0.4419769,-3.755502 1.7825356,-7.364011 2.1808106,-11.11297 -0.052225,-0.417669 -0.04175,-1.126833 -0.356519,-1.2449 -0.2483917,0.250777 -0.6366694,0.187261 -0.6411773,-0.145403 -0.484459,-0.07758 -0.9926919,0.922964 -1.45237,1.27168 -3.875487,4.316218 -6.582287,9.573664 -10.599929,13.784426 -0.380635,0.361475 -1.3721,1.665812 -1.674754,0.753911 0.509371,-2.855422 1.463107,-5.756505 3.15685,-8.215698 1.845512,-3.300488 4.464915,-6.121319 6.267568,-9.432477 0.111657,-0.405831 0.392702,-1.057128 0.146978,-1.286583 -0.325415,0.136764 -0.659844,-0.07058 -0.536738,-0.37958 -0.418014,-0.2569657 -1.270337,0.472842 -1.82852,0.619151 -5.232237,2.504566 -9.744929,6.325982 -15.068136,8.678737 -0.490027,0.188343 -1.905152,1.013915 -1.835742,0.05543 1.563298,-2.443157 3.554719,-4.758384 6.060592,-6.382227 2.968077,-2.343005 6.467572,-3.9467173 9.400137,-6.3159805 0.258508,-0.3322616 0.767123,-0.8263321 0.628047,-1.132337 -0.352941,0.00171 -0.582542,-0.317843 -0.35053,-0.5562069 -0.28794,-0.3972927 -1.354593,-0.049307 -1.926295,-0.1277278 -5.792403,0.3116033 -11.423966,2.115223 -17.242318,2.2517576 -0.524727,-0.013505 -2.148241,0.2076526 -1.717223,-0.651241 2.37931,-1.6589332 5.105073,-3.0358376 8.04163,-3.577118 3.638769,-1.0288256 7.485601,-1.1712426 11.101604,-2.2379322 0.365873,-0.2081009 1.025137,-0.46979882 1.013684,-0.80575832 -0.326908,-0.13351481 -0.416387,-0.51661547 -0.110838,-0.6480177 -0.113809,-0.47719698 -1.232598,-0.56391578 -1.730715,-0.85513238 -5.470729,-1.9287658 -11.363828,-2.4175498 -16.791536,-4.5179888 -0.479673,-0.2133048 -2.064106,-0.630231 -1.337326,-1.258817 2.832987,-0.6221751 5.878257,-0.8510915 8.798406,-0.2274214 3.755501,0.4419769 7.364011,1.7825356 11.11297,2.1808106 0.417669,-0.052226 1.126833,-0.04175 1.2449,-0.3565189 -0.250777,-0.2483918 -0.187261,-0.6366694 0.145403,-0.6411773 0.07758,-0.4844591 -0.922964,-0.992692 -1.27168,-1.45237 -4.316218,-3.875487 -9.573664,-6.582287 -13.784426,-10.599929 -0.361475,-0.380635 -1.665812,-1.3721 -0.753911,-1.674754 2.855422,0.509371 5.756505,1.463107 8.215698,3.15685 3.300488,1.845512 6.121319,4.464915 9.432477,6.267568 0.405831,0.111657 1.057128,0.392702 1.286583,0.146978 -0.136764,-0.325415 0.07058,-0.659844 0.37958,-0.536738 0.2569657,-0.418014 -0.472842,-1.270337 -0.619151,-1.82852 -2.504566,-5.232237 -6.325982,-9.744929 -8.678737,-15.068136 -0.188343,-0.490027 -1.013915,-1.905153 -0.05542,-1.835742 2.443157,1.563298 4.758384,3.554719 6.382227,6.060592 2.343005,2.968077 3.9467172,6.467572 6.3159805,9.400137 0.3322616,0.258508 0.826332,0.767123 1.132337,0.628047 -0.00172,-0.352941 0.3178429,-0.582542 0.5562069,-0.35053 0.3972926,-0.28794 0.049307,-1.354593 0.1277278,-1.926295 -0.3116034,-5.792403 -2.1152231,-11.423966 -2.2517576,-17.242318 0.013505,-0.524727 -0.2076526,-2.148241 0.651241,-1.717223 1.6589331,2.37931 3.0358375,5.105073 3.577118,8.04163 1.0288255,3.638769 1.1712425,7.485601 2.23793215,11.101604 0.2081009,0.365873 0.46979882,1.025137 0.80575832,1.013684 0.13351481,-0.326908 0.51661547,-0.416387 0.6480177,-0.110838 0.47719693,-0.113809 0.56391573,-1.232598 0.85513243,-1.730715 1.9287658,-5.47073 2.4175498,-11.363828 4.5179888,-16.791536 0.2133048,-0.479673 0.630231,-2.064106 1.258817,-1.337326 0.622175,2.832987 0.8510914,5.878257 0.2274214,8.798406 -0.4419769,3.755501 -1.7825356,7.364011 -2.1808106,11.11297 0.052225,0.417669 0.04175,1.126833 0.3565189,1.2449 0.2483917,-0.250777 0.6366694,-0.187261 0.6411773,0.145403 0.484459,0.07758 0.992692,-0.922964 1.45237,-1.27168 3.875487,-4.316218 6.582287,-9.573664 10.599929,-13.784426 0.380635,-0.361476 1.3721,-1.665812 1.674754,-0.753911 -0.509371,2.855422 -1.463107,5.756505 -3.15685,8.215698 -1.845512,3.300488 -4.464915,6.121319 -6.267568,9.432477 -0.111657,0.405831 -0.392702,1.057128 -0.146978,1.286583 0.325415,-0.136764 0.659844,0.07058 0.536738,0.37958 0.418014,0.2569656 1.270337,-0.472842 1.82852,-0.619151 5.232237,-2.504566 9.744929,-6.325982 15.068136,-8.678737 0.490027,-0.188344 1.905152,-1.013915 1.835742,-0.05542 -1.563298,2.443157 -3.554719,4.758384 -6.060592,6.382227 -2.968077,2.343005 -6.467572,3.9467171 -9.400137,6.3159804 -0.258508,0.3322616 -0.767123,0.8263321 -0.628047,1.132337 0.352941,-0.00171 0.582542,0.317843 0.35053,0.5562069 0.28794,0.3972926 1.354593,0.049307 1.926295,0.1277278 5.792403,-0.3116033 11.423966,-2.115223 17.242318,-2.2517576 0.524727,0.013505 2.148241,-0.2076526 1.717223,0.651241 -2.37931,1.6589332 -5.105073,3.0358375 -8.04163,3.577118 -3.638769,1.0288256 -7.485601,1.1712426 -11.101604,2.23793218 C 15.484078,-0.49314989 15.139113,-0.23236 14.839052,0 Z m 1.613912,0 c 1.327718,1.7103847 4.028038,1.8071804 6.063323,2.555945 4.532561,1.7527213 9.457117,2.5998821 13.866918,4.6150158 0.151514,0.5120455 -0.961538,0.5468679 -1.370214,0.538904 -0.610935,0.2188101 -1.681454,-0.019014 -2.029208,0.4449609 -1.397195,0.3058737 -3.359473,-0.084136 -4.9598,-0.2125 -3.760774,-0.4847945 -7.458588,-1.346133 -11.197681,-1.941193 -0.598431,0.1368425 -1.329463,-0.04305 -1.84146,0.1852551 0.508159,0.4685273 0.577072,1.2960659 1.179714,1.804493 1.892997,1.6869678 3.995277,3.1491082 5.810319,4.9248352 3.000179,2.491903 6.252736,4.79333 8.89474,7.632597 -0.05602,0.530957 -1.097623,0.137248 -1.472171,-0.02653 -0.648209,-0.03169 -1.546088,-0.661047 -2.045097,-0.36545 -1.407877,-0.252 -3.071538,-1.363258 -4.50092,-2.094256 -3.288981,-1.887071 -6.375695,-4.097937 -9.602453,-6.078575 -0.605243,-0.10257 -1.211714,-0.548511 -1.77221,-0.533606 0.290306,0.627379 0.03733,1.418164 0.399319,2.118512 1.103155,2.282996 2.486027,4.438309 3.483341,6.77345 1.811838,3.478301 4.011059,6.858582 5.298769,10.536104 -0.487502,0.229924 -1.119387,-0.394053 -1.511797,-0.841628 -0.56906,-0.07539 -1.16428,-1.266202 -1.595409,-0.879946 -2.784854,-2.487589 -4.775563,-5.792377 -7.008457,-8.795474 -1.2874192,-1.847733 -2.3686963,-4.117873 -4.2431528,-5.351681 -0.052813,0.36602 -0.4824629,1.143648 -0.4879947,1.777153 -0.05258,2.397533 0.5985492,4.810928 0.5439557,7.2295 0.3181755,4.124674 1.1355236,8.307609 0.9139216,12.417148 -0.5383219,0.02581 -0.8834623,-0.79249 -1.074686,-1.356159 C 5.6976826,34.789446 5.6035095,33.461519 5.0573578,33.653383 3.4364264,30.289446 2.8619453,26.474397 1.9482528,22.845405 1.4658805,20.645703 1.3357877,18.134454 0.07606891,16.27737 c -0.18881796,0.317771 -0.88342036,0.872051 -1.13094231,1.455186 -0.9660639,2.194905 -1.2880545,4.673775 -2.264051,6.887342 -1.2844746,3.932467 -2.1300995,8.109775 -3.9074748,11.821691 -0.5072323,-0.18214 -0.5129398,-1.070211 -0.473908,-1.664151 -0.3490646,-0.455682 0.072092,-1.718628 -0.5058879,-1.750321 -0.2102184,-3.728185 0.7189934,-7.472675 1.263611,-11.175087 0.3961168,-2.216804 1.2369851,-4.586831 0.7838089,-6.784494 -0.2960503,0.221393 -1.1498474,0.467548 -1.601699,0.911594 -1.7324764,1.658126 -2.9785818,3.825074 -4.7273828,5.496637 -2.691911,3.141096 -5.072065,6.676313 -8.134008,9.426502 -0.398807,-0.362452 -0.06434,-1.185043 0.199066,-1.718865 -0.148044,-0.554623 0.724279,-1.560135 0.20243,-1.810753 1.232334,-3.524839 3.523861,-6.628705 5.44384,-9.840868 1.214382,-1.896568 2.897965,-3.764149 3.320517,-5.968175 -0.358331,0.09148 -1.241189,-0.008 -1.828562,0.229349 -2.235149,0.868532 -4.215637,2.394 -6.470988,3.269003 -3.688943,1.872431 -7.240679,4.228235 -11.122206,5.596217 -0.229924,-0.487502 0.394053,-1.119387 0.841628,-1.511797 0.07539,-0.56906 1.266202,-1.16428 0.879946,-1.595409 2.487589,-2.784854 5.792376,-4.775563 8.795474,-7.008457 1.847733,-1.2874192 4.117872,-2.3686963 5.351681,-4.2431528 -0.36602,-0.052813 -1.143649,-0.4824629 -1.777153,-0.4879947 -2.397534,-0.05258 -4.810928,0.5985492 -7.2295,0.5439557 -4.124675,0.3181755 -8.307609,1.1355236 -12.417148,0.9139216 -0.02581,-0.5383219 0.792489,-0.8834622 1.356159,-1.074686 0.287432,-0.4968911 1.615359,-0.5910643 1.423496,-1.137216 3.363936,-1.6209314 7.178985,-2.1954125 10.807978,-3.109105 2.199701,-0.4823723 4.71095,-0.6124651 6.568035,-1.87218388 -0.317974,-0.18896747 -0.872157,-0.88352539 -1.4554,-1.13112392 -2.194905,-0.9660638 -4.673775,-1.2880544 -6.887342,-2.264051 -3.932467,-1.2844746 -8.109775,-2.1300995 -11.821691,-3.9074748 0.18214,-0.5072323 1.070211,-0.5129398 1.664151,-0.473908 0.455682,-0.3490645 1.718628,0.072092 1.750321,-0.5058879 3.728185,-0.2102184 7.472675,0.7189934 11.175087,1.263611 2.216804,0.3961169 4.586831,1.2369851 6.784494,0.7838089 -0.221393,-0.2960503 -0.467548,-1.1498474 -0.911594,-1.601699 -1.658126,-1.7324764 -3.825074,-2.9785822 -5.496637,-4.7273832 -3.141096,-2.691911 -6.676313,-5.072064 -9.426502,-8.134008 0.362452,-0.398806 1.185043,-0.06433 1.718865,0.199066 0.554623,-0.148044 1.560135,0.72428 1.810753,0.20243 3.524839,1.232335 6.628705,3.523861 9.840868,5.44384 1.896568,1.214382 3.764149,2.897966 5.968175,3.320517 -0.09148,-0.35833 0.008,-1.241188 -0.229349,-1.828562 -0.868531,-2.235148 -2.394,-4.215636 -3.269003,-6.470988 -1.872431,-3.688942 -4.228235,-7.240679 -5.596217,-11.122206 0.487502,-0.229924 1.119387,0.394053 1.511797,0.841628 0.56906,0.07539 1.16428,1.266202 1.595409,0.879946 2.784854,2.487589 4.775563,5.792377 7.008457,8.795474 1.2874192,1.847733 2.3686963,4.117873 4.2431528,5.351681 0.052813,-0.36602 0.4824629,-1.143648 0.4879947,-1.777153 0.05258,-2.397533 -0.5985492,-4.810928 -0.5439557,-7.2295 -0.3181755,-4.124674 -1.1355236,-8.307609 -0.9139216,-12.417148 0.5383219,-0.02581 0.8834623,0.79249 1.074686,1.356159 0.4968912,0.287433 0.5910643,1.61536 1.137216,1.423496 1.6209314,3.363937 2.1954125,7.178986 3.109105,10.807978 0.4823723,2.199702 0.6124651,4.710951 1.87218389,6.568035 0.18881796,-0.317771 0.88342036,-0.872051 1.13094231,-1.455186 0.9660639,-2.194905 1.2880545,-4.673775 2.264051,-6.887342 1.2844746,-3.932467 2.1300995,-8.109775 3.9074748,-11.821691 0.5072323,0.18214 0.5129398,1.070211 0.473908,1.664151 0.3490646,0.455682 -0.072092,1.718628 0.5058879,1.750321 0.2102184,3.728185 -0.7189934,7.472675 -1.263611,11.175087 -0.3961168,2.216804 -1.2369851,4.586831 -0.7838089,6.784494 0.2960503,-0.221393 1.1498474,-0.467548 1.601699,-0.911594 1.7324764,-1.658126 2.9785818,-3.825074 4.7273828,-5.496637 2.691911,-3.141096 5.072065,-6.676313 8.134008,-9.426502 0.398807,0.362452 0.06434,1.185043 -0.199066,1.718865 0.148044,0.554623 -0.724279,1.560135 -0.20243,1.810753 -1.232334,3.524839 -3.523861,6.628705 -5.44384,9.840868 -1.214382,1.896568 -2.897965,3.764149 -3.320517,5.968175 0.358331,-0.09148 1.241189,0.008 1.828562,-0.229349 2.235149,-0.868532 4.215637,-2.394 6.470988,-3.269003 3.688943,-1.872431 7.240679,-4.228235 11.122206,-5.596217 0.229924,0.487502 -0.394053,1.119387 -0.841628,1.511797 -0.07539,0.56906 -1.266202,1.16428 -0.879946,1.595409 -2.487589,2.784854 -5.792376,4.775563 -8.795474,7.008457 -1.847733,1.2874192 -4.117872,2.3686963 -5.351681,4.2431528 0.36602,0.052813 1.143649,0.4824629 1.777153,0.4879947 2.397534,0.05258 4.810928,-0.5985492 7.2295,-0.5439557 4.124675,-0.3181755 8.307609,-1.1355236 12.417148,-0.9139216 0.02581,0.5383219 -0.792489,0.8834622 -1.356159,1.074686 -0.287432,0.4968911 -1.615359,0.5910643 -1.423496,1.137216 -3.363936,1.6209314 -7.178985,2.1954125 -10.807978,3.109105 -2.199701,0.4823723 -4.71095,0.6124651 -6.568035,1.87218388 C 16.260525,0.04198525 15.948665,-0.05962212 16.452964,0 Z"
     fill="none"
     stroke="#000000"
     stroke-width="0.0730515"
     id="path11" />
</svg>
