<?xml version="1.0" encoding="UTF-8" standalone="no"?>
<svg
   height="600px"
   version="1.1"
   viewBox="-48.81870350121646 -48.81870350121647 97.63740700243295 97.63740700243292"
   width="600px"
   id="svg159"
   sodipodi:docname="cir_seasonal-US-Ha_rere_21_15_100_11_0_0.8_bezier_simple.svg"
   inkscape:version="1.1.1 (c3084ef, 2021-09-22)"
   xmlns:inkscape="http://www.inkscape.org/namespaces/inkscape"
   xmlns:sodipodi="http://sodipodi.sourceforge.net/DTD/sodipodi-0.dtd"
   xmlns="http://www.w3.org/2000/svg"
   xmlns:svg="http://www.w3.org/2000/svg">
  <sodipodi:namedview
     id="namedview161"
     pagecolor="#ffffff"
     bordercolor="#666666"
     borderopacity="1.0"
     inkscape:pageshadow="2"
     inkscape:pageopacity="0.0"
     inkscape:pagecheckerboard="0"
     showgrid="false"
     inkscape:zoom="1.1983333"
     inkscape:cx="300"
     inkscape:cy="310.01391"
     inkscape:window-width="1296"
     inkscape:window-height="969"
     inkscape:window-x="63"
     inkscape:window-y="38"
     inkscape:window-maximized="0"
     inkscape:current-layer="svg159" />
  <defs
     id="defs155" />
  <path
     d="m 8.9673639,0 c 3.6542941,0.12435324 7.0897681,0.69191478 10.5561791,1.4358509 1.735177,0.3478853 3.433818,0.6693304 4.864733,1.073834 0.649137,0.1180443 2.853806,0.5867489 2.534871,0.86472 C 26.390928,3.6577458 25.474423,3.5610074 24.455659,3.6167177 20.619723,3.5036914 16.107003,2.6879414 12.621883,2.8565517 11.901454,2.8071085 12.203708,3.2407521 11.412608,3.0912587 10.953097,3.1733432 9.8014329,2.8631909 9.7419135,3.1202283 9.6842038,3.282052 9.4773521,3.1644352 9.5298159,3.3114934 8.4194579,3.19584 6.7504119,2.5431591 6.0509825,2.4898884 c 1.1858669,0.4527164 3.4020239,1.4861152 4.9920045,2.2967764 3.365215,1.8309521 6.460683,4.0019226 9.702469,6.2011892 0.57343,0.601703 2.086084,1.369215 2.863681,2.266372 0.328724,0.454554 -1.031058,-0.0051 -1.591047,-0.243968 C 18.177854,11.470571 14.151919,8.7792858 10.571383,7.4531445 9.9401709,7.1718283 10.028572,7.6481087 9.3609521,7.2232715 8.9049909,7.1232434 7.9596963,6.3959755 7.8063355,6.6106285 7.6910883,6.7380562 7.5449872,6.5502262 7.5371819,6.7061815 6.5555995,6.1744329 5.2633842,4.9327178 4.6375705,4.6158261 c 0.724571,0.6853488 2.3308587,2.4230545 3.3713812,3.6201179 1.7790007,2.098373 3.2964743,4.307703 4.7811233,6.584545 1.066583,1.563572 1.982339,3.013101 2.833415,4.410274 0.319036,0.519397 1.467122,2.277157 1.028105,2.192804 C 16.074982,21.24758 15.495286,20.531129 14.735529,19.850147 12.103066,17.028741 9.4997653,13.346538 6.9145831,10.931304 6.4390036,10.430004 6.3384585,10.903554 5.8842447,10.255714 5.5012684,9.9887744 4.9062411,8.955128 4.6824204,9.0947482 4.5271769,9.1683719 4.4640866,8.9389429 4.3971964,9.0800276 3.6938406,8.2131082 2.9751456,6.5714153 2.5182617,6.0391527 c 0.5153267,1.1458873 1.3557579,3.464369 1.905816,5.1539463 1.0848711,3.674224 1.7386152,7.398205 2.475788,11.245602 -0.025178,0.821858 0.5079439,2.44511 0.4223287,3.627475 C 7.2331863,26.620066 6.5967229,25.333621 6.3696376,24.768714 4.7429179,20.96453 3.799162,16.214747 2.2050747,12.7452 1.9575713,12.099825 1.6833976,12.499232 1.5116907,11.726781 1.260003,11.333694 1.1058384,10.15096 0.8456098,10.194322 0.67405437,10.203138 0.70351388,9.9667735 0.5877317,10.071602 0.26966604,9.0015081 0.23394332,7.2097381 0.015511,6.5431617 0.061612,7.8134585 -0.05374381,10.275312 -0.19607666,12.03411 c -0.4037793,3.809707 -1.22488624,7.500442 -2.01617024,11.337068 -0.3377932,0.749675 -0.4664449,2.453418 -0.998017,3.513 -0.2941906,0.477709 -0.389895,-0.954432 -0.3835118,-1.56322 -0.04709,-4.137141 0.8986529,-8.886504 0.753636,-12.702047 0.018308,-0.690839 -0.3878286,-0.426816 -0.250857,-1.206175 -0.082085,-0.459511 0.2280679,-1.6111749 -0.02897,-1.6706943 -0.1618237,-0.05771 -0.044207,-0.2645614 -0.1912651,-0.2120976 0.1156534,-1.110358 0.7683344,-2.779404 0.821605,-3.4788334 -0.4330781,1.1796771 -1.4801062,3.4125769 -2.2967764,4.9920043 -1.8309521,3.365215 -4.0019226,6.460683 -6.2011892,9.702469 -0.601702,0.57343 -1.369215,2.086084 -2.266372,2.863681 -0.454554,0.328724 0.0051,-1.031058 0.243968,-1.591047 1.539687,-3.840236 4.2309722,-7.86617 5.5571135,-11.446707 0.2813163,-0.6312119 -0.1949642,-0.542811 0.229873,-1.2104307 0.1000281,-0.4559612 0.827296,-1.4012558 0.612643,-1.5546166 -0.1274276,-0.1152472 0.060402,-0.2613483 -0.095553,-0.2691536 0.5317486,-0.9815824 1.7734637,-2.2737977 2.0903554,-2.8996114 -0.6974052,0.7129268 -2.3692139,2.3849188 -3.6201179,3.3713812 -2.098372,1.7790007 -4.307703,3.2964741 -6.584545,4.7811231 -1.563572,1.066583 -3.013101,1.982339 -4.410274,2.833415 -0.519397,0.319036 -2.277157,1.467122 -2.192804,1.028105 0.175987,-0.576613 0.892439,-1.156309 1.57342,-1.916066 2.821406,-2.632463 6.503609,-5.2357635 8.918843,-7.8209457 0.5013,-0.4755795 0.02775,-0.5761246 0.67559,-1.0303384 0.2669396,-0.3829763 1.3005861,-0.9780036 1.1609658,-1.2018243 -0.073624,-0.1552435 0.1558053,-0.2183337 0.014721,-0.285224 0.8669194,-0.7033558 2.5086123,-1.4220508 3.0408749,-1.8789347 -1.1565517,0.5245825 -3.4518381,1.3664779 -5.1539463,1.905816 -3.674224,1.0848711 -7.398205,1.7386152 -11.245602,2.475788 -0.821858,-0.025178 -2.44511,0.5079439 -3.627475,0.4223287 -0.55389,-0.089008 0.732555,-0.7254715 1.297462,-0.9525568 3.804184,-1.6267197 8.553967,-2.5704756 12.023514,-4.1645629 0.645375,-0.2475034 0.245968,-0.5216771 1.018419,-0.693384 0.393087,-0.2516877 1.575821,-0.4058523 1.532459,-0.66608089 -0.0088,-0.17155543 0.2275485,-0.14209592 0.12272,-0.2578781 1.070094,-0.31806566 2.8618639,-0.35378838 3.5284403,-0.5722207 -1.2857671,0.03731383 -3.7211093,-0.06568775 -5.4910823,-0.21197792 -3.809707,-0.4037793 -7.500442,-1.22488629 -11.337068,-2.01617019 -0.749675,-0.3377932 -2.453418,-0.4664449 -3.513,-0.998017 -0.477709,-0.2941907 0.954432,-0.3898951 1.56322,-0.3835118 4.137141,-0.04709 8.886504,0.8986529 12.702047,0.753636 0.690839,0.018308 0.426816,-0.3878287 1.206175,-0.250857 0.459511,-0.082085 1.6111751,0.2280678 1.6706945,-0.02897 0.05771,-0.1618237 0.2645614,-0.044207 0.2120976,-0.1912651 1.110358,0.1156534 2.779404,0.7683343 3.4788334,0.821605 -1.1858669,-0.4527164 -3.4020239,-1.4861152 -4.9920045,-2.2967764 -3.365215,-1.8309521 -6.460683,-4.0019226 -9.702469,-6.2011892 -0.57343,-0.601703 -2.086084,-1.369215 -2.863681,-2.266372 -0.328724,-0.454554 1.031058,0.0051 1.591047,0.243968 3.840236,1.539687 7.866171,4.2309722 11.446707,5.5571135 0.6312121,0.2813162 0.542811,-0.1949642 1.2104309,0.229873 0.4559612,0.1000281 1.4012558,0.827296 1.5546166,0.612643 0.1152472,-0.1274277 0.2613483,0.060402 0.2691536,-0.095553 0.9815824,0.5317486 2.2737977,1.7734637 2.8996114,2.0903554 -0.724571,-0.6853488 -2.3308587,-2.4230545 -3.3713812,-3.6201179 -1.7790007,-2.098373 -3.2964743,-4.307703 -4.7811233,-6.584545 -1.066583,-1.563572 -1.982339,-3.013101 -2.833415,-4.410274 -0.319036,-0.519397 -1.467122,-2.277157 -1.028105,-2.192804 0.576613,0.175987 1.156309,0.892438 1.916066,1.57342 2.632463,2.821406 5.2357637,6.503609 7.8209459,8.918843 0.4755795,0.5013 0.5761246,0.02775 1.0303384,0.67559 0.3829763,0.2669396 0.9780036,1.300586 1.2018243,1.1609658 0.1552435,-0.073624 0.2183338,0.1558053 0.285224,0.014721 0.7033558,0.8669194 1.4220508,2.5086123 1.8789347,3.0408749 -0.5153267,-1.1458873 -1.3557579,-3.464369 -1.905816,-5.1539463 -1.0848711,-3.674224 -1.7386152,-7.398205 -2.475788,-11.245602 0.025178,-0.821858 -0.5079439,-2.44511 -0.4223287,-3.627475 0.089008,-0.55389 0.7254715,0.732555 0.9525568,1.297462 1.6267197,3.804184 2.5704756,8.553967 4.1645629,12.023514 0.2475034,0.645375 0.5216771,0.245968 0.693384,1.018419 0.2516877,0.393087 0.4058523,1.575821 0.6660809,1.532459 0.17155543,-0.0088 0.14209592,0.2275485 0.2578781,0.12272 0.31806566,1.0700939 0.35378838,2.8618639 0.5722207,3.5284403 -0.046101,-1.2702968 0.06925481,-3.7321503 0.21158766,-5.4909483 0.4037793,-3.809707 1.22488624,-7.500442 2.01617024,-11.337068 0.3377932,-0.749675 0.4664449,-2.453418 0.998017,-3.513 0.2941906,-0.477709 0.389895,0.954432 0.3835118,1.56322 0.04709,4.137141 -0.8986529,8.886504 -0.753636,12.702047 -0.018308,0.690839 0.3878286,0.426816 0.250857,1.206175 0.082085,0.459511 -0.2280679,1.6111749 0.02897,1.6706943 0.1618237,0.05771 0.044207,0.2645614 0.1912651,0.2120976 -0.1156534,1.110358 -0.7683344,2.779404 -0.821605,3.4788334 0.4330781,-1.1796771 1.4801062,-3.4125769 2.2967764,-4.9920043 1.8309521,-3.365215 4.0019226,-6.460683 6.2011892,-9.702469 0.601702,-0.57343 1.369215,-2.086084 2.266372,-2.863681 0.454554,-0.328724 -0.0051,1.031058 -0.243968,1.591047 -1.539687,3.840236 -4.2309722,7.86617 -5.5571135,11.446707 -0.2813163,0.6312119 0.1949642,0.542811 -0.229873,1.2104307 -0.1000281,0.4559612 -0.827296,1.4012558 -0.612643,1.5546166 0.1274276,0.1152472 -0.060402,0.2613483 0.095553,0.2691536 -0.5317486,0.9815824 -1.7734637,2.2737977 -2.0903554,2.8996114 0.6974052,-0.7129268 2.3692139,-2.3849188 3.6201179,-3.3713812 2.098372,-1.7790007 4.307703,-3.2964741 6.584545,-4.7811231 1.563572,-1.066583 3.013101,-1.982339 4.410274,-2.833415 0.519397,-0.319036 2.277157,-1.467122 2.192804,-1.028105 -0.175987,0.576613 -0.892439,1.156309 -1.57342,1.916066 -2.821406,2.632463 -6.503609,5.2357635 -8.918843,7.8209457 -0.5013,0.4755795 -0.02775,0.5761246 -0.67559,1.0303384 -0.2669396,0.3829763 -1.3005861,0.9780036 -1.1609658,1.2018243 0.073624,0.1552435 -0.1558053,0.2183337 -0.014721,0.285224 -0.8669194,0.7033558 -2.5086123,1.4220508 -3.0408749,1.8789347 1.1565517,-0.5245825 3.4518381,-1.3664779 5.1539463,-1.905816 3.674224,-1.0848711 7.398205,-1.7386152 11.245602,-2.475788 0.821858,0.025178 2.44511,-0.5079439 3.627475,-0.4223287 0.55389,0.089008 -0.732555,0.7254715 -1.297462,0.9525568 -3.804184,1.6267197 -8.553967,2.5704756 -12.023514,4.1645629 -0.645375,0.2475034 -0.245968,0.5216771 -1.018419,0.693384 -0.393087,0.2516877 -1.575821,0.4058523 -1.532459,0.66608089 0.0088,0.17155543 -0.2275485,0.14209592 -0.12272,0.2578781 -1.070094,0.31806566 -2.8618639,0.35378838 -3.5284403,0.5722207 C 6.6817745,-0.00281917 8.3177229,-0.00196548 8.9673639,0 Z M 6.6762161,0 c 4.0355629,0.3275318 8.2764679,0.82956476 12.0591609,1.861809 1.030608,0.263517 2.295063,0.6236156 3.154667,1.115275 0.632558,0.2622224 1.559314,0.4171214 1.570089,0.744242 0.613465,0.2419061 1.07198,0.4466293 1.251688,0.761509 0.20604,0.2425216 1.495559,0.3890594 0.986757,0.769172 C 25.22324,5.4618647 25.020523,5.4220982 24.290265,5.527102 22.543467,5.4747408 20.872873,5.6426999 19.173867,5.3136558 14.500674,4.6002186 9.3603151,3.2072171 5.0676403,2.0783825 c 2.5263651,1.0645096 5.4201687,2.8010229 7.9893237,4.3385724 2.031416,1.3239771 3.781145,2.5164201 5.48615,4.1072571 0.229344,0.419913 1.33692,1.20989 1.499705,1.508806 0.335584,0.426344 0.512162,0.786992 1.040367,1.26825 -0.163854,0.325925 0.547928,0.778745 0.908142,1.263451 -0.315838,0.159123 -0.69778,0.107972 -0.93031,0.0648 -2.241909,-0.821855 -4.351453,-1.619459 -6.350381,-2.97423 C 11.044983,9.323816 7.1301223,6.3369884 3.9084554,3.8720976 4.387331,4.3506398 5.3873704,5.4862925 6.0474313,6.29181 c 2.4529186,3.0226186 4.8981507,6.281248 6.5968667,9.552831 0.495333,0.978847 0.965702,2.241985 1.229738,2.93643 0.192079,0.596893 0.332628,1.059868 0.48946,1.692385 -0.290023,0.149543 0.466903,1.080603 0.295376,1.437237 -0.560974,-0.244549 -0.665114,-0.07076 -1.130043,-0.68706 C 12.155827,20.022296 10.856306,18.785329 9.800785,17.315128 7.0008182,13.506207 4.3510216,8.8864276 2.1138642,5.0528386 c 1.0336949,2.5391326 1.852016,5.8132594 2.5814731,8.7171374 0.5001862,2.372578 0.8943833,4.453096 0.975027,6.783512 -0.1348254,0.459151 0.089769,1.800882 -0.00649,2.12737 -0.064237,0.538818 -0.1943465,0.918658 -0.1611614,1.632474 -0.3462211,0.114623 -0.1631857,0.938113 -0.251193,1.535574 C 4.9156053,25.738143 4.6817794,25.431818 4.5478779,25.236894 3.5435891,23.07063 2.6160012,21.01479 2.1604999,18.643414 1.2171085,14.402796 0.56086006,9.5225728 0.0257662,5.5015576 0.00264197,6.9134303 -0.1577684,9.0066 -0.40021558,10.727846 -0.78255934,14.023832 -1.3764,17.337193 -2.306542,20.319116 c -0.3547427,1.059159 -0.8212182,1.745025 -1.128396,2.907277 -0.1943419,0.06375 -0.4943713,0.718299 -0.723547,1.150384 -0.3139883,0.323207 -0.5761657,0.742336 -0.837938,1.448951 -0.3120185,0.195933 -0.261015,-0.704826 -0.478636,-0.541333 0.00245,-2.105816 -0.1925759,-4.139228 0.1591032,-6.188718 0.8031294,-4.726694 1.9840395,-9.4950937 3.2755613,-14.0538487 -0.6112554,1.3297126 -1.582339,3.294208 -2.5090648,4.8478674 -1.5937943,2.8551903 -3.3883028,5.6362193 -5.3572855,7.9999333 -0.7330842,0.842776 -1.4264022,1.298046 -2.1550232,2.254232 -0.203861,-0.01548 -0.731608,0.474459 -1.108654,0.785932 -0.413797,0.178377 -0.816408,0.465283 -1.328657,1.017935 -0.363242,0.06165 0.02855,-0.750997 -0.23507,-0.683244 0.808295,-1.944587 1.406215,-3.897826 2.51541,-5.65673 2.5508136,-4.059559 5.4666157,-8.0130566 8.4043864,-11.7305646 -0.508578,0.4509578 -1.6395834,1.5136304 -2.4774574,2.1702419 -3.0226186,2.4529186 -6.281248,4.8981507 -9.552831,6.5968667 -0.978847,0.495333 -2.241985,0.965702 -2.93643,1.229738 -0.596893,0.192079 -1.059868,0.332628 -1.692385,0.48946 -0.149543,-0.290023 -1.080603,0.466903 -1.437237,0.295376 0.244549,-0.560974 0.07076,-0.665114 0.68706,-1.130043 1.201337,-1.373002 2.438304,-2.672523 3.908505,-3.728044 3.808921,-2.7999668 8.4287004,-5.4497634 12.2622894,-7.6869208 -2.5391326,1.0336949 -5.8132594,1.852016 -8.7171374,2.5814731 -2.372578,0.5001862 -4.453096,0.8943833 -6.783512,0.975027 -0.459151,-0.1348254 -1.800882,0.089769 -2.12737,-0.00649 -0.538818,-0.064237 -0.918658,-0.1943465 -1.632474,-0.1611614 -0.114623,-0.3462211 -0.938113,-0.1631857 -1.535574,-0.251193 0.110763,-0.3359156 0.417088,-0.5697415 0.612012,-0.703643 2.166264,-1.0042888 4.222104,-1.9318767 6.59348,-2.387378 C -14.402796,1.2171085 -9.5225728,0.56086006 -5.5015576,0.0257662 -6.9134303,0.00264197 -9.0066,-0.1577684 -10.727846,-0.40021558 -14.023832,-0.78255934 -17.337193,-1.3764 -20.319116,-2.306542 c -1.059159,-0.3547427 -1.745025,-0.8212182 -2.907277,-1.128396 -0.06375,-0.1943419 -0.718299,-0.4943713 -1.150384,-0.723547 -0.323207,-0.3139883 -0.742336,-0.5761657 -1.448951,-0.837938 -0.195933,-0.3120185 0.704826,-0.261015 0.541333,-0.478636 2.105816,0.00245 4.139228,-0.1925759 6.188718,0.1591032 4.726694,0.8031294 9.4950937,1.9840395 14.0538487,3.2755613 -1.3297126,-0.6112554 -3.294208,-1.582339 -4.8478674,-2.5090648 -2.8551903,-1.5937943 -5.6362193,-3.3883028 -7.9999333,-5.3572855 -0.842776,-0.7330842 -1.298046,-1.4264022 -2.254232,-2.1550232 0.01548,-0.203861 -0.474459,-0.731608 -0.785932,-1.108654 -0.178377,-0.413797 -0.465283,-0.816408 -1.017935,-1.328657 -0.06165,-0.363242 0.750997,0.02855 0.683244,-0.23507 1.944587,0.808295 3.897826,1.406215 5.65673,2.51541 4.059559,2.5508136 8.0130566,5.4666157 11.7305646,8.4043864 -0.5850076,-0.6372286 -1.7347471,-1.9271874 -2.5217524,-2.8899331 -2.3026278,-2.9185244 -4.6364612,-6.0149753 -6.2453562,-9.1403553 -0.495333,-0.978847 -0.965702,-2.241985 -1.229738,-2.93643 -0.192079,-0.596893 -0.332628,-1.059868 -0.48946,-1.692385 0.290023,-0.149543 -0.466903,-1.080603 -0.295376,-1.437237 0.560974,0.244549 0.665114,0.07076 1.130043,0.68706 1.373002,1.201337 2.672523,2.438304 3.728044,3.908505 2.7999668,3.808921 5.4497634,8.4287004 7.6869208,12.2622894 -1.0336949,-2.5391326 -1.852016,-5.8132594 -2.5814731,-8.7171374 -0.5001862,-2.372578 -0.8943833,-4.453096 -0.975027,-6.783512 0.1348254,-0.459151 -0.089769,-1.800882 0.00649,-2.12737 0.064237,-0.538818 0.1943465,-0.918658 0.1611614,-1.632474 0.3462211,-0.114623 0.1631857,-0.938113 0.251193,-1.535574 0.3359156,0.110763 0.5697415,0.417088 0.703643,0.612012 1.0042888,2.166264 1.9318767,4.222104 2.387378,6.59348 0.9433914,4.240618 1.59963984,9.1208412 2.1347337,13.1418564 0.02292296,-1.4117589 0.18346245,-3.5048627 0.42586046,-5.2260024 0.38234376,-3.295987 0.97618444,-6.609348 1.90632644,-9.59127 0.3547427,-1.05916 0.8212182,-1.745026 1.128396,-2.907277 0.1943419,-0.06375 0.4943712,-0.7183 0.723547,-1.150384 0.3139883,-0.323208 0.5761657,-0.742337 0.837938,-1.448951 0.3120185,-0.195934 0.261015,0.704825 0.478636,0.541333 -0.00245,2.105816 0.1925759,4.139227 -0.1591032,6.188718 -0.8031294,4.726694 -1.9840395,9.4950932 -3.2755613,14.0538481 0.6112554,-1.3297126 1.582339,-3.2942079 2.5090648,-4.8478674 1.5937942,-2.8551907 3.3883027,-5.6362197 5.3572855,-7.9999327 0.7330845,-0.842777 1.4264015,-1.298047 2.1550235,-2.254232 0.20386,0.01548 0.731608,-0.47446 1.108654,-0.785932 0.413797,-0.178378 0.816407,-0.465284 1.328657,-1.017935 0.363242,-0.06165 -0.02855,0.750996 0.23507,0.683244 -0.808295,1.944586 -1.406216,3.897826 -2.51541,5.65673 -2.5508139,4.059559 -5.466616,8.013056 -8.4043867,11.730564 0.5085779,-0.4509578 1.6395834,-1.5136304 2.4774574,-2.1702419 3.0226185,-2.4529186 6.2812473,-4.8981501 9.5528303,-6.5968661 0.978848,-0.495333 2.241986,-0.965702 2.93643,-1.229738 0.596894,-0.192079 1.059869,-0.332628 1.692385,-0.48946 0.149544,0.290023 1.080603,-0.466904 1.437237,-0.295376 -0.244548,0.560974 -0.07076,0.665113 -0.68706,1.130043 -1.201336,1.373001 -2.438304,2.672522 -3.908505,3.7280434 -3.80892,2.7999668 -8.4286997,5.4497635 -12.2622887,7.6869208 2.5391326,-1.0336949 5.8132597,-1.852016 8.7171367,-2.5814731 2.372579,-0.5001862 4.453097,-0.8943833 6.783512,-0.975027 0.459152,0.1348254 1.800883,-0.089769 2.12737,0.00649 0.538819,0.064237 0.918659,0.1943465 1.632474,0.1611614 0.114623,0.3462211 0.938113,0.1631857 1.535574,0.251193 -0.110762,0.3359156 -0.417087,0.5697415 -0.612012,0.703643 -2.166263,1.0042888 -4.222103,1.9318767 -6.59348,2.387378 C 14.402675,-1.2168231 9.5224515,-0.56057464 5.5014363,-0.02548078 4.9478532,0.07204411 6.8403311,-0.06281487 6.6762161,0 Z M 6.9160318,0 C 6.9058801,0.11735432 6.6097319,0.15292923 7.2009024,0.1762474 13.854674,1.0832535 20.687793,2.1329785 26.695556,5.2939015 27.49941,5.7986037 26.806308,6.6253 26.015136,6.6252545 22.244116,7.0328407 18.478508,5.9538852 14.791846,5.2561064 11.939694,4.5682696 8.8610375,3.7675485 6.3696593,2.690652 5.9146789,2.6899878 7.1687383,3.152112 7.4318142,3.4081911 12.943145,6.6539504 18.511926,10.139481 22.637723,15.106847 23.187116,15.88075 22.230284,16.379127 21.499416,16.076579 17.859454,15.010087 14.793393,12.572202 11.654371,10.516748 9.6624077,9.0038968 7.520454,7.5592864 5.8070375,5.7993348 5.7289089,5.1625585 4.7121869,4.7788065 4.7440396,4.9359466 8.8849706,10.338024 13.032738,15.977883 15.11407,22.534506 c 0.290316,0.904754 -0.735485,1.168329 -1.33779,0.5948 C 10.779166,20.756998 8.8739644,17.295195 6.7427022,14.176047 5.214382,11.67011 3.5956563,8.9300748 2.6013728,6.4066055 2.280105,6.084405 2.8400933,7.2979331 2.8450498,7.6650358 4.4470821,13.857232 5.9200887,20.259599 5.3250558,26.689439 5.166357,27.625197 4.1373435,27.301054 3.8346198,26.570142 2.0149174,23.242171 1.570726,19.350297 0.804558,15.677242 0.3375112,12.806896 -0.07026599,9.5429756 -0.0648346,6.9546406 -0.21967563,6.4498911 -0.16838612,7.9577533 -0.3266647,8.2407417 -1.186002,14.558092 -2.3034087,21.003021 -5.2939015,26.695556 -5.7986037,27.49941 -6.6253,26.806308 -6.6252545,26.015136 -7.0328407,22.244116 -5.9538852,18.478508 -5.2561064,14.791846 -4.5935331,11.95515 -3.6979107,8.7646025 -2.72131,6.4005843 -2.6712016,5.8750224 -3.2008526,7.2877189 -3.4553771,7.4885962 -6.66686,12.99619 -10.165543,18.522944 -15.106847,22.637723 c -0.773903,0.549393 -1.27228,-0.407439 -0.969732,-1.138307 1.066492,-3.639962 3.504377,-6.706023 5.559831,-9.845045 1.7160252,-2.3881115 3.708993,-4.9331464 5.5932134,-6.7993294 0.1747282,-0.4201252 -0.7321256,0.5616568 -1.0693891,0.7066971 -5.1077743,3.8497435 -10.4590853,7.6606643 -16.6271923,9.5715713 -0.925279,0.211448 -1.019537,-0.863293 -0.46014,-1.42266 2.378304,-2.954734 5.803932,-4.8544882 8.904209,-6.9679478 2.472206,-1.5375075 5.364936,-3.1589621 7.7258965,-4.1411394 0.4070708,-0.336223 -0.966379,0.2882078 -1.2884013,0.250267 -6.1653172,1.62364 -12.5472672,3.0576171 -18.9508872,2.473226 -0.935758,-0.1586988 -0.611615,-1.1877123 0.119297,-1.490436 3.327971,-1.8197024 7.219845,-2.2638938 10.8929,-3.0300618 2.867992,-0.47006536 6.1380275,-0.87004286 8.7226014,-0.8693926 0.5047495,-0.15484103 -1.0031127,-0.10355152 -1.2861011,-0.2618301 -6.3173503,-0.8593373 -12.7622793,-1.976744 -18.4548143,-4.9672368 -0.803854,-0.5047022 -0.110752,-1.3313985 0.68042,-1.331353 3.77102,-0.4075862 7.536628,0.6713693 11.22329,1.3691481 2.852152,0.6878368 5.9308085,1.4885579 8.4221867,2.5654544 0.4549804,6.642e-4 -0.799079,-0.46146 -1.0621549,-0.7175391 -5.5113308,-3.2457593 -11.0801118,-6.7312899 -15.2059088,-11.6986559 -0.549393,-0.773903 0.407439,-1.27228 1.138307,-0.969732 3.639962,1.066492 6.706023,3.504377 9.845045,5.559831 1.9919633,1.5128512 4.133917,2.9574616 5.8473335,4.7174132 0.078129,0.6367763 1.0948506,1.0205283 1.0629979,0.8633882 -4.140931,-5.4020774 -8.2886984,-11.0419364 -10.3700304,-17.5985594 -0.290316,-0.904754 0.735485,-1.168329 1.33779,-0.5948 2.997114,2.372308 4.9023156,5.834111 7.0335778,8.953259 1.5283202,2.505937 3.1470459,5.2459722 4.1413294,7.7694415 0.3212678,0.3222005 -0.2387205,-0.8913276 -0.243677,-1.2584303 -1.6020323,-6.1921962 -3.0750389,-12.5945632 -2.480006,-19.0244032 0.1586988,-0.935758 1.1877123,-0.611615 1.490436,0.119297 1.8197024,3.327971 2.2638938,7.219845 3.0300618,10.8929 0.46704077,2.870327 0.87483868,6.1342289 0.86934474,8.7225443 0.15484103,0.5047495 0.10355152,-1.0031127 0.2618301,-1.2861011 C 1.1859542,-14.558149 2.3033608,-21.003078 5.2938536,-26.695613 c 0.5047023,-0.803855 1.3313985,-0.110752 1.331353,0.68042 0.4075863,3.77102 -0.6713692,7.536628 -1.3691481,11.22329 -0.6625732,2.836696 -1.5581957,6.0272434 -2.5347964,8.3912616 -0.050108,0.5255619 0.4795426,-0.8871346 0.7340671,-1.0880119 3.211483,-5.5075947 6.7101658,-11.0343477 11.6514698,-15.1491267 0.773903,-0.549393 1.27228,0.407439 0.969732,1.138307 -1.066492,3.639962 -3.504377,6.706023 -5.559831,9.845045 -1.716025,2.3881114 -3.7089928,4.9331463 -5.5932133,6.7993293 -0.1747281,0.4201252 0.7321256,-0.5616568 1.0693891,-0.7066971 5.1077742,-3.8497435 10.4590862,-7.6606642 16.6271922,-9.5715712 0.92528,-0.211448 1.019538,0.863293 0.46014,1.42266 -2.378304,2.954734 -5.803932,4.8544881 -8.904209,6.9679477 -2.472206,1.5375075 -5.3649359,3.1589621 -7.7258964,4.1411394 -0.4070708,0.336223 0.9663791,-0.2882078 1.2884013,-0.250267 6.1653171,-1.62364 12.5472671,-3.0576171 18.9508871,-2.473226 0.935758,0.1586988 0.611616,1.1877123 -0.119297,1.490436 -3.327971,1.8197024 -7.219845,2.2638938 -10.8929,3.0300618 C 12.775791,-0.37407057 9.8587518,0.11491865 6.9160318,0 Z m 2.1811185,0 c 3.9674137,0.62704902 7.7106147,1.5074764 11.7760707,2.0496944 1.680998,0.4762372 3.704326,0.4527741 5.187753,1.247515 -0.355538,0.1132984 1.472898,0.5229443 0.662691,0.686776 0.278989,0.2859552 -0.250005,0.3550121 0.569594,0.704784 0.05008,0.4930707 1.150494,0.5975893 1.829353,0.980723 0.804335,0.5082659 -0.691116,0.3042695 -0.0106,0.669928 -0.565151,0.1938902 -1.305782,0.2007987 -2.156979,0.1585332 -0.383234,0.2706438 -1.553899,0.2053126 -2.227294,0.076428 C 21.38493,6.3401798 18.052998,5.2557868 14.753838,5.0690941 12.634539,4.7172756 10.34196,4.0658426 8.4360042,3.505895 c 3.3414288,2.0254623 6.3532948,4.2291055 9.8131068,6.2143897 1.463117,1.1293143 3.415798,1.9417453 4.566236,3.2990793 -0.371786,-0.03139 1.160724,1.046846 0.349503,0.88816 0.148329,0.370968 -0.366917,0.23231 0.256545,0.869142 -0.142498,0.474819 0.834219,0.992396 1.314767,1.606192 0.548765,0.777372 -0.75496,0.01659 -0.266053,0.614858 -0.596373,-0.03717 -1.283256,-0.314133 -2.053499,-0.678943 -0.457625,0.103412 -1.51425,-0.405036 -2.087049,-0.781764 C 17.33083,14.041358 14.667462,11.764499 11.690898,10.32946 9.8675553,9.1934094 7.9987882,7.7142248 6.4521957,6.4675334 c 2.3106064,3.1501578 4.2536283,6.3382026 6.6879773,9.4966576 0.919583,1.603258 2.412713,3.101102 2.956154,4.795371 -0.33151,-0.171283 0.671653,1.411298 -0.01706,0.95423 -0.0049,0.399502 -0.427828,0.07424 -0.09559,0.901154 -0.313414,0.383996 0.39093,1.236099 0.599992,1.987019 0.209352,0.928143 -0.70383,-0.273564 -0.481189,0.466173 C 15.565731,24.805596 15.037148,24.286788 14.465146,23.65501 14.002832,23.575443 13.22121,22.701401 12.836197,22.134124 10.638073,19.604743 9.0488306,16.481971 6.8479713,14.017056 5.5982029,12.269694 4.4377128,10.187977 3.4859523,8.4443196 4.4164735,12.239325 4.9879919,15.927281 6.0306329,19.777518 c 0.2360251,1.833123 1.0423222,3.788366 0.896007,5.561614 -0.2407201,-0.284973 0.080529,1.560945 -0.380886,0.875111 C 6.3883488,26.581441 6.122083,26.11913 6.1126149,27.010257 5.6762266,27.245148 6.0007921,28.301866 5.9066099,29.075645 5.7448234,30.013252 5.3610313,28.553526 5.2836251,29.322155 4.8882104,28.874169 4.5984189,28.192633 4.3117271,27.390027 3.9150569,27.139638 3.527394,26.033021 3.3887791,25.36157 2.3259131,22.183587 2.0526876,18.690249 0.9626244,15.570838 0.47512001,13.476379 0.20311388,11.113206 -0.01064549,9.1355683 -0.60322412,12.997754 -1.4865211,16.623692 -1.9966764,20.579852 c -0.483443,1.783893 -0.4867628,3.898893 -1.300533,5.481122 -0.1132984,-0.355538 -0.5229443,1.472898 -0.686776,0.662691 -0.2859552,0.278989 -0.3550121,-0.250005 -0.704784,0.569594 -0.4930707,0.05008 -0.5975893,1.150494 -0.980723,1.829353 -0.5082659,0.804335 -0.3042695,-0.691116 -0.669928,-0.0106 -0.1938902,-0.565151 -0.2007987,-1.305782 -0.1585332,-2.156979 -0.2706438,-0.383234 -0.2053126,-1.553899 -0.076428,-2.227294 0.2342018,-3.342812 1.3185948,-6.674744 1.5052875,-9.973904 0.3518185,-2.119299 1.0032515,-4.411878 1.5631991,-6.3178338 -2.0254623,3.3414288 -4.2291055,6.3532948 -6.2143897,9.8131068 -1.1293143,1.463117 -1.9417453,3.415798 -3.2990793,4.566236 0.03139,-0.371786 -1.046846,1.160724 -0.88816,0.349503 -0.370968,0.148329 -0.23231,-0.366917 -0.869142,0.256545 -0.474819,-0.142498 -0.992396,0.834219 -1.606192,1.314767 -0.777372,0.548765 -0.01659,-0.75496 -0.614858,-0.266053 0.03717,-0.596373 0.314133,-1.283256 0.678943,-2.053499 -0.103412,-0.457625 0.405036,-1.51425 0.781764,-2.087049 1.495651,-2.998731 3.77251,-5.662099 5.207549,-8.638663 1.1360506,-1.8233427 2.6152352,-3.6921098 3.8619266,-5.2387023 -3.1501578,2.3106064 -6.3382026,4.2536283 -9.4966576,6.6879773 -1.603258,0.919583 -3.101102,2.412713 -4.795371,2.956154 0.171283,-0.33151 -1.411298,0.671653 -0.95423,-0.01706 -0.399502,-0.0049 -0.07424,-0.427828 -0.901154,-0.09559 -0.383996,-0.313414 -1.236099,0.39093 -1.987019,0.599992 -0.928143,0.209352 0.273564,-0.70383 -0.466173,-0.481189 0.262542,-0.536752 0.78135,-1.065335 1.413128,-1.637337 0.07957,-0.462314 0.953609,-1.243936 1.520886,-1.628949 2.529381,-2.198124 5.652153,-3.7873664 8.117068,-5.9882257 1.747362,-1.2497684 3.829079,-2.4102585 5.5727364,-3.362019 -3.7950054,0.9305212 -7.4829614,1.5020396 -11.3331984,2.5446806 -1.833123,0.2360251 -3.788366,1.0423222 -5.561614,0.896007 0.284973,-0.2407201 -1.560945,0.080529 -0.875111,-0.380886 -0.367198,-0.1574051 0.09511,-0.4236709 -0.796014,-0.433139 -0.234891,-0.4363883 -1.291609,-0.1118228 -2.065388,-0.206005 -0.937607,-0.1617865 0.522119,-0.5455786 -0.24651,-0.6229848 0.447986,-0.3954147 1.129522,-0.6852062 1.932128,-0.971898 0.250389,-0.3966702 1.357006,-0.7843331 2.028457,-0.922948 3.177983,-1.062866 6.671321,-1.3360915 9.790732,-2.4261547 2.094459,-0.48750439 4.457632,-0.75951052 6.4352697,-0.97326989 -3.8621857,-0.59257863 -7.4881237,-1.47587561 -11.4442837,-1.98603091 -1.783893,-0.483443 -3.898893,-0.4867628 -5.481122,-1.300533 0.355538,-0.1132984 -1.472898,-0.5229443 -0.662691,-0.686776 -0.278989,-0.2859552 0.250005,-0.3550121 -0.569594,-0.704784 -0.05008,-0.4930707 -1.150494,-0.5975893 -1.829353,-0.980723 -0.804335,-0.5082659 0.691116,-0.3042695 0.0106,-0.669928 0.565151,-0.1938902 1.305782,-0.2007987 2.156979,-0.1585332 0.383234,-0.2706438 1.553899,-0.2053126 2.227294,-0.076428 3.342812,0.2342018 6.674744,1.3185948 9.973904,1.5052875 2.119299,0.3518185 4.411878,1.0032515 6.3178338,1.5631991 -3.3414288,-2.0254623 -6.3532948,-4.2291055 -9.8131068,-6.2143897 -1.463117,-1.1293143 -3.415798,-1.9417453 -4.566236,-3.2990793 0.371786,0.03139 -1.160724,-1.046846 -0.349503,-0.88816 -0.148329,-0.370968 0.366917,-0.23231 -0.256545,-0.869142 0.142498,-0.474819 -0.834219,-0.992396 -1.314767,-1.606192 -0.548765,-0.777372 0.75496,-0.01659 0.266053,-0.614858 0.596373,0.03717 1.283256,0.314133 2.053499,0.678943 0.457625,-0.103412 1.51425,0.405036 2.087049,0.781764 2.998731,1.495651 5.662099,3.77251 8.638663,5.207549 1.8233427,1.1360506 3.6921098,2.6152352 5.2387023,3.8619266 -2.3106064,-3.1501578 -4.2536283,-6.3382026 -6.6879773,-9.4966576 -0.919583,-1.603258 -2.412713,-3.101102 -2.956154,-4.795371 0.33151,0.171283 -0.671653,-1.411298 0.01706,-0.95423 0.0049,-0.399502 0.427828,-0.07424 0.09559,-0.901154 0.313414,-0.383996 -0.39093,-1.236099 -0.599992,-1.987019 -0.209352,-0.928143 0.70383,0.273564 0.481189,-0.466173 0.536752,0.262542 1.065335,0.78135 1.637337,1.413128 0.462314,0.07957 1.243936,0.953609 1.628949,1.520886 2.198124,2.529381 3.7873664,5.652153 5.9882257,8.117068 1.2497684,1.747362 2.4102585,3.829079 3.362019,5.5727364 -0.9305212,-3.7950054 -1.5020396,-7.4829614 -2.5446806,-11.3331984 -0.2360251,-1.833123 -1.0423222,-3.788366 -0.896007,-5.561614 0.2407201,0.284973 -0.080529,-1.560945 0.380886,-0.875111 0.1574051,-0.367198 0.4236709,0.09511 0.433139,-0.796014 0.4363883,-0.234891 0.1118228,-1.291609 0.206005,-2.065388 0.1617865,-0.937607 0.5455786,0.522119 0.6229848,-0.24651 0.3954147,0.447986 0.6852062,1.129522 0.971898,1.932128 0.3966702,0.250389 0.7843331,1.357006 0.922948,2.028457 1.062866,3.177983 1.3360915,6.671321 2.4261547,9.790732 0.50696646,1.943955 0.76327749,5.063644 1.00637634,6.2362078 0.58805771,-3.7879348 1.45267036,-7.3582768 1.95316716,-11.2453998 0.4834429,-1.783893 0.4867627,-3.898893 1.300533,-5.481122 0.1132983,0.355538 0.5229442,-1.472898 0.686776,-0.662691 0.2859551,-0.278989 0.355012,0.250005 0.704784,-0.569594 0.4930707,-0.05008 0.5975893,-1.150494 0.980723,-1.829353 0.5082658,-0.804335 0.3042694,0.691116 0.669928,0.0106 0.1938901,0.565151 0.2007987,1.305782 0.1585332,2.156979 0.2706438,0.383234 0.2053126,1.553899 0.076428,2.227294 -0.2342019,3.342812 -1.3185949,6.674745 -1.5052875,9.973904 -0.3518186,2.119299 -1.0032515,4.411879 -1.5631991,6.3178339 2.0254623,-3.3414289 4.2291054,-6.3532939 6.2143897,-9.8131069 1.1293146,-1.463117 1.9417446,-3.415798 3.2990786,-4.566236 -0.03139,0.371786 1.046846,-1.160724 0.88816,-0.349503 0.370969,-0.148329 0.232311,0.366917 0.869142,-0.256545 0.47482,0.142498 0.992397,-0.834218 1.606192,-1.314767 0.777373,-0.548765 0.01659,0.75496 0.614858,0.266053 -0.03717,0.596373 -0.314132,1.283256 -0.678943,2.053499 0.103413,0.457625 -0.405035,1.51425 -0.781764,2.087049 -1.49565,2.998731 -3.772509,5.662099 -5.207549,8.638663 -1.13605,1.8233428 -2.6152346,3.6921099 -3.8619259,5.2387024 3.1501578,-2.3106064 6.3382029,-4.2536284 9.4966569,-6.6879774 1.603259,-0.919583 3.101102,-2.412713 4.795371,-2.956154 -0.171283,0.33151 1.411298,-0.671653 0.95423,0.01706 0.399503,0.0049 0.07424,0.427828 0.901154,0.09559 0.383997,0.313415 1.236099,-0.390929 1.987019,-0.599992 0.928143,-0.209352 -0.273563,0.70383 0.466173,0.481189 -0.262542,0.536752 -0.781349,1.065335 -1.413128,1.637337 -0.07957,0.462314 -0.953609,1.243936 -1.520886,1.628949 -2.52938,2.198124 -5.652153,3.7873664 -8.117068,5.9882258 -1.747361,1.2497684 -3.829078,2.4102585 -5.5727357,3.362019 3.7950047,-0.9305213 7.4829617,-1.5020397 11.3331977,-2.5446806 1.833123,-0.2360251 3.788366,-1.0423222 5.561614,-0.896007 -0.284972,0.2407201 1.560945,-0.080529 0.875111,0.380886 0.367199,0.1574051 -0.09511,0.4236709 0.796014,0.433139 0.234892,0.4363882 1.29161,0.1118228 2.065388,0.206005 0.937608,0.1617864 -0.522119,0.5455785 0.24651,0.6229848 -0.447985,0.3954147 -1.129521,0.6852062 -1.932128,0.971898 -0.250388,0.3966702 -1.357005,0.7843331 -2.028457,0.922948 -3.177983,1.062866 -6.67132,1.3360914 -9.790732,2.42615467 C 13.443109,-0.4812659 11.239586,-0.19918855 9.0971503,0 Z M 28.772943,0 c -1.015641,0.16078397 -0.869911,0.4408025 -0.226409,0.63213252 0.02959,0.40314178 2.398559,0.50088888 2.807102,0.75713338 0.823107,0.4204392 0.550923,0.681233 -0.927424,0.634642 1.076814,0.2706055 -1.601303,0.4165306 -0.587062,0.625609 -0.460195,0.1868066 -0.381391,0.1667543 -0.414622,0.4130793 -1.786739,0.054969 -3.257117,0.3640573 -5.099613,0.187902 -2.918539,0.022789 -5.832596,-0.3065784 -8.757225,-0.5574211 -0.631395,0.0024 -1.441571,-0.047499 -2.175065,-0.069646 0.107983,0.3840096 -1.466473,-0.098726 -2.041242,0.00126 -0.394422,0.052412 -1.170537,-0.1131731 -0.06969,0.2484084 1.531829,0.5448342 3.413035,1.2222808 4.403432,1.7703616 0.08658,0.3313932 1.682934,0.685384 2.053135,1.0378594 1.438578,0.662234 2.871504,1.2493928 4.263595,1.9927536 -0.288017,0.017414 0.670735,0.5817858 0.998719,0.9240795 -0.55587,0.2232513 -0.302007,0.3975783 0.619627,0.8327595 0.416226,0.5947568 3.840198,1.7889918 2.170591,1.4283778 -0.159302,0.137187 0.408999,0.59265 0.246266,0.788834 1.053504,0.76636 2.076083,1.239579 2.798017,1.98461 -0.251017,0.400538 -0.645962,0.128938 -1.34569,0.0365 0.06715,0.323093 -1.830616,-0.339245 -0.968798,0.258834 -0.831224,-0.334481 0.152324,0.651104 -1.932221,-0.386739 C 22.498575,13.153637 20.293684,11.781143 18.163642,10.962367 16.684473,10.202062 14.580814,9.0167404 13.42404,8.5347947 12.433972,7.9834284 12.024591,7.8386582 11.404647,7.6105662 11.0934,7.7935714 9.9459458,6.8391095 9.2486718,6.6667624 8.6382449,6.3562819 8.9952633,6.6893932 9.7725048,7.378554 c 1.0648562,0.9646144 2.3408722,2.1525367 2.9418462,2.913802 -0.04688,0.339328 1.292498,1.277254 1.499637,1.744583 1.078625,1.160967 2.175627,2.251668 3.176404,3.472667 -0.272753,-0.09416 0.397086,0.794154 0.56908,1.235897 -0.537505,-0.0019 -0.492498,0.200817 0.155791,0.869803 0.359551,0.86808 2.35834,2.747943 1.810882,2.450354 -0.353899,-0.08463 -0.543714,-0.01246 -0.09489,0.809095 -0.183666,0.223091 1.296495,1.947197 1.503939,2.493096 -0.211138,0.485353 -0.102925,0.70413 -1.251548,-0.422165 0.57008,0.952766 -1.426814,-0.837782 -0.857477,0.02723 -0.02136,0.415594 -1.026576,-1.144898 -0.34109,0.244474 -1.361095,-1.367987 -2.737626,-2.193743 -3.98301,-3.718654 -2.07866,-2.049104 -3.909411,-4.3387 -5.7981291,-6.586491 C 8.6557766,12.467528 8.1181837,11.859344 7.6151871,11.325021 7.4199111,11.672828 6.648046,10.218298 6.1708917,9.88253 5.8549334,9.6407024 5.4232103,8.9747945 5.945945,10.008891 c 0.6979282,1.468455 1.5490961,3.277666 1.8618295,4.365485 -0.1730973,0.295486 0.7053753,1.674616 0.7179167,2.185618 0.548979,1.485513 1.1469745,2.913884 1.6057018,4.423882 -0.2159722,-0.191344 0.06298,0.885667 0.05287,1.359608 -0.5509684,-0.23516 -0.4946809,0.06756 -0.150717,1.027009 -0.1419232,0.67959 1.480534,4.04646 0.524818,2.544923 -0.209613,-0.01566 -0.129891,0.708253 -0.383661,0.731973 0.154224,1.240318 0.695556,2.512233 0.521516,3.341966 C 10.353993,30.225283 10.147452,29.579924 9.7725789,29.10346 9.5916524,29.379343 8.7180078,27.56916 8.9044758,28.601486 8.5532279,27.777235 8.5517359,29.169517 7.811627,26.961694 6.608597,25.209332 6.0174257,22.681543 5.0922298,20.595093 4.5975426,19.01216 3.9175699,16.716997 3.4774898,15.532139 3.1281615,14.491018 2.9708275,13.97332 2.6713538,13.469159 2.3333276,13.276554 2.1922236,11.886802 1.8257858,11.253767 1.6137036,10.602591 1.6306011,11.090582 1.692899,12.127489 c 0.070888,1.43509 0.1332207,3.177354 0.019829,4.140527 -0.2730334,0.206841 0.010809,1.817093 -0.1731565,2.294016 -0.061293,1.582519 -0.055421,3.131002 -0.209462,4.701605 -0.1263074,-0.259449 -0.2808259,0.842319 -0.4715438,1.276316 -0.41894217,-0.428118 -0.48288713,-0.126992 -0.5322316,0.891084 -0.41680652,0.554368 -0.15531933,4.321165 -0.4890397,2.552 -0.18768622,-0.09468 -0.39101054,0.604649 -0.6345685,0.529402 -0.3321764,1.20491 -0.3187215,2.587216 -0.7971124,3.287134 -0.4741264,0.331237 -0.2681383,-1.106094 -0.588691,-1.134547 -0.258957,-0.427576 -0.3082114,-1.728147 -0.616379,-0.718666 0.1601856,-1.343682 -0.4939824,0.491029 -0.2964123,-1.793091 -0.4108115,-2.200937 -0.053771,-4.788213 -0.080895,-7.177426 0.1487324,-1.651747 0.3988366,-4.032419 0.4456841,-5.295493 0.075698,-1.095555 0.1284384,-1.634044 0.044687,-2.214455 -0.2385437,-0.307183 0.1628663,-1.645203 0.066607,-2.370312 0.05324,-0.68277 -0.1178811,-0.22543 -0.4571454,0.756368 -0.483704,1.352958 -1.0928397,2.986474 -1.5661946,3.833009 -0.3313932,0.08658 -0.685384,1.682934 -1.0378594,2.053135 -0.662234,1.438578 -1.2493928,2.871504 -1.9927536,4.263595 -0.017414,-0.288017 -0.5817858,0.670735 -0.9240795,0.998719 -0.2232513,-0.55587 -0.3975783,-0.302007 -0.8327595,0.619627 -0.6295664,0.361932 -1.7679114,3.925546 -1.4283774,2.170591 -0.137187,-0.159302 -0.592651,0.408999 -0.788834,0.246266 -0.766361,1.053504 -1.239579,2.076082 -1.98461,2.798017 -0.400538,-0.251017 -0.12894,-0.645963 -0.0365,-1.34569 -0.323094,0.06715 0.339245,-1.830616 -0.258834,-0.968798 0.334481,-0.831224 -0.651105,0.152324 0.386739,-1.932221 0.387698,-2.089786 1.760191,-4.294677 2.578968,-6.424719 0.760305,-1.479169 1.9456262,-3.582828 2.4275719,-4.739602 0.5513663,-0.990068 0.6961365,-1.399449 0.9242285,-2.019393 -0.1830052,-0.311247 0.7714567,-1.4587013 0.9438038,-2.1559753 0.3104805,-0.6104269 -0.022631,-0.2534085 -0.7117916,0.523833 -0.9646143,1.0648563 -2.1525367,2.3408723 -2.9138016,2.9418463 -0.339328,-0.04688 -1.277254,1.292498 -1.744583,1.499637 -1.160967,1.078625 -2.251669,2.175627 -3.472667,3.176404 0.09416,-0.272753 -0.794154,0.397086 -1.235897,0.56908 0.0019,-0.537505 -0.200817,-0.492498 -0.869803,0.155791 -0.907409,0.321611 -2.712665,2.390264 -2.450354,1.810882 0.08463,-0.353899 0.01246,-0.543714 -0.809095,-0.09489 -0.223091,-0.183666 -1.947197,1.296495 -2.493096,1.503939 -0.485354,-0.211138 -0.70413,-0.102925 0.422165,-1.251548 -0.952766,0.57008 0.837782,-1.426814 -0.02723,-0.857477 -0.415594,-0.02136 1.144898,-1.026576 -0.244474,-0.34109 1.367987,-1.361095 2.193742,-2.737626 3.718654,-3.98301 2.049104,-2.07866 4.3387,-3.909411 6.586491,-5.7981292 0.444718,-0.4481653 1.052901,-0.9857582 1.587225,-1.4887548 -0.347807,-0.195276 1.106722,-0.9671411 1.4424906,-1.4442954 0.2418276,-0.3159583 0.9077355,-0.7476814 -0.1263606,-0.2249467 -1.468455,0.6979282 -3.277666,1.5490961 -4.365485,1.8618295 -0.295486,-0.1730973 -1.674616,0.7053753 -2.185618,0.7179167 -1.485514,0.5489791 -2.913884,1.1469745 -4.423882,1.6057019 0.191344,-0.2159722 -0.885667,0.06298 -1.359608,0.05287 0.23516,-0.5509685 -0.06756,-0.494681 -1.027009,-0.150717 -0.730737,-0.1666623 -3.963347,1.4881 -2.544923,0.524818 0.01566,-0.209613 -0.708253,-0.129891 -0.731973,-0.383661 -1.240319,0.154224 -2.512233,0.695556 -3.341966,0.521516 -0.235928,-0.342226 0.409431,-0.548765 0.885895,-0.9236392 -0.275883,-0.1809265 1.5343,-1.0545711 0.501974,-0.8681031 0.824251,-0.3512479 -0.568032,-0.3527399 1.639792,-1.0928488 1.752362,-1.20303 4.28015,-1.7942013 6.366601,-2.7193972 1.582932,-0.4946872 3.878095,-1.1746599 5.062954,-1.61474 1.041121,-0.3493282 1.558818,-0.5066623 2.06298,-0.806136 0.192605,-0.3380262 1.582357,-0.4791302 2.215392,-0.845568 0.651175,-0.2120821 0.163185,-0.1951847 -0.873722,-0.1328868 -1.435091,0.070888 -3.177354,0.1332208 -4.140527,0.019829 -0.206842,-0.2730334 -1.817093,0.010809 -2.294016,-0.1731565 -1.582519,-0.061293 -3.131002,-0.055421 -4.701605,-0.209462 0.259448,-0.1263074 -0.84232,-0.2808259 -1.276316,-0.47154378 0.428118,-0.41894217 0.126992,-0.48288713 -0.891084,-0.5322316 -0.608482,-0.40947374 -4.219413,-0.16487634 -2.552498,-0.48921724 0.09468,-0.18768622 -0.604649,-0.39101054 -0.529402,-0.6345685 -1.20491,-0.33217638 -2.587216,-0.31872148 -3.287134,-0.79711238 -0.331237,-0.4741264 1.106094,-0.2681383 1.134547,-0.588691 0.427576,-0.258957 1.728147,-0.3082114 0.718666,-0.616379 1.343682,0.1601856 -0.491029,-0.4939825 1.793091,-0.2964123 2.200936,-0.4108115 4.788213,-0.053771 7.177426,-0.080895 1.651747,0.1487324 4.032419,0.3988366 5.295493,0.4456841 1.095555,0.075697 1.634044,0.1284384 2.214455,0.044687 0.307183,-0.2385437 1.645203,0.1628662 2.370312,0.066607 0.68277,0.05324 0.22543,-0.1178812 -0.756368,-0.4571454 -1.352958,-0.4837041 -2.986475,-1.0928398 -3.833009,-1.5661946 -0.08658,-0.3313932 -1.682934,-0.685384 -2.053135,-1.0378594 -1.438578,-0.662234 -2.871504,-1.2493928 -4.263595,-1.9927536 0.288017,-0.017414 -0.670735,-0.5817858 -0.998719,-0.9240795 0.55587,-0.2232513 0.302007,-0.3975783 -0.619627,-0.8327595 -0.416226,-0.5947568 -3.840198,-1.7889918 -2.170591,-1.4283778 0.159302,-0.137187 -0.408999,-0.59265 -0.246266,-0.788834 -1.053504,-0.76636 -2.076083,-1.239579 -2.798017,-1.98461 0.251017,-0.400538 0.645962,-0.128938 1.34569,-0.0365 -0.06715,-0.323093 1.830616,0.339245 0.968798,-0.258834 0.831224,0.334481 -0.152324,-0.651104 1.932221,0.386739 2.089786,0.387698 4.294677,1.760192 6.424719,2.578968 1.479169,0.760305 3.582828,1.9456266 4.739602,2.4275723 0.990068,0.5513663 1.399449,0.6961365 2.019393,0.9242285 0.311247,-0.1830052 1.4587012,0.7714567 2.1559752,0.9438038 0.6104269,0.3104805 0.2534085,-0.022631 -0.523833,-0.7117916 -1.0648562,-0.9646144 -2.3408722,-2.1525367 -2.9418462,-2.913802 0.04688,-0.339328 -1.292498,-1.277254 -1.499637,-1.744583 -1.078625,-1.160967 -2.175627,-2.251668 -3.176404,-3.472667 0.272753,0.09416 -0.397086,-0.794154 -0.56908,-1.235897 0.537505,0.0019 0.492498,-0.200817 -0.155791,-0.869803 -0.359551,-0.86808 -2.35834,-2.747943 -1.810882,-2.450354 0.353899,0.08463 0.543714,0.01246 0.09489,-0.809095 0.183666,-0.223091 -1.296495,-1.947197 -1.503939,-2.493096 0.211138,-0.485353 0.102925,-0.70413 1.251548,0.422165 -0.57008,-0.952766 1.426814,0.837782 0.857477,-0.02723 0.02136,-0.415594 1.026576,1.144898 0.34109,-0.244474 1.361095,1.367987 2.737626,2.193743 3.98301,3.718654 2.07866,2.049104 3.909411,4.3387 5.7981291,6.586491 0.4481653,0.444718 0.9857582,1.052902 1.4887548,1.587225 0.195276,-0.347807 0.9671411,1.106723 1.4442954,1.442491 0.3159583,0.2418276 0.7476814,0.9077355 0.2249467,-0.126361 -0.6979282,-1.468455 -1.5490961,-3.277666 -1.8618295,-4.365485 0.1730973,-0.295486 -0.7053753,-1.674616 -0.7179167,-2.185618 -0.548979,-1.485513 -1.1469745,-2.913884 -1.6057018,-4.423882 0.2159722,0.191344 -0.06298,-0.885667 -0.05287,-1.359608 0.5509684,0.23516 0.4946809,-0.06756 0.150717,-1.027009 0.1419232,-0.67959 -1.480534,-4.04646 -0.524818,-2.544923 0.209613,0.01566 0.129891,-0.708253 0.383661,-0.731973 -0.154224,-1.240318 -0.695556,-2.512233 -0.521516,-3.341966 0.342225,-0.235928 0.548766,0.409431 0.9236391,0.885895 0.1809265,-0.275883 1.0545711,1.5343 0.8681031,0.501974 0.3512479,0.824251 0.3527399,-0.568031 1.0928488,1.639792 1.20303,1.752362 1.7942013,4.280151 2.7193972,6.366601 0.4946872,1.582933 1.1746599,3.878096 1.61474,5.062954 0.3493283,1.041121 0.5066623,1.558819 0.806136,2.06298 0.3380262,0.192605 0.4791302,1.582357 0.845568,2.215392 0.2120822,0.651176 0.1951847,0.163185 0.1328868,-0.873722 -0.070888,-1.43509 -0.1332207,-3.177354 -0.019829,-4.140527 0.2730334,-0.206841 -0.010809,-1.817093 0.1731565,-2.294016 0.061293,-1.582519 0.055421,-3.131002 0.209462,-4.701605 0.1263074,0.259449 0.2808259,-0.842319 0.4715438,-1.276316 0.41894217,0.428118 0.48288713,0.126992 0.5322316,-0.891084 0.41680652,-0.554368 0.15531933,-4.321165 0.4890397,-2.552 0.18768622,0.09468 0.39101054,-0.604649 0.6345685,-0.529402 0.3321764,-1.20491 0.3187215,-2.587216 0.7971124,-3.287134 0.4741264,-0.331237 0.2681383,1.106094 0.588691,1.134547 0.258957,0.427576 0.3082114,1.728147 0.616379,0.718666 -0.1601856,1.343682 0.4939824,-0.491029 0.2964123,1.793091 0.4108115,2.200937 0.053771,4.788213 0.080895,7.177426 -0.1487324,1.651747 -0.3988366,4.032419 -0.4456841,5.295493 -0.075698,1.095555 -0.1284384,1.634044 -0.044687,2.214455 0.2385437,0.307183 -0.1628663,1.645203 -0.066607,2.370312 -0.05324,0.68277 0.1178811,0.22543 0.4571454,-0.756368 0.483704,-1.352958 1.0928397,-2.986474 1.5661946,-3.833009 0.3313932,-0.08658 0.685384,-1.682934 1.0378594,-2.053135 0.662234,-1.438578 1.2493928,-2.871504 1.9927536,-4.263595 0.017414,0.288017 0.5817858,-0.670735 0.9240795,-0.998719 0.2232513,0.55587 0.3975783,0.302007 0.8327595,-0.619627 0.6295664,-0.361932 1.7679114,-3.925546 1.4283774,-2.170591 0.137187,0.159302 0.592651,-0.408999 0.788834,-0.246266 0.766361,-1.053504 1.239579,-2.076082 1.98461,-2.798017 0.400538,0.251017 0.12894,0.645963 0.0365,1.34569 0.323094,-0.06715 -0.339245,1.830616 0.258834,0.968798 -0.334481,0.831224 0.651105,-0.152324 -0.386739,1.932221 -0.387698,2.089786 -1.760191,4.294677 -2.578968,6.424719 -0.760305,1.479169 -1.9456262,3.582828 -2.4275719,4.739602 -0.5513663,0.990068 -0.6961365,1.399449 -0.9242285,2.019393 0.1830052,0.311247 -0.7714567,1.4587013 -0.9438038,2.1559753 -0.3104805,0.6104269 0.022631,0.2534085 0.7117916,-0.523833 0.9646143,-1.0648563 2.1525367,-2.3408723 2.9138016,-2.9418463 0.339328,0.04688 1.277254,-1.292498 1.744583,-1.499637 1.160967,-1.078625 2.251669,-2.175627 3.472667,-3.176404 -0.09416,0.272753 0.794154,-0.397086 1.235897,-0.56908 -0.0019,0.537505 0.200817,0.492498 0.869803,-0.155791 0.907409,-0.321611 2.712665,-2.390264 2.450354,-1.810882 -0.08463,0.353899 -0.01246,0.543714 0.809095,0.09489 0.223091,0.183666 1.947197,-1.296495 2.493096,-1.503939 0.485354,0.211138 0.70413,0.102925 -0.422165,1.251548 0.952766,-0.57008 -0.837782,1.426814 0.02723,0.857477 0.415594,0.02136 -1.144898,1.026576 0.244474,0.34109 -1.367987,1.361095 -2.193742,2.737626 -3.718654,3.98301 -2.049104,2.07866 -4.3387,3.909411 -6.586491,5.7981292 -0.444718,0.4481653 -1.052901,0.9857582 -1.587225,1.4887548 0.347807,0.195276 -1.106722,0.9671411 -1.4424906,1.4442954 -0.2418276,0.3159583 -0.9077355,0.7476814 0.1263606,0.2249467 1.468455,-0.6979282 3.277666,-1.5490961 4.365485,-1.8618295 0.295486,0.1730973 1.674616,-0.7053753 2.185618,-0.7179167 1.485514,-0.5489791 2.913884,-1.1469745 4.423882,-1.6057019 -0.191344,0.2159722 0.885667,-0.06298 1.359608,-0.05287 -0.23516,0.5509685 0.06756,0.494681 1.027009,0.150717 0.730737,0.1666623 3.963347,-1.4881 2.544923,-0.524818 -0.01566,0.209613 0.708253,0.129891 0.731973,0.383661 1.240319,-0.154224 2.512233,-0.695556 3.341966,-0.521516 0.235928,0.342226 -0.409431,0.548765 -0.885895,0.9236392 0.275883,0.1809265 -1.5343,1.0545711 -0.501974,0.8681031 -0.824251,0.3512479 0.568032,0.3527399 -1.639792,1.0928488 -1.752362,1.20303 -4.28015,1.7942013 -6.366601,2.7193972 -1.582932,0.4946872 -3.878095,1.1746599 -5.062954,1.61474 -1.041121,0.3493282 -1.558818,0.5066623 -2.06298,0.806136 -0.192605,0.3380262 -1.582357,0.4791302 -2.215392,0.845568 -0.651175,0.2120821 -0.163185,0.1951847 0.873722,0.1328868 1.435091,-0.070888 3.177354,-0.1332208 4.140527,-0.019829 0.206842,0.2730334 1.817093,-0.010809 2.294016,0.1731565 1.582519,0.061293 3.131002,0.055421 4.701605,0.209462 -0.259448,0.1263074 0.84232,0.2808259 1.276316,0.47154378 -0.428118,0.41894217 -0.126992,0.48288713 0.891084,0.5322316 C 26.680781,-0.0854883 27.006841,0.03241338 28.772943,0 Z m 0.692434,0 c -7.97e-4,0.65022977 1.340195,1.0544715 0.736469,1.7263618 -0.435367,0.5020012 -1.450237,0.6096747 -1.51729,1.293006 0.55677,0.3634206 0.292933,0.7955476 -0.37107,0.730547 -5.992234,0.066688 -12.430461,-1.3450551 -18.114495,-1.7150413 2.279948,1.0983609 5.089844,2.3257174 7.679249,3.2578652 3.761199,1.5960422 7.843841,2.7200361 11.210481,5.0819183 0.673273,0.49876 0.02324,0.871073 -0.511658,0.91978 -0.470792,0.451997 -1.644364,-0.438427 -1.385872,0.454178 0.539234,0.600192 0.487601,1.605716 -0.500522,1.523488 -0.563999,0.134697 -1.758992,0.08966 -1.173547,0.97521 -0.6049,0.517779 -1.892055,-0.522072 -2.611427,-0.712454 C 18.034069,11.21301 13.314378,8.176495 8.6198124,5.7377872 10.063161,7.393801 11.929568,9.3328418 13.695886,10.98191 c 3.12355,3.128735 6.696556,5.954147 9.166174,9.648234 0.475414,0.66507 -0.15412,0.988826 -0.73488,0.736708 -0.556003,0.215029 -1.126915,-0.651564 -1.423851,-0.372035 -0.09715,0.537866 0.17111,1.811475 -0.75629,1.52863 -0.615788,0.106697 -1.808688,-0.794269 -1.8319,0.23098 -0.05834,0.7331 -1.046592,-0.362087 -1.29763,-0.588979 C 12.831975,17.933385 9.434479,12.972666 5.7681048,8.5998603 6.4678751,10.68215 7.4502174,13.187868 8.4509852,15.387323 c 1.6884958,4.085902 3.9082078,8.063575 4.7762378,12.421546 0.184737,0.796439 -0.520795,0.854454 -0.960863,0.39934 -0.679769,0.016 -0.890653,-1.494446 -1.346585,-0.673609 -0.04306,0.80574 -0.79052,1.480289 -1.431154,0.72339 C 8.9946609,27.954305 8.1814517,27.077742 7.969197,28.11769 7.1753609,28.055991 7.0004994,26.410609 6.6264364,25.767302 4.8178563,20.763981 3.627066,14.97736 2.0232894,10.201346 c -0.1422644,2.52673 -0.2008669,5.592402 -0.071146,8.34143 -0.035178,4.085677 0.4886845,8.287671 -0.4050184,12.301903 -0.2031601,0.812908 -0.79583814,0.354829 -1.0455533,-0.1207 -0.59776368,-0.262008 -0.22411989,-1.686931 -0.94996568,-1.106836 -0.34811208,0.727891 -1.29681642,1.0652 -1.59905572,0.12078 -0.3401763,-0.469648 -0.7559644,-1.590669 -1.350077,-0.71098 -0.7098191,-0.36075 -0.2416917,-1.947829 -0.341109,-2.68531 0.2437591,-5.314539 1.3581079,-11.116492 1.7040623,-16.142575 -1.0983609,2.279948 -2.3257174,5.089845 -3.2578652,7.679249 -1.5960422,3.761199 -2.7200362,7.843841 -5.0819174,11.210481 -0.498761,0.673273 -0.871074,0.02324 -0.91978,-0.511658 -0.451998,-0.470792 0.438426,-1.644364 -0.454178,-1.385872 -0.600193,0.539235 -1.605717,0.487601 -1.523488,-0.500522 -0.134698,-0.563999 -0.08966,-1.758991 -0.97521,-1.173547 -0.51778,-0.6049 0.522071,-1.892054 0.712454,-2.611427 2.321848,-4.871626 5.3583633,-9.591316 7.7970709,-14.2858821 -1.6560139,1.4433481 -3.5950546,3.3097551 -5.2441229,5.0760741 -3.128735,3.12355 -5.954147,6.696556 -9.648234,9.166174 -0.665069,0.475413 -0.988826,-0.15412 -0.736708,-0.73488 -0.215029,-0.556003 0.651564,-1.126916 0.372035,-1.423851 -0.537866,-0.09715 -1.811475,0.17111 -1.52863,-0.75629 -0.106696,-0.615789 0.794269,-1.808688 -0.23098,-1.8319 -0.7331,-0.05834 0.362087,-1.046593 0.588979,-1.29763 4.232063,-3.985534 9.192782,-7.3830305 13.5655878,-11.0494047 -2.0822898,0.6997703 -4.5880078,1.6821126 -6.7874628,2.6828804 -4.085902,1.6884953 -8.063575,3.9082083 -12.421546,4.7762373 -0.796439,0.184737 -0.854454,-0.520795 -0.39934,-0.960863 -0.016,-0.679769 1.494446,-0.890652 0.673609,-1.346585 -0.80574,-0.04306 -1.480289,-0.79052 -0.72339,-1.4311535 0.303685,-0.4939601 1.180248,-1.3071693 0.1403,-1.519424 0.0617,-0.7938361 1.707081,-0.9686976 2.350388,-1.3427606 5.003321,-1.8085802 10.789942,-2.9993705 15.565956,-4.603147 -2.52673,-0.1422644 -5.592402,-0.2008669 -8.34143,-0.071146 -4.085677,-0.035178 -8.287671,0.4886844 -12.301903,-0.4050184 -0.812908,-0.2031602 -0.354829,-0.79583818 0.1207,-1.04555334 0.262003,-0.59745179 1.68665,-0.22469177 1.106603,-0.95033322 -0.727891,-0.34811208 -1.065199,-1.29681634 -0.12078,-1.59905574 0.469648,-0.3401763 1.590669,-0.7559644 0.71098,-1.350077 0.360751,-0.7098191 1.94783,-0.2416916 2.68531,-0.341109 5.314539,0.2437592 11.116493,1.3581079 16.142575,1.7040623 -2.279948,-1.0983609 -5.089844,-2.3257174 -7.679249,-3.2578652 -3.761199,-1.5960422 -7.843841,-2.7200361 -11.210481,-5.0819183 -0.673273,-0.49876 -0.02324,-0.871073 0.511658,-0.91978 0.470792,-0.451997 1.644364,0.438427 1.385872,-0.454178 -0.539234,-0.600192 -0.487601,-1.605716 0.500522,-1.523488 0.563999,-0.134697 1.758992,-0.08966 1.173547,-0.97521 0.6049,-0.517779 1.892055,0.522072 2.611427,0.712454 4.871626,2.321849 9.591317,5.358364 14.2858826,7.7970718 -1.4433486,-1.6560138 -3.3097556,-3.5950546 -5.0760736,-5.2441228 -3.12355,-3.128735 -6.696556,-5.954147 -9.166174,-9.648234 -0.475414,-0.66507 0.15412,-0.988826 0.73488,-0.736708 0.556003,-0.215029 1.126915,0.651564 1.423851,0.372035 0.09715,-0.537866 -0.17111,-1.811475 0.75629,-1.52863 0.615788,-0.106697 1.808688,0.794269 1.8319,-0.23098 0.05834,-0.7331 1.046592,0.362087 1.29763,0.588979 3.985534,4.232063 7.38303,9.192782 11.0494042,13.5655877 -0.6997703,-2.0822897 -1.6821126,-4.5880077 -2.6828804,-6.7874627 -1.6884958,-4.085902 -3.9082078,-8.063575 -4.7762378,-12.421546 -0.184737,-0.796439 0.520795,-0.854454 0.960863,-0.39934 0.679769,-0.016 0.890653,1.494446 1.346585,0.673609 0.04306,-0.80574 0.79052,-1.480289 1.431154,-0.72339 0.4939601,0.303685 1.3071693,1.180248 1.519424,0.1403 0.7938361,0.0617 0.9686976,1.707081 1.3427606,2.350388 1.8085801,5.003321 2.9993704,10.789942 4.603147,15.565956 0.1422644,-2.52673 0.2008669,-5.592402 0.071146,-8.34143 0.035178,-4.085677 -0.4886845,-8.287671 0.4050184,-12.301903 0.2031601,-0.812908 0.79583814,-0.354829 1.0455533,0.1207 0.59776368,0.262008 0.22411989,1.686931 0.94996568,1.106836 0.34811208,-0.727891 1.29681642,-1.0652 1.59905572,-0.12078 0.3401763,0.469648 0.7559644,1.590669 1.350077,0.71098 0.7098191,0.36075 0.2416917,1.947829 0.341109,2.68531 -0.2437591,5.314539 -1.3581079,11.116492 -1.7040623,16.142575 1.0983609,-2.279948 2.3257174,-5.089845 3.2578652,-7.679249 1.5960422,-3.761199 2.7200362,-7.843841 5.0819174,-11.210481 0.498761,-0.673273 0.871074,-0.02324 0.91978,0.511658 0.451998,0.470792 -0.438426,1.644364 0.454178,1.385872 0.600193,-0.539235 1.605717,-0.487601 1.523488,0.500522 0.134698,0.563999 0.08966,1.758991 0.97521,1.173547 0.51778,0.6049 -0.522071,1.892054 -0.712454,2.611427 -2.321848,4.871626 -5.3583633,9.591316 -7.7970709,14.2858821 1.6560139,-1.4433481 3.5950546,-3.3097551 5.2441229,-5.0760741 3.128735,-3.12355 5.954147,-6.696556 9.648234,-9.166174 0.665069,-0.475413 0.988826,0.15412 0.736708,0.73488 0.215029,0.556003 -0.651564,1.126916 -0.372035,1.423851 0.537866,0.09715 1.811475,-0.17111 1.52863,0.75629 0.106696,0.615789 -0.794269,1.808688 0.23098,1.8319 0.7331,0.05834 -0.362087,1.046593 -0.588979,1.29763 -4.232063,3.985534 -9.192782,7.3830305 -13.5655878,11.0494047 2.0822898,-0.6997703 4.5880078,-1.6821126 6.7874628,-2.6828804 4.085902,-1.6884953 8.063575,-3.9082083 12.421546,-4.7762373 0.796439,-0.184737 0.854454,0.520795 0.39934,0.960863 0.016,0.679769 -1.494446,0.890652 -0.673609,1.346585 0.80574,0.04306 1.480289,0.79052 0.72339,1.4311535 -0.303685,0.4939601 -1.180248,1.3071693 -0.1403,1.519424 -0.0617,0.7938361 -1.707081,0.9686976 -2.350388,1.3427606 -5.003321,1.8085802 -10.789942,2.9993705 -15.565956,4.603147 2.52673,0.1422644 5.592402,0.2008669 8.34143,0.071146 4.085677,0.035178 8.287671,-0.4886844 12.301903,0.4050184 0.812908,0.2031602 0.354829,0.79583818 -0.1207,1.04555334 C 30.375447,-0.21576026 29.975158,0.12936351 29.465377,0 Z M 15.569359,0 c 0.221237,0.48225903 1.824611,0.21787575 1.731469,0.82720259 -0.519511,0.19427071 -0.315129,0.44138671 0.231564,0.52384761 4.390772,1.4445424 9.131556,1.7108029 13.489641,3.273723 1.008619,0.7729633 2.015365,1.5111246 3.298216,1.849242 0.328096,0.3653917 1.529759,0.6493386 1.34044,1.07405 C 34.07641,8.0970018 32.435158,8.437024 30.734369,8.1713002 27.642179,7.9814568 24.549097,7.7263944 21.490147,7.2158653 20.367503,7.0109786 19.377649,7.6218746 18.271106,7.0250063 16.982076,6.7674729 15.382528,6.3942426 14.359534,6.0658577 c 0.312196,0.4445417 1.570294,0.8369732 1.307802,1.319095 -0.554292,-0.019296 -0.460105,0.2871783 0.01343,0.572577 3.503732,3.0148703 7.781761,5.0750703 11.209996,8.1867903 0.63606,1.100109 1.283729,2.167355 2.339521,2.970663 0.163268,0.463145 1.164863,1.185319 0.82731,1.505265 -1.673743,-0.09919 -3.320193,-0.413051 -4.789828,-1.30944 -2.784165,-1.358705 -5.544193,-2.778021 -8.17492,-4.420296 -0.958787,-0.618879 -2.106992,-0.43336 -2.900927,-1.408216 -1.106705,-0.770194 -2.374665,-1.587458 -3.245437,-2.433301 0.06078,0.560294 1.141178,1.406487 0.702075,1.769562 -0.504775,-0.229842 -0.534983,0.08928 -0.20671,0.53421 2.083302,4.126198 5.247267,7.666717 7.223764,11.853501 0.166707,1.259767 0.356602,2.493602 1.024638,3.639803 -0.02636,0.490391 0.622536,1.540813 0.188371,1.707337 -1.5084,-0.73212 -2.909389,-1.652205 -3.924136,-3.042739 C 13.902214,25.189924 11.89541,22.822447 10.093422,20.29843 9.444456,19.359727 8.3126139,19.091834 7.9521957,17.887316 7.2275162,16.753107 6.369612,15.523052 5.884938,14.397112 5.7267787,14.938031 6.400983,16.133175 5.856511,16.300642 5.4782281,15.895167 5.3280962,16.178413 5.4611248,16.715084 5.8068313,21.324431 7.3750442,25.806239 7.5988707,30.430687 7.2707489,31.658333 6.9740222,32.870926 7.1525773,34.185518 6.9405563,34.628445 7.138074,35.847394 6.6732503,35.834903 5.5598129,34.581292 4.6176212,33.195079 4.2122333,31.522073 3.2042891,28.592618 2.2562587,25.637377 1.5573193,22.615906 1.3169848,21.5003 0.37380388,20.819723 0.5017803,19.568948 0.24641602,18.279461 -0.02087735,16.658915 -0.10898223,15.588021 c -0.29128088,0.458482 -0.17235125,1.771025 -0.7182159,1.713049 -0.19427067,-0.519511 -0.44138667,-0.315129 -0.52384757,0.231564 -1.4445425,4.390772 -1.7108029,9.131556 -3.273723,13.489641 -0.7729633,1.008619 -1.5111247,2.015365 -1.849242,3.298216 -0.3653918,0.328096 -0.6493387,1.529759 -1.07405,1.34044 -0.5489367,-1.584279 -0.8889589,-3.225531 -0.623235,-4.92632 0.1898433,-3.09219 0.4449058,-6.185272 0.9554349,-9.244222 0.2048867,-1.122644 -0.4060094,-2.112498 0.190859,-3.219041 0.2575333,-1.28903 0.6307636,-2.888578 0.9591486,-3.911572 -0.4445417,0.312196 -0.8369732,1.570294 -1.319095,1.307802 0.019296,-0.554292 -0.2871784,-0.460105 -0.572577,0.01343 -3.0148698,3.503732 -5.0750708,7.781761 -8.1867908,11.209996 -1.100109,0.63606 -2.167355,1.283729 -2.970663,2.339521 -0.463144,0.163268 -1.185318,1.164863 -1.505265,0.82731 0.09919,-1.673743 0.413052,-3.320193 1.30944,-4.789828 1.358705,-2.784165 2.778021,-5.544193 4.420296,-8.17492 0.618879,-0.958787 0.43336,-2.106992 1.408216,-2.900927 0.764645,-1.112165 1.602023,-2.360588 2.433301,-3.245437 -0.560294,0.06078 -1.406486,1.141179 -1.769562,0.702075 0.229843,-0.504775 -0.08928,-0.534983 -0.53421,-0.20671 -4.126197,2.083302 -7.666717,5.247267 -11.853501,7.223764 -1.259767,0.166707 -2.493601,0.356602 -3.639803,1.024638 -0.490391,-0.02636 -1.540812,0.622536 -1.707337,0.188371 0.73212,-1.5084 1.652205,-2.909389 3.042739,-3.924136 2.320746,-2.052269 4.688222,-4.059073 7.212239,-5.861061 0.938703,-0.6489659 1.206597,-1.780808 2.411114,-2.1412262 1.12956,-0.7328426 2.372758,-1.5632193 3.490204,-2.0672577 -0.540918,-0.1581593 -1.736063,0.516045 -1.90353,-0.028427 0.405476,-0.3782829 0.12223,-0.5284148 -0.414442,-0.3953862 -4.609346,0.3457065 -9.091154,1.9139194 -13.715603,2.1377459 -1.227645,-0.3281218 -2.440239,-0.6248485 -3.754831,-0.4462934 -0.442926,-0.212021 -1.661875,-0.014503 -1.649385,-0.479327 1.253611,-1.1134374 2.639824,-2.0556292 4.31283,-2.461017 2.929456,-1.0079442 5.884697,-1.9559746 8.906167,-2.654914 1.115607,-0.2403345 1.796183,-1.18351543 3.046958,-1.05553901 1.289565,-0.25537618 2.910197,-0.52263074 3.981165,-0.61100908 -0.458482,-0.29128088 -1.771025,-0.17235125 -1.713049,-0.7182159 0.519511,-0.19427071 0.315129,-0.44138671 -0.231564,-0.52384761 -4.390772,-1.4445424 -9.131556,-1.7108029 -13.489641,-3.273723 -1.008619,-0.7729633 -2.015365,-1.5111246 -3.298216,-1.849242 -0.328096,-0.3653917 -1.529759,-0.6493386 -1.34044,-1.07405 1.584279,-0.5489366 3.225531,-0.8889588 4.92632,-0.623235 3.09219,0.1898434 6.185272,0.4449058 9.244222,0.9554349 1.122644,0.2048867 2.112498,-0.4060093 3.219041,0.190859 1.28903,0.2575334 2.888578,0.6307637 3.911572,0.9591486 -0.312196,-0.4445417 -1.570294,-0.8369732 -1.307802,-1.319095 0.554292,0.019296 0.460105,-0.2871783 -0.01343,-0.572577 -3.503732,-3.0148703 -7.781761,-5.0750703 -11.209996,-8.1867903 -0.63606,-1.100109 -1.283729,-2.167355 -2.339521,-2.970663 -0.163268,-0.463145 -1.164863,-1.185319 -0.82731,-1.505265 1.673743,0.09919 3.320193,0.413051 4.789828,1.30944 2.784165,1.358705 5.544193,2.778021 8.17492,4.420296 0.958787,0.618879 2.106992,0.43336 2.900927,1.408216 1.106705,0.770194 2.374665,1.587458 3.245437,2.433301 -0.06078,-0.560294 -1.141178,-1.406487 -0.702075,-1.769562 0.504775,0.229842 0.534983,-0.08928 0.20671,-0.53421 -2.083302,-4.126198 -5.247267,-7.666717 -7.223764,-11.853501 -0.166707,-1.259767 -0.356602,-2.493602 -1.024638,-3.639803 0.02636,-0.490391 -0.622536,-1.540813 -0.188371,-1.707337 1.5084,0.73212 2.909389,1.652205 3.924136,3.042739 2.052269,2.320745 4.059073,4.688222 5.861061,7.212239 0.648966,0.938703 1.7808081,1.206596 2.1412263,2.411114 0.7246795,1.134209 1.5825837,2.364264 2.0672577,3.490204 0.1581593,-0.540919 -0.516045,-1.736063 0.028427,-1.90353 0.3782829,0.405475 0.5284148,0.122229 0.3953862,-0.414442 -0.3457065,-4.609347 -1.9139194,-9.091155 -2.1377459,-13.715603 0.3281218,-1.227646 0.6248485,-2.440239 0.4462934,-3.754831 0.212021,-0.442927 0.014503,-1.661876 0.479327,-1.649385 1.1134374,1.253611 2.0556291,2.639824 2.461017,4.31283 1.0079442,2.929455 1.9559746,5.884696 2.654914,8.906167 0.2403345,1.115606 1.18351542,1.796183 1.055539,3.046958 0.25536428,1.289487 0.52265765,2.910033 0.61076253,3.980927 0.29128088,-0.458482 0.17235125,-1.771025 0.7182159,-1.713049 0.19427067,0.519511 0.44138667,0.315129 0.52384757,-0.231564 1.4445425,-4.390772 1.7108029,-9.131556 3.273723,-13.489641 0.7729633,-1.008619 1.5111247,-2.015365 1.849242,-3.298216 0.3653918,-0.328096 0.6493387,-1.529759 1.07405,-1.34044 0.5489367,1.584279 0.8889589,3.225531 0.623235,4.92632 -0.1898433,3.09219 -0.4449058,6.185272 -0.9554349,9.244222 -0.2048867,1.122644 0.4060094,2.112498 -0.190859,3.219041 -0.2575333,1.28903 -0.6307636,2.888578 -0.9591486,3.911572 0.4445417,-0.312196 0.8369732,-1.570294 1.319095,-1.307802 -0.019296,0.554292 0.2871784,0.460105 0.572577,-0.01343 3.0148698,-3.503732 5.0750708,-7.781761 8.1867908,-11.209996 1.100109,-0.63606 2.167355,-1.283729 2.970663,-2.339521 0.463144,-0.163268 1.185318,-1.164863 1.505265,-0.82731 -0.09919,1.673743 -0.413052,3.320193 -1.30944,4.789828 -1.358705,2.784165 -2.778021,5.544193 -4.420296,8.17492 -0.618879,0.958787 -0.43336,2.106992 -1.408216,2.900927 -0.764645,1.112165 -1.602023,2.360588 -2.433301,3.245437 0.560294,-0.06078 1.406486,-1.141179 1.769562,-0.702075 -0.229843,0.504775 0.08928,0.534983 0.53421,0.20671 4.126197,-2.083302 7.666717,-5.247267 11.853501,-7.223764 1.259767,-0.166707 2.493601,-0.356602 3.639803,-1.024638 0.490391,0.02636 1.540812,-0.622536 1.707337,-0.188371 -0.73212,1.5084 -1.652205,2.909389 -3.042739,3.924136 -2.320746,2.052269 -4.688222,4.059073 -7.212239,5.861061 -0.938703,0.6489659 -1.206597,1.780808 -2.411114,2.1412262 -1.12956,0.7328426 -2.372758,1.5632193 -3.490204,2.0672577 0.540918,0.1581593 1.736063,-0.516045 1.90353,0.028427 -0.405476,0.3782829 -0.12223,0.5284148 0.414442,0.3953862 4.609346,-0.3457065 9.091154,-1.9139194 13.715603,-2.1377459 1.227645,0.3281218 2.440239,0.6248485 3.754831,0.4462934 0.442926,0.212021 1.661875,0.014503 1.649385,0.479327 -1.253611,1.1134374 -2.639824,2.0556292 -4.31283,2.461017 -2.929456,1.0079442 -5.884697,1.9559746 -8.906167,2.654914 -1.115607,0.2403345 -1.796183,1.18351543 -3.046958,1.05553901 C 18.23283,-0.32046692 16.937808,0.13046936 15.569359,0 Z m 3.569693,0 c 0.182716,0.35320348 0.561446,0.74015032 0.140461,1.056965 0.265563,0.6112631 1.504141,0.7818838 2.140836,1.197775 5.75013,2.2065804 12.167042,2.5405673 17.68813,5.3587528 0.628166,0.9803576 -1.186118,0.8764019 -1.816083,1.055171 -4.977238,1.2966935 -10.158385,-0.4247573 -15.086363,-1.2986772 -1.37581,-0.294048 -3.507957,-0.8636075 -4.554798,0.086387 0.224758,0.3590106 0.129659,0.783976 -0.243763,0.898074 0.01146,0.6663704 1.090404,1.2979837 1.51949,1.9258664 4.467998,4.239094 10.268638,7.003296 14.290982,11.719787 0.205323,1.146111 -1.431172,0.355817 -2.081556,0.27992 -5.09461,-0.706691 -9.222582,-4.279864 -13.441009,-6.973109 -1.158525,-0.798227 -2.910519,-2.140289 -4.241151,-1.663177 0.07024,0.417621 -0.180231,0.773982 -0.568887,0.736443 -0.244406,0.619987 0.510677,1.616451 0.66682,2.36074 2.505688,5.626235 6.80695,10.399854 8.718201,16.296608 -0.249011,1.13747 -1.458423,-0.218901 -2.030266,-0.53796 -4.436331,-2.60257 -6.882719,-7.483395 -9.749359,-11.585968 -0.7649449,-1.180766 -1.8698303,-3.091178 -3.2818478,-3.159681 -0.094984,0.412811 -0.4625799,0.645867 -0.8073967,0.462648 -0.4630901,0.479169 -0.1467719,1.688854 -0.2873333,2.43621 0.1618446,6.15685 2.3089302,12.213118 1.8181055,18.392413 -0.6653325,0.955451 -1.26361,-0.760484 -1.669833,-1.274073 C 3.159711,33.668979 2.7673907,28.223448 1.6889337,23.336155 1.434114,21.952539 1.1443363,19.764707 -0.13395174,19.161042 c -0.24571429,0.345048 -0.6746692,0.419739 -0.92299446,0.118311 -0.6112632,0.265562 -0.7818839,1.504141 -1.197775,2.140836 -2.2065805,5.75013 -2.5405674,12.167041 -5.3587528,17.68813 -0.9803576,0.628165 -0.876402,-1.186119 -1.055171,-1.816083 -1.2966936,-4.977238 0.4247573,-10.158386 1.2986772,-15.086363 0.294048,-1.375811 0.8636074,-3.507957 -0.086387,-4.554798 -0.3590106,0.224758 -0.7839761,0.129658 -0.898074,-0.243763 -0.6663705,0.01146 -1.2979838,1.090403 -1.9258662,1.51949 -4.239094,4.467997 -7.003297,10.268638 -11.719787,14.290982 -1.146111,0.205322 -0.355818,-1.431172 -0.27992,-2.081556 0.706691,-5.09461 4.279864,-9.222582 6.973109,-13.441009 0.798227,-1.158525 2.140288,-2.910519 1.663177,-4.241151 -0.417622,0.07024 -0.773982,-0.180232 -0.736443,-0.568887 -0.619987,-0.244406 -1.616452,0.510677 -2.36074,0.66682 -5.626235,2.505688 -10.399854,6.806949 -16.296608,8.718201 -1.13747,-0.249011 0.218901,-1.458423 0.53796,-2.030266 2.60257,-4.436331 7.483394,-6.882719 11.585968,-9.749359 1.180766,-0.7649453 3.091178,-1.8698307 3.159681,-3.2818482 -0.412811,-0.094984 -0.645867,-0.46258 -0.462648,-0.8073967 -0.479169,-0.4630901 -1.688855,-0.146772 -2.43621,-0.2873333 -6.15685,0.1618446 -12.213118,2.3089302 -18.392413,1.8181055 -0.955451,-0.6653325 0.760484,-1.26361 1.274073,-1.669833 4.102136,-3.1027207 9.547667,-3.4950411 14.43496,-4.573498 1.383616,-0.2548197 3.571448,-0.5445974 4.175113,-1.82288547 -0.345048,-0.24571429 -0.419739,-0.6746692 -0.118311,-0.92299453 -0.265562,-0.6112631 -1.504141,-0.7818838 -2.140836,-1.197775 -5.75013,-2.2065804 -12.167042,-2.5405673 -17.68813,-5.3587528 -0.628166,-0.9803576 1.186118,-0.8764019 1.816083,-1.055171 4.977238,-1.2966935 10.158386,0.4247573 15.086363,1.2986772 1.37581,0.294048 3.507957,0.8636075 4.554798,-0.086387 -0.224758,-0.3590106 -0.129658,-0.783976 0.243763,-0.898074 -0.01146,-0.6663704 -1.090404,-1.2979837 -1.51949,-1.9258657 -4.467998,-4.239094 -10.268638,-7.003297 -14.290982,-11.719787 -0.205322,-1.146112 1.431172,-0.355818 2.081556,-0.27992 5.09461,0.706691 9.222582,4.279864 13.441009,6.973109 1.158525,0.798226 2.910519,2.140288 4.241151,1.663177 -0.07024,-0.417622 0.180232,-0.773983 0.568887,-0.736443 0.244406,-0.619987 -0.510677,-1.616452 -0.66682,-2.36074 -2.505688,-5.626236 -6.80695,-10.399854 -8.718201,-16.296608 0.249011,-1.137471 1.458423,0.2189 2.030266,0.53796 4.436331,2.602569 6.882719,7.483394 9.749359,11.585968 0.7649451,1.180766 1.8698304,3.091177 3.281848,3.159681 0.094984,-0.412811 0.4625799,-0.645867 0.8073967,-0.462648 0.46309,-0.479169 0.1467719,-1.688855 0.2873333,-2.43621 -0.1618447,-6.156851 -2.3089302,-12.213118 -1.8181055,-18.392413 0.6653325,-0.955451 1.26361,0.760483 1.669833,1.274073 3.1027206,4.102135 3.495041,9.547666 4.573498,14.43496 0.2548196,1.383615 0.5445973,3.571448 1.8228854,4.175113 0.24571429,-0.345048 0.6746692,-0.41974 0.9229945,-0.118311 0.6112632,-0.265563 0.7818839,-1.504141 1.197775,-2.140836 2.2065805,-5.75013 2.5405673,-12.167042 5.3587528,-17.68813 0.9803576,-0.628166 0.876402,1.186118 1.055171,1.816083 1.2966935,4.977237 -0.4247573,10.158385 -1.2986772,15.086363 -0.294048,1.37581 -0.8636075,3.507957 0.086387,4.554798 0.3590106,-0.224758 0.7839761,-0.129659 0.898074,0.243763 0.6663704,-0.01146 1.2979838,-1.090404 1.925866,-1.51949 4.239094,-4.467998 7.003297,-10.268638 11.719787,-14.290982 1.146111,-0.205323 0.355818,1.431171 0.27992,2.081556 -0.706691,5.094609 -4.279864,9.222581 -6.973109,13.441009 -0.798226,1.158525 -2.140288,2.910518 -1.663177,4.241151 0.417622,-0.07024 0.773982,0.180231 0.736443,0.568887 0.619987,0.244406 1.616452,-0.510678 2.36074,-0.66682 5.626236,-2.505688 10.399854,-6.80695 16.296608,-8.718201 1.13747,0.24901 -0.2189,1.458422 -0.53796,2.030266 -2.602569,4.43633 -7.483394,6.882718 -11.585968,9.749359 -1.180766,0.7649446 -3.091178,1.86983 -3.159681,3.2818475 0.412811,0.094984 0.645867,0.46258 0.462648,0.8073967 0.479169,0.4630901 1.688855,0.146772 2.43621,0.2873333 6.15685,-0.1618446 12.213118,-2.3089302 18.392413,-1.8181055 0.955451,0.6653325 -0.760484,1.26361 -1.274073,1.669833 -4.102136,3.1027207 -9.547667,3.4950411 -14.43496,4.573498 C 21.869626,-1.4372573 20.07066,-1.154611 19.139052,0 Z m 1.513912,0 c 1.142888,1.990072 3.951857,2.2169438 6.036465,3.0296735 4.471559,1.9529163 9.448382,2.8095227 13.814442,4.9534736 0.151043,0.5471677 -0.954039,0.6333516 -1.389214,0.62993 -0.613096,0.2547439 -1.721052,0.031196 -2.053765,0.549802 -1.487505,0.3830867 -3.574014,0.00865 -5.279453,-0.1155554 -3.660872,-0.3879903 -7.266335,-1.1883619 -10.91469,-1.632446 -0.647219,0.1724384 -1.454646,0.064912 -1.99996,0.3743108 0.498697,0.5250441 0.43593,1.4645016 1.058699,2.0321977 1.637889,1.7537298 3.700768,3.1256698 5.334104,4.9065498 3.021534,2.744458 6.519348,5.12513 9.136025,8.225527 -0.370005,0.439229 -1.216574,0.14667 -1.771336,-0.122261 -0.572135,0.186056 -1.613705,-0.692767 -1.873529,-0.11514 -3.57919,-1.107215 -6.732354,-3.39176 -10.007636,-5.232627 -1.934268,-1.222895 -3.787986,-2.775957 -6.091422,-3.102431 -0.219361,0.05223 -0.06535,0.690135 -0.131343,1.083105 -0.11774,2.116913 1.692799,3.99937 2.401288,5.995711 1.748582,4.401051 4.640526,8.412114 6.071946,12.909039 -0.509925,0.2642 -1.180082,-0.330068 -1.589705,-0.790817 -0.599863,-0.04695 -1.225759,-1.257589 -1.686932,-0.823322 -2.88299,-2.392731 -4.921885,-5.709997 -7.243386,-8.66413 -1.318965,-1.870119 -2.437394,-4.014093 -4.440463,-5.197351 -0.2225713,-0.03581 -0.3244275,0.612606 -0.535792,0.950429 -0.9190411,1.910803 0.033447,4.342774 -0.076027,6.458309 -0.068729,4.73519 1.0681434,9.547644 0.6696492,14.250015 -0.5722123,0.04891 -0.96395,-0.756575 -1.166072,-1.339012 C 6.3885992,38.940088 6.2736701,37.582084 5.6813805,37.806781 3.9335177,34.492896 3.3192712,30.647897 2.3049865,27.030226 1.8020921,24.79771 1.5892347,22.388942 0.191471,20.529191 c -0.19193157504,-0.118307 -0.53417522,0.44188 -0.85867792,0.672965 -1.58027708,1.413573 -1.63100858,4.024981 -2.54170028,5.937563 -1.8755951,4.348431 -2.6669014,9.229634 -4.8345896,13.42155 -0.547384,-0.17369 -0.6010755,-1.067818 -0.564903,-1.683256 -0.391013,-0.457342 0.022495,-1.755932 -0.61071,-1.775003 -0.3466739,-3.730499 0.5572561,-7.517876 1.0045974,-11.248312 0.3897361,-2.255023 1.1148697,-4.561883 0.5351948,-6.814961 -0.1321158,-0.182783 -0.6625686,0.203813 -1.0508473,0.293122 -2.0008831,0.701084 -3.0471871,3.094425 -4.6204381,4.512906 -3.396889,3.299683 -5.995917,7.506469 -9.602773,10.5498 -0.439229,-0.370005 -0.146669,-1.216574 0.122261,-1.771336 -0.186056,-0.572134 0.692767,-1.613705 0.11514,-1.873529 1.107215,-3.579189 3.39176,-6.732353 5.232627,-10.007636 1.222895,-1.934268 2.775957,-3.787986 3.102431,-6.091422 -0.05223,-0.219361 -0.690135,-0.06535 -1.083105,-0.131343 -2.116912,-0.11774 -3.99937,1.692799 -5.995711,2.401288 -4.401051,1.748582 -8.412114,4.640526 -12.909039,6.071946 -0.2642,-0.509924 0.330068,-1.180082 0.790817,-1.589705 0.04695,-0.599862 1.257589,-1.225758 0.823322,-1.686932 2.392731,-2.88299 5.709997,-4.921885 8.66413,-7.243386 1.870119,-1.318965 4.014094,-2.437394 5.197351,-4.4404628 0.03581,-0.2225712 -0.612605,-0.3244275 -0.950429,-0.535792 -1.910803,-0.9190411 -4.342773,0.033447 -6.458309,-0.076027 -4.73519,-0.068729 -9.547644,1.0681434 -14.250015,0.6696492 -0.04891,-0.5722123 0.756575,-0.9639499 1.339012,-1.166072 0.272892,-0.5362582 1.630897,-0.6511873 1.406199,-1.243477 3.313885,-1.7478627 7.158885,-2.3621092 10.776555,-3.376394 2.232517,-0.5028944 4.641285,-0.7157518 6.501035,-2.11351546 0.118236,-0.19191770243 -0.442008,-0.53415591 -0.673104,-0.85871348 -1.413573,-1.58027706 -4.024981,-1.63100866 -5.937563,-2.54170026 -4.348431,-1.8755951 -9.229634,-2.6669015 -13.42155,-4.8345896 0.173691,-0.5473841 1.067819,-0.6010755 1.683256,-0.564903 0.457343,-0.391013 1.755933,0.022495 1.775003,-0.61071 3.730499,-0.3466739 7.517876,0.557256 11.248312,1.0045974 2.255023,0.389736 4.561883,1.1148697 6.814961,0.5351948 0.182783,-0.1321158 -0.203813,-0.6625687 -0.293122,-1.0508473 -0.701084,-2.0008828 -3.094425,-3.0471868 -4.512906,-4.6204378 -3.299683,-3.396889 -7.506468,-5.995917 -10.5498,-9.602773 0.370005,-0.439229 1.216574,-0.14667 1.771336,0.122261 0.572135,-0.186056 1.613705,0.692767 1.873529,0.11514 3.57919,1.107215 6.732354,3.39176 10.007636,5.232627 1.934268,1.222895 3.787986,2.775957 6.091422,3.102431 0.219361,-0.05223 0.06535,-0.690135 0.131343,-1.083105 0.11774,-2.116913 -1.692799,-3.99937 -2.401288,-5.995711 -1.748582,-4.401051 -4.640526,-8.412114 -6.071946,-12.909039 0.509925,-0.2642 1.180082,0.330068 1.589705,0.790817 0.599863,0.04695 1.225759,1.257589 1.686932,0.823322 2.88299,2.392731 4.921885,5.709997 7.243386,8.66413 1.318965,1.870119 2.437394,4.014093 4.440463,5.197351 0.2225713,0.03581 0.3244275,-0.612606 0.535792,-0.950429 0.9190411,-1.910803 -0.033447,-4.342774 0.076027,-6.458309 0.068729,-4.73519 -1.0681434,-9.547644 -0.6696492,-14.250015 0.5722123,-0.04891 0.96395,0.756575 1.166072,1.339012 0.5362583,0.272892 0.6511874,1.630896 1.243477,1.406199 1.7478628,3.313885 2.3621093,7.158884 3.376394,10.776555 0.5028944,2.232516 0.7157518,4.641284 2.1135155,6.501035 0.19193157504,0.118307 0.53417522,-0.44188 0.85867792,-0.672965 1.58027708,-1.413573 1.63100858,-4.024981 2.54170028,-5.937563 1.8755951,-4.348431 2.6669014,-9.229634 4.8345896,-13.42155 0.547384,0.17369 0.6010755,1.067818 0.564903,1.683256 0.391013,0.457342 -0.022495,1.755932 0.61071,1.775003 0.3466739,3.730499 -0.5572561,7.517876 -1.0045974,11.248312 -0.3897361,2.255023 -1.1148697,4.561883 -0.5351948,6.814961 0.1321158,0.182783 0.6625686,-0.203813 1.0508473,-0.293122 2.0008831,-0.701084 3.0471871,-3.094425 4.6204381,-4.512906 3.396889,-3.299683 5.995917,-7.506469 9.602773,-10.5498 0.439229,0.370005 0.146669,1.216574 -0.122261,1.771336 0.186056,0.572134 -0.692767,1.613705 -0.11514,1.873529 -1.107215,3.579189 -3.39176,6.732353 -5.232627,10.007636 -1.222895,1.934268 -2.775957,3.787986 -3.102431,6.091422 0.05223,0.219361 0.690135,0.06535 1.083105,0.131343 2.116912,0.11774 3.99937,-1.692799 5.995711,-2.401288 4.401051,-1.748582 8.412114,-4.640526 12.909039,-6.071946 0.2642,0.509924 -0.330068,1.180082 -0.790817,1.589705 -0.04695,0.599862 -1.257589,1.225758 -0.823322,1.686932 -2.392731,2.88299 -5.709997,4.921885 -8.66413,7.243386 -1.870119,1.318965 -4.014094,2.437394 -5.197351,4.4404628 -0.03581,0.2225712 0.612605,0.3244275 0.950429,0.535792 1.910803,0.9190411 4.342773,-0.033447 6.458309,0.076027 4.73519,0.068729 9.547644,-1.0681434 14.250015,-0.6696492 0.04891,0.5722123 -0.756575,0.9639499 -1.339012,1.166072 -0.272892,0.5362582 -1.630897,0.6511873 -1.406199,1.243477 -3.313885,1.7478627 -7.158885,2.3621092 -10.776555,3.376394 -2.232517,0.5028944 -4.641285,0.7157518 -6.501035,2.11351546 C 20.567169,-0.07519578 20.134115,0.09411266 20.652964,0 Z"
     fill="none"
     stroke="#000000"
     stroke-width="0.0812968"
     id="path157" />
</svg>
