<?xml version="1.0" encoding="UTF-8" standalone="no"?>
<svg
   height="600px"
   version="1.1"
   viewBox="-45.61947406330373 -45.43174215967718 90.44185714577327 90.89809112109074"
   width="597px"
   id="svg13"
   sodipodi:docname="cir_seasonal-US-Ha_rere_21_11_100_13_0_0.8_bezier_simplified.svg"
   inkscape:version="1.1.1 (c3084ef, 2021-09-22)"
   xmlns:inkscape="http://www.inkscape.org/namespaces/inkscape"
   xmlns:sodipodi="http://sodipodi.sourceforge.net/DTD/sodipodi-0.dtd"
   xmlns="http://www.w3.org/2000/svg"
   xmlns:svg="http://www.w3.org/2000/svg">
  <sodipodi:namedview
     id="namedview15"
     pagecolor="#ffffff"
     bordercolor="#666666"
     borderopacity="1.0"
     inkscape:pageshadow="2"
     inkscape:pageopacity="0.0"
     inkscape:pagecheckerboard="0"
     showgrid="false"
     inkscape:zoom="1.1983333"
     inkscape:cx="298.33102"
     inkscape:cy="310.01391"
     inkscape:window-width="1312"
     inkscape:window-height="969"
     inkscape:window-x="63"
     inkscape:window-y="38"
     inkscape:window-maximized="0"
     inkscape:current-layer="svg13" />
  <defs
     id="defs9" />
  <path
     d="m 4.9673639,0 c 3.6426232,0.06385364 7.0838391,0.52473225 10.5611341,1.218477 1.736239,0.3237046 3.429445,0.6334315 4.865932,1.021219 0.642204,0.1144089 2.846552,0.5769405 2.535025,0.827959 C 22.392928,3.3164448 21.482864,3.2063752 20.46802,3.2320241 16.505524,3.0141405 11.841398,2.143224 8.2788079,2.0905334 8.150014,2.2798719 7.8460726,2.1883867 7.3070051,2.1674664 6.8882499,2.1316349 6.0337799,1.9036164 5.846932,1.9986474 5.9542847,2.1492779 5.6199613,2.0167007 5.6800602,2.1248036 4.5189878,1.8353512 3.2735081,1.3460685 2.2494813,0.98808952 3.2648139,1.4302416 5.3382654,2.3903039 6.7944064,3.1472426 c 3.5746526,1.8608566 6.7662696,4.1640777 10.1111256,6.522248 0.523773,0.5743214 1.966904,1.3381004 2.695642,2.1979814 0.725744,0.635782 -0.872135,0.05539 -1.310878,-0.194682 C 14.488082,9.9591146 10.520419,7.0790872 7.0637224,5.4541772 6.4772484,5.0794156 6.6063928,5.5327242 5.9788229,5.0463472 5.5601677,4.8812562 4.676043,4.1136682 4.5600638,4.2438277 4.4649106,4.3157379 4.339482,4.1413309 4.3473462,4.2629317 3.4089117,3.5663398 2.174155,2.2825497 1.6042383,1.7770928 c 1.166276,1.2988214 2.3498168,2.653939 3.490173,4.0679027 2.359831,3.0476222 4.5821522,6.6501955 6.3230157,9.8182995 0.627267,1.088445 1.536909,2.506987 1.811792,3.569094 -0.663877,-0.393551 -0.9106,-0.76498 -1.644246,-1.508001 C 9.0268759,14.550577 6.7202869,10.916974 4.2695831,7.8271358 4.1331457,7.7593306 3.8119953,7.3474917 3.7365169,7.5023868 3.3025967,6.9748937 2.764718,5.968783 2.4270629,5.6823862 2.3869536,5.8629441 2.261774,5.5257735 2.2216497,5.6427843 1.6598517,4.5862518 1.190057,3.3332909 0.77088036,2.3327777 1.0615031,3.2127327 1.6903235,5.2218073 2.0634435,6.6296891 3.188593,10.713058 3.6129741,14.784494 4.1261526,19.033376 c -0.079983,0.76433 0.3222143,2.358337 0.170307,3.474019 C 4.3096091,23.472177 3.671752,21.896218 3.5640036,21.402896 2.3190448,17.435839 1.7506167,12.640125 0.71009371,8.9420457 0.56067648,8.2454482 0.32151326,8.6101745 0.26057981,7.8327617 0.08335314,7.3607211 0.08761457,6.3967044 -0.0940282,6.1783956 -0.20411049,6.3270163 -0.18132654,5.9681086 -0.2655706,6.0586586 -0.34907388,4.864966 -0.26861594,3.5292339 -0.24460955,2.4447379 -0.36927618,3.3622624 -0.53745295,5.473274 -0.81150504,6.8958944 -1.4444994,11.083921 -2.7127821,14.975907 -3.9721387,19.066181 c -0.3839392,0.66569 -0.6648438,2.285449 -1.2574154,3.242911 -0.3803961,0.886707 -0.3221065,-0.812425 -0.2198916,-1.306927 0.4762226,-4.130455 1.9075472,-8.742763 2.4611216,-12.54437 0.1468347,-0.6971443 -0.2199947,-0.4612375 0.040545,-1.1962149 0.030117,-0.5033128 0.4260802,-1.3822671 0.3489319,-1.6555667 -0.161016,0.091011 0.00576,-0.2276139 -0.108001,-0.1791491 0.4092244,-1.1244507 1.0260145,-2.3119987 1.4890529,-3.2929544 -0.4716669,0.674107 -1.4589777,2.6925023 -2.3283333,3.8357569 -2.2816894,3.5684775 -5.0233326,6.6081302 -7.8374778,9.8325512 -0.625866,0.460914 -1.536353,1.816233 -2.467672,2.451159 -0.708197,0.655359 0.03618,-0.873281 0.33069,-1.283422 2.104814,-3.592041 5.3591881,-7.2431402 7.3545041,-10.4952659 0.4322415,-0.5642557 -0.023431,-0.4769788 0.522547,-1.056134 0.2079401,-0.3991084 1.0637473,-1.1981499 0.946416,-1.3271097 -0.061576,-0.1021577 0.1249941,-0.2086857 0.00323,-0.2135629 0.7908661,-0.8604696 2.1967036,-1.9543021 2.7589672,-2.4682418 -1.3829215,1.0780924 -2.8781917,2.077268 -4.4104415,3.0458423 -3.2775623,2.0283266 -7.0927983,3.8619162 -10.4254973,5.2620585 -1.148367,0.5113345 -2.653851,1.2659775 -3.738946,1.4287785 0.460808,-0.618998 0.855989,-0.825536 1.671615,-1.4774964 3.423813,-2.212335 7.278628,-4.1264564 10.6076921,-6.2407777 0.081694,-0.1286058 0.5248537,-0.4049473 0.378685,-0.4961992 0.5699455,-0.3764041 1.6267859,-0.8061684 1.9468838,-1.1120358 -0.1753731,-0.058746 0.173026,-0.148016 0.060862,-0.2001451 1.1094644,-0.4482872 2.4046778,-0.78452543 3.4435263,-1.09682546 -1.0948951,0.2266144 -3.3253749,0.70702896 -4.946042,0.92465036 -3.9857466,0.5956733 -7.9216336,0.6083532 -12.0137486,0.666575 -0.751737,-0.1594411 -2.379051,0.073936 -3.472754,-0.193768 -0.960813,-0.087761 0.673159,-0.5573946 1.175052,-0.61299 4.075462,-0.82346739 8.904329,-0.8874991 12.6909454,-1.53575907 0.7084094,-0.0757861 0.37068,-0.35175777 1.1502059,-0.3310966 0.4879755,-0.12691643 1.4462696,-0.0219097 1.6823654,-0.17973695 -0.1363364,-0.12501542 0.2182531,-0.0648432 0.1369979,-0.15809202 1.1958856,0.0417321 2.5158689,0.26136564 3.5919388,0.39860563 C -3.5000541,-0.72700498 -5.7273231,-1.2224552 -7.3001034,-1.6658 -11.183539,-2.742773 -14.784298,-4.3320785 -18.546323,-5.943297 c -0.621927,-0.4514308 -2.203448,-0.9000973 -3.093718,-1.5895046 -0.842095,-0.4710013 0.841668,-0.2354201 1.322767,-0.082077 4.05805,0.9053507 8.495476,2.8109475 12.218394,3.7588722 0.6780033,0.2189108 0.4816918,-0.1706048 1.1854361,0.1653411 0.4974029,0.082517 1.3301539,0.5682283 1.610022,0.5200634 -0.073706,-0.1696493 0.2257581,0.029546 0.1894463,-0.088698 1.0755254,0.5245492 2.19203,1.2620549 3.1192874,1.8251271 -0.7109302,-0.4721824 -2.4314568,-1.8346326 -3.5713673,-2.7165229 -3.3104299,-2.642196 -6.0468365,-5.6865484 -8.9594375,-8.8223171 -0.392918,-0.670718 -1.645739,-1.717796 -2.179737,-2.710414 -0.577706,-0.772802 0.864614,0.127251 1.241761,0.46302 3.355001,2.491959 6.6273492,6.0426819 9.6648027,8.4234704 0.5099897,0.4523555 0.4834869,0.028676 0.999923,0.617881 0.3751828,0.2485244 1.0803993,1.1831695 1.220901,1.0799613 0.1080316,-0.050548 0.1944602,0.1461144 0.2120532,0.025543 0.7730894,0.8764787 1.7139756,2.3889401 2.1663198,3.001842 -1.2478346,-2.2302372 -2.7862191,-4.8217358 -3.6711835,-7.1694448 -1.1675844,-2.7507183 -2.2897112,-5.8727053 -3.0404433,-8.4535683 -0.3885092,-1.195511 -0.9816012,-2.771644 -1.0301427,-3.867784 0.5674548,0.52297 0.7315656,0.937585 1.2947072,1.816888 1.9061693,3.649978 3.5122182,8.290842 5.3177393,11.5308827 0.2283752,0.016876 0.3011313,0.325824 0.552547,0.8031247 0.1783392,0.3805744 0.4080983,1.2345595 0.5838343,1.3488689 0.076747,-0.168267 0.1291094,0.1875442 0.19267926,0.081457 0.32985895,1.1502531 0.52887631,2.4734902 0.730875,3.5393101 -0.0859125,-0.9216137 -0.3201958,-3.0257021 -0.37093928,-4.4717524 -0.25157773,-4.2281001 0.1798075,-8.2987301 0.56122783,-12.5614521 0.23714168,-0.731001 0.17514424,-2.373742 0.5556962,-3.43349 0.18772999,-0.946447 0.48397966,0.727691 0.4868134,1.232635 0.39295059,4.139207 -0.0481464,8.948305 0.20079509,12.7819075 0.00132,0.712438 0.311096,0.4054179 0.2090512,1.1785126 0.075198,0.4985746 -0.1293598,1.4406428 0.0029,1.6919453 0.1385667,-0.122498 0.041675,0.223843 0.1428887,0.1527835 -0.1664917,1.1849709 -0.52290238,2.4747709 -0.77186975,3.5305998 0.32806025,-0.8677585 0.89269215,-2.897633 1.47995525,-4.2360243 1.4898981,-3.9648934 3.5396653,-7.5080964 5.6219157,-11.2471774 0.5139609,-0.571306 1.1254865,-2.097286 1.9041797,-2.910611 0.5564377,-0.788238 0.1461655,0.861636 -0.056635,1.324074 -1.324586,3.941183 -3.6835518,8.155112 -5.0154705,11.7585527 -0.2885835,0.6513984 0.119286,0.49688 -0.2883709,1.1616482 -0.1340805,0.4860643 -0.7041703,1.2634523 -0.6855159,1.5468516 0.1764281,-0.055526 -0.05297,0.2214439 0.068419,0.1977029 -0.6340727,1.014803 -1.4842981,2.0481368 -2.1411583,2.9114085 0.6164256,-0.5666904 1.9719538,-2.3266842 3.0749524,-3.2678492 2.9737689,-3.0161005 6.2874519,-5.4193207 9.7105009,-7.9881837 0.708119,-0.320735 1.880429,-1.457059 2.923424,-1.884582 0.82895,-0.493816 -0.216955,0.846725 -0.590304,1.186649 -2.828985,3.076155 -6.702317,5.9594205 -9.3875637,8.7313759 -0.503173,0.4599316 -0.079055,0.4778263 -0.719015,0.9298627 -0.2863938,0.3471457 -1.2896226,0.9508058 -1.2016671,1.101328 0.038981,0.1127141 -0.1656422,0.1781157 -0.047557,0.2082106 -0.9524898,0.6772422 -2.5549988,1.4548569 -3.2118315,1.84068344 3.2088698,-1.50591054 6.5595157,-2.75076834 9.9190148,-3.58621094 2.02057,-0.5828415 4.524212,-1.1230868 6.320041,-1.4556179 1.229585,-0.2614172 2.859106,-0.6865143 3.954291,-0.6202054 -0.579446,0.509682 -1.008934,0.629568 -1.942285,1.0977082 -3.829239,1.5141986 -8.612544,2.6263485 -12.0235342,4.0832987 -0.040637,0.2253376 -0.3555061,0.265426 -0.8564818,0.46555485 -0.3971226,0.13758439 -1.2704576,0.27681532 -1.4024989,0.439641 0.1593161,0.0939453 -0.2000147,0.1088026 -0.1011453,0.1831183 -1.1784295,0.20781847 -2.5152287,0.26742562 -3.5963294,0.3569115 C 2.7746872,0.01313449 4.1771612,-0.00959375 4.9673639,0 Z M 2.7562161,0 c 4.0365271,0.16574975 8.2695379,0.6207045 12.0683259,1.5720955 1.031456,0.2453729 2.289611,0.581822 3.158456,1.038879 0.632983,0.2475363 1.554064,0.4058641 1.571881,0.701478 0.609333,0.2318382 1.069117,0.4274746 1.253138,0.71991 0.197862,0.2272787 1.489556,0.3867419 0.987957,0.728081 C 21.320091,4.937159 21.125117,4.8926939 20.396231,4.9621086 18.633512,4.8622106 16.94325,4.9026048 15.239599,4.5412235 10.560984,3.5566783 5.8158305,2.2949944 1.3930512,0.60575657 2.200769,0.96558451 3.7372956,1.7122992 4.8300851,2.2960088 c 3.2451327,1.790317 6.5400139,3.8042809 9.2097879,6.0856867 0.937147,0.7531084 1.379885,1.4870356 2.368552,2.2632385 -0.01072,0.187219 0.470451,0.713277 0.776294,1.089348 0.178894,0.401336 0.46234,0.800286 0.998035,1.32153 0.05633,0.345425 -0.727174,-0.08778 -0.659984,0.164217 -2.093213,-0.996993 -4.131949,-1.845 -5.974046,-3.2489606 C 7.9271342,7.3403856 4.0310547,4.1089756 1.0462732,1.1533158 c 0.9322581,1.0379491 2.2327319,2.5862611 3.2087997,3.9551768 2.0126225,2.6888244 3.869836,5.5586424 5.2475506,8.4163454 0.46343,1.009201 0.6098895,1.814908 1.1574955,2.873615 -0.08594,0.166667 0.13958,0.842977 0.266067,1.310863 1.97e-4,0.439399 0.09684,0.919149 0.374165,1.61322 -0.08914,0.338469 -0.628601,-0.37595 -0.66975,-0.11844 C 9.1238713,17.441908 7.6062779,15.838105 6.4945032,13.806238 4.2560105,9.9299571 2.0111062,5.3932422 0.48653977,1.4790927 1.3130898,3.9373358 2.0051893,7.070806 2.5027975,9.8731133 2.9322711,12.393207 3.2000557,14.658983 3.1563336,17.112671 3.0145148,17.55597 3.1347584,18.909931 3.0286663,19.220194 2.9378949,19.749576 2.7976423,20.112606 2.779131,20.823682 2.4574161,20.908266 2.5689899,21.740872 2.44433,22.323626 2.1414374,22.173677 1.9592796,21.849524 1.853883,21.644328 1.0498937,19.239088 0.3959674,16.939709 0.22760894,14.374896 -0.17138217,10.210441 -0.34548439,5.4528277 -0.1572293,1.5493074 -0.40199829,4.1312102 -1.0442334,7.275283 -1.7294454,10.037714 c -0.632668,2.476915 -1.3095844,4.655659 -2.347539,6.87942 -0.3098488,0.347303 -0.7507041,1.633077 -0.973817,1.873383 -0.2982316,0.446693 -0.5740353,0.721301 -0.8801351,1.363316 -0.3283071,-0.05359 -0.5650268,0.752414 -0.915945,1.234077 -0.2157044,-0.260164 -0.2502306,-0.630473 -0.263056,-0.860791 0.2438146,-2.524297 0.581616,-4.890762 1.471035,-7.302347 1.3293418,-3.9667013 3.1053828,-8.3838234 4.8650661,-11.8732898 -0.6570159,1.1706001 -1.7157038,2.810857 -2.6583783,4.1268831 -1.9756809,2.7881299 -4.1564753,5.5084287 -6.4945372,7.7385747 -0.8166181,0.752556 -1.5375871,1.140981 -2.3752661,1.988884 -0.18512,-0.03025 -0.758527,0.393302 -1.164532,0.658164 -0.417795,0.135934 -0.844221,0.376164 -1.418591,0.854431 -0.349422,0.01993 0.163313,-0.714003 -0.09431,-0.673526 1.210357,-1.977519 2.26661,-3.916476 3.855512,-5.601764 2.994833,-3.3267686 6.6157918,-6.8637248 9.8672526,-9.52321207 -1.1241547,0.83075437 -2.810119,1.94505477 -4.268914,2.77778767 -2.8844839,1.7205319 -5.9326426,3.2676052 -8.9188496,4.3390467 -1.052132,0.3553902 -1.868681,0.416905 -2.978809,0.8508233 -0.156806,-0.1029141 -0.852897,0.050798 -1.331546,0.127626 -0.437015,-0.045762 -0.924262,2.309e-4 -1.643513,0.2035365 -0.327449,-0.1239518 0.439583,-0.5858521 0.187716,-0.653669 1.909993,-1.3143017 3.663757,-2.6558994 5.800679,-3.5492208 4.089033,-1.8210511 8.8355609,-3.5794389 12.887626,-4.68651466 -2.5311746,0.5650675 -5.7198278,0.92582166 -8.558799,1.12779946 -2.551174,0.1637012 -4.832516,0.193196 -7.268183,-0.106781 -0.426047,-0.1873702 -1.785144,-0.2093037 -2.08263,-0.347246 -0.51699,-0.14560555 -0.863402,-0.32305798 -1.568546,-0.41577376 -0.05049,-0.32879871 -0.890206,-0.30486257 -1.456735,-0.48976344 0.180802,-0.28555279 0.522342,-0.4328212 0.73743,-0.51619687 2.476104,-0.54816693 4.831179,-0.95818223 7.399568,-0.85752713 4.183348,0.038501 8.9330906,0.36265593 12.7955511,0.95791409 -2.5421748,-0.51331241 -5.601889,-1.48067389 -8.277563,-2.45088519 -2.3971811,-0.8881087 -4.4933171,-1.7890482 -6.5963841,-3.0537767 -0.313007,-0.3444502 -1.545662,-0.9172958 -1.76133,-1.164304 -0.41307,-0.3432975 -0.657356,-0.6463093 -1.263855,-1.0178259 0.08762,-0.3209047 -0.689222,-0.640583 -1.131559,-1.0399242 0.281256,-0.1873405 0.653155,-0.1829579 0.883539,-0.1716453 2.484977,0.5063283 4.803164,1.0896554 7.108565,2.2262797 3.8060163,1.7366935 8.0132877,3.96472 11.2997036,6.07951118 -1.1755257,-0.85291258 -2.8064786,-2.13856968 -4.086735,-3.31135068 -2.4826162,-2.1822132 -4.8467676,-4.5644203 -6.7569876,-7.0317199 -0.663144,-0.890815 -0.973922,-1.648378 -1.729661,-2.570069 0.0494,-0.181019 -0.311873,-0.795508 -0.532842,-1.22698 -0.09155,-0.429781 -0.285859,-0.878967 -0.701471,-1.500174 0.01681,-0.349747 0.693066,0.236997 0.679799,-0.0235 1.840199,1.41037 3.658055,2.663715 5.1679862,4.41999 2.9955014,3.3261663 6.1345874,7.2970025 8.4396354,10.808643 -0.7293239,-1.2614323 -1.6935934,-3.0946489 -2.386573,-4.6872886 -1.380381,-3.003301 -2.5712121,-6.1411304 -3.312779,-9.1720984 -0.2434666,-1.083524 -0.2192688,-1.902035 -0.534781,-3.051434 0.1187495,-0.145225 0.038651,-0.853523 0.012273,-1.337614 0.091187,-0.429849 0.096373,-0.919236 -0.030638,-1.655791 0.1574912,-0.312596 0.5366761,0.498384 0.630467,0.255054 1.1074345,2.036963 2.258389,3.92117 2.923442,6.139839 1.3836553,4.256985 2.63626341,9.1613073 3.31371855,13.3068994 -0.29738717,-2.5763732 -0.32287638,-5.7852671 -0.22698068,-8.6297964 0.10386967,-2.554319 0.31299048,-4.826183 0.86592309,-7.217142 0.23087897,-0.404125 0.39475837,-1.753497 0.56304024,-2.034927 0.198848,-0.498935 0.4115388,-0.824909 0.577456,-1.516458 0.3322732,-0.01586 0.3962459,-0.853451 0.639347,-1.397555 0.2650874,0.209612 0.3758643,0.564637 0.4362935,0.787262 0.2863467,2.519806 0.4479292,4.904777 0.079351,7.448589 C 2.290186,-9.9520275 1.4713256,-5.2621791 0.47559665,-1.4831013 1.2518261,-3.9576967 2.5337156,-6.8995319 3.7782953,-9.4591351 c 1.1338321,-2.2913079 2.2489323,-4.2815959 3.7265584,-6.2409519 0.3752811,-0.275274 1.0738337,-1.441331 1.3420353,-1.629981 0.3846056,-0.374918 0.7114697,-0.586169 1.1443586,-1.150521 0.3099174,0.120616 0.7090694,-0.618523 1.1524604,-1.016711 0.156832,0.29936 0.113729,0.668772 0.07836,0.896711 -0.763349,2.418409 -1.5858253,4.662968 -2.9571849,6.836933 -2.1250146,3.6036378 -4.7806209,7.5549646 -7.2273539,10.6023253 0.880991,-1.0035398 2.2624994,-2.3926238 3.4583098,-3.4839874 2.5121879,-2.3164269 5.2109178,-4.52387 7.961533,-6.2192079 0.955248,-0.566271 1.74121,-0.796221 2.736846,-1.451474 0.174892,0.06806 0.823747,-0.227025 1.275963,-0.401701 0.436996,-0.04613 0.904079,-0.19243 1.565309,-0.540863 0.346041,0.05316 -0.308135,0.664443 -0.04772,0.67842 -1.595039,1.682696 -3.03135,3.3595777 -4.935926,4.677682 -3.6210588,2.6314125 -7.8982735,5.3382345 -11.6316133,7.26359099 1.4165717,-0.64432299 3.437857,-1.42268849 5.1825992,-1.97271009 3.0467928,-1.023877 6.1936871,-1.8350648 9.1965921,-2.246725 1.103023,-0.1288713 1.914562,-0.019268 3.090636,-0.212889 0.131965,0.1332696 0.844813,0.1276573 1.328958,0.152026 0.41795,0.1356168 0.904104,0.1919239 1.649892,0.1426133 0.294435,0.1893033 -0.551726,0.4816341 -0.319578,0.600353 -2.141545,0.8884569 -4.135886,1.8361404 -6.411852,2.265637 -4.391116,0.93637296 -9.4728133,1.67466696 -13.6527313,1.90857604 l 0.6358169,0.001048884 z m 0.3198157,0 c 0.07197,0.049257 -0.3681926,0.05751525 0.1156643,0.07935962 6.728683,0.6131739 13.5963699,1.69213168 19.6759159,4.76644318 0.656279,0.3665487 0.324002,1.1310991 -0.40265,1.154952 C 18.936091,6.3928999 15.439323,5.2186496 12.018826,4.4790867 8.8703554,3.6219082 5.6100388,2.5933341 2.7802495,1.2544135 2.5142767,1.2076047 2.9557191,1.4000402 3.3049502,1.5861135 9.0451353,4.8849313 14.780422,8.5735685 18.954401,13.78916 19.364759,14.427649 18.657909,14.87639 18.018259,14.604831 14.57583,13.457262 11.798534,10.920006 8.9197015,8.7904085 6.8436972,7.0348967 4.6868128,5.249762 2.9245633,3.2428375 2.7977902,2.5253198 2.0248072,2.3198766 1.9263103,2.2269389 6.0355275,7.6935291 9.8922932,13.581313 11.700283,20.236453 11.866978,20.969532 11.076539,21.23394 10.572547,20.709971 7.9198354,18.349925 6.4526932,14.965586 4.7135324,11.928806 3.2436235,9.0363176 1.8137432,5.8369018 0.92825569,2.9310219 0.72494932,2.5628267 1.1492783,3.825338 1.1748478,4.1736984 2.4874837,10.437576 3.485459,16.94566 2.4356075,23.312581 2.2357454,24.044745 1.4292162,23.819729 1.2030805,23.162625 -0.24751405,19.836491 -0.22037148,16.074836 -0.56407471,12.510453 -0.70512738,9.3569269 -0.71261131,6.0622765 -0.33390128,3.0317064 -0.37159342,2.7642772 -0.41818317,3.2435773 -0.48723665,3.6332204 -1.8507765,10.11186 -3.5865951,16.70628 -7.2570486,22.287706 c -0.4803723,0.587573 -1.125693,0.05424 -1.065003,-0.63813 0.027642,-3.628577 1.5824673,-7.053974 2.7182326,-10.44999 1.1503123,-2.9528225 2.5319068,-6.0078357 4.0656266,-8.5656449 0.074305,-0.2596278 -0.1631641,0.1592666 -0.384748,0.487146 -3.8807516,5.3639216 -8.1486856,10.6822059 -13.7719876,14.2881589 -0.67781,0.341462 -1.050494,-0.408305 -0.713266,-1.01611 1.501167,-3.303621 4.314766,-5.800506 6.7336486,-8.4409607 2.2376909,-2.2237986 4.807853,-4.4909066 7.1766601,-6.1607552 0.2945282,-0.3120125 -0.5940811,0.3534249 -0.8764423,0.485315 -5.6250887,3.2306613 -11.5748564,6.2621675 -18.0446044,7.2438426 -0.758113,0.036167 -0.793515,-0.8003943 -0.238404,-1.218529 2.715089,-2.407427 6.301021,-3.5440313 9.584744,-4.972365 2.9474543,-1.1103567 6.1546925,-2.1451154 9.0605206,-2.71271568 0.3874345,-0.16371028 -0.912519,0.12632853 -1.2616419,0.11534603 -6.3667787,0.65066685 -12.9435297,0.96290175 -19.1658487,-0.74668212 -0.707276,-0.27529979 -0.399184,-1.05390293 0.277942,-1.21010383 3.459542,-1.0949747 7.197757,-0.6747801 10.778544,-0.6440422 3.1433902,0.1883745 6.4961669,0.5361871 9.3805647,1.20704719 C -2.5820068,-0.653442 -3.887527,-0.9172148 -4.202,-1.0692496 c -6.080999,-1.9951656 -12.216136,-4.3849695 -17.205157,-8.477586 -0.534163,-0.5391154 0.06409,-1.1252774 0.746171,-0.9922984 3.605802,0.406994 6.849929,2.3111909 10.108626,3.7957683 2.3962103,1.2845 4.8674616,2.5799637 7.0175346,4.1798819 0.2747023,0.6280406 1.073601,0.7252835 1.1876531,0.7861465 -5.1559911,-4.4927704 -10.1526227,-9.4500227 -13.3047567,-15.5838387 -0.315535,-0.682323 0.402807,-1.105433 1.004668,-0.697732 3.085388,1.756993 5.2241429,4.762304 7.556665,7.371151 1.9549582,2.5325812 4.0588175,5.0487829 5.3905369,7.9283096 0.203604,0.011332 0.3747699,0.3867351 0.172993,-0.043927 -2.8333263,-6.1337864 -5.332728,-12.6208494 -5.7101037,-19.4230354 -0.010674,-0.751546 0.8175991,-0.846166 1.201561,-0.22876 2.1040638,2.859997 2.8355035,6.475411 3.905272,9.807419 0.8420576,3.1043346 1.56676207,6.6569607 1.8355977,9.5471744 0.11434912,0.520747 -0.0229837,-0.7934215 0.0104294,-1.0331382 0.0175413,-6.4625152 0.37308582,-13.1049942 2.74893517,-19.1754542 0.3477309,-0.674709 1.0898318,-0.286667 1.174428,0.40301 0.7273373,3.55505 -0.081299,7.228864 -0.4861776,10.786821 C 2.6386103,-9.0022303 1.9461932,-5.7638121 0.95698667,-2.8955811 0.9382542,-2.6261637 1.0834775,-3.0853038 1.2320333,-3.4520728 3.912768,-9.5056318 6.9816939,-15.59507 11.732396,-20.291377 c 0.592134,-0.474864 1.112121,0.181256 0.908988,0.845761 -0.78135,3.543558 -3.0145064,6.570822 -4.8314852,9.6565022 -1.6736012,2.6118702 -3.6162118,5.0656675 -5.5363171,7.4211068 -0.2361083,-0.027605 -0.3848548,0.4255037 -0.078894,0.049777 4.9580404,-4.5901022 10.3552618,-8.9717936 16.7079198,-11.4326856 0.711597,-0.242263 1.05731,0.516003 0.58879,1.07205 -2.06986,2.8848416 -5.282269,4.6977281 -8.120627,6.7447795 -2.7405861,1.7733916 -5.6961435,3.4880652 -8.5782127,4.7078717 -0.2127439,0.166345 0.2256254,-0.032942 0.5975986,-0.167968 6.2924314,-2.0584622 12.8712711,-3.8524024 19.5401511,-3.464401 0.749017,0.1222288 0.609685,0.947837 -0.02023,1.241441 C 19.753783,-1.8268303 16.0099,-1.4606122 12.500963,-0.74621585 9.3816511,-0.29185835 6.2338411,0.09068571 3.0760318,0 Z m 2.2611185,0 c 4.0745847,0.42272433 7.9206757,1.2726052 12.0513117,1.8439883 1.593105,0.442341 3.501607,0.4289297 4.917768,1.16852 -0.35585,0.095702 1.469271,0.507933 0.663598,0.6438519 0.280286,0.2698184 -0.250032,0.3199079 0.570258,0.6630602 0.0579,0.4626209 1.150787,0.5808462 1.826292,0.9571465 0.802606,0.4996061 -0.691009,0.2646204 -0.01002,0.625854 -0.566984,0.1661544 -1.30654,0.1478465 -2.14802,0.081089 -0.296594,0.2274044 -1.359461,0.1319588 -1.928903,0.042022 C 17.713237,5.6039447 14.200257,4.4884071 10.682295,4.0112996 8.8847925,3.5843013 6.0853906,2.6011294 5.0812982,2.2926863 8.5475531,4.3038607 11.667693,6.5971458 15.135149,8.7571082 c 1.275473,1.0520803 3.024395,1.8160678 4.017343,3.0677438 -0.364032,-0.05728 1.135637,1.061614 0.34442,0.858073 0.146317,0.360508 -0.358525,0.19052 0.251315,0.837696 -0.135335,0.446114 0.815045,0.998703 1.279074,1.6172 0.53011,0.782892 -0.738857,-0.0394 -0.263685,0.567608 C 20.178052,15.62658 19.50989,15.309072 18.768306,14.9058 18.404972,14.992944 17.472644,14.473362 16.989067,14.159613 13.90267,12.324057 11.147138,9.8760715 8.1273556,8.0093473 6.5720235,6.7634189 4.8842124,5.2812132 3.5921477,3.9992876 5.994599,7.2966114 7.9397529,10.716258 10.264959,14.156005 c 0.73728,1.479894 2.024253,2.889198 2.422257,4.436503 -0.309235,-0.200362 0.605579,1.431779 -0.0344,0.924004 -0.0129,0.388811 -0.405134,0.02815 -0.111199,0.867443 -0.304978,0.352489 0.338384,1.243895 0.51076,1.99766 0.165775,0.930791 -0.659059,-0.336519 -0.471815,0.411287 C 12.07769,22.48271 11.596467,21.920826 11.083016,21.250809 10.715533,21.182524 10.075274,20.328821 9.7610808,19.845455 7.6881335,16.913106 6.1665116,13.556041 4.1670672,10.622429 3.2816205,9.0009105 2.1390946,6.2626819 1.6964549,5.3101035 2.5235843,9.2325164 2.9004397,13.083641 3.6197946,17.107122 3.691403,18.75895 4.2939049,20.569891 4.0281475,22.145295 3.8271726,21.836447 3.9991088,23.699653 3.6208798,22.975417 3.4508856,23.325374 3.2393616,22.836456 3.1665018,23.722707 2.7443781,23.920568 2.9696912,24.996661 2.8205338,25.755333 2.5934038,26.673077 2.355339,25.17991 2.2222158,25.939207 1.8889725,25.451318 1.6778502,24.742242 1.4813218,23.921319 1.1733954,23.709442 0.93570984,22.6691 0.8452852,22.099752 0.14422116,18.577818 0.11960353,14.892014 -0.51376797,11.398848 -0.66313121,9.5573744 -0.5931461,6.5911733 -0.61006747,5.5409014 -1.44982,9.4606391 -2.6719661,13.132087 -3.6512935,17.100305 c -0.6064469,1.538082 -0.7925957,3.437687 -1.6761651,4.768616 -0.057993,-0.363842 -0.6587373,1.40814 -0.709699,0.592684 -0.2976367,0.250569 -0.2919976,-0.282133 -0.719034,0.497859 -0.4661102,0.0089 -0.6979594,1.083782 -1.1428006,1.716153 -0.5807725,0.746006 -0.1909249,-0.714889 -0.6213732,-0.07538 -0.1059725,-0.581329 -0.010469,-1.314895 0.143906,-2.144792 -0.1951476,-0.318663 0.010858,-1.365855 0.159833,-1.922744 0.7920324,-3.502602 2.2687129,-6.879722 3.1108949,-10.328571 0.6125487,-1.7430238 1.8829476,-4.4243251 2.2946739,-5.39067 -2.3631029,3.2348444 -4.9681968,6.104516 -7.4799284,9.323062 -1.179628,1.158473 -2.122277,2.818093 -3.47086,3.67462 0.09507,-0.355997 -1.174565,1.018489 -0.889473,0.25273 -0.373789,0.107828 -0.151974,-0.376447 -0.859344,0.162405 -0.429478,-0.181153 -1.078464,0.706179 -1.742073,1.103043 -0.834005,0.445177 0.116511,-0.730806 -0.536897,-0.321652 0.139622,-0.574178 0.525245,-1.205482 1.003826,-1.900853 -0.04863,-0.370561 0.565452,-1.243361 0.928072,-1.691529 2.148008,-2.877717 4.870819,-5.362159 7.0429496,-8.1702831 1.3997864,-1.4194194 3.053237,-2.9342025 4.4621522,-4.0911952 -3.5306982,2.0492786 -7.1340308,3.6130185 -10.7985768,5.57458 -1.548858,0.5785495 -3.084978,1.7111693 -4.665409,1.9452563 0.23165,-0.286597 -1.487217,0.452673 -0.915325,-0.130839 -0.385368,-0.05355 0.01429,-0.405797 -0.851074,-0.201157 -0.318701,-0.340326 -1.272399,0.206503 -2.040059,0.299094 -0.942991,0.06761 0.403513,-0.620181 -0.359764,-0.512153 0.36105,-0.4677113 0.970114,-0.8875958 1.690155,-1.3281908 0.106288,-0.3583044 1.022289,-0.9058561 1.535833,-1.1677927 3.13292,-1.755093 6.630647,-2.9174677 9.757234,-4.5993049 1.7051905,-0.7110981 4.547846,-1.5611383 5.5414812,-1.9017867 -3.9873848,0.4125817 -7.8568042,0.3848408 -11.9334382,0.6796855 -1.650294,-0.1014648 -3.514215,0.3084665 -5.053296,-0.1205271 0.328124,-0.1675859 -1.542842,-0.1913484 -0.78305,-0.491804 -0.330267,-0.20564062 0.17808,-0.36490008 -0.695665,-0.52999586 -0.152635,-0.44050733 -1.246399,-0.32888357 -1.985289,-0.5565296 -0.888876,-0.32182526 0.620977,-0.40249926 -0.120262,-0.61426053 0.52011,-0.28041639 1.247208,-0.41627185 2.084219,-0.52591101 0.242939,-0.2841033 1.302403,-0.4117276 1.878099,-0.442149 3.57592,-0.3290546 7.244103,0.031686 10.784332,-0.2330379 1.8470004,0.043967 4.7896442,0.4236057 5.8359233,0.5165642 -3.8104816,-1.2448741 -7.3340763,-2.8440742 -11.1781893,-4.2328392 -1.466357,-0.7638984 -3.335866,-1.1475884 -4.5674,-2.1654491 0.367924,-0.01964 -1.331574,-0.8023246 -0.515275,-0.7677597 -0.218087,-0.3222036 0.311083,-0.2609074 -0.419983,-0.7671402 0.0395,-0.464548 -1.00487,-0.8074154 -1.58739,-1.3159344 -0.681247,-0.655599 0.730889,-0.115087 0.139905,-0.610029 0.589155,-0.04463 1.308743,0.127016 2.117957,0.3673 0.337433,-0.1608 1.357252,0.153628 1.895539,0.359975 3.400617,1.1538349 6.604866,2.9753909 9.9468247,4.1734911 1.6694489,0.7913857 4.203266,2.3351001 5.1212862,2.8455731 -2.9701196,-2.6882837 -5.5517649,-5.5790794 -8.4901319,-8.4134802 -1.031695,-1.292874 -2.579904,-2.40564 -3.291677,-3.835949 0.344124,0.131607 -0.890153,-1.274546 -0.158488,-0.911006 -0.06818,-0.383007 0.390411,-0.111778 -0.07166,-0.871605 0.225019,-0.40836 -0.589596,-1.146372 -0.914922,-1.847869 -0.355913,-0.875985 0.714581,0.192147 0.375858,-0.500416 0.556403,0.198865 1.143932,0.648371 1.785471,1.197004 0.373588,-0.0095 1.177423,0.692338 1.585231,1.099849 2.637321,2.437224 4.8236551,5.404605 7.3893433,7.858398 1.2032272,1.4019956 2.8901037,3.8428405 3.5211295,4.6825771 -1.6245688,-3.6647285 -2.7938658,-7.3533431 -4.3340331,-11.1393401 -0.4134778,-1.600847 -1.379331,-3.246935 -1.4469224,-4.84318 0.2607833,0.260272 -0.2947683,-1.526416 0.225766,-0.89664 0.09352,-0.377678 0.402067,0.05663 0.2890712,-0.825451 0.3717436,-0.281396 -0.072374,-1.287042 -0.084218,-2.060173 0.031369,-0.944908 0.5746719,0.466153 0.547015,-0.304215 0.4274019,0.407909 0.7813236,1.057552 1.144242,1.819695 0.345238,0.143165 0.7940273,1.111377 1.000855,1.649493 1.4180017,3.299198 2.2083713,6.89932 3.5542027,10.184504 0.5289613,1.7701793 1.07721533,4.6861122 1.31212868,5.7099099 0.006455,-4.0086656 0.4385386,-7.8539879 0.57143204,-11.9391099 0.27339271,-1.630582 0.06056236,-3.527315 0.64807025,-5.012931 0.13237285,0.34387 0.35156933,-1.514319 0.57095913,-0.727284 0.2390382,-0.306952 0.344293,0.215229 0.599815,-0.636437 0.454045,-0.105794 0.4573724,-1.205168 0.761008,-1.916231 0.4129807,-0.850415 0.3353894,0.659594 0.623474,-0.05543 0.2245161,0.546573 0.2836151,1.283956 0.305166,2.127819 0.2571564,0.271182 0.2733505,1.338254 0.2434235,1.913959 -0.046491,3.590734 -0.788718,7.201069 -0.8954638,10.749644 -0.2367771,1.8322868 -0.9219316,4.7191178 -1.1237445,5.7499526 1.6363661,-3.6594793 3.5951314,-6.9966026 5.3781022,-10.6744936 0.9129876,-1.378387 1.4900121,-3.197797 2.6310057,-4.315934 -0.018954,0.367983 0.9371466,-1.24037 0.8174356,-0.432134 0.343119,-0.183219 0.226947,0.336743 0.806783,-0.337446 0.457803,0.088 0.908029,-0.914992 1.474635,-1.441136 0.723172,-0.608911 0.03809,0.738948 0.592106,0.202993 -0.01719,0.590624 -0.263168,1.288309 -0.586707,2.067984 0.124461,0.352425 -0.294503,1.333747 -0.556095,1.847544 -1.502981,3.261379 -3.6494774,6.257673 -5.1903544,9.4560598 -1.0738929,1.6794108 -2.3781115,3.5068653 -3.5140367,4.9295271 3.0281343,-2.7339504 6.2257194,-5.0258914 9.4035761,-7.6979159 1.39473,-0.88792 2.661786,-2.315197 4.159022,-2.872725 -0.167049,0.328466 1.360603,-0.752019 0.922493,-0.06232 0.388045,-0.02778 0.07033,0.399978 0.874302,0.01991 0.382441,0.266509 1.201681,-0.466543 1.933292,-0.716752 0.908351,-0.26204 -0.26581,0.690602 0.45831,0.426269 -0.255938,0.532529 -0.764404,1.069855 -1.377096,1.650537 -0.02945,0.372619 -0.811618,1.098605 -1.259474,1.461601 -2.699633,2.3681007 -5.879235,4.2322897 -8.587759,6.5274382 -1.5200849,1.0500891 -4.1238809,2.4725853 -5.0249855,3.0123747 3.8144661,-1.2326119 7.6051065,-2.0099475 11.5313505,-3.145928 1.635299,-0.2438816 3.373326,-1.0323769 4.967894,-0.9327477 -0.286194,0.2321563 1.548865,-0.1336114 0.868138,0.318259 0.365841,0.1324881 -0.09834,0.3939557 0.790712,0.3737729 0.240939,0.3991164 1.287548,0.062562 2.057665,0.131591 0.936457,0.1299614 -0.523678,0.522808 0.24538,0.575825 -0.450421,0.3824249 -1.133538,0.6664948 -1.929412,0.947764 -0.178419,0.3283781 -1.18826,0.6735095 -1.74505,0.822953 -3.429357,1.0653642 -7.092359,1.4751151 -10.500236,2.47016001 C 9.3848961,-0.3583098 7.3489663,-0.10219142 5.3371503,0 Z M 25.092943,0 c -1.016733,0.14922263 -0.868441,0.4076819 -0.226352,0.587367 0.03378,0.37542172 2.40098,0.4768548 2.806904,0.7206992 0.825593,0.4021598 0.545659,0.6476134 -0.927292,0.590049 1.076869,0.2644376 -1.601317,0.3748291 -0.586792,0.580411 -0.459775,0.1693227 -0.38132,0.1512705 -0.414256,0.381168 -1.780461,0.028035 -3.263443,0.2864565 -5.093085,0.086394 C 17.735149,2.9026238 14.830074,2.5285823 11.917197,2.2020123 11.286738,2.1770726 10.484833,2.09974 9.7557447,2.0419831 9.8903692,2.334075 8.5063862,1.9385459 7.9553668,1.9249471 c -0.4480939,-0.00259 -1.0038477,-0.1124524 -0.772856,-0.0064 1.686193,0.5805979 3.7777852,1.3213896 4.9026082,1.9128518 0.105769,0.2903365 1.674948,0.6894867 2.051187,1.0205453 1.431908,0.6654572 2.857521,1.2727294 4.241573,2.0230176 -0.285811,-0.00108 0.668567,0.5653769 0.995715,0.8987959 -0.500012,0.1621494 -0.354785,0.3269825 0.476545,0.7116146 0.526354,0.623832 3.693688,1.8864547 2.392047,1.5502777 -0.270245,0.08368 0.14203,0.481351 0.226762,0.747975 0.700258,0.636533 1.924788,1.304674 2.641482,1.927352 -0.564452,0.301236 0.223015,0.577031 -1.514113,-0.09554 0.87141,0.644519 -1.557833,-0.263801 -0.856715,0.24148 -0.27597,0.04964 -0.269724,0.04149 -0.383415,0.227046 -1.637944,-0.698573 -3.097845,-1.06561 -4.687926,-1.992645 C 15.021762,9.8635954 12.51852,8.3444432 9.9912032,6.8587665 9.4253875,6.5795498 8.7242783,6.1827431 8.0817153,5.8334269 8.0858847,6.1550138 6.9824405,5.2307822 6.4845783,4.9942329 6.0762779,4.8096219 5.6132502,4.4832119 5.7811383,4.6740471 c 1.3042599,1.2162386 2.913717,2.7437101 3.7007496,3.7415654 -0.058033,0.2623639 1.2507881,1.3220779 1.3913291,1.6786485 1.048929,1.229811 2.143058,2.379368 3.119459,3.661256 -0.260653,-0.117251 0.380796,0.788478 0.544022,1.226121 -0.522695,-0.05535 -0.457051,0.15439 0.145974,0.843875 0.343403,0.867049 2.231389,2.854006 1.708707,2.515953 -0.338386,-0.111898 -0.521076,-0.06106 -0.104109,0.773435 -0.178848,0.201748 1.2092,1.999235 1.394332,2.54737 -0.216992,0.45861 -0.121116,0.674211 -1.195486,-0.515994 0.524051,0.977213 -1.350037,-0.939207 -0.823962,-0.0477 -0.03032,0.405479 -0.956098,-1.210655 -0.333113,0.208119 C 14.066076,19.863114 12.764586,18.908451 11.629536,17.318669 9.7114736,15.120574 8.0425899,12.714579 6.3377236,10.329511 5.9343968,9.8442935 5.4552921,9.1966289 5.0103629,8.6161589 4.883379,8.9116423 4.2512536,7.6184986 3.8926506,7.199901 3.5947324,6.8651876 3.3045054,6.3786611 3.3802583,6.6212846 4.0770791,8.262863 4.9260952,10.312906 5.2392266,11.5446 c -0.1449773,0.272956 0.6083776,1.706143 0.6140989,2.207257 0.4636262,1.509407 0.9661945,2.975134 1.3347421,4.505727 -0.1904415,-0.213121 0.027219,0.875155 -0.00167,1.341388 -0.5048794,-0.296119 -0.4475493,0.03027 -0.1820123,0.995777 -0.093316,0.746426 0.9068841,3.487056 0.5097195,2.828036 -0.2635962,-0.239848 -0.4512371,-0.267658 -0.409711,0.664214 -0.2410299,0.270039 0.3224275,2.297388 0.2421267,3.177957 -0.6853733,-0.64954 -0.1831062,0.75785 -0.9325768,-1.288121 0.104106,1.078866 -0.8463397,-1.334208 -0.7526928,-0.475087 -0.1138552,0.603594 -0.3313708,-1.397855 -0.32369,0.197784 C 4.7690991,23.865848 3.9709564,22.469204 3.5799529,20.551617 2.7199068,17.764033 2.1779293,14.885557 1.5883927,12.01433 1.4172871,11.407056 1.2430393,10.620494 1.0726774,9.9092464 0.83646805,10.127532 0.78496883,8.6890692 0.6276267,8.1608161 0.49160563,7.7338621 0.42435425,7.1713547 0.39487463,7.4238125 0.36375648,9.2068776 0.30555532,11.42504 0.09063444,12.677566 c -0.24343556,0.190325 -0.13815379,1.806078 -0.33674422,2.266195 -0.19039217,1.567481 -0.32743251,3.110901 -0.6133031,4.659066 -0.0872861,-0.272169 -0.33110742,0.810577 -0.54711422,1.224725 -0.3407841,-0.475815 -0.4211376,-0.154459 -0.571285,0.835691 -0.417439,0.629014 -0.5635083,3.566318 -0.6846144,2.790885 -0.1432464,-0.326334 -0.3033525,-0.428064 -0.644442,0.44014 -0.3300209,0.148651 -0.6398704,2.229915 -1.0713938,3.001681 -0.3619423,-0.872081 -0.4755257,0.617856 -0.3280345,-1.556038 -0.3437055,1.027934 -0.2305004,-1.56309 -0.4943752,-0.740163 -0.3495335,0.505143 0.2658082,-1.411741 -0.3761681,0.04908 0.226505,-1.906349 0.06546,-3.506967 0.4882025,-5.417762 0.3481189,-2.8964 1.0237846,-5.746461 1.6530479,-8.609245 0.090705,-0.624399 0.2514378,-1.413817 0.385082,-2.1328785 -0.3045638,0.1033355 0.2334581,-1.2317017 0.3045831,-1.7782984 0.049389,-0.4453638 0.2167365,-0.9865945 0.087132,-0.7679519 -0.7536754,1.6162751 -1.7090351,3.6189558 -2.414843,4.6758138 -0.299803,0.07494 -0.8607991,1.593734 -1.2293608,1.933359 -0.8114852,1.354538 -1.5644382,2.708737 -2.4552918,4.006781 0.030957,-0.284131 -0.6321752,0.605825 -0.9979598,0.896317 -0.1089836,-0.5141 -0.2880944,-0.386982 -0.7575214,0.399614 -0.757212,0.55461 -1.992858,3.042768 -1.864777,2.40255 0.0018,-0.356376 -0.103052,-0.514457 -0.767781,0.139954 -0.247134,-0.107744 -1.527709,1.767832 -1.991813,2.113275 -0.503235,-0.06464 -0.678656,0.0932 0.121299,-1.296392 -0.767412,0.800386 0.476087,-1.574201 -0.209228,-0.798377 -0.394999,0.09648 0.85593,-1.283473 -0.300867,-0.252455 0.985609,-1.649021 1.483973,-3.177405 2.649588,-4.750819 1.497822,-2.503441 3.2703783,-4.834134 5.0118574,-7.1925766 C -7.528658,8.6862092 -7.060743,8.0304155 -6.6461742,7.4278882 -6.9664397,7.3984024 -5.931918,6.3976187 -5.6446238,5.9272161 -5.4183539,5.5404432 -5.0453299,5.1140752 -5.252661,5.2610959 -6.5985669,6.4310867 -8.2859082,7.872047 -9.3605608,8.5504664 c -0.2548395,-0.085146 -1.4455752,1.1057581 -1.8148702,1.208227 -1.332743,0.9147016 -2.590338,1.8825156 -3.967279,2.7196046 0.143849,-0.246957 -0.823973,0.296396 -1.27626,0.412939 0.109581,-0.514095 -0.105771,-0.470759 -0.854565,0.05691 -0.93728,0.215996 -3.026989,1.943405 -2.680768,1.436358 0.146673,-0.324825 0.115118,-0.511844 -0.758277,-0.184397 -0.181948,-0.19897 -2.114679,0.993669 -2.679165,1.120448 -0.433433,-0.263764 -0.657892,-0.190861 0.638105,-1.134945 -1.026629,0.419033 1.075148,-1.244481 0.133556,-0.81448 -0.400075,-0.07254 1.303982,-0.824317 -0.172153,-0.353055 1.571091,-1.105576 2.648079,-2.299113 4.352861,-3.2623861 2.38645,-1.6780789 4.953671,-3.086375 7.503975,-4.5322546 0.524632,-0.3504046 1.218892,-0.7591736 1.8426694,-1.1409925 -0.2805956,-0.1571804 1.0715424,-0.6506811 1.5253319,-0.9635574 0.3640215,-0.2612988 0.8782181,-0.4990861 0.6290066,-0.449108 -1.7054166,0.5214042 -3.8329769,1.1514951 -5.0906099,1.3341668 -0.256297,-0.1727141 -1.760382,0.4267006 -2.25936,0.3800213 -1.5496,0.3033036 -3.05983,0.6499091 -4.620563,0.8564419 0.231862,-0.1671156 -0.873199,-0.064401 -1.333836,-0.1418659 0.347271,-0.4711794 0.01673,-0.448254 -0.971281,-0.2851083 -0.792201,-0.1868392 -3.461945,0.5405617 -2.865864,0.2113149 0.266094,-0.2370743 0.313402,-0.4207939 -0.617726,-0.476891 -0.243341,-0.2679361 -2.318493,0.080517 -3.185841,-0.091378 0.717689,-0.6137183 -0.734559,-0.2613314 1.378575,-0.7928281 -1.083836,-0.00923 1.415374,-0.7022392 0.55117,-0.698905 -0.588483,-0.1763292 1.424746,-0.1834454 -0.162949,-0.342592 1.883068,-0.3736771 3.355409,-1.0214568 5.303387,-1.209875 2.862219,-0.56395157 5.781581,-0.80207988 8.698705,-1.088262 0.62189,-0.10668249 1.422333,-0.19776646 2.1474917,-0.29285198 -0.1924127,-0.2577194 1.2435669,-0.15858867 1.7853689,-0.25984771 0.4388322,-0.0906496 1.005288,-0.0987323 0.7572946,-0.15444004 -1.7700518,-0.217331 -3.9699562,-0.50706957 -5.1932052,-0.85174437 -0.163912,-0.2620016 -1.781742,-0.3261758 -2.218596,-0.571778 -1.539006,-0.3531898 -3.059605,-0.6508183 -4.56941,-1.096947 0.279802,-0.058357 -0.771522,-0.4140272 -1.160841,-0.672138 0.508978,-0.2891868 0.197621,-0.4026925 -0.771299,-0.6555069 -0.653241,-0.4688976 -3.378837,-0.9359452 -2.703997,-0.9725892 0.339511,-0.1083546 0.457442,-0.2569389 -0.370361,-0.6869138 -0.113351,-0.3437568 -2.150812,-0.8694623 -2.873252,-1.3792894 0.905124,-0.2688147 -0.564761,-0.5375089 1.581803,-0.1635946 -0.986374,-0.4492751 1.578638,-0.06585 0.787795,-0.4143002 -0.465842,-0.4004238 1.37622,0.4119191 -0.0095,-0.3792393 1.872183,0.4245303 3.480992,0.4316753 5.3371,1.0518393 2.844144,0.6489771 5.607969,1.618842 8.389295,2.5439026 0.61151,0.1554776 1.3797864,0.3978411 2.0809391,0.6059277 -0.070937,-0.3136918 1.2005536,0.3609252 1.7367139,0.4887971 0.437769,0.09569 0.9585363,0.3186937 0.754641,0.1669365 -1.5286346,-0.9184877 -3.420517,-2.0779701 -4.397771,-2.8903698 -0.04302,-0.3059659 -1.494993,-1.0226499 -1.794104,-1.4247047 -1.264571,-0.9469759 -2.530959,-1.8375888 -3.728215,-2.8606689 0.27934,0.06045 -0.536436,-0.692063 -0.787124,-1.086202 0.522892,-0.05472 0.415056,-0.24606 -0.318159,-0.795173 -0.524333,-0.784111 -2.75977,-2.314819 -2.194463,-2.105781 0.35425,0.03911 0.522339,-0.04865 -0.05899,-0.778159 0.133005,-0.234534 -1.59844,-1.704141 -1.89348,-2.201812 0.116893,-0.493708 -0.02173,-0.684669 1.276626,0.256156 -0.715781,-0.846898 1.515796,0.638009 0.815865,-0.124699 -0.05467,-0.402919 1.186995,0.985395 0.282499,-0.272815 1.535529,1.149467 3.006957,1.812593 4.447781,3.131682 2.333518,1.750583 4.465164,3.758824 6.6292999,5.7361734 0.4953957,0.3907576 1.0986862,0.9246582 1.6545788,1.3999375 0.062806,-0.3154281 0.9499668,0.8180299 1.3877626,1.1529221 0.3610006,0.2654581 0.7460408,0.6810062 0.6214979,0.4594413 -1.022889,-1.4608321 -2.27959,-3.2895467 -2.8419626,-4.4292293 0.085083,-0.297035 -0.9497952,-1.542309 -1.0595819,-2.031287 -0.7673135,-1.380031 -1.5636457,-2.709235 -2.2423657,-4.129755 0.230584,0.168872 -0.208508,-0.850393 -0.277208,-1.312429 0.499873,0.16263 0.479157,-0.05603 0.03268,-0.855887 -0.04575,-0.784634 -1.908746,-3.752738 -1.023973,-2.660222 0.267832,0.09114 0.168017,-0.472879 0.25619,-0.738456 -0.204343,-0.975127 -0.815263,-2.182973 -1.015364,-3.210677 0.520314,-0.125612 0.565867,0.279421 1.095322,0.814427 0.131496,-0.289523 1.209182,1.404927 0.88597,0.407198 0.494736,0.873988 0.163662,-0.675266 1.1236364,1.287663 1.446727,1.835163 2.4839074,4.331004 3.6414159,6.533733 0.6451386,1.421777 1.5189423,3.517775 2.031694,4.561137 0.4496199,1.041724 0.6393927,1.368225 0.9662948,2.0254389 0.2532688,-0.084592 0.5772185,1.3523275 0.8981671,1.8544493 0.2029525,0.3312109 0.4234405,1.0897422 0.18377,-0.041298 -0.3067912,-1.5893935 -0.6558141,-3.5585876 -0.6960838,-4.6826726 0.1985502,-0.236785 -0.2403617,-1.795316 -0.1417761,-2.28667 -0.1396702,-1.572817 -0.3265261,-3.111002 -0.3687719,-4.684774 0.1419603,0.248067 0.1553489,-0.861696 0.280515,-1.311743 0.4322799,0.394532 0.4440504,0.06346 0.385071,-0.936214 0.2617348,-0.69949 -0.1761391,-3.607516 0.0894,-2.872185 0.2079707,0.289427 0.3857231,0.355646 0.538853,-0.564497 0.2919039,-0.21402 0.1622666,-2.314218 0.4239,-3.158844 0.53535518,0.777909 0.3366814,-0.703321 0.64439272,1.453832 0.12247654,-1.076927 0.55045017,1.481031 0.6374661,0.62122 0.23687119,-0.566787 0.0335139,1.436144 0.35774483,-0.126217 0.17480265,1.911782 0.66511026,3.443904 0.6488863,5.400867 0.26167605,2.905484 0.19334793,5.833741 0.17303971,8.764798 0.0410941,0.629616 0.0480125,1.435206 0.0667678,2.1663393 0.2764029,-0.1644103 0.027742,1.2533188 0.0718,1.80276 0.044289,0.4459047 -0.00688,1.0100995 0.074448,0.7692881 0.4011564,-1.7376428 0.9192718,-3.8952044 1.389922,-5.0757244 0.2776906,-0.135511 0.5106332,-1.737808 0.8005497,-2.146598 0.5121254,-1.493657 0.9670693,-2.974814 1.5685735,-4.429713 0.028796,0.284358 0.4923986,-0.724033 0.7897985,-1.084226 0.2343917,0.536281 0.3798213,0.23863 0.7325337,-0.698622 0.5570734,-0.536995 1.2776348,-3.365102 1.2499095,-2.587517 0.072279,0.348981 0.2077164,0.481807 0.7218703,-0.296514 0.3537218,-0.0768 1.0895056,-2.048153 1.6720655,-2.713332 0.172736,0.92827 0.593612,-0.505477 -0.0027,1.590241 0.549907,-0.934006 -0.099704,1.576864 0.329522,0.826782 0.446938,-0.421437 -0.5535132,1.325636 0.378157,0.03018 -0.617914,1.817557 -0.7931448,3.416824 -1.6039328,5.197939 -0.940952,2.761141 -2.1959497,5.408081 -3.4068891,8.077422 -0.2185456,0.591906 -0.5398891,1.3306475 -0.8201237,2.0062045 0.319396,-0.037764 -0.4844342,1.156245 -0.6676492,1.6761034 -0.1409122,0.4253663 -0.4171326,0.9199728 -0.2449012,0.7330576 1.0732449,-1.4242444 2.4241069,-3.1845465 3.3342314,-4.0715745 0.2670112,0.03027 1.1840892,-1.382246 1.5240279,-1.559164 1.1134397,-1.17182 2.1423167,-2.379915 3.3151247,-3.484996 -0.08937,0.271488 0.744269,-0.461107 1.16247,-0.669181 -4.04e-4,0.525591 0.201286,0.438454 0.823985,-0.233374 0.868319,-0.395978 2.567909,-2.548118 2.323589,-1.962326 -0.07592,0.348208 -0.0061,0.524604 0.780084,0.02271 0.21932,0.156782 1.86188,-1.411528 2.38766,-1.652945 0.478962,0.167837 0.683268,0.05001 -0.388092,1.242899 0.917071,-0.623334 -0.792992,1.44081 0.03866,0.824423 0.406432,-0.01229 -1.104062,1.077516 0.241791,0.30945 -1.303665,1.406951 -2.11695,2.801077 -3.579435,4.096093 -1.984947,2.137755 -4.205038,4.0477979 -6.3977399,5.9933835 -0.4403975,0.4518386 -1.0344368,0.9960151 -1.5652174,1.4991808 0.3071414,0.095397 -0.9128438,0.8592414 -1.2916639,1.2596348 -0.3017387,0.3312728 -0.7552607,0.6707679 -0.5218848,0.5700692 1.5597395,-0.8645794 3.5098043,-1.9232451 4.701978,-2.3634154 0.286568,0.1156669 1.633158,-0.7833765 2.130939,-0.8414458 1.452676,-0.6188538 2.857833,-1.2718845 4.341517,-1.7983986 -0.192065,0.2116701 0.867625,-0.1185402 1.334243,-0.138552 -0.24185,0.5330707 0.07671,0.4419595 1.009231,0.076942 0.819126,0.029715 3.280818,-1.263952 2.759234,-0.8025393 -0.210992,0.2872241 -0.219056,0.4767484 0.703384,0.3380343 0.293765,0.2114797 2.25111,-0.560824 3.135237,-0.572993 0.07032,0.5306222 -0.337021,0.5335381 -0.924519,1.0041969 0.27419,0.1610357 -1.523614,1.0557266 -0.497563,0.8385662 -0.817119,0.3609823 0.562042,0.3129303 -1.630287,1.0870021 -1.759408,1.1943298 -4.256796,1.8233175 -6.342898,2.7432879 -1.576999,0.5086566 -3.864695,1.207714 -5.051943,1.6349021 -1.083012,0.338268 -1.427563,0.4928768 -2.1153549,0.749288 0.057658,0.2607247 -1.4052616,0.4326814 -1.9381799,0.69941 -0.3506111,0.1672241 -1.1280321,0.3071984 0.021864,0.18707 1.6127552,-0.138985 3.6076489,-0.2802342 4.7298549,-0.2027958 0.21471,0.2222188 1.81058,-0.051402 2.288935,0.098022 1.578795,0.025501 3.128086,4.462e-4 4.69765,0.1229315 -0.261541,0.115257 0.840731,0.24456085 1.275264,0.41609637 -0.437688,0.38866949 -0.109665,0.43497334 0.890706,0.4808115 C 23.009528,-0.07826089 23.325701,0.02979038 25.092943,0 Z m 0.772434,0 c 0.0042,0.60519972 1.126476,0.85981386 0.843939,1.4955104 -0.407875,0.5220489 -1.335163,0.6496907 -1.61558,1.197155 0.07937,0.3581204 0.684512,0.7032763 -0.08138,0.78034 -6.146,0.011147 -12.431865,-1.4033135 -18.397163,-2.071189 2.6278846,1.0902409 5.718023,2.4096247 8.570393,3.4749732 3.460504,1.5239714 7.213355,2.638899 10.296219,4.8729945 0.665263,0.4950579 0.01802,0.8346659 -0.510843,0.8513839 -0.470414,0.414517 -1.617568,-0.505052 -1.374026,0.365202 0.448059,0.485473 0.555988,1.53686 -0.3673,1.37902 -0.620167,0.17007 -1.905024,-0.02073 -1.276176,0.983977 -1.720051,-0.0038 -3.235612,-1.499461 -4.789605,-2.163828 C 13.211968,8.924809 9.2684469,6.2404541 5.4729922,3.9714203 7.4302405,6.036255 9.7165853,8.4984492 11.889038,10.631856 c 2.541474,2.799729 5.516382,5.34469 7.424039,8.639547 0.406378,0.722827 -0.323165,0.769807 -0.81301,0.569906 -0.537616,0.144708 -1.027346,-0.736881 -1.323374,-0.475758 -0.138428,0.484024 0.157052,1.517521 -0.5822,1.489071 -0.608823,-0.04189 -1.260023,-0.559577 -1.8045,-0.404295 -0.213005,0.298608 -0.06456,0.979182 -0.634312,0.46162 C 10.045739,16.320762 6.8877681,10.789838 3.3883225,5.8436719 4.2884704,8.4355986 5.352563,11.515576 6.4279713,14.258302 c 1.2238598,3.686339 2.9516002,7.315635 3.3772821,11.2025 0.077222,0.825665 -0.6083028,0.571735 -0.974496,0.18994 C 8.20791,25.57853 8.1238099,24.110699 7.6399658,24.873961 7.5790223,25.53177 6.8699538,26.315612 6.3694248,25.523841 5.8280959,25.176799 5.1101339,24.094118 4.7844058,25.233871 3.6361326,23.953221 3.7336756,21.826004 3.1875258,20.226656 2.2040132,15.801663 1.5706638,11.048723 0.7110893,6.7248451 0.48625703,9.5609779 0.18637553,12.907621 0.05459064,15.949583 c -0.38002916,3.762067 -0.28069218,7.675771 -1.45278654,11.298121 -0.2652856,0.785667 -0.7882773,0.274859 -0.967492,-0.22291 -0.5396293,-0.319287 -0.019444,-1.694469 -0.771908,-1.193919 -0.3232579,0.576107 -1.2898036,1.003844 -1.425,0.07685 -0.3533577,-0.537268 -0.5689266,-1.818219 -1.330083,-0.909418 -0.5280996,-1.636979 0.42622,-3.540615 0.577803,-5.223832 0.9013142,-4.442452 2.2559385,-9.04212 3.2293367,-13.3417666 -1.3589707,2.4995045 -2.9941117,5.4348396 -4.3517878,8.1602156 -1.8773365,3.282256 -3.3784599,6.897983 -5.922537,9.730459 -0.561915,0.60982 -0.831924,-0.0696 -0.79317,-0.59719 -0.303786,-0.466551 0.383171,-1.204819 0.04342,-1.405572 -0.503113,0.01766 -1.394784,0.618183 -1.59607,-0.09368 -0.148113,-0.591993 0.142897,-1.371447 -0.173217,-1.84114 -0.349821,-0.110539 -0.951218,0.24107 -0.63496,-0.460743 C -12.411704,14.60697 -8.1519913,9.8865858 -4.512448,5.0432665 -5.9467827,6.1000857 -7.7809192,7.5112672 -9.3659231,8.7495356 -13.15604,11.651771 -16.74251,14.964246 -21.014154,17.141862 c -0.660702,0.38925 -1.107268,-0.155709 -0.64705,-0.73599 -0.09599,-0.573998 0.675821,-0.973671 0.646851,-1.336534 -0.478657,-0.210382 -1.558923,0.0053 -1.460353,-0.74541 0.105478,-0.601083 0.688554,-1.194606 0.59082,-1.75238 -0.274633,-0.243079 -0.96718,-0.166693 -0.39285,-0.6792 4.987607,-3.6096402 10.835814,-6.1671185 16.11123,-9.1333067 -2.6718115,0.6242555 -5.846155,1.3606108 -8.686265,2.1434234 -3.794077,0.8318236 -7.584097,2.1707542 -11.494168,2.1877974 -0.829213,-0.00951 -0.504978,-0.6647559 -0.08699,-0.989018 0.136956,-0.6118939 1.605474,-0.5420901 0.896991,-1.1030783 -0.647887,-0.1293653 -1.353209,-0.9165087 -0.51338,-1.331505 0.401821,-0.5020843 1.553341,-1.1029601 0.453874,-1.546037 1.393537,-1.0081266 3.499035,-0.6887523 5.14666,-1.064737 4.503562,-0.51558832 9.296654,-0.64864931 13.6867085,-1.05154701 -2.7971306,-0.52005767 -6.0940755,-1.16811479 -9.1056125,-1.61715099 -3.701733,-0.7711961 -7.604383,-1.0814893 -11.084372,-2.625803 -0.75362,-0.3459436 -0.191098,-0.8127175 0.32274,-0.938894 0.373964,-0.5032924 1.687146,0.1577788 1.268154,-0.642879 -0.539223,-0.3816843 -0.863418,-1.3876604 0.07249,-1.425226 0.571256,-0.2952727 1.867771,-0.3757315 1.04353,-1.227727 1.683213,-0.3541194 3.47667,0.7939745 5.134822,1.1206662 4.32391,1.3607511 8.756758,3.1887172 12.9311263,4.606251 -2.3437739,-1.6127854 -5.0920913,-3.5458081 -7.6606263,-5.1809245 -3.068028,-2.2101545 -6.507083,-4.0809665 -9.058067,-6.9072235 -0.547753,-0.622547 0.156008,-0.82016 0.67673,-0.726369 0.495706,-0.253413 1.158264,0.50702 1.393297,0.190142 0.03489,-0.502318 -0.468945,-1.451665 0.260146,-1.57765 0.604227,-0.08563 1.348981,0.28566 1.84915,0.02035 0.146083,-0.336323 -0.14035,-0.971342 0.52447,-0.58343 4.97271,3.639862 9.2142643,8.3880783 13.6649484,12.5003404 -1.4193554,-2.3481356 -3.1005731,-5.1395684 -4.7227197,-7.5987684 -1.9635497,-3.351332 -4.4081117,-6.542105 -5.6326137,-10.255532 -0.247256,-0.791498 0.476114,-0.685775 0.913681,-0.38836 0.555911,-0.02985 0.851801,0.934386 1.195514,0.740446 0.236242,-0.444608 0.161903,-1.516922 0.879197,-1.33554 0.586777,0.167742 1.116116,0.809522 1.68105,0.77075 0.2704482,-0.247694 0.2666854,-0.944437 0.716414,-0.31972 3.0786027,5.331478 4.9997828,11.426519 7.3992062,16.9776655 -0.3415538,-2.7224211 -0.7420752,-5.9563425 -1.223718,-8.8627185 -0.430684,-3.860238 -1.3660963,-7.769444 -0.974348,-11.659877 0.096131,-0.823711 0.7139034,-0.432654 0.99269,0.01688 0.594228,0.20016 0.371314,1.653329 1.003274,1.007277 0.196383,-0.630756 1.0529045,-1.250042 1.37788072,-0.371509 0.45731811,0.452069 0.93453942,1.660187 1.49011511,0.61309 0.85691657,1.491433 0.31923667,3.551862 0.52093367,5.229824 0.042007,4.53277 -0.32667069,9.313558 -0.38486507,13.7216354 0.80959047,-2.7274388 1.79871717,-5.9385854 2.56008547,-8.8866834 1.1539022,-3.600844 1.8704354,-7.449681 3.7700531,-10.749177 0.4228405,-0.713388 0.828199,-0.10505 0.900012,0.41914 0.4614681,0.424472 -0.3332888,1.661521 0.5068166,1.328333 0.4359603,-0.496382 1.4703237,-0.713379 1.40984,0.221294 0.2339062,0.599008 0.1785052,1.896807 1.1119412,1.166144 0.176366,1.710992 -1.1530432,3.374633 -1.651219,4.98955 -1.7705092,4.111051 -4.1720274,8.5076705 -5.9064693,12.3502633 1.8356697,-2.1524852 4.043677,-4.6760473 5.9270733,-7.0485413 2.51873,-2.820206 4.738796,-6.044823 7.816184,-8.28645 0.676555,-0.479686 0.799124,0.240866 0.65174,0.74896 0.199993,0.519511 -0.625584,1.098853 -0.334917,1.36581 0.495789,0.08718 1.492891,-0.314711 1.54169,0.423458 0.02167,0.609858 -0.425335,1.31168 -0.213599,1.83691 0.319162,0.180647 0.980668,-0.03794 0.52546,0.58273 -4.139705,4.564997 -9.305284,8.2870112 -13.860235,12.283442 2.4836314,-1.1661049 5.435525,-2.5463545 8.050811,-3.9025516 3.538217,-1.6025218 6.967038,-3.7000584 10.788119,-4.5297954 0.813046,-0.1632 0.632219,0.545168 0.29079,0.94924 -0.02854,0.55597 -1.018183,0.749451 -0.861441,1.111541 0.417497,0.28137 1.491737,0.319634 1.23628,1.0139537 -0.228098,0.5660227 -0.921854,1.0253633 -0.94221,1.591261 0.217976,0.2948958 0.911331,0.3640644 0.24295,0.745983 -5.610116,2.5099928 -11.927852,3.7745063 -17.6490763,5.5906796 2.8441425,-0.072896 6.2037683,-0.1244418 9.2428603,-0.3113753 3.78118,-0.015286 7.663061,-0.5231972 11.388083,0.2638408 0.809139,0.1816944 0.355717,0.755241 -0.12058,0.98549111 C 26.77105,-0.19752326 26.365339,0.12381794 25.865377,0 Z M 12.049359,0 c 0.248234,0.4130308 1.788731,0.16664014 1.73327,0.70299633 -0.40142,0.12855645 -0.450552,0.35531677 0.109663,0.40447757 4.449812,1.3849365 9.207547,1.7035553 13.606251,3.269786 0.984689,0.7005907 1.908562,1.469271 3.147412,1.759469 0.456297,0.3515438 1.390478,0.6521862 1.538031,1.102436 -1.55859,0.4904528 -3.168798,0.8205348 -4.821527,0.508873 C 24.265087,7.4817846 21.166405,7.1377743 18.119517,6.4974136 16.985564,6.2340383 15.937165,6.7386482 14.840044,6.1267431 13.541316,5.7837653 12.104278,5.4389345 10.968337,4.9489709 c 0.286237,0.4583893 1.558098,0.849809 1.336795,1.299175 -0.419047,-0.045831 -0.555955,0.1414096 -0.06424,0.4141374 3.501807,3.0750905 7.718614,5.3013127 11.099982,8.5212477 0.61465,1.040538 1.146034,2.118539 2.159732,2.887542 0.273854,0.506741 1.005038,1.161346 0.956634,1.632694 C 24.833892,19.518069 23.228651,19.16451 21.845581,18.207614 19.124292,16.704538 16.43342,15.129932 13.910401,13.30565 12.981586,12.60381 11.818544,12.638508 11.065159,11.633199 10.017802,10.787775 8.8321787,9.888636 8.0072419,8.9825093 c 0.074909,0.5351622 1.0777255,1.4100427 0.692716,1.7306177 -0.3641554,-0.212243 -0.5654832,-0.09688 -0.227182,0.35225 1.9482861,4.233558 4.8950711,7.982435 6.6744211,12.299323 0.138414,1.200562 0.185293,2.401491 0.798607,3.516319 0.0441,0.574365 0.445703,1.469646 0.20989,1.880715 C 14.748323,27.931641 13.425593,26.955889 12.551311,25.519137 10.676637,23.03917 8.8588373,20.506226 7.2959636,17.813446 6.7329179,16.794531 5.6563943,16.353071 5.3770186,15.128305 4.7615818,13.967924 4.0438237,12.523795 3.6436527,11.505354 c -0.096114,0.513584 0.4140652,1.695433 -0.053087,1.820354 -0.2463202,-0.342043 -0.4771304,-0.318818 -0.3507854,0.22922 0.057927,4.659988 1.2251176,9.283319 1.094818,13.950722 -0.3620088,1.152991 -0.8075862,2.269169 -0.700752,3.537059 -0.1933259,0.542609 -0.1905877,1.523952 -0.573199,1.803443 -0.948067,-1.330757 -1.7595843,-2.760151 -1.973893,-4.428302 -0.70390705,-3.028055 -1.3342911,-6.081378 -1.66680791,-9.177025 -0.0999348,-1.159836 -0.90382719,-2.00103 -0.66089709,-3.233534 -0.090261,-1.310383 -0.1585867,-2.92159 -0.1099332,-4.014767 -0.2967003,0.430054 -0.3113479,1.717416 -0.788881,1.641277 -0.085897,-0.412752 -0.306262,-0.485202 -0.413721,0.06677 -1.8424951,4.280654 -2.6566666,8.979024 -4.6741096,13.189906 -0.7996702,0.906073 -1.6607339,1.744512 -2.0788275,2.946252 -0.3973091,0.417069 -0.7939539,1.314648 -1.2571679,1.41438 -0.324706,-1.601312 -0.484748,-3.237207 -0.002,-4.848298 0.588581,-3.052575 1.2545951,-6.09833 2.2099409,-9.061596 0.3804404,-1.100222 -0.011801,-2.19558 0.7114282,-3.222744 0.4738883,-1.259681 0.9829062,-2.647778 1.5760253,-3.727319 -0.4858062,0.236581 -1.008025,1.460619 -1.431778,1.193597 0.089377,-0.411914 -0.082499,-0.56773 -0.405146,-0.1072 -3.4243224,3.161133 -6.0790834,7.122173 -9.6348324,10.148427 -1.099092,0.502485 -2.226737,0.918125 -3.097479,1.84596 -0.532594,0.219396 -1.26003,0.878088 -1.723744,0.78076 0.354573,-1.595009 0.873745,-3.154531 1.970054,-4.429999 1.779283,-2.54927 3.626539,-5.060809 5.704558,-7.379311 0.795121,-0.850321 0.882159,-2.010602 1.960691,-2.6547667 0.944501,-0.959804 1.979894,-2.0195966 2.9558466,-2.7640898 -0.5400406,0.018551 -1.5150426,0.9244281 -1.7934946,0.50804 0.249269,-0.3399875 0.155744,-0.5522206 -0.32638,-0.262737 -4.414024,1.4950721 -8.450387,4.0338565 -12.929621,5.3522345 -1.208442,0.01202 -2.407677,-0.06709 -3.580516,0.42643 -0.575771,-0.0162 -1.508298,0.289529 -1.892273,0.0121 0.972634,-1.312924 2.081316,-2.526418 3.601602,-3.2457332 2.662338,-1.6051768 5.371424,-3.1482417 8.212814,-4.4210872 1.072181,-0.4534654 1.623794,-1.4779269 2.871044,-1.627759 1.21836,-0.4907694 2.72957,-1.0536498 3.78429,-1.3451748 -0.500761,-0.1492791 -1.729418,0.2345562 -1.804834,-0.2430763 0.365954,-0.2092262 0.366681,-0.4412045 -0.191437,-0.372823 -4.640516,-0.4294497 -9.360521,0.2480503 -13.988736,-0.3694045 -1.108829,-0.48055464 -2.172322,-1.04035258 -3.444436,-1.06663557 -0.519419,-0.24898367 -1.495681,-0.34884132 -1.733628,-0.75856986 1.422556,-0.80377997 2.928937,-1.46143797 4.610346,-1.50019947 3.085048,-0.383538 6.187542,-0.6912938 9.300991,-0.6984047 1.163919,0.021854 2.084546,-0.6897136 3.284893,-0.3192791 1.312633,0.047214 2.922169,0.1476707 4.00422,0.3103358 -0.396676,-0.3400352 -1.675376,-0.4891451 -1.549843,-0.956134 0.419351,-0.042294 0.514385,-0.253924 -0.02329,-0.4184464 -4.064624,-2.2798379 -8.652146,-3.5806802 -12.629086,-6.0272256 -0.817522,-0.8900071 -1.561379,-1.8339841 -2.712833,-2.3754101 -0.373248,-0.438728 -1.224509,-0.927029 -1.275246,-1.39811 1.626522,-0.155454 3.27013,-0.14408 4.821979,0.504587 2.974316,0.904479 5.933773,1.885183 8.780944,3.145041 1.054425,0.4933777 2.184778,0.2177597 3.130719,1.0444026 1.200219,0.6076429 2.542832,1.2430812 3.5421966,1.9570036 -0.1845063,-0.507867 -1.3474466,-1.155244 -1.0372816,-1.548712 0.400398,0.131934 0.573386,-0.022661 0.14908,-0.3917142 -2.78593,-3.735966 -6.447727,-6.790263 -9.085755,-10.642854 -0.384835,-1.145581 -0.680476,-2.310486 -1.512144,-3.273443 -0.162536,-0.55263 -0.741573,-1.344895 -0.59631,-1.795961 1.549217,0.519306 3.045926,1.198691 4.19982,2.422301 2.349326,2.036001 4.654014,4.135674 6.742604,6.44466 0.762572,0.879623 1.907381,1.087504 2.4352827,2.227456 0.8471735,1.044559 1.8194415,2.165716 2.4399775,3.228557 0.03799,-0.538983 -0.7610078,-1.603393 -0.317779,-1.836649 0.3120544,0.283408 0.5329529,0.212642 0.2954392,-0.297138 -1.025503,-4.546115 -3.1284502,-8.82574 -3.9714004,-13.418241 0.1144,-1.203063 0.3181491,-2.387494 -0.049958,-3.60547 0.076305,-0.570976 -0.130451,-1.530199 0.1857033,-1.883243 1.204045,1.104537 2.294999,2.333971 2.851453,3.921104 1.3180937,2.815535 2.5695252,5.671071 3.538398,8.629936 0.3388961,1.113733 1.3001075,1.769322 1.318737,3.025434 0.3607277,1.262952 0.7625629,2.824859 0.9422381,3.904108 0.20078209,-0.482417 -0.052496,-1.744442 0.43038969,-1.769576 0.1698163,0.385766 0.40046786,0.410685 0.3907948,-0.151495 0.9122205,-4.570192 0.7317697,-9.335166 1.82963051,-13.873481 0.593826,-1.052531 1.2617219,-2.051693 1.420837,-3.314095 0.301912,-0.490552 0.5032803,-1.451025 0.93563,-1.644849 0.6506859,1.498786 1.1472634,3.065669 1.01007,4.741922 0.058982,3.108239 0.04074,6.225908 -0.2776147,9.323046 -0.1433763,1.155293 0.4680721,2.145142 -0.025814,3.300248 -0.18416,1.300532 -0.4523113,2.890663 -0.7271946,3.949929 0.3796696,-0.358931 0.6615412,-1.615021 1.112911,-1.441429 -0.00177,0.421564 0.1987358,0.538252 0.4185836,0.0207 2.6922115,-3.804055 4.465467,-8.230463 7.3143029,-11.929892 0.970577,-0.719983 1.987123,-1.361099 2.645942,-2.449645 0.475338,-0.325351 1.049928,-1.120851 1.523766,-1.122082 -0.01512,1.633865 -0.198987,3.267255 -1.006022,4.742798 -1.210387,2.86349 -2.495081,5.704217 -4.045647,8.404096 -0.600877,0.997064 -0.444932,2.150163 -1.365928,3.004463 -0.7249206,1.135579 -1.5175221,2.3888522 -2.3165374,3.3182404 0.5243796,-0.1304458 1.2897028,-1.2192184 1.6486597,-0.8698173 -0.1730705,0.3843521 -0.037358,0.5725169 0.3739977,0.189119 4.006706,-2.3801471 7.427022,-5.7026411 11.534263,-7.9234821 1.179536,-0.262909 2.368961,-0.435426 3.413576,-1.161773 0.566572,-0.103902 1.415063,-0.596904 1.848424,-0.40533 -0.678437,1.486419 -1.510575,2.903904 -2.848072,3.923573 -2.270417,2.123638 -4.599508,4.196205 -7.114156,6.0320037 -0.954453,0.6664808 -1.281066,1.7832308 -2.469894,2.1891081 -1.121873,0.7406981 -2.348624,1.5609891 -3.465898,2.0891331 0.532125,0.09411 1.674093,-0.5892303 1.859946,-0.124056 -0.314516,0.2807626 -0.266981,0.5078021 0.264733,0.324879 4.628404,-0.5447132 9.104402,-2.1887807 13.759855,-2.5470636 1.184518,0.2394983 2.34116,0.5659722 3.590943,0.327189 0.559837,0.1355588 1.535514,0.030254 1.85346,0.381556 -1.22434,1.0819966 -2.56108,2.038458 -4.19768,2.425965 -2.937893,1.016569 -5.9086,1.9626612 -8.952535,2.616937 -1.143002,0.2206255 -1.895641,1.10804765 -3.146739,0.99526897 C 14.715174,-0.27165091 13.409403,0.11324304 12.049359,0 Z m 3.649693,0 c 0.186781,0.30928294 0.55852,0.65448262 0.142572,0.92650287 0.248635,0.52820463 1.409608,0.67093973 1.998666,1.03269063 5.795178,2.1626813 12.170626,2.6254647 17.753476,5.3986307 0.761623,1.0688293 -1.287011,0.8618263 -1.931704,1.09802 C 28.617422,9.497005 23.501889,7.6748071 18.58508,6.6382081 17.250911,6.3062211 15.493221,5.7936724 14.300124,6.4521918 c 0.181754,0.3131239 0.233729,0.7725194 -0.18575,0.8030945 -0.119435,0.5346917 0.899682,1.1142202 1.239949,1.628636 3.877763,3.9310887 8.81478,6.6718727 12.658533,10.6553047 0.469551,0.653442 1.822257,1.366597 1.475048,2.251139 -1.20981,0.09384 -2.500288,-0.564765 -3.748664,-0.767791 -5.211055,-1.923945 -9.17265,-6.047056 -13.775136,-8.995173 -0.4881,-0.158369 -1.228601,-0.504744 -1.549536,-0.22698 0.10187,0.352081 -0.148859,0.692279 -0.471467,0.568513 -0.326547,0.439972 0.368709,1.383863 0.470346,1.99224 1.94358,5.168465 5.338999,9.680356 7.230229,14.8828 0.163151,0.787914 1.108922,1.989665 0.431937,2.65648 C 16.932282,31.493901 16.02115,30.367669 14.96332,29.67433 10.985324,25.797189 9.0432594,20.419215 6.0377681,15.85399 5.6562271,15.51087 5.1206815,14.892847 4.7145321,15.016524 c -0.050194,0.362818 -0.4175259,0.572093 -0.661884,0.32756 -0.477256,0.268947 -0.2259887,1.414172 -0.3806017,2.011227 -0.3266497,5.512157 0.9400675,11.015027 0.5517801,16.536935 -0.1714489,0.786133 0.2037752,2.268694 -0.685924,2.602456 C 2.6587443,35.658278 2.284485,34.258817 1.6001135,33.195159 -0.45700884,28.035226 -0.04373147,22.332286 -0.93254974,16.939304 -1.1415122,16.470578 -1.3794723,15.688435 -1.8006643,15.635756 c -0.1934706,0.311138 -0.6140645,0.352859 -0.737873,0.03003 -0.545451,0.05157 -0.7816633,1.19996 -1.165759,1.6825 -2.5403936,4.90275 -3.6214195,10.445079 -6.2221016,15.331658 -0.4763641,0.64853 -0.7365991,2.155284 -1.6851411,2.098564 -0.462875,-1.121653 -0.235621,-2.552385 -0.428032,-3.802445 0.219468,-5.550535 2.9166007,-10.592343 4.2981531,-15.880594 -2.849e-4,-0.513157 0.1004902,-1.324529 -0.2629157,-1.543861 -0.3032769,0.205423 -0.704481,0.07249 -0.686295,-0.272729 -0.5192643,-0.174662 -1.2021463,0.778307 -1.7493154,1.06292 -4.314479,3.446035 -7.555703,8.070151 -11.920116,11.475397 -0.698939,0.398655 -1.549579,1.669407 -2.39299,1.231732 0.03327,-1.212958 0.822882,-2.427561 1.155382,-3.647847 2.458054,-4.981425 6.972728,-8.490299 10.385755,-12.759426 0.208349,-0.468913 0.630436,-1.1691368 0.387818,-1.5173298 -0.36063,0.064429 -0.672994,-0.2203275 -0.515903,-0.528268 -0.403241,-0.3707763 -1.414781,0.2220392 -2.030383,0.2595132 -5.343305,1.3926906 -10.185401,4.2978716 -15.557026,5.6349506 -0.800669,0.07987 -2.094668,0.894862 -2.687121,0.15185 0.523784,-1.094599 1.739118,-1.882982 2.539209,-2.862552 4.271693,-3.5509603 9.823233,-4.9202103 14.677604,-7.4320511 0.381198,-0.3435582 1.051557,-0.8116039 0.971267,-1.228417 -0.355756,-0.087839 -0.52535,-0.4750272 -0.25663,-0.692481 -0.217845,-0.5027819 -1.382836,-0.3725861 -1.960541,-0.588763 -5.44781,-0.90104533 -11.052929,-0.2164796 -16.503991,-1.17983913 -0.763933,-0.25266728 -2.277536,-0.0344898 -2.51654,-0.95419547 0.923606,-0.7869317 2.35461,-1.0128367 3.483942,-1.5822785 5.346697,-1.5064887 10.975197,-0.4993858 16.431548,-0.8195793 0.487897,-0.1588308 1.290868,-0.3136801 1.386997,-0.727111 -0.289205,-0.2249523 -0.287019,-0.6475912 0.04707,-0.736959 0.0056,-0.5478625 -1.111698,-0.902818 -1.5515,-1.335248 -4.610333,-3.0389681 -10.009309,-4.6933825 -14.597264,-7.7906085 -0.595076,-0.541544 -2.066631,-0.957848 -1.910854,-1.895252 1.16389,-0.343271 2.563028,0.03244 3.826356,-0.02838 5.497194,0.798423 10.229449,4.007791 15.344306,5.9345627 0.510409,0.053358 1.306703,0.2383972 1.562948,-0.1000834 -0.172617,-0.3230374 0.0014,-0.7082703 0.342878,-0.6539773 0.227905,-0.498133 -0.648392,-1.276898 -0.87428,-1.85081 -2.975728,-4.651408 -7.235002,-8.358777 -10.166566,-13.054322 -0.323421,-0.736784 -1.498297,-1.715591 -0.974787,-2.508626 1.202873,0.159797 2.328266,1.072109 3.507134,1.53033 4.697171,2.96534 7.714936,7.822024 11.6039153,11.662607 0.4445281,0.256353 1.0968356,0.749232 1.468476,0.544245 -0.026385,-0.365548 0.289464,-0.646413 0.5793168,-0.45802 0.4108763,-0.362364 -0.072914,-1.430245 -0.045852,-2.046413 -0.8265274,-5.459616 -3.2096866,-10.578859 -3.9779246,-16.060831 0.0042,-0.804532 -0.671004,-2.176867 0.12984,-2.688128 1.033832,0.635157 1.6908804,1.926381 2.581444,2.824458 3.0849848,4.619472 3.866443,10.283717 5.857102,15.37405 0.301857,0.414957 0.6972391,1.130643 1.120149,1.094592 0.1245558,-0.344493 0.52733374,-0.472779 0.71550996,-0.18283 0.5227776,-0.164101 0.51508996,-1.336274 0.79046235,-1.888209 1.46555439,-5.323776 1.37062759,-10.969746 2.89850139,-16.290244 0.3311408,-0.733338 0.2723588,-2.261445 1.212017,-2.403013 0.6860721,1.000824 0.7611543,2.447604 1.209436,3.63028 0.9393425,5.474875 -0.6506028,10.967267 -0.9024762,16.427192 0.1069292,0.501921 0.177081,1.316416 0.578139,1.45546 0.2539285,-0.264111 0.674022,-0.217334 0.727984,0.124121 0.5442566,0.06296 1.0140655,-1.011214 1.490109,-1.40335 3.5042165,-4.267435 5.7139335,-9.463893 9.2737615,-13.702976 0.600775,-0.535207 1.168653,-1.955225 2.084619,-1.702243 0.219499,1.193389 -0.300228,2.545585 -0.371662,3.808343 -1.36874,5.383607 -5.055164,9.754469 -7.506006,14.639921 -0.106488,0.50197 -0.37365,1.274657 -0.06402,1.56482 0.339394,-0.138011 0.704313,0.07574 0.614858,0.409545 0.471394,0.27887 1.337715,-0.511311 1.93201,-0.67596 4.936981,-2.473215 9.069251,-6.321638 14.045509,-8.746321 0.7666,-0.244653 1.862749,-1.310757 2.596823,-0.707206 -0.284624,1.179552 -1.30961,2.203423 -1.888528,3.327924 -3.440038,4.361507 -8.585592,6.855048 -12.81163,10.321281 -0.301429,0.4152979 -0.859811,1.0125121 -0.694823,1.403547 0.366104,0.011977 0.612626,0.3554551 0.394986,0.6240272 0.317464,0.4465272 1.43004,0.076975 2.04001,0.1683197 5.516107,-0.251336 10.856418,-2.0862991 16.388665,-2.2773375 0.799755,0.088316 2.234962,-0.4397936 2.659912,0.410126 -0.739884,0.9617694 -2.092601,1.4802763 -3.078901,2.272069 -4.916637,2.5852142 -10.631535,2.7703171 -15.902062,4.2179885 C 16.467656,-0.62346596 16.025027,-0.30521398 15.699052,0 Z m 1.593912,0 c 1.235588,1.8501075 3.98589,2.0239174 6.03719,2.8265758 4.482771,1.9065783 9.431124,2.8201555 13.778813,4.9889015 0.144198,0.5424495 -0.963984,0.6031631 -1.393552,0.591965 -0.616079,0.2381389 -1.711249,-0.0059 -2.055902,0.4940284 -1.402151,0.3393881 -3.373564,-0.070274 -4.982968,-0.20067 -3.707787,-0.5087698 -7.35529,-1.3591063 -11.036524,-2.001608 -0.669294,0.091734 -1.47717,-0.023329 -2.05427,0.2168775 0.49362,0.5021958 0.459897,1.3868932 1.063508,1.9321068 1.633357,1.745726 3.639701,3.163501 5.235083,4.965815 2.94716,2.786211 6.272406,5.302662 8.837424,8.419355 -0.08887,0.554185 -1.125953,0.158908 -1.513817,-0.02604 -0.659612,-0.03289 -1.561034,-0.701468 -2.078983,-0.384808 -1.418969,-0.260331 -3.053325,-1.43642 -4.470546,-2.21015 -3.180299,-1.972873 -6.166595,-4.233273 -9.268241,-6.317518 -0.648726,-0.188521 -1.339996,-0.622156 -1.96486,-0.63736 0.246455,0.65948 -0.144137,1.454043 0.185355,2.197651 0.782119,2.259205 2.038337,4.370402 2.762738,6.665815 1.559112,3.744057 3.573309,7.395441 4.648962,11.285984 C 18.715797,33.277054 17.92913,32.494165 17.650037,32.167432 17.06086,31.868987 16.509311,30.891704 15.90729,30.970236 14.71687,30.155333 13.702157,28.416169 12.722164,27.132897 10.619258,24.03704 8.8105161,20.757436 6.8247649,17.591824 6.3087276,17.15583 5.8536807,16.478399 5.2890119,16.210324 5.2460424,16.91305 4.5660056,17.479989 4.5647739,18.29341 4.3603967,20.675415 4.6492361,23.11504 4.3773777,25.506646 4.2788466,29.561157 4.6337548,33.716121 4.0339511,37.707793 3.5626108,38.012547 3.1624306,36.977337 3.0403381,36.565341 2.6234924,36.053053 2.5171131,34.935912 1.9352031,34.762817 1.1791448,33.534182 0.95955163,31.532649 0.5862287,29.961725 -0.0756724,26.278193 -0.3940973,22.546444 -0.92060512,18.846841 -1.214684,18.23867 -1.3549025,17.434671 -1.761688,16.960171 c -0.3251287,0.624557 -1.1769264,0.865795 -1.508911,1.608411 -1.1555068,2.092965 -1.8839556,4.439141 -3.105036,6.513422 -1.7391279,3.663908 -3.1048623,7.60402 -5.276372,11.006634 -0.554567,0.08673 -0.498995,-1.021758 -0.443001,-1.44779 -0.172455,-0.637582 0.184735,-1.701289 -0.276404,-2.096265 -0.190928,-1.429949 0.422513,-3.34774 0.720452,-4.934699 0.893527,-3.634302 2.1205219,-7.172937 3.144277,-10.766846 -0.021295,-0.675232 0.1775974,-1.466584 -9.842e-4,-2.06569 -0.5510387,0.438433 -1.4273603,0.312462 -2.0326738,0.855919 -1.90689,1.441997 -3.526638,3.289064 -5.48582,4.687362 -3.079188,2.63932 -5.929568,5.683009 -9.297004,7.908929 -0.541949,-0.146299 -0.04036,-1.136359 0.184104,-1.502764 0.101649,-0.652572 0.860782,-1.479123 0.599941,-2.027419 0.407194,-1.383919 1.747596,-2.88645 2.665236,-4.215018 2.294507,-2.956659 4.854668,-5.690336 7.251724,-8.557124 0.255222,-0.625505 0.758732,-1.267681 0.839279,-1.8875 -0.681644,0.17621 -1.430945,-0.2953637 -2.204955,-0.045185 -2.328552,0.541802 -4.559526,1.57032 -6.918074,2.050824 -3.886518,1.159285 -7.728442,2.780757 -11.710109,3.443802 -0.435545,-0.354065 0.425377,-1.054558 0.779456,-1.297993 0.358425,-0.554741 1.387936,-1.001118 1.37285,-1.608049 0.934854,-1.098733 2.770575,-1.926089 4.149254,-2.7665803 3.298714,-1.7677786 6.749419,-3.2237987 10.105259,-4.8677742 0.487553,-0.4676276 1.20877,-0.8494148 1.53446,-1.382938 -0.694391,-0.1162107 -1.187266,-0.8517484 -1.996089,-0.93802 -2.3476,-0.4521936 -4.804051,-0.4199654 -7.154143,-0.940302 -4.022005,-0.5217992 -8.191309,-0.6031282 -12.098422,-1.61689214 -0.253741,-0.50061376 0.817466,-0.79039732 1.240006,-0.86875606 0.553088,-0.3610163 1.675116,-0.3500398 1.908248,-0.9106672 1.300941,-0.6234902 3.314451,-0.6326616 4.915793,-0.839733 3.732544,-0.2732259 7.477136,-0.1998649 11.211512,-0.3367366 0.635586,-0.2289043 1.449802,-0.284302 1.96427,-0.639251 -0.587154,-0.3886203 -0.738105,-1.261003 -1.441976,-1.668781 -1.960715,-1.3679466 -4.217902,-2.3376464 -6.153177,-3.7688637 -3.462047,-2.1125798 -7.237818,-3.8826748 -10.394803,-6.3979618 -0.02832,-0.560595 1.068302,-0.389322 1.486139,-0.289167 0.652069,-0.104843 1.672772,0.361468 2.113607,-0.05582 1.442056,-0.04035 3.28523,0.770189 4.832345,1.232364 3.520994,1.268546 6.911989,2.85866 10.379199,4.252534 0.673724,0.04941 1.440056,0.3301431 2.054451,0.215094 -0.378334,-0.593877 -0.161679,-1.452149 -0.638684,-2.110977 -1.234944,-2.047165 -2.902433,-3.851137 -4.088323,-5.945754 -2.303446,-3.33808 -5.032909,-6.490906 -6.893792,-10.072788 0.202245,-0.523614 1.134395,0.0786 1.47536,0.340163 0.638354,0.169465 1.381042,1.0107 1.953571,0.808766 1.333846,0.549578 2.687962,2.039802 3.913348,3.091268 2.700622,2.590992 5.151702,5.422882 7.752238,8.106458 0.595414,0.31916 1.1813649,0.887028 1.7894201,1.03197 -0.1041052,-0.696409 0.4431667,-1.392315 0.2752768,-2.188252 -0.2953882,-2.372439 -1.0851194,-4.69871 -1.3164525,-7.094576 -0.7466034,-3.986396 -1.9576564,-7.976765 -2.2008054,-12.005923 0.397644,-0.396216 1.004327,0.53325 1.209408,0.910825 0.514263,0.414414 0.8505663,1.485001 1.4557634,1.533373 0.9949829,1.044584 1.6259232,2.956729 2.3176989,4.415704 1.4132885,3.465424 2.5006272,7.049426 3.7848233,10.558718 0.4141124,0.533762 0.71839,1.290922 1.214968,1.6706 0.1881348,-0.678599 0.97119381,-1.091746 1.14152028,-1.887114 0.69510891,-2.287469 0.91983627,-4.733834 1.68296922,-7.016662 0.9393493,-3.94543 1.4560492,-8.083384 2.872658,-11.863134 0.5243993,-0.200304 0.700623,0.895599 0.734384,1.323933 0.3012288,0.587746 0.1730216,1.702609 0.706216,1.992881 0.4840885,1.358981 0.2827452,3.362424 0.321291,4.976635 -0.1184271,3.740657 -0.5828091,7.457068 -0.8370199,11.185293 0.1612241,0.656041 0.1312245,1.471552 0.430455,2.020329 0.4478207,-0.543314 1.331226,-0.602168 1.810362,-1.259558 1.565432,-1.80691 2.7657272,-3.950431 4.3914048,-5.725476 2.4629,-3.222245 4.617971,-6.792326 7.449483,-9.669079 0.560477,0.03043 0.275813,1.10317 0.132389,1.508241 0.03621,0.659478 -0.53445,1.625751 -0.16538,2.107884 -0.110505,1.438379 -1.109326,3.186731 -1.73067,4.677061 -1.62963,3.369098 -3.565487,6.57531 -5.314095,9.877829 -0.119627,0.664885 -0.478531,1.397656 -0.428558,2.02067 0.63013,-0.314298 1.46111,-0.0086 2.166165,-0.414343 2.165077,-1.013967 4.133412,-2.483935 6.340512,-3.444296 3.560584,-1.941907 6.981415,-4.326812 10.738215,-5.803141 0.499623,0.255556 -0.196774,1.120004 -0.492525,1.431659 -0.23529,0.617149 -1.149526,1.267849 -1.008553,1.858353 -0.685987,1.26916 -2.309581,2.46003 -3.483377,3.568823 -2.859082,2.414995 -5.93167,4.556627 -8.872363,6.8624066 -0.379655,0.5587953 -1.005801,1.082144 -1.21342,1.671745 0.703451,-0.03073 1.338281,0.5863221 2.147396,0.502536 2.390304,-0.045771 4.786374,-0.5880222 7.193286,-0.5676735 4.042602,-0.3258336 8.137704,-1.113131 12.170211,-0.9338456 0.352349,0.4368767 -0.635285,0.9430943 -1.032287,1.10758 -0.465916,0.4681139 -1.565793,0.6906861 -1.677171,1.287499 -1.142866,0.8803359 -3.110493,1.3079537 -4.633787,1.843434 -3.594167,1.0433135 -7.27219,1.7500634 -10.896495,2.660402 -0.574129,0.35605742 -1.358933,0.57950796 -1.78846,1.0336862 l 0.2415,0.02119437"
     fill="none"
     stroke="#000000"
     stroke-width="0.0756853"
     id="path11" />
</svg>
