<?xml version="1.0" encoding="UTF-8" standalone="no"?>
<!-- Created with Inkscape (http://www.inkscape.org/) -->

<svg
   width="790.78278mm"
   height="790.78625mm"
   viewBox="0 0 790.78278 790.78625"
   version="1.1"
   id="svg5"
   inkscape:version="1.2.1 (9c6d41e, 2022-07-14)"
   sodipodi:docname="tara-head-mandala.svg"
   xmlns:inkscape="http://www.inkscape.org/namespaces/inkscape"
   xmlns:sodipodi="http://sodipodi.sourceforge.net/DTD/sodipodi-0.dtd"
   xmlns="http://www.w3.org/2000/svg"
   xmlns:svg="http://www.w3.org/2000/svg">
  <sodipodi:namedview
     id="namedview7"
     pagecolor="#ffffff"
     bordercolor="#000000"
     borderopacity="0.25"
     inkscape:showpageshadow="2"
     inkscape:pageopacity="0.0"
     inkscape:pagecheckerboard="0"
     inkscape:deskcolor="#d1d1d1"
     inkscape:document-units="mm"
     showgrid="false"
     inkscape:zoom="0.2102413"
     inkscape:cx="1626.7023"
     inkscape:cy="1519.6824"
     inkscape:window-width="1309"
     inkscape:window-height="891"
     inkscape:window-x="2560"
     inkscape:window-y="521"
     inkscape:window-maximized="0"
     inkscape:current-layer="layer1" />
  <defs
     id="defs2" />
  <g
     inkscape:label="Layer 1"
     inkscape:groupmode="layer"
     id="layer1"
     transform="translate(326.1753,241.85924)">
    <path
       sodipodi:type="star"
       style="display:inline;opacity:0.91;fill:#eeeeee;fill-opacity:0;stroke:#111111;stroke-width:1.06683;stroke-dasharray:none"
       id="path57564"
       inkscape:flatsided="false"
       sodipodi:sides="36"
       sodipodi:cx="829.82953"
       sodipodi:cy="177.99243"
       sodipodi:r1="271.65286"
       sodipodi:r2="260.78677"
       sodipodi:arg1="0.52903047"
       sodipodi:arg2="0.61629693"
       inkscape:rounded="0"
       inkscape:randomized="0"
       d="m 1064.3466,315.0947 -21.7087,13.63701 -5.6617,25.00356 -23.7469,9.66016 -9.9176,23.64055 -25.06356,5.38979 -13.87203,21.55924 -25.61874,0.95566 -17.405,18.82285 -25.39549,-3.50751 -20.40913,15.51454 -24.40061,-7.86409 -22.79314,11.73483 -22.66432,-11.98175 -24.48459,7.59857 -20.23939,-15.73533 -25.43209,3.23142 -17.1995,-19.01081 -25.60685,-1.23391 -13.63701,-21.70866 -25.00356,-5.66174 -9.66016,-23.74689 -23.64055,-9.91756 -5.38979,-25.06359 -21.55923,-13.87203 -0.95567,-25.61874 -18.82285,-17.405 3.50751,-25.39549 -15.51454,-20.40913 7.86409,-24.4006 -11.73483,-22.79315 11.98175,-22.66431 -7.59857,-24.4846 15.73533,-20.23939 -3.23142,-25.432092 19.01081,-17.199494 1.23391,-25.606855 21.70866,-13.637003 5.66174,-25.0035628 23.74689,-9.6601587 9.91756,-23.6405505 25.06359,-5.389795 13.87203,-21.559231 25.61874,-0.955665 17.405,-18.822846 25.39549,3.507502 20.40913,-15.514539 24.40061,7.864096 22.79314,-11.73483 22.66431,11.981743 24.4846,-7.598563 20.23939,15.735331 25.43209,-3.23142 17.1995,19.010809 25.60685,1.23391 13.637,21.708653 25.0036,5.661748 9.6601,23.7468901 23.6406,9.9175563 5.3898,25.0635906 21.5592,13.872025 0.9557,25.618746 18.8228,17.404999 -3.5075,25.395486 15.5146,20.40913 -7.8641,24.40061 11.7348,22.79314 -11.9818,22.66432 7.5986,24.48459 -15.7353,20.23939 3.2314,25.43209 -19.0108,17.1995 z"
       transform="matrix(0.65567889,0,0,0.65562916,-474.96189,36.759023)"
       inkscape:transform-center-y="-4.8296488e-06"
       inkscape:transform-center-x="3.0775031e-06" />
    <path
       style="display:inline;opacity:0.91;fill:#eeeeee;fill-opacity:0;stroke:#111111;stroke-width:0.822974;stroke-dasharray:none"
       d="M 159.65312,-0.99285828 463.69648,155.21986 156.60519,308.38452"
       id="path57568"
       sodipodi:nodetypes="ccc" />
    <path
       style="display:inline;opacity:0.91;fill:#eeeeee;fill-opacity:0;stroke:#111111;stroke-width:0.822974;stroke-dasharray:none"
       d="M -21.220906,-1.9682344 -325.26426,152.72046 -18.172972,307.40914"
       id="path57570"
       sodipodi:nodetypes="ccc" />
    <path
       style="display:inline;opacity:0.91;fill:#eeeeee;fill-opacity:0;stroke:#111111;stroke-width:0.822974;stroke-dasharray:none"
       d="M 185.17367,17.154277 457.29309,224.0258 128.18622,321.25307"
       id="path57572"
       sodipodi:nodetypes="ccc" />
    <path
       style="display:inline;opacity:0.91;fill:#eeeeee;fill-opacity:0;stroke:#111111;stroke-width:0.822974;stroke-dasharray:none"
       d="M 7.2450047,-15.368641 -319.12664,83.891162 -43.740158,289.79389"
       id="path57574"
       sodipodi:nodetypes="ccc" />
    <path
       style="display:inline;opacity:0.91;fill:#eeeeee;fill-opacity:0;stroke:#111111;stroke-width:0.822974;stroke-dasharray:none"
       d="M 206.73928,39.073159 439.35313,289.5439 98.448524,328.8951"
       id="path57576"
       sodipodi:nodetypes="ccc" />
    <path
       style="display:inline;opacity:0.91;fill:#eeeeee;fill-opacity:0;stroke:#111111;stroke-width:0.822974;stroke-dasharray:none"
       d="M 37.023309,-23.479554 -301.53513,18.343113 -65.536467,268.41965"
       id="path57578"
       sodipodi:nodetypes="ccc" />
    <path
       style="display:inline;opacity:0.91;fill:#eeeeee;fill-opacity:0;stroke:#111111;stroke-width:0.822974;stroke-dasharray:none"
       d="M 224.4529,64.868921 409.78868,352.08907 67.247943,331.34641"
       id="path57580"
       sodipodi:nodetypes="ccc" />
    <path
       style="display:inline;opacity:0.91;fill:#eeeeee;fill-opacity:0;stroke:#111111;stroke-width:0.822974;stroke-dasharray:none"
       d="M 68.256892,-26.340529 -272.40504,-44.240217 -83.667511,243.18245"
       id="path57582"
       sodipodi:nodetypes="ccc" />
    <path
       style="display:inline;opacity:0.91;fill:#eeeeee;fill-opacity:0;stroke:#111111;stroke-width:0.822974;stroke-dasharray:none"
       d="M 237.42111,92.90872 370.73942,407.66417 36.834453,328.46902"
       id="path57584"
       sodipodi:nodetypes="ccc" />
    <path
       style="display:inline;opacity:0.91;fill:#eeeeee;fill-opacity:0;stroke:#111111;stroke-width:0.822974;stroke-dasharray:none"
       d="M 99.186603,-23.742812 -233.35512,-99.814823 -96.720178,215.72366"
       id="path57586"
       sodipodi:nodetypes="ccc" />
    <path
       style="display:inline;opacity:0.91;fill:#eeeeee;fill-opacity:0;stroke:#111111;stroke-width:0.822974;stroke-dasharray:none"
       d="M 245.26982,122.10009 323.857,454.76934 7.9854276,320.64419"
       id="path57588"
       sodipodi:nodetypes="ccc" />
    <path
       style="display:inline;opacity:0.91;fill:#eeeeee;fill-opacity:0;stroke:#111111;stroke-width:0.822974;stroke-dasharray:none"
       d="m 128.5799,-16.10193 -315.05201,-130.81748 81.72524,333.99793"
       id="path57590"
       sodipodi:nodetypes="ccc" />
    <path
       style="display:inline;opacity:0.91;fill:#eeeeee;fill-opacity:0;stroke:#111111;stroke-width:0.822974;stroke-dasharray:none"
       d="M 248.11506,154.01963 266.26984,495.36283 -20.703959,307.18614"
       id="path57592"
       sodipodi:nodetypes="ccc" />
    <path
       style="display:inline;opacity:0.91;fill:#eeeeee;fill-opacity:0;stroke:#111111;stroke-width:0.822974;stroke-dasharray:none"
       d="m 157.87125,-2.7362159 -286.75567,-184.7759741 21.0064,343.20892"
       id="path57594"
       sodipodi:nodetypes="ccc" />
    <path
       style="display:inline;opacity:0.91;fill:#eeeeee;fill-opacity:0;stroke:#111111;stroke-width:0.822974;stroke-dasharray:none"
       d="M 245.30632,185.54988 203.1916,524.77122 -46.24625,289.09093"
       id="path57596"
       sodipodi:nodetypes="ccc" />
    <path
       style="display:inline;opacity:0.91;fill:#eeeeee;fill-opacity:0;stroke:#111111;stroke-width:0.822974;stroke-dasharray:none"
       d="M 184.01493,15.374361 -65.805791,-216.91982 -105.44117,124.63935"
       id="path57598"
       sodipodi:nodetypes="ccc" />
    <path
       style="display:inline;opacity:0.91;fill:#eeeeee;fill-opacity:0;stroke:#111111;stroke-width:0.822974;stroke-dasharray:none"
       d="M 237.08062,215.71249 136.3299,542.35306 -68.080341,266.70674"
       id="path57600"
       sodipodi:nodetypes="ccc" />
    <path
       style="display:inline;opacity:0.91;fill:#eeeeee;fill-opacity:0;stroke:#111111;stroke-width:0.822974;stroke-dasharray:none"
       d="M 206.47334,37.444349 1.0943412,-234.93488 -97.623796,94.440826"
       id="path57602"
       sodipodi:nodetypes="ccc" />
    <path
       style="display:inline;opacity:0.91;fill:#eeeeee;fill-opacity:0;stroke:#111111;stroke-width:0.822974;stroke-dasharray:none"
       d="M 223.88244,243.64107 68.316768,548.01601 -85.500719,241.25124"
       id="path57604"
       sodipodi:nodetypes="ccc" />
    <path
       style="display:inline;opacity:0.91;fill:#eeeeee;fill-opacity:0;stroke:#111111;stroke-width:0.822974;stroke-dasharray:none"
       d="M 224.47312,62.765466 69.138052,-240.9482 -84.897073,66.471396"
       id="path57606"
       sodipodi:nodetypes="ccc" />
    <path
       style="display:inline;opacity:0.91;fill:#eeeeee;fill-opacity:0;stroke:#111111;stroke-width:0.822974;stroke-dasharray:none"
       d="M 204.9938,270.13235 -3.1617864,541.27072 -98.832156,211.70795"
       id="path57608"
       sodipodi:nodetypes="ccc" />
    <path
       style="display:inline;opacity:0.91;fill:#eeeeee;fill-opacity:0;stroke:#111111;stroke-width:0.822974;stroke-dasharray:none"
       d="M 238.35756,92.359466 140.64172,-234.47779 -66.560542,39.932225"
       id="path57610"
       sodipodi:nodetypes="ccc" />
    <path
       style="display:inline;opacity:0.91;fill:#eeeeee;fill-opacity:0;stroke:#111111;stroke-width:0.822974;stroke-dasharray:none"
       d="M 182.93581,291.62298 -68.693267,522.98329 -106.34183,181.88649"
       id="path57612"
       sodipodi:nodetypes="ccc" />
    <path
       style="display:inline;opacity:0.91;fill:#eeeeee;fill-opacity:0;stroke:#111111;stroke-width:0.822974;stroke-dasharray:none"
       d="M 246.33515,122.22151 206.20345,-216.54156 -45.048321,18.205507"
       id="path57614"
       sodipodi:nodetypes="ccc" />
    <path
       style="display:inline;opacity:0.91;fill:#eeeeee;fill-opacity:0;stroke:#111111;stroke-width:0.822974;stroke-dasharray:none"
       d="M 156.22416,309.66633 -132.88662,492.0388 -108.62261,149.72944"
       id="path57616"
       sodipodi:nodetypes="ccc" />
    <path
       style="display:inline;opacity:0.91;fill:#eeeeee;fill-opacity:0;stroke:#111111;stroke-width:0.822974;stroke-dasharray:none"
       d="M 249.03503,154.41658 270.43692,-186.0433 -18.911384,-0.27140921"
       id="path57618"
       sodipodi:nodetypes="ccc" />
    <path
       style="display:inline;opacity:0.91;fill:#eeeeee;fill-opacity:0;stroke:#111111;stroke-width:0.822974;stroke-dasharray:none"
       d="m 126.86759,322.75563 -317.01105,127.86234 84.95025,-332.48744"
       id="path57620"
       sodipodi:nodetypes="ccc" />
    <path
       style="display:inline;opacity:0.91;fill:#eeeeee;fill-opacity:0;stroke:#111111;stroke-width:0.822974;stroke-dasharray:none"
       d="m 245.88922,186.55653 81.804,-331.1783 L 9.8419954,-13.456924"
       id="path57622"
       sodipodi:nodetypes="ccc" />
    <path
       style="display:inline;opacity:0.91;fill:#eeeeee;fill-opacity:0;stroke:#111111;stroke-width:0.822974;stroke-dasharray:none"
       d="M 96.930384,330.1978 -237.29723,401.86852 -96.649706,88.846613"
       id="path57624"
       sodipodi:nodetypes="ccc" />
    <path
       style="display:inline;opacity:0.91;fill:#eeeeee;fill-opacity:0;stroke:#111111;stroke-width:0.822974;stroke-dasharray:none"
       d="M 237.52282,216.3993 374.84636,-95.871742 39.225324,-21.091243"
       id="path57626"
       sodipodi:nodetypes="ccc" />
    <path
       style="display:inline;opacity:0.91;fill:#eeeeee;fill-opacity:0;stroke:#111111;stroke-width:0.822974;stroke-dasharray:none"
       d="M 67.400656,332.41571 -274.06332,348.13624 -83.845263,62.511436"
       id="path57628"
       sodipodi:nodetypes="ccc" />
    <path
       style="display:inline;opacity:0.91;fill:#eeeeee;fill-opacity:0;stroke:#111111;stroke-width:0.822974;stroke-dasharray:none"
       d="M 224.79598,243.29189 411.61182,-42.139012 68.261868,-23.580249"
       id="path57630"
       sodipodi:nodetypes="ccc" />
    <path
       style="display:inline;opacity:0.91;fill:#eeeeee;fill-opacity:0;stroke:#111111;stroke-width:0.822974;stroke-dasharray:none"
       d="M 36.583056,329.50979 -302.5014,286.30659 -66.02177,37.626425"
       id="path57632"
       sodipodi:nodetypes="ccc" />
    <path
       style="display:inline;opacity:0.91;fill:#eeeeee;fill-opacity:0;stroke:#111111;stroke-width:0.822974;stroke-dasharray:none"
       d="M 206.95442,268.7649 440.04915,19.690987 98.618946,-21.040367"
       id="path57634"
       sodipodi:nodetypes="ccc" />
    <path
       style="display:inline;opacity:0.91;fill:#eeeeee;fill-opacity:0;stroke:#111111;stroke-width:0.822974;stroke-dasharray:none"
       d="M 6.2582547,321.11626 -319.94233,218.94994 -43.412171,15.736988"
       id="path57636"
       sodipodi:nodetypes="ccc" />
    <path
       style="display:inline;opacity:0.91;fill:#eeeeee;fill-opacity:0;stroke:#111111;stroke-width:0.822974;stroke-dasharray:none"
       d="M 184.65744,291.28234 457.92472,87.086448 128.98021,-13.059108"
       id="path57638"
       sodipodi:nodetypes="ccc" />
  </g>
</svg>
