<?xml version="1.0" encoding="UTF-8" standalone="no"?>
<!-- Created with Inkscape (http://www.inkscape.org/) -->

<svg
   width="2260mm"
   height="2260mm"
   viewBox="-114 -62 2179.7462 2179.7461"
   version="1.1"
   id="svg5"
   inkscape:version="1.2.1 (9c6d41e, 2022-07-14)"
   sodipodi:docname="tara-crown-heart-lotus.svg"
   inkscape:export-filename="../../../../Desktop/tara-head-mandala.svg"
   inkscape:export-xdpi="100"
   inkscape:export-ydpi="100"
   xml:space="preserve"
   xmlns:inkscape="http://www.inkscape.org/namespaces/inkscape"
   xmlns:sodipodi="http://sodipodi.sourceforge.net/DTD/sodipodi-0.dtd"
   xmlns="http://www.w3.org/2000/svg"
   xmlns:svg="http://www.w3.org/2000/svg"><sodipodi:namedview
     id="namedview7"
     pagecolor="#ffffff"
     bordercolor="#666666"
     borderopacity="1.0"
     inkscape:pageshadow="2"
     inkscape:pageopacity="0.0"
     inkscape:pagecheckerboard="0"
     inkscape:document-units="mm"
     showgrid="false"
     showborder="true"
     inkscape:zoom="0.21"
     inkscape:cx="4659.5238"
     inkscape:cy="5947.619"
     inkscape:window-width="2456"
     inkscape:window-height="1384"
     inkscape:window-x="4"
     inkscape:window-y="25"
     inkscape:window-maximized="0"
     inkscape:current-layer="layer35"
     showguides="true"
     inkscape:showpageshadow="2"
     inkscape:deskcolor="#d1d1d1" /><defs
     id="defs2"><linearGradient
       id="linearGradient187851"
       inkscape:swatch="gradient"><stop
         style="stop-color:#6f4072;stop-opacity:1;"
         offset="0"
         id="stop187847" /><stop
         style="stop-color:#6f4072;stop-opacity:0;"
         offset="1"
         id="stop187849" /></linearGradient><linearGradient
       id="linearGradient78363"
       inkscape:swatch="gradient"><stop
         style="stop-color:#542158;stop-opacity:1;"
         offset="0"
         id="stop78359" /><stop
         style="stop-color:#542158;stop-opacity:0;"
         offset="1"
         id="stop78361" /></linearGradient><linearGradient
       id="linearGradient17160"
       inkscape:swatch="gradient"><stop
         style="stop-color:#000000;stop-opacity:1;"
         offset="0"
         id="stop17156" /><stop
         style="stop-color:#000000;stop-opacity:0;"
         offset="1"
         id="stop17158" /></linearGradient><linearGradient
       id="linearGradient17065"
       inkscape:swatch="solid"><stop
         style="stop-color:#000000;stop-opacity:1;"
         offset="0"
         id="stop17063" /></linearGradient><linearGradient
       id="linearGradient7597"
       inkscape:swatch="solid"><stop
         style="stop-color:#060607;stop-opacity:1;"
         offset="0"
         id="stop7595" /></linearGradient><linearGradient
       id="linearGradient9310"
       inkscape:swatch="solid"><stop
         style="stop-color:#000000;stop-opacity:1;"
         offset="0"
         id="stop9308" /></linearGradient><linearGradient
       id="linearGradient4756"
       inkscape:swatch="solid"><stop
         style="stop-color:#000000;stop-opacity:1;"
         offset="0"
         id="stop4754" /></linearGradient><linearGradient
       id="linearGradient4750"
       inkscape:swatch="solid"><stop
         style="stop-color:#000000;stop-opacity:1;"
         offset="0"
         id="stop4748" /></linearGradient><linearGradient
       id="linearGradient4697"
       inkscape:swatch="solid"><stop
         style="stop-color:#000000;stop-opacity:1;"
         offset="0"
         id="stop4695" /></linearGradient><inkscape:perspective
       sodipodi:type="inkscape:persp3d"
       inkscape:vp_x="0 : 1215.2566 : 1"
       inkscape:vp_y="0 : 964.48954 : 0"
       inkscape:vp_z="1928.9784 : 1215.2566 : 1"
       inkscape:persp3d-origin="964.48941 : 893.76023 : 1"
       id="perspective15229" /><linearGradient
       id="linearGradient150320"
       inkscape:swatch="solid"><stop
         style="stop-color:#010101;stop-opacity:1;"
         offset="0"
         id="stop150318" /></linearGradient></defs><g
     inkscape:groupmode="layer"
     id="layer40"
     inkscape:label="lotus-2"
     style="display:inline"><path
       style="opacity:1;fill:#070000;fill-opacity:0;stroke:#060607;stroke-width:0.259081;stroke-dasharray:none;stroke-opacity:1"
       d="m 1433.4091,1326.5929 c 176.5812,64.2463 151.6374,169.9566 143.3302,225.4132 -5.2597,35.1116 -30.0229,86.7612 -49.8666,115.4244 -45.057,65.0822 -185.2084,141.1111 -301.331,174.919 -116.1227,33.8079 -288.49745,33.2194 -435.09262,7.3496 -124.94214,-22.0487 -225.10647,-73.1242 -261.64353,-97.0139 -19.1088,-12.4942 -42.24944,-31.9459 -65.94796,-56.3936 -38.89602,-40.1256 -65.96917,-97.6993 -78.42804,-156.1741 -5.85589,-27.4841 -4.54304,-82.4093 14.92016,-118.1224 22.7651,-41.7718 64.75746,-67.0835 113.08093,-88.7536 0.75629,13.9273 -2.17423,47.8958 -10.56909,68.2543 -5.62004,13.6293 -7.34059,65.7327 -119.51431,81.3822"
       id="path52280"
       sodipodi:nodetypes="csssssssscsc" /><path
       style="opacity:1;fill:#070000;fill-opacity:0;stroke:#060607;stroke-width:0.259081;stroke-dasharray:none;stroke-opacity:1"
       d="m 1433.7257,1326.0502 c 7.4538,60.2094 22.3789,78.0776 35.7323,104.0024 6.7508,13.1062 13.2474,46.4452 11.8432,72.2886 -1.8207,33.5097 -9.2619,89.1163 -18.2905,116.3082 -13.9422,41.9902 -41.9714,92.8784 -61.0802,111.9872 -19.1088,19.1088 -54.088,49.7378 -83.9313,65.2577 m -332.0525,59.5115 c -70.18064,-12.1209 -129.42905,-35.5955 -180.1686,-67.6528 -13.73275,-8.6763 -42.80581,-36.1311 -53.59259,-46.8502 -10.78679,-10.7191 -35.2541,-40.6925 -52.18603,-76.5708 -19.21196,-40.7096 -23.67302,-90.7834 -12.94906,-131.5521 13.2177,-50.2491 48.03555,-63.8654 91.72299,-98.8839"
       id="path52282"
       sodipodi:nodetypes="cssssccssssc" /><path
       style="opacity:1;fill:#070000;fill-opacity:0;stroke:#060607;stroke-width:0.259081;stroke-dasharray:none;stroke-opacity:1"
       d="m 1188.5034,1434.2115 c 64.1052,32.3488 87.4859,51.5682 95.7961,78.5715 24.4175,79.3428 -10.29,148.7201 -27.5187,176.6295 -15.0815,24.431 -35.3172,45.0143 -59.6783,69.1523 -43.1125,42.7175 -127.4475,80.7966 -213.33901,97.0044"
       id="path52306"
       sodipodi:nodetypes="csssc" /><path
       style="opacity:1;fill:#070000;fill-opacity:0;stroke:#060607;stroke-width:0.259081;stroke-dasharray:none;stroke-opacity:1"
       d="m 1100.1886,1449.1728 c 61.8687,59.5727 78.1033,81.728 67.96,148.1723 -6.5216,42.7198 -30.8136,77.429 -44.699,97.3836 -13.8853,19.9546 -27.8245,37.9135 -49.8193,59.7204 -17.5313,17.3815 -42.3354,43.0487 -76.93054,56.5668 -34.59509,13.5181 -94.28839,24.5496 -186.47758,25.5314"
       id="path52298"
       sodipodi:nodetypes="cssszc" /><path
       style="opacity:1;fill:#070000;fill-opacity:0;stroke:#060607;stroke-width:0.259081;stroke-dasharray:none;stroke-opacity:1"
       d="m 993.17549,1455.3097 c 14.85991,15.6402 34.71341,34.1204 48.25821,69.6229 13.0448,34.192 2.7363,88.794 -12.1098,115.969 -31.64025,60.9579 -63.61965,88.6566 -104.15423,116.1933 -46.13178,30.9742 -163.52887,57.4029 -277.63015,40.3419"
       id="path52302"
       sodipodi:nodetypes="csccc" /><path
       style="opacity:1;fill:#070000;fill-opacity:0;stroke:#060607;stroke-width:0.259081;stroke-dasharray:none;stroke-opacity:1"
       d="m 886.18579,1448.2217 c 21.82955,74.6173 58.96592,92.083 33.35562,154.5187 -4.6128,11.2456 -10.16921,24.6598 -18.16183,34.9262 -7.99263,10.2663 -17.55126,24.6661 -64.46394,61.3103 -46.91268,36.6441 -131.30547,64.4133 -211.44044,61.0578 -51.4468,-4.4097 -111.125,-23.5185 -143.463,-45.5671"
       id="path52304"
       sodipodi:nodetypes="csszcc" /><path
       style="opacity:1;fill:#070000;fill-opacity:0;stroke:#060607;stroke-width:0.259081;stroke-dasharray:none;stroke-opacity:1"
       d="m 436.66336,1665.3306 c 69.42439,36.8732 146.30457,33.4618 219.70259,13.656 51.72601,-14.727 215.3315,-86.9526 122.01959,-244.5251"
       id="path54341"
       sodipodi:nodetypes="ccc" /><path
       style="opacity:1;fill:#070000;fill-opacity:0;stroke:#060607;stroke-width:0.259081;stroke-dasharray:none;stroke-opacity:1"
       d="m 886.08351,1447.9846 c -41.621,46.2795 -93.55474,81.4977 -87.2467,149.7903 4.42364,47.8916 47.07791,112.3228 60.51724,128.4206 13.43933,16.0978 34.73793,36.7964 55.43463,51.5489 20.69669,14.7524 45.54042,28.3077 75.56782,39.6167 56.5914,21.3136 78.4455,24.9885 158.1987,25.0641"
       id="path52284"
       sodipodi:nodetypes="cssssc" /><path
       style="opacity:1;fill:#070000;fill-opacity:0;stroke:#060607;stroke-width:0.259081;stroke-dasharray:none;stroke-opacity:1"
       d="m 993.36413,1455.3116 c 0,0 -67.12289,71.1191 -65.40704,115.8824 1.88684,49.2243 32.15321,113.9319 71.10576,148.4748 41.57355,36.8671 101.64875,84.7906 217.65935,90.3427 28.8048,1.3785 66.6549,-4.8686 102.816,-14.5838"
       id="path52286"
       sodipodi:nodetypes="csssc" /><path
       style="opacity:1;fill:#070000;fill-opacity:0;stroke:#060607;stroke-width:0.259081;stroke-dasharray:none;stroke-opacity:1"
       d="m 1100.8438,1449.2998 c -24.4342,42.1714 -51.7453,60.8457 -52.5814,97.9499 -2.6814,41.9968 4.1608,78.5613 33.0022,113.5044 28.8413,34.943 73.7427,61.5692 117.3664,77.4581 33.8815,12.2711 98.9361,26.2322 150.3828,21.8225 51.4468,-4.4097 92.8076,-17.8259 125.1456,-39.8745"
       id="path52288"
       sodipodi:nodetypes="cczcsc" /><path
       style="opacity:1;fill:#070000;fill-opacity:0;stroke:#060607;stroke-width:0.259081;stroke-dasharray:none;stroke-opacity:1"
       d="m 1188.7939,1433.376 c -10.2893,41.5532 -24.3809,59.7297 -20.6637,105.311 3.071,37.6575 35.5622,80.7901 59.8157,98.429 32.0085,23.2789 54.5162,36.0031 96.5437,47.9534 28.7069,8.1627 76.6876,12.4575 124.5515,6.2104 23.9319,-3.1236 47.4977,-8.3378 75.8186,-20.2073"
       id="path52290"
       sodipodi:nodetypes="cssssc" /><path
       style="opacity:1;fill:#070000;fill-opacity:0;stroke:#060607;stroke-width:0.259081;stroke-dasharray:none;stroke-opacity:1"
       d="m 1282.3869,1413.5046 c -4.5522,47.4184 -11.1088,76.6326 6.8533,109.026 21.8203,39.3514 44.5909,52.1455 72.4757,64.8992 27.8847,12.7537 70.8855,25.9292 104.5231,26.7166 46.6623,0.9037 93.339,-8.0845 93.339,-8.0845"
       id="path52292"
       sodipodi:nodetypes="cszcc" /><path
       style="opacity:1;fill:#070000;fill-opacity:0;stroke:#060607;stroke-width:0.259081;stroke-dasharray:none;stroke-opacity:1"
       d="m 1354.8935,1373.7883 c 10.3035,39.631 10.0735,74.5177 35.7068,100.0195 21.471,21.3608 50.2682,29.6405 78.6888,38.0813 18.7656,5.5733 18.971,4.8995 28.948,6.6803 9.977,1.7808 20.2939,3.0785 30.9875,3.7813 21.3871,1.4056 52.2814,0.5162 52.2814,0.5162"
       id="path52294"
       sodipodi:nodetypes="cssssc" /><path
       style="opacity:1;fill:#070000;fill-opacity:0;stroke:#060607;stroke-width:0.259081;stroke-dasharray:none;stroke-opacity:1"
       d="m 587.88805,1374.6437 c -63.73286,17.4313 -99.38667,45.9613 -106.45261,76.1839 -6.97314,29.8257 -7.89396,72.7793 -3.0873,94.9483 10.59781,48.8786 23.93036,89.4042 58.69383,147.5529 12.99136,21.7306 37.23907,50.0238 49.08996,59.3564 11.75924,9.2604 33.36688,28.5897 62.21381,45.5672"
       id="path52296"
       sodipodi:nodetypes="cssssc" /><path
       style="opacity:1;fill:#070000;fill-opacity:0;stroke:#060607;stroke-width:0.259081;stroke-dasharray:none;stroke-opacity:1"
       d="m 686.91931,1407.6856 c -40.72629,14.1952 -67.80184,27.7976 -83.76224,46.8752 -15.9604,19.0775 -19.44095,43.4949 -17.07131,74.3447 1.96237,25.5478 2.07314,37.3082 9.33743,63.7629 7.2643,26.4548 12.27472,41.1455 16.98085,52.5627 9.10152,22.0807 22.5325,48.7796 41.2029,76.6148 8.34984,12.4486 38.10735,47.643 52.40554,59.7029 23.06115,19.4511 61.55936,43.1901 104.11728,54.934"
       id="path56675"
       sodipodi:nodetypes="cssssssc" /><path
       style="opacity:1;fill:#070000;fill-opacity:0;stroke:#060607;stroke-width:0.259081;stroke-dasharray:none;stroke-opacity:1"
       d="m 1282.2077,1413.2815 c 56.1748,7.5329 82.3004,21.606 98.7025,49.6555 16.4021,28.0495 12.5451,77.2246 7.1552,105.4429 -2.9341,14.7024 -8.3769,43.5998 -15.5005,61.9742 -14.1083,36.3905 -19.6675,54.458 -58.948,106.7886 -39.2806,52.3306 -74.2975,80.1733 -166.261,105.8377"
       id="path56677"
       sodipodi:nodetypes="czcszc" /><path
       style="opacity:1;fill:#070000;fill-opacity:0;stroke:#060607;stroke-width:0.259081;stroke-dasharray:none;stroke-opacity:1"
       d="m 408.91361,1614.7501 c 76.9129,4.9792 135.00172,-0.2877 170.72318,-15.1385 108.61142,-45.1541 142.47855,-85.6677 107.59086,-192.0494"
       id="path6755"
       sodipodi:nodetypes="csc" /><path
       style="opacity:1;fill:#070000;fill-opacity:0;stroke:#060607;stroke-width:0.259081;stroke-dasharray:none;stroke-opacity:1"
       d="m 385.85707,1548.1843 c 59.71498,4.9792 129.47969,-8.9842 154.09222,-25.3019 22.42338,-14.8663 81.28255,-31.9302 47.85094,-148.0992"
       id="path6759"
       sodipodi:nodetypes="csc" /><path
       style="opacity:1;fill:#070000;fill-opacity:0;stroke:#060607;stroke-width:0.259081;stroke-dasharray:none;stroke-opacity:1"
       d="m 1354.9052,1373.9158 c 107.9699,17.9565 104.4324,57.8314 149.3499,69.2698 19.7319,5.0248 53.7252,9.6653 73.6389,9.1722"
       id="path6761"
       sodipodi:nodetypes="csc" /><path
       style="fill:none;fill-opacity:1;stroke:#000000;stroke-width:0.259081;stroke-miterlimit:0.5;stroke-dasharray:none;stroke-opacity:1"
       d="m 984.61874,1855.4431 80.63486,10.7094 84.2048,-24.1485"
       id="path9306"
       sodipodi:nodetypes="ccc" /><path
       style="fill:none;fill-opacity:1;stroke:#000000;stroke-width:0.259081;stroke-miterlimit:0.5;stroke-dasharray:none;stroke-opacity:1"
       d="m 1148.1984,1842.424 c 22.6786,0.8399 97.8539,-7.1396 97.8539,-7.1396 0,0 53.3366,-28.1382 73.0754,-39.8974"
       id="path9316" /><path
       style="fill:none;fill-opacity:1;stroke:#000000;stroke-width:0.259081;stroke-miterlimit:0.5;stroke-dasharray:none;stroke-opacity:1"
       d="m 647.17,1797.4868 c 45.35713,25.1985 83.15474,39.4775 83.15474,39.4775 0,0 43.67725,1.68 79.79499,-0.42"
       id="path9318"
       sodipodi:nodetypes="ccc" /><path
       style="fill:none;fill-opacity:1;stroke:#000000;stroke-width:0.259081;stroke-miterlimit:0.5;stroke-dasharray:none;stroke-opacity:1"
       d="m 809.69976,1836.1244 c 19.73876,9.2394 87.77448,26.8783 87.77448,26.8783 0,0 62.99603,-3.7798 88.61442,-7.9795"
       id="path9320"
       sodipodi:nodetypes="ccc" /></g><g
     inkscape:groupmode="layer"
     id="g55616"
     inkscape:label="body-mandala-2"
     style="display:inline;stroke-width:0.529167;stroke-dasharray:none"><path
       sodipodi:type="star"
       style="display:inline;opacity:0.91;fill:#eeeeee;fill-opacity:0;stroke:#111111;stroke-width:0.190062;stroke-dasharray:none"
       id="path55463"
       inkscape:flatsided="false"
       sodipodi:sides="72"
       sodipodi:cx="519.24481"
       sodipodi:cy="590.35156"
       sodipodi:r1="261.05615"
       sodipodi:r2="240.17166"
       sodipodi:arg1="0.61435854"
       sodipodi:arg2="0.65799177"
       inkscape:rounded="0"
       inkscape:randomized="0"
       d="m 732.56512,740.83333 -23.29123,-3.6098 9.36413,21.62926 -22.88798,-5.62603 7.44338,22.3631 -22.31054,-7.59944 5.46598,22.92672 -21.56331,-9.51501 3.44698,23.31588 -20.65196,-11.35817 1.40175,23.52758 -19.58345,-13.11489 -0.65414,23.56022 -18.36589,-14.77179 -2.70506,23.41355 -17.00856,-16.31627 -4.73539,23.08869 -15.52178,-17.73657 -6.72968,22.58811 -13.91687,-19.02189 -8.67276,21.91563 -12.20604,-20.16244 -10.54983,21.07635 -10.40233,-21.14955 -12.34661,20.07668 -8.51943,-21.97569 -14.04943,18.9242 -6.57171,-22.63458 -15.64531,17.62769 -4.57397,-23.12121 -17.12213,16.19704 -2.54142,-23.43188 -18.46865,14.64312 -0.48952,-23.56421 -19.6746,12.97774 1.5661,-23.51721 -20.73081,11.21361 3.60979,-23.29123 -21.62926,9.36413 5.62603,-22.88798 -22.36309,7.44338 7.59944,-22.31054 -22.92673,5.46598 9.51501,-21.56331 -23.31587,3.44698 11.35816,-20.65196 -23.52757,1.40175 13.11488,-19.58345 -23.56021,-0.65414 14.77179,-18.36589 -23.41356,-2.70506 16.31628,-17.00856 -23.0887,-4.73539 17.73658,-15.52178 -22.58812,-6.72968 19.0219,-13.91687 -21.91564,-8.67276 20.16245,-12.20604 -21.07636,-10.54983 21.14955,-10.40233 -20.07667,-12.34661 21.97569,-8.51943 -18.9242,-14.04943 22.63458,-6.5717 -17.6277,-15.64532 23.12121,-4.57397 -16.19704,-17.12213 23.43188,-2.54142 -14.64311,-18.46865 23.56421,-0.48952 -12.97775,-19.6746 23.51721,1.5661 -11.2136,-20.73081 23.29122,3.6098 -9.36413,-21.62927 22.88798,5.62603 -7.44337,-22.36309 22.31054,7.59944 -5.46598,-22.92673 21.56331,9.51501 -3.44699,-23.31587 20.65197,11.35816 -1.40176,-23.52757 19.58345,13.11488 0.65414,-23.56021 18.36589,14.77179 2.70506,-23.41355 17.00856,16.31627 4.73539,-23.0887 15.52178,17.73658 6.72969,-22.58812 13.91686,19.0219 8.67276,-21.91564 12.20605,20.16245 10.54983,-21.07636 10.40232,21.14955 12.34661,-20.07667 8.51944,21.97569 14.04942,-18.9242 6.57171,22.63458 15.64532,-17.6277 4.57396,23.12121 17.12214,-16.19704 2.54141,23.43188 18.46865,-14.64311 0.48952,23.56421 19.6746,-12.97774 -1.5661,23.5172 20.73082,-11.2136 -3.6098,23.29122 21.62926,-9.36412 -5.62603,22.88797 22.36309,-7.44337 -7.59943,22.31054 22.92672,-5.46598 -9.51501,21.56331 23.31588,-3.44699 -11.35817,20.65197 23.52758,-1.40176 -13.11489,19.58345 23.56022,0.65414 -14.77179,18.36589 23.41355,2.70506 -16.31627,17.00856 23.08869,4.73539 -17.73657,15.52178 22.58811,6.72969 -19.02189,13.91686 21.91563,8.67276 -20.16244,12.20605 21.07635,10.54983 -21.14955,10.40232 20.07668,12.34661 -21.97569,8.51944 18.9242,14.04942 -22.63459,6.57171 17.6277,15.64532 -23.12121,4.57396 16.19704,17.12214 -23.43188,2.54141 14.64312,18.46865 -23.56421,0.48952 12.97774,19.6746 -23.51721,-1.5661 z"
       inkscape:transform-center-x="4.849312e-05"
       inkscape:transform-center-y="-8.2102408e-06"
       transform="matrix(2.7771099,-0.00630889,0.00634099,2.7912378,-464.00672,-760.62899)" /><path
       style="opacity:0.91;fill:#eeeeee;fill-opacity:0;stroke:#111111;stroke-width:0.529167;stroke-dasharray:none"
       d="m 998.25263,793.64153 707.53637,91.1685 -708.33549,91.16851"
       id="path55618"
       sodipodi:nodetypes="ccc" /><path
       style="opacity:0.91;fill:#eeeeee;fill-opacity:0;stroke:#111111;stroke-width:0.529167;stroke-dasharray:none"
       d="m 964.67036,793.62612 -707.53638,91.1685 708.33548,91.16851"
       id="path55622"
       sodipodi:nodetypes="ccc" /><path
       style="opacity:0.91;fill:#eeeeee;fill-opacity:0;stroke:#111111;stroke-width:0.529167;stroke-dasharray:none"
       d="m 1006.1419,795.45408 696.8845,152.55002 -713.58856,29.022"
       id="path55624"
       sodipodi:nodetypes="ccc" /><path
       style="opacity:0.91;fill:#eeeeee;fill-opacity:0;stroke:#111111;stroke-width:0.529167;stroke-dasharray:none"
       d="M 972.68907,792.50884 259.89661,821.60055 957.5771,974.22029"
       id="path55626"
       sodipodi:nodetypes="ccc" /><path
       style="opacity:0.91;fill:#eeeeee;fill-opacity:0;stroke:#111111;stroke-width:0.529167;stroke-dasharray:none"
       d="M 1013.8399,797.94786 1694.758,1010.7154 981.35839,977.3702"
       id="path55628"
       sodipodi:nodetypes="ccc" /><path
       style="opacity:0.91;fill:#eeeeee;fill-opacity:0;stroke:#111111;stroke-width:0.529167;stroke-dasharray:none"
       d="M 980.77156,792.09528 268.15893,758.88898 949.86392,971.79542"
       id="path55630"
       sodipodi:nodetypes="ccc" /><path
       style="opacity:0.91;fill:#eeeeee;fill-opacity:0;stroke:#111111;stroke-width:0.529167;stroke-dasharray:none"
       d="M 1021.188,801.05378 1681.2899,1071.581 973.39945,977.01877"
       id="path55632"
       sodipodi:nodetypes="ccc" /><path
       style="opacity:0.91;fill:#eeeeee;fill-opacity:0;stroke:#111111;stroke-width:0.529167;stroke-dasharray:none"
       d="M 988.74536,792.37955 281.62703,698.02336 942.50095,968.75664"
       id="path55634"
       sodipodi:nodetypes="ccc" /><path
       style="opacity:0.91;fill:#eeeeee;fill-opacity:0;stroke:#111111;stroke-width:0.529167;stroke-dasharray:none"
       d="M 1028.5707,804.97318 1661.6193,1133.8637 965.12518,975.91788"
       id="path55636"
       sodipodi:nodetypes="ccc" /><path
       style="opacity:0.91;fill:#eeeeee;fill-opacity:0;stroke:#111111;stroke-width:0.529167;stroke-dasharray:none"
       d="M 997.04133,793.41172 301.29766,635.74064 935.09657,964.90595"
       id="path55638"
       sodipodi:nodetypes="ccc" /><path
       style="opacity:0.91;fill:#eeeeee;fill-opacity:0;stroke:#111111;stroke-width:0.529167;stroke-dasharray:none"
       d="M 1035.3718,809.3994 1637.2307,1192.3947 957.21898,974.14027"
       id="path55640"
       sodipodi:nodetypes="ccc" /><path
       style="opacity:0.91;fill:#eeeeee;fill-opacity:0;stroke:#111111;stroke-width:0.529167;stroke-dasharray:none"
       d="M 1004.9744,795.12475 325.68627,577.20959 928.26851,960.5443"
       id="path55642"
       sodipodi:nodetypes="ccc" /><path
       style="opacity:0.91;fill:#eeeeee;fill-opacity:0;stroke:#111111;stroke-width:0.529167;stroke-dasharray:none"
       d="M 1041.7767,814.418 1607.7289,1248.7194 949.47761,971.67031"
       id="path55644"
       sodipodi:nodetypes="ccc" /><path
       style="opacity:0.91;fill:#eeeeee;fill-opacity:0;stroke:#111111;stroke-width:0.529167;stroke-dasharray:none"
       d="M 1012.7483,797.53256 355.1881,520.88488 921.83102,955.58783"
       id="path55646"
       sodipodi:nodetypes="ccc" /><path
       style="opacity:0.91;fill:#eeeeee;fill-opacity:0;stroke:#111111;stroke-width:0.529167;stroke-dasharray:none"
       d="M 1047.6631,819.92415 1573.7464,1301.7498 942.05197,968.56359"
       id="path55648"
       sodipodi:nodetypes="ccc" /><path
       style="opacity:0.91;fill:#eeeeee;fill-opacity:0;stroke:#111111;stroke-width:0.529167;stroke-dasharray:none"
       d="M 1020.2114,800.58075 389.17057,467.85443 915.90705,950.14016"
       id="path55650"
       sodipodi:nodetypes="ccc" /><path
       style="opacity:0.91;fill:#eeeeee;fill-opacity:0;stroke:#111111;stroke-width:0.529167;stroke-dasharray:none"
       d="M 1053.0759,825.95361 1535.0719,1351.8808 934.8877,964.80224"
       id="path55652"
       sodipodi:nodetypes="ccc" /><path
       style="opacity:0.91;fill:#eeeeee;fill-opacity:0;stroke:#111111;stroke-width:0.529167;stroke-dasharray:none"
       d="M 1027.4183,804.28677 427.84507,417.72338 910.45157,944.16599"
       id="path55654"
       sodipodi:nodetypes="ccc" /><path
       style="opacity:0.91;fill:#eeeeee;fill-opacity:0;stroke:#111111;stroke-width:0.529167;stroke-dasharray:none"
       d="M 1057.9775,832.48533 1491.814,1398.7939 928.02729,960.39289"
       id="path55656"
       sodipodi:nodetypes="ccc" /><path
       style="opacity:0.91;fill:#eeeeee;fill-opacity:0;stroke:#111111;stroke-width:0.529167;stroke-dasharray:none"
       d="M 1034.3264,808.64434 471.103,370.81024 905.50227,937.686"
       id="path55658"
       sodipodi:nodetypes="ccc" /><path
       style="opacity:0.91;fill:#eeeeee;fill-opacity:0;stroke:#111111;stroke-width:0.529167;stroke-dasharray:none"
       d="M 1062.1872,839.24906 1445.7938,1440.7185 921.73383,955.52569"
       id="path55660"
       sodipodi:nodetypes="ccc" /><path
       style="opacity:0.91;fill:#eeeeee;fill-opacity:0;stroke:#111111;stroke-width:0.529167;stroke-dasharray:none"
       d="M 1040.6706,813.46526 517.12319,328.88565 901.24179,930.9685"
       id="path55662"
       sodipodi:nodetypes="ccc" /><path
       style="opacity:0.91;fill:#eeeeee;fill-opacity:0;stroke:#111111;stroke-width:0.529167;stroke-dasharray:none"
       d="M 1065.7561,846.25182 1397.0297,1478.0566 915.95712,950.21182"
       id="path55664"
       sodipodi:nodetypes="ccc" /><path
       style="opacity:0.91;fill:#eeeeee;fill-opacity:0;stroke:#111111;stroke-width:0.529167;stroke-dasharray:none"
       d="M 1046.5011,818.73791 565.88733,291.54753 897.61913,924.00691"
       id="path55666"
       sodipodi:nodetypes="ccc" /><path
       style="opacity:0.91;fill:#eeeeee;fill-opacity:0;stroke:#111111;stroke-width:0.529167;stroke-dasharray:none"
       d="M 1068.8512,853.90358 1342.6075,1512.6729 910.3981,944.12564"
       id="path55668"
       sodipodi:nodetypes="ccc" /><path
       style="opacity:0.91;fill:#eeeeee;fill-opacity:0;stroke:#111111;stroke-width:0.529167;stroke-dasharray:none"
       d="M 1052.1202,824.78587 620.3095,256.93126 894.46394,916.39331"
       id="path55670"
       sodipodi:nodetypes="ccc" /><path
       style="opacity:0.91;fill:#eeeeee;fill-opacity:0;stroke:#111111;stroke-width:0.529167;stroke-dasharray:none"
       d="m 1071.2347,861.72755 214.62,680.33655 -380.40936,-604.43338"
       id="path55672"
       sodipodi:nodetypes="ccc" /><path
       style="opacity:0.91;fill:#eeeeee;fill-opacity:0;stroke:#111111;stroke-width:0.529167;stroke-dasharray:none"
       d="M 1057.1356,831.24834 677.06232,227.54008 892.01782,908.60174"
       id="path55674"
       sodipodi:nodetypes="ccc" /><path
       style="opacity:0.91;fill:#eeeeee;fill-opacity:0;stroke:#111111;stroke-width:0.529167;stroke-dasharray:none"
       d="M 1072.8831,869.51319 1228.3558,1565.7515 901.19408,930.91595"
       id="path55676"
       sodipodi:nodetypes="ccc" /><path
       style="opacity:0.91;fill:#eeeeee;fill-opacity:0;stroke:#111111;stroke-width:0.529167;stroke-dasharray:none"
       d="M 1061.4503,837.93696 734.56118,203.85268 890.30603,900.8422"
       id="path55678"
       sodipodi:nodetypes="ccc" /><path
       style="opacity:0.91;fill:#eeeeee;fill-opacity:0;stroke:#111111;stroke-width:0.529167;stroke-dasharray:none"
       d="M 1073.8621,877.46857 1168.6052,1584.5353 897.51035,923.80946"
       id="path55680"
       sodipodi:nodetypes="ccc" /><path
       style="opacity:0.91;fill:#eeeeee;fill-opacity:0;stroke:#111111;stroke-width:0.529167;stroke-dasharray:none"
       d="M 1065.2,845.02271 794.31185,185.06892 889.2611,892.90752"
       id="path55682"
       sodipodi:nodetypes="ccc" /><path
       style="opacity:0.91;fill:#eeeeee;fill-opacity:0;stroke:#111111;stroke-width:0.529167;stroke-dasharray:none"
       d="M 1074.1489,885.63643 1106.2418,1598.3003 894.4007,916.26326"
       id="path55684"
       sodipodi:nodetypes="ccc" /><path
       style="opacity:0.91;fill:#eeeeee;fill-opacity:0;stroke:#111111;stroke-width:0.529167;stroke-dasharray:none"
       d="M 1068.3785,852.5537 856.67525,171.304 888.90551,884.75481"
       id="path55686"
       sodipodi:nodetypes="ccc" /><path
       style="opacity:0.91;fill:#eeeeee;fill-opacity:0;stroke:#111111;stroke-width:0.529167;stroke-dasharray:none"
       d="M 1073.7421,893.51633 1045.1097,1606.3276 892.04047,908.74538"
       id="path55688"
       sodipodi:nodetypes="ccc" /><path
       style="opacity:0.91;fill:#eeeeee;fill-opacity:0;stroke:#111111;stroke-width:0.529167;stroke-dasharray:none"
       d="M 1070.8062,860.06271 917.80733,163.27668 889.24485,876.88374"
       id="path55690"
       sodipodi:nodetypes="ccc" /><path
       style="opacity:0.91;fill:#eeeeee;fill-opacity:0;stroke:#111111;stroke-width:0.529167;stroke-dasharray:none"
       d="M 1072.6642,901.34413 983.40517,1609.1241 890.32578,901.03702"
       id="path55692"
       sodipodi:nodetypes="ccc" /><path
       style="opacity:0.91;fill:#eeeeee;fill-opacity:0;stroke:#111111;stroke-width:0.529167;stroke-dasharray:none"
       d="M 1072.5892,867.76202 979.51212,160.47418 890.25491,869.05304"
       id="path55694"
       sodipodi:nodetypes="ccc" /><path
       style="opacity:0.91;fill:#eeeeee;fill-opacity:0;stroke:#111111;stroke-width:0.529167;stroke-dasharray:none"
       d="M 1070.8298,909.39565 918.93281,1606.4229 889.24226,892.86171"
       id="path55696"
       sodipodi:nodetypes="ccc" /><path
       style="opacity:0.91;fill:#eeeeee;fill-opacity:0;stroke:#111111;stroke-width:0.529167;stroke-dasharray:none"
       d="M 1073.7439,875.94013 1043.9845,163.17523 892.01824,860.99835"
       id="path55698"
       sodipodi:nodetypes="ccc" /><path
       style="opacity:0.91;fill:#eeeeee;fill-opacity:0;stroke:#111111;stroke-width:0.529167;stroke-dasharray:none"
       d="M 1068.2908,917.23678 855.05703,1598.0092 888.89075,884.63244"
       id="path55700"
       sodipodi:nodetypes="ccc" /><path
       style="opacity:0.91;fill:#eeeeee;fill-opacity:0;stroke:#111111;stroke-width:0.529167;stroke-dasharray:none"
       d="M 1074.1662,884.17255 1107.8606,171.58283 894.48711,853.1418"
       id="path55702"
       sodipodi:nodetypes="ccc" /><path
       style="opacity:0.91;fill:#eeeeee;fill-opacity:0;stroke:#111111;stroke-width:0.529167;stroke-dasharray:none"
       d="m 1065.0924,924.7662 -272.42529,659.321 96.59855,-707.61561"
       id="path55704"
       sodipodi:nodetypes="ccc" /><path
       style="opacity:0.91;fill:#eeeeee;fill-opacity:0;stroke:#111111;stroke-width:0.529167;stroke-dasharray:none"
       d="M 1073.8601,892.34875 1170.2505,185.50484 897.61668,845.597"
       id="path55706"
       sodipodi:nodetypes="ccc" /><path
       style="opacity:0.91;fill:#eeeeee;fill-opacity:0;stroke:#111111;stroke-width:0.529167;stroke-dasharray:none"
       d="M 1061.2329,932.00072 731.60774,1564.6673 890.36202,868.35683"
       id="path55708"
       sodipodi:nodetypes="ccc" /><path
       style="opacity:0.91;fill:#eeeeee;fill-opacity:0;stroke:#111111;stroke-width:0.529167;stroke-dasharray:none"
       d="M 1072.8311,900.48492 1231.3099,204.92478 901.40882,838.34104"
       id="path55710"
       sodipodi:nodetypes="ccc" /><path
       style="opacity:0.91;fill:#eeeeee;fill-opacity:0;stroke:#111111;stroke-width:0.529167;stroke-dasharray:none"
       d="M 1056.7765,938.8278 672.83453,1540.0834 892.15888,860.41583"
       id="path55712"
       sodipodi:nodetypes="ccc" /><path
       style="opacity:0.91;fill:#eeeeee;fill-opacity:0;stroke:#111111;stroke-width:0.529167;stroke-dasharray:none"
       d="M 1071.0991,908.45303 1290.0831,229.50867 905.80041,831.48681"
       id="path55714"
       sodipodi:nodetypes="ccc" /><path
       style="opacity:0.91;fill:#eeeeee;fill-opacity:0;stroke:#111111;stroke-width:0.529167;stroke-dasharray:none"
       d="M 1051.9481,944.99105 618.63639,1511.7014 894.53485,852.96686"
       id="path55716"
       sodipodi:nodetypes="ccc" /><path
       style="opacity:0.91;fill:#eeeeee;fill-opacity:0;stroke:#111111;stroke-width:0.529167;stroke-dasharray:none"
       d="M 1068.783,915.9333 1344.2812,257.89065 910.56901,825.29223"
       id="path55718"
       sodipodi:nodetypes="ccc" /><path
       style="opacity:0.91;fill:#eeeeee;fill-opacity:0;stroke:#111111;stroke-width:0.529167;stroke-dasharray:none"
       d="M 1046.5745,950.76668 566.64525,1478.5806 897.55605,845.69108"
       id="path55720"
       sodipodi:nodetypes="ccc" /><path
       style="opacity:0.91;fill:#eeeeee;fill-opacity:0;stroke:#111111;stroke-width:0.529167;stroke-dasharray:none"
       d="M 1065.8192,923.24562 1396.2723,291.01141 915.88529,819.48004"
       id="path55722"
       sodipodi:nodetypes="ccc" /><path
       style="opacity:0.91;fill:#eeeeee;fill-opacity:0;stroke:#111111;stroke-width:0.529167;stroke-dasharray:none"
       d="M 1040.563,956.2024 516.36352,1440.0768 901.29259,838.51162"
       id="path55724"
       sodipodi:nodetypes="ccc" /><path
       style="opacity:0.91;fill:#eeeeee;fill-opacity:0;stroke:#111111;stroke-width:0.529167;stroke-dasharray:none"
       d="M 1062.1382,930.46756 1446.554,329.51516 921.84131,814.00183"
       id="path55726"
       sodipodi:nodetypes="ccc" /><path
       style="opacity:0.91;fill:#eeeeee;fill-opacity:0;stroke:#111111;stroke-width:0.529167;stroke-dasharray:none"
       d="M 1034.0249,961.14382 469.13491,1396.8259 905.69409,831.61166"
       id="path55728"
       sodipodi:nodetypes="ccc" /><path
       style="opacity:0.91;fill:#eeeeee;fill-opacity:0;stroke:#111111;stroke-width:0.529167;stroke-dasharray:none"
       d="M 1057.7888,937.41525 1493.7826,372.76606 928.32738,809.01268"
       id="path55730"
       sodipodi:nodetypes="ccc" /><path
       style="opacity:0.91;fill:#eeeeee;fill-opacity:0;stroke:#111111;stroke-width:0.529167;stroke-dasharray:none"
       d="M 1027.2503,965.38959 426.91762,1350.7729 910.55896,825.28064"
       id="path55732"
       sodipodi:nodetypes="ccc" /><path
       style="opacity:0.91;fill:#eeeeee;fill-opacity:0;stroke:#111111;stroke-width:0.529167;stroke-dasharray:none"
       d="M 1052.9705,943.79709 1535.9999,418.81906 935.05547,804.7161"
       id="path55734"
       sodipodi:nodetypes="ccc" /><path
       style="opacity:0.91;fill:#eeeeee;fill-opacity:0;stroke:#111111;stroke-width:0.529167;stroke-dasharray:none"
       d="M 1020.1095,969.04748 388.69988,1301.0739 915.97109,819.37257"
       id="path55736"
       sodipodi:nodetypes="ccc" /><path
       style="opacity:0.91;fill:#eeeeee;fill-opacity:0;stroke:#111111;stroke-width:0.529167;stroke-dasharray:none"
       d="M 1047.6005,949.76 1574.2176,468.51809 942.15414,801.00338"
       id="path55738"
       sodipodi:nodetypes="ccc" /><path
       style="opacity:0.91;fill:#eeeeee;fill-opacity:0;stroke:#111111;stroke-width:0.529167;stroke-dasharray:none"
       d="M 1012.6868,972.07144 354.9548,1248.311 921.86765,813.95986"
       id="path55740"
       sodipodi:nodetypes="ccc" /><path
       style="opacity:0.91;fill:#eeeeee;fill-opacity:0;stroke:#111111;stroke-width:0.529167;stroke-dasharray:none"
       d="M 1041.7412,955.23094 1607.9626,521.28098 949.53967,797.92121"
       id="path55742"
       sodipodi:nodetypes="ccc" /><path
       style="opacity:0.91;fill:#eeeeee;fill-opacity:0;stroke:#111111;stroke-width:0.529167;stroke-dasharray:none"
       d="M 1004.9548,974.46278 325.63362,1192.2757 928.27381,809.03177"
       id="path55744"
       sodipodi:nodetypes="ccc" /><path
       style="opacity:0.91;fill:#eeeeee;fill-opacity:0;stroke:#111111;stroke-width:0.529167;stroke-dasharray:none"
       d="M 1035.3674,960.22088 1637.2838,577.3163 957.23939,795.46807"
       id="path55746"
       sodipodi:nodetypes="ccc" /><path
       style="opacity:0.91;fill:#eeeeee;fill-opacity:0;stroke:#111111;stroke-width:0.529167;stroke-dasharray:none"
       d="M 997.08875,976.16284 301.43519,1134.232 935.04588,804.70417"
       id="path55748"
       sodipodi:nodetypes="ccc" /><path
       style="opacity:0.91;fill:#eeeeee;fill-opacity:0;stroke:#111111;stroke-width:0.529167;stroke-dasharray:none"
       d="M 1028.622,964.61254 1661.4822,635.35997 965.07878,793.704"
       id="path55750"
       sodipodi:nodetypes="ccc" /><path
       style="opacity:0.91;fill:#eeeeee;fill-opacity:0;stroke:#111111;stroke-width:0.529167;stroke-dasharray:none"
       d="M 989.132,977.17196 282.41821,1074.5134 942.14319,800.99181"
       id="path55752"
       sodipodi:nodetypes="ccc" /><path
       style="opacity:0.91;fill:#eeeeee;fill-opacity:0;stroke:#111111;stroke-width:0.529167;stroke-dasharray:none"
       d="M 1021.5457,968.3908 1680.4992,695.07859 973.01458,792.62903"
       id="path55754"
       sodipodi:nodetypes="ccc" /><path
       style="opacity:0.91;fill:#eeeeee;fill-opacity:0;stroke:#111111;stroke-width:0.529167;stroke-dasharray:none"
       d="M 980.93631,977.48863 268.38443,1011.9785 949.70503,797.84454"
       id="path55756"
       sodipodi:nodetypes="ccc" /><path
       style="opacity:0.91;fill:#eeeeee;fill-opacity:0;stroke:#111111;stroke-width:0.529167;stroke-dasharray:none"
       d="M 1013.9993,971.60708 1694.533,757.61352 981.19481,792.2434"
       id="path55758"
       sodipodi:nodetypes="ccc"
       inkscape:label="path55758" /><path
       style="opacity:0.91;fill:#eeeeee;fill-opacity:0;stroke:#111111;stroke-width:0.529167;stroke-dasharray:none"
       d="M 972.69165,977.07457 259.89693,948.03295 957.5669,795.36427"
       id="path55760"
       sodipodi:nodetypes="ccc"
       inkscape:label="path55760" /><path
       style="opacity:0.91;fill:#eeeeee;fill-opacity:0;stroke:#111111;stroke-width:0.529167;stroke-dasharray:none"
       d="M 1006.1468,974.15791 1703.0205,821.55906 989.43013,792.58694"
       id="path55762"
       sodipodi:nodetypes="ccc" /></g><g
     inkscape:groupmode="layer"
     id="layer35"
     inkscape:label="head-mandala-1"
     style="display:inline"><path
       sodipodi:type="star"
       style="opacity:0.91;fill:#eeeeee;fill-opacity:0;stroke:#111111;stroke-width:1.06683;stroke-dasharray:none"
       id="path57564"
       inkscape:flatsided="false"
       sodipodi:sides="36"
       sodipodi:cx="829.82953"
       sodipodi:cy="177.99243"
       sodipodi:r1="271.65286"
       sodipodi:r2="260.78677"
       sodipodi:arg1="0.52903047"
       sodipodi:arg2="0.61629693"
       inkscape:rounded="0"
       inkscape:randomized="0"
       d="m 1064.3466,315.0947 -21.7087,13.63701 -5.6617,25.00356 -23.7469,9.66016 -9.9176,23.64055 -25.06356,5.38979 -13.87203,21.55924 -25.61874,0.95566 -17.405,18.82285 -25.39549,-3.50751 -20.40913,15.51454 -24.40061,-7.86409 -22.79314,11.73483 -22.66432,-11.98175 -24.48459,7.59857 -20.23939,-15.73533 -25.43209,3.23142 -17.1995,-19.01081 -25.60685,-1.23391 -13.63701,-21.70866 -25.00356,-5.66174 -9.66016,-23.74689 -23.64055,-9.91756 -5.38979,-25.06359 -21.55923,-13.87203 -0.95567,-25.61874 -18.82285,-17.405 3.50751,-25.39549 -15.51454,-20.40913 7.86409,-24.4006 -11.73483,-22.79315 11.98175,-22.66431 -7.59857,-24.4846 15.73533,-20.23939 -3.23142,-25.432092 19.01081,-17.199494 1.23391,-25.606855 21.70866,-13.637003 5.66174,-25.0035628 23.74689,-9.6601587 9.91756,-23.6405505 25.06359,-5.389795 13.87203,-21.559231 25.61874,-0.955665 17.405,-18.822846 25.39549,3.507502 20.40913,-15.514539 24.40061,7.864096 22.79314,-11.73483 22.66431,11.981743 24.4846,-7.598563 20.23939,15.735331 25.43209,-3.23142 17.1995,19.010809 25.60685,1.23391 13.637,21.708653 25.0036,5.661748 9.6601,23.7468901 23.6406,9.9175563 5.3898,25.0635906 21.5592,13.872025 0.9557,25.618746 18.8228,17.404999 -3.5075,25.395486 15.5146,20.40913 -7.8641,24.40061 11.7348,22.79314 -11.9818,22.66432 7.5986,24.48459 -15.7353,20.23939 3.2314,25.43209 -19.0108,17.1995 z"
       transform="matrix(0.63239536,0,0,0.63234739,445.51883,312.01892)"
       inkscape:transform-center-y="-4.8296488e-06"
       inkscape:transform-center-x="3.0775031e-06" /><path
       style="opacity:0.91;fill:#eeeeee;fill-opacity:0;stroke:#111111;stroke-width:0.79375;stroke-dasharray:none"
       d="m 1057.5983,275.60763 293.2466,150.66552 -296.1863,147.72569"
       id="path57568"
       sodipodi:nodetypes="ccc" /><path
       style="opacity:0.91;fill:#eeeeee;fill-opacity:0;stroke:#111111;stroke-width:0.79375;stroke-dasharray:none"
       d="M 883.14721,274.66689 589.90061,423.8625 886.08691,573.0581"
       id="path57570"
       sodipodi:nodetypes="ccc" /><path
       style="opacity:0.91;fill:#eeeeee;fill-opacity:0;stroke:#111111;stroke-width:0.79375;stroke-dasharray:none"
       d="m 1082.2126,293.11035 262.4563,199.5254 -317.4201,93.77467"
       id="path57572"
       sodipodi:nodetypes="ccc" /><path
       style="opacity:0.91;fill:#eeeeee;fill-opacity:0;stroke:#111111;stroke-width:0.79375;stroke-dasharray:none"
       d="m 910.60228,261.74234 -314.782,95.73503 265.60735,198.591"
       id="path57574"
       sodipodi:nodetypes="ccc" /><path
       style="opacity:0.91;fill:#eeeeee;fill-opacity:0;stroke:#111111;stroke-width:0.79375;stroke-dasharray:none"
       d="M 1103.0124,314.25088 1327.366,555.82726 998.56711,593.78108"
       id="path57576"
       sodipodi:nodetypes="ccc" /><path
       style="opacity:0.91;fill:#eeeeee;fill-opacity:0;stroke:#111111;stroke-width:0.79375;stroke-dasharray:none"
       d="M 939.32314,253.91945 612.7871,294.25697 840.40532,535.45315"
       id="path57578"
       sodipodi:nodetypes="ccc" /><path
       style="opacity:0.91;fill:#eeeeee;fill-opacity:0;stroke:#111111;stroke-width:0.79375;stroke-dasharray:none"
       d="m 1120.097,339.13062 178.7544,277.0208 -330.37692,-20.00608"
       id="path57580"
       sodipodi:nodetypes="ccc" /><path
       style="opacity:0.91;fill:#eeeeee;fill-opacity:0;stroke:#111111;stroke-width:0.79375;stroke-dasharray:none"
       d="M 969.4476,251.16007 640.88277,233.89601 822.91812,511.11213"
       id="path57582"
       sodipodi:nodetypes="ccc" /><path
       style="opacity:0.91;fill:#eeeeee;fill-opacity:0;stroke:#111111;stroke-width:0.79375;stroke-dasharray:none"
       d="m 1132.6047,366.17471 128.5841,303.5783 -322.04781,-76.38288"
       id="path57584"
       sodipodi:nodetypes="ccc" /><path
       style="opacity:0.91;fill:#eeeeee;fill-opacity:0;stroke:#111111;stroke-width:0.79375;stroke-dasharray:none"
       d="M 999.27898,253.66554 678.546,180.29489 810.32896,484.62842"
       id="path57586"
       sodipodi:nodetypes="ccc" /><path
       style="opacity:0.91;fill:#eeeeee;fill-opacity:0;stroke:#111111;stroke-width:0.79375;stroke-dasharray:none"
       d="M 1140.1747,394.32948 1215.9712,715.18545 911.31641,585.82316"
       id="path57588"
       sodipodi:nodetypes="ccc" /><path
       style="opacity:0.91;fill:#eeeeee;fill-opacity:0;stroke:#111111;stroke-width:0.79375;stroke-dasharray:none"
       d="M 1027.6285,261.03509 723.76417,134.86301 802.5873,457.00049"
       id="path57590"
       sodipodi:nodetypes="ccc" /><path
       style="opacity:0.91;fill:#eeeeee;fill-opacity:0;stroke:#111111;stroke-width:0.79375;stroke-dasharray:none"
       d="M 1142.9189,425.11554 1160.429,754.33744 883.6458,572.84302"
       id="path57592"
       sodipodi:nodetypes="ccc" /><path
       style="opacity:0.91;fill:#eeeeee;fill-opacity:0;stroke:#111111;stroke-width:0.79375;stroke-dasharray:none"
       d="M 1055.8797,273.92618 779.30689,95.711702 799.56734,426.73308"
       id="path57594"
       sodipodi:nodetypes="ccc" /><path
       style="opacity:0.91;fill:#eeeeee;fill-opacity:0;stroke:#111111;stroke-width:0.79375;stroke-dasharray:none"
       d="M 1140.2099,455.52613 1099.5907,782.70153 859.01053,555.39038"
       id="path57596"
       sodipodi:nodetypes="ccc" /><path
       style="opacity:0.91;fill:#eeeeee;fill-opacity:0;stroke:#111111;stroke-width:0.79375;stroke-dasharray:none"
       d="M 1081.095,291.39364 840.14556,67.348361 801.91766,396.77857"
       id="path57598"
       sodipodi:nodetypes="ccc" /><path
       style="opacity:0.91;fill:#eeeeee;fill-opacity:0;stroke:#111111;stroke-width:0.79375;stroke-dasharray:none"
       d="M 1132.2763,484.61765 1035.1033,799.65902 837.95178,533.80106"
       id="path57600"
       sodipodi:nodetypes="ccc" /><path
       style="opacity:0.91;fill:#eeeeee;fill-opacity:0;stroke:#111111;stroke-width:0.79375;stroke-dasharray:none"
       d="M 1102.7559,312.67991 904.67003,49.973021 809.45743,367.65241"
       id="path57602"
       sodipodi:nodetypes="ccc" /><path
       style="opacity:0.91;fill:#eeeeee;fill-opacity:0;stroke:#111111;stroke-width:0.79375;stroke-dasharray:none"
       d="M 1119.5468,511.55447 969.50535,805.12088 821.15001,509.2495"
       id="path57604"
       sodipodi:nodetypes="ccc" /><path
       style="opacity:0.91;fill:#eeeeee;fill-opacity:0;stroke:#111111;stroke-width:0.79375;stroke-dasharray:none"
       d="M 1120.1165,337.10186 970.29747,44.17324 821.73222,340.67619"
       id="path57606"
       sodipodi:nodetypes="ccc" /><path
       style="opacity:0.91;fill:#eeeeee;fill-opacity:0;stroke:#111111;stroke-width:0.79375;stroke-dasharray:none"
       d="M 1101.3289,537.10503 900.56504,798.61512 808.29198,480.75531"
       id="path57608"
       sodipodi:nodetypes="ccc" /><path
       style="opacity:0.91;fill:#eeeeee;fill-opacity:0;stroke:#111111;stroke-width:0.79375;stroke-dasharray:none"
       d="M 1133.5079,365.64496 1039.262,50.413884 839.41761,315.07944"
       id="path57610"
       sodipodi:nodetypes="ccc" /><path
       style="opacity:0.91;fill:#eeeeee;fill-opacity:0;stroke:#111111;stroke-width:0.79375;stroke-dasharray:none"
       d="M 1080.0542,557.83251 837.36062,780.97709 801.04898,451.99283"
       id="path57612"
       sodipodi:nodetypes="ccc" /><path
       style="opacity:0.91;fill:#eeeeee;fill-opacity:0;stroke:#111111;stroke-width:0.79375;stroke-dasharray:none"
       d="M 1141.2022,394.44659 1102.4956,67.713186 860.16592,294.12425"
       id="path57614"
       sodipodi:nodetypes="ccc" /><path
       style="opacity:0.91;fill:#eeeeee;fill-opacity:0;stroke:#111111;stroke-width:0.79375;stroke-dasharray:none"
       d="M 1054.2911,575.23513 775.44681,751.13145 798.84919,420.97769"
       id="path57616"
       sodipodi:nodetypes="ccc" /><path
       style="opacity:0.91;fill:#eeeeee;fill-opacity:0;stroke:#111111;stroke-width:0.79375;stroke-dasharray:none"
       d="M 1143.8062,425.49839 1164.4481,97.128435 885.37472,276.30346"
       id="path57618"
       sodipodi:nodetypes="ccc" /><path
       style="opacity:0.91;fill:#eeeeee;fill-opacity:0;stroke:#111111;stroke-width:0.79375;stroke-dasharray:none"
       d="M 1025.977,587.85962 720.22319,711.1815 802.15681,390.50088"
       id="path57620"
       sodipodi:nodetypes="ccc" /><path
       style="opacity:0.91;fill:#eeeeee;fill-opacity:0;stroke:#111111;stroke-width:0.79375;stroke-dasharray:none"
       d="M 1140.7721,456.49703 1219.6712,137.07906 913.10705,263.58617"
       id="path57622"
       sodipodi:nodetypes="ccc" /><path
       style="opacity:0.91;fill:#eeeeee;fill-opacity:0;stroke:#111111;stroke-width:0.79375;stroke-dasharray:none"
       d="m 997.10288,595.03752 -322.359,69.12565 135.65305,-301.90632"
       id="path57624"
       sodipodi:nodetypes="ccc" /><path
       style="opacity:0.91;fill:#eeeeee;fill-opacity:0;stroke:#111111;stroke-width:0.79375;stroke-dasharray:none"
       d="m 1132.7028,485.28007 132.4471,-301.18212 -323.70294,72.125"
       id="path57626"
       sodipodi:nodetypes="ccc" /><path
       style="opacity:0.91;fill:#eeeeee;fill-opacity:0;stroke:#111111;stroke-width:0.79375;stroke-dasharray:none"
       d="m 968.62177,597.17667 -329.3384,15.16228 183.46331,-275.4821"
       id="path57628"
       sodipodi:nodetypes="ccc" /><path
       style="opacity:0.91;fill:#eeeeee;fill-opacity:0;stroke:#111111;stroke-width:0.79375;stroke-dasharray:none"
       d="M 1120.4279,511.21769 1300.6098,235.9226 969.4524,253.82233"
       id="path57630"
       sodipodi:nodetypes="ccc" /><path
       style="opacity:0.91;fill:#eeeeee;fill-opacity:0;stroke:#111111;stroke-width:0.79375;stroke-dasharray:none"
       d="M 938.89852,594.37394 611.85515,552.70491 839.93725,312.85552"
       id="path57632"
       sodipodi:nodetypes="ccc" /><path
       style="opacity:0.91;fill:#eeeeee;fill-opacity:0;stroke:#111111;stroke-width:0.79375;stroke-dasharray:none"
       d="M 1103.2199,535.78614 1328.0373,295.55698 998.73148,256.27202"
       id="path57634"
       sodipodi:nodetypes="ccc" /><path
       style="opacity:0.91;fill:#eeeeee;fill-opacity:0;stroke:#111111;stroke-width:0.79375;stroke-dasharray:none"
       d="M 909.65057,586.27847 595.03355,487.74013 861.74397,291.74339"
       id="path57636"
       sodipodi:nodetypes="ccc" /><path
       style="opacity:0.91;fill:#eeeeee;fill-opacity:0;stroke:#111111;stroke-width:0.79375;stroke-dasharray:none"
       d="M 1081.7147,557.50397 1345.2781,360.55919 1028.0146,263.96986"
       id="path57638"
       sodipodi:nodetypes="ccc" /></g></svg>
