<?xml version="1.0" encoding="UTF-8" standalone="no"?>
<!-- Created with Inkscape (http://www.inkscape.org/) -->

<svg
   width="210mm"
   height="297mm"
   viewBox="0 0 210 297"
   version="1.1"
   id="svg5"
   inkscape:version="1.2.1 (9c6d41e, 2022-07-14)"
   sodipodi:docname="tara-yantra2.svg"
   xmlns:inkscape="http://www.inkscape.org/namespaces/inkscape"
   xmlns:sodipodi="http://sodipodi.sourceforge.net/DTD/sodipodi-0.dtd"
   xmlns="http://www.w3.org/2000/svg"
   xmlns:svg="http://www.w3.org/2000/svg">
  <sodipodi:namedview
     id="namedview7"
     pagecolor="#ffffff"
     bordercolor="#000000"
     borderopacity="0.25"
     inkscape:showpageshadow="2"
     inkscape:pageopacity="0.0"
     inkscape:pagecheckerboard="0"
     inkscape:deskcolor="#d1d1d1"
     inkscape:document-units="mm"
     showgrid="false"
     inkscape:zoom="1.08"
     inkscape:cx="432.87037"
     inkscape:cy="561.57407"
     inkscape:window-width="2138"
     inkscape:window-height="1387"
     inkscape:window-x="211"
     inkscape:window-y="25"
     inkscape:window-maximized="0"
     inkscape:current-layer="layer1" />
  <defs
     id="defs2">
    <linearGradient
       id="linearGradient5164"
       inkscape:swatch="solid">
      <stop
         style="stop-color:#707070;stop-opacity:1;"
         offset="0"
         id="stop5162" />
    </linearGradient>
  </defs>
  <g
     inkscape:label="Layer 1"
     inkscape:groupmode="layer"
     id="layer1">
    <ellipse
       style="fill:#ffffff;fill-opacity:0;stroke:#000000;stroke-width:0.365249;stroke-dasharray:none;stroke-opacity:1"
       id="path5375"
       cx="104.87579"
       cy="133.02161"
       rx="47.22192"
       ry="47.321918" />
    <path
       style="fill:#ffffff;fill-opacity:0;stroke:#000000;stroke-width:0.4;stroke-dasharray:none;stroke-opacity:1"
       d="M 83.468483,207.90661 H 67.062032 48.75516 30.048286 V 189.19974 170.49286 154.4864 m 0,-42.81459 V 95.665364 76.95849 58.251616 H 48.75516 67.462034 83.468483 m 42.814597,0 h 16.00644 18.70688 18.70687 V 76.95849 95.665364 111.87181 m 0,42.61459 v 16.00646 18.70688 18.70687 H 160.9964 142.28952 126.28308"
       id="path7023"
       sodipodi:nodetypes="cccccccccccccccccccccccccccc" />
    <path
       style="fill:#ffffff;fill-opacity:0;stroke:#000000;stroke-width:0.4;stroke-dasharray:none;stroke-opacity:1"
       d="m 57.471248,38.312523 h 47.404542 47.40455"
       id="path7170"
       sodipodi:nodetypes="ccc" />
    <path
       style="fill:#ffffff;fill-opacity:0;stroke:#000000;stroke-width:0.4;stroke-dasharray:none;stroke-opacity:1"
       d="m 57.471248,38.312523 v 9.937404 m 0,169.658363 v 10.0224"
       id="path7172"
       sodipodi:nodetypes="cccc" />
    <path
       style="fill:#ffffff;fill-opacity:0;stroke:#000000;stroke-width:0.4;stroke-dasharray:none;stroke-opacity:1"
       d="m 152.28034,38.312523 v 9.937404 m 0,169.658363 v 10.0224"
       id="path7174"
       sodipodi:nodetypes="cccc" />
    <path
       style="fill:#ffffff;fill-opacity:0;stroke:#000000;stroke-width:0.4;stroke-dasharray:none;stroke-opacity:1"
       d="m 10.066704,85.717064 9.97989,1e-6 m 169.658376,0 9.97991,-1e-6"
       id="path7176"
       sodipodi:nodetypes="cccc" />
    <path
       style="fill:#ffffff;fill-opacity:0;stroke:#000000;stroke-width:0.4;stroke-dasharray:none;stroke-opacity:1"
       d="m 10.066704,180.52615 h 9.979891 m 169.658375,0 h 9.97991"
       id="path7178"
       sodipodi:nodetypes="cccc" />
    <path
       style="fill:#ffffff;fill-opacity:0;stroke:#000000;stroke-width:0.4;stroke-dasharray:none;stroke-opacity:1"
       d="M 189.70497,180.52615 V 154.2864 m 0,-42.41459 V 85.717065 M 152.28034,48.249927 h -26.19726 m -42.414595,0 H 57.471248 M 20.046594,85.717065 v 26.154745 m 1e-6,68.65434 V 154.2864 l 10.001691,0.2"
       id="path7906"
       sodipodi:nodetypes="cccccccccccc" />
    <path
       style="fill:#ffffff;fill-opacity:0;stroke:#000000;stroke-width:0.4;stroke-dasharray:none;stroke-opacity:1"
       d="m 57.471248,217.90829 h 26.197238 m 42.414594,0 h 26.19726"
       id="path7908"
       sodipodi:nodetypes="cccc" />
    <path
       style="fill:#ffffff;fill-opacity:0;stroke:#000000;stroke-width:0.4;stroke-dasharray:none;stroke-opacity:1"
       d="m 199.68488,85.717065 v 47.404545 47.40454"
       id="path7910"
       sodipodi:nodetypes="ccc" />
    <path
       style="fill:#ffffff;fill-opacity:0;stroke:#000000;stroke-width:0.4;stroke-dasharray:none;stroke-opacity:1"
       d="m 10.066704,85.717065 v 47.404545 47.40454"
       id="path7912"
       sodipodi:nodetypes="ccc" />
    <path
       style="fill:#ffffff;fill-opacity:0;stroke:#000000;stroke-width:0.4;stroke-dasharray:none;stroke-opacity:1"
       d="m 57.471248,227.93069 h 47.404542 47.40455"
       id="path7920"
       sodipodi:nodetypes="ccc" />
    <path
       style="fill:#ffffff;fill-opacity:0;stroke:#000000;stroke-width:0.399276;stroke-dasharray:none;stroke-opacity:1"
       d="m 144.64912,107.51201 -39.77727,72.83532 -39.751438,-72.8634 z"
       id="path7922"
       sodipodi:nodetypes="cccc" />
    <path
       style="fill:#ffffff;fill-opacity:0;stroke:#000000;stroke-width:0.4;stroke-dasharray:none;stroke-opacity:1"
       d="m 20.046594,111.87181 10.001693,-0.2"
       id="path8680" />
    <path
       style="fill:#ffffff;fill-opacity:0;stroke:#000000;stroke-width:0.4;stroke-dasharray:none;stroke-opacity:1"
       d="M 83.668483,48.249927 83.468481,58.251616"
       id="path8682" />
    <path
       style="fill:#ffffff;fill-opacity:0;stroke:#000000;stroke-width:0.4;stroke-dasharray:none;stroke-opacity:1"
       d="m 126.08308,48.249927 0.2,10.001689"
       id="path8684" />
    <path
       style="fill:#ffffff;fill-opacity:0;stroke:#000000;stroke-width:0.4;stroke-dasharray:none;stroke-opacity:1"
       d="m 179.70327,111.87181 h 10.0017"
       id="path8686" />
    <path
       style="fill:#ffffff;fill-opacity:0;stroke:#000000;stroke-width:0.4;stroke-dasharray:none;stroke-opacity:1"
       d="m 179.70327,154.4864 10.0017,-0.2"
       id="path8688" />
    <path
       style="fill:#ffffff;fill-opacity:0;stroke:#000000;stroke-width:0.4;stroke-dasharray:none;stroke-opacity:1"
       d="m 83.468481,207.90661 0.200004,10.00168"
       id="path8690" />
    <path
       style="fill:#ffffff;fill-opacity:0;stroke:#000000;stroke-width:0.4;stroke-dasharray:none;stroke-opacity:1"
       d="m 126.28308,207.90661 -0.2,10.00168"
       id="path8692" />
    <path
       style="fill:#ffffff;fill-opacity:0;stroke:#000000;stroke-width:0.3;stroke-dasharray:none;stroke-opacity:1"
       d="M 86.561768,89.003044 C 85.890858,72.661692 104.67089,80.53199 104.77334,67.711578"
       id="path8738" />
    <path
       style="fill:#ffffff;fill-opacity:0;stroke:#000000;stroke-width:0.3;stroke-dasharray:none;stroke-opacity:1"
       d="M 123.03736,89.003044 C 123.70827,72.661692 104.92824,80.53199 104.82579,67.711578"
       id="path8744" />
    <path
       style="fill:#ffffff;fill-opacity:0;stroke:#000000;stroke-width:0.3;stroke-dasharray:none;stroke-opacity:1"
       d="m 86.766675,177.04017 c -0.67091,16.34135 18.109125,8.47105 18.211575,21.29146"
       id="path8746" />
    <path
       style="fill:#ffffff;fill-opacity:0;stroke:#000000;stroke-width:0.3;stroke-dasharray:none;stroke-opacity:1"
       d="m 123.24227,177.04017 c 0.67091,16.34135 -18.10912,8.47105 -18.21157,21.29146"
       id="path8748" />
    <path
       style="fill:#ffffff;fill-opacity:0;stroke:#000000;stroke-width:0.3;stroke-dasharray:none;stroke-opacity:1"
       d="m 148.89432,114.70757 c 16.34135,-0.67091 8.47105,18.10912 21.29146,18.21157"
       id="path8758" />
    <path
       style="fill:#ffffff;fill-opacity:0;stroke:#000000;stroke-width:0.3;stroke-dasharray:none;stroke-opacity:1"
       d="m 148.95156,151.19745 c 16.34135,0.67091 8.47105,-18.10912 21.29146,-18.21157"
       id="path8760" />
    <path
       style="fill:#ffffff;fill-opacity:0;stroke:#000000;stroke-width:0.3;stroke-dasharray:none;stroke-opacity:1"
       d="m 60.857288,114.91249 c -16.34136,-0.67091 -8.47106,18.10912 -21.291468,18.21157"
       id="path8762" />
    <path
       style="fill:#ffffff;fill-opacity:0;stroke:#000000;stroke-width:0.3;stroke-dasharray:none;stroke-opacity:1"
       d="M 60.800048,151.40237 C 44.458688,152.07328 52.328988,133.29325 39.50858,133.1908"
       id="path8764" />
    <path
       style="fill:#ffffff;fill-opacity:0;stroke:#000000;stroke-width:0.3;stroke-dasharray:none;stroke-opacity:1"
       d="m 123.04062,88.91957 c 11.07558,-12.034184 18.79792,6.807172 27.93194,-2.189659"
       id="path8766" />
    <path
       style="fill:#ffffff;fill-opacity:0;stroke:#000000;stroke-width:0.3;stroke-dasharray:none;stroke-opacity:1"
       d="m 148.8437,114.70077 c 12.02478,-11.08578 -6.82311,-18.792131 2.16597,-27.933787"
       id="path8768" />
    <path
       style="fill:#ffffff;fill-opacity:0;stroke:#000000;stroke-width:0.3;stroke-dasharray:none;stroke-opacity:1"
       d="m 60.960333,151.34244 c -12.024784,11.08578 6.823118,18.79213 -2.165962,27.93379"
       id="path8770" />
    <path
       style="fill:#ffffff;fill-opacity:0;stroke:#000000;stroke-width:0.3;stroke-dasharray:none;stroke-opacity:1"
       d="M 86.763409,177.12364 C 75.687837,189.15782 67.965502,170.31647 58.831475,179.3133"
       id="path8772" />
    <path
       style="fill:#ffffff;fill-opacity:0;stroke:#000000;stroke-width:0.3;stroke-dasharray:none;stroke-opacity:1"
       d="M 60.846582,114.77011 C 48.840801,103.66376 67.701872,95.989698 58.728462,86.832658"
       id="path8774" />
    <path
       style="fill:#ffffff;fill-opacity:0;stroke:#000000;stroke-width:0.3;stroke-dasharray:none;stroke-opacity:1"
       d="M 86.693776,89.03315 C 75.638831,76.980013 67.884235,95.808113 58.765629,86.79565"
       id="path8776" />
    <path
       style="fill:#ffffff;fill-opacity:0;stroke:#000000;stroke-width:0.3;stroke-dasharray:none;stroke-opacity:1"
       d="m 123.11026,177.01006 c 11.05495,12.05314 18.80955,-6.77497 27.92815,2.2375"
       id="path8778" />
    <path
       style="fill:#ffffff;fill-opacity:0;stroke:#000000;stroke-width:0.3;stroke-dasharray:none;stroke-opacity:1"
       d="m 148.95746,151.2731 c 12.00578,11.10635 -6.85529,18.78041 2.11812,27.93745"
       id="path8780" />
  </g>
</svg>
